<svg width="24" height="23" viewBox="0 0 24 23" fill="none" xmlns="http://www.w3.org/2000/svg">
<path d="M21 22.3714H3C2.31802 22.3714 1.66396 22.1005 1.18173 21.6183C0.69949 21.136 0.428572 20.482 0.428572 19.8V10.44C0.148799 10.0182 -0.000284187 9.52327 4.06698e-07 9.01714V6.85714C4.06698e-07 6.17516 0.270918 5.5211 0.753155 5.03887C1.23539 4.55663 1.88944 4.28571 2.57143 4.28571H6V2.57143C6 1.88944 6.27092 1.23539 6.75315 0.753154C7.23539 0.270918 7.88944 0 8.57143 0H15.4286C16.1106 0 16.7646 0.270918 17.2468 0.753154C17.7291 1.23539 18 1.88944 18 2.57143V4.28571H21.4286C22.1106 4.28571 22.7646 4.55663 23.2468 5.03887C23.7291 5.5211 24 6.17516 24 6.85714V9.01714C24.0003 9.52327 23.8512 10.0182 23.5714 10.44V19.8C23.5714 20.482 23.3005 21.136 22.8183 21.6183C22.336 22.1005 21.682 22.3714 21 22.3714ZM2.14286 11.5714V19.8C2.14286 20.0273 2.23316 20.2453 2.39391 20.4061C2.55465 20.5668 2.77267 20.6571 3 20.6571H21C21.2273 20.6571 21.4453 20.5668 21.6061 20.4061C21.7668 20.2453 21.8571 20.0273 21.8571 19.8V11.5714L14.5714 13.8171V14.5714C14.5714 15.2534 14.3005 15.9075 13.8183 16.3897C13.336 16.8719 12.682 17.1429 12 17.1429C11.318 17.1429 10.664 16.8719 10.1817 16.3897C9.69949 15.9075 9.42857 15.2534 9.42857 14.5714V13.8171L2.14286 11.5714ZM11.1429 13.2V14.5714C11.1429 14.7988 11.2332 15.0168 11.3939 15.1775C11.5547 15.3383 11.7727 15.4286 12 15.4286C12.2273 15.4286 12.4453 15.3383 12.6061 15.1775C12.7668 15.0168 12.8571 14.7988 12.8571 14.5714V12H11.1429V13.2ZM2.57143 6C2.3441 6 2.12608 6.09031 1.96534 6.25105C1.80459 6.4118 1.71429 6.62981 1.71429 6.85714V9.01714C1.70563 9.20621 1.7598 9.39283 1.86833 9.54788C1.97687 9.70293 2.13368 9.8177 2.31429 9.87429L9.42857 12V11.1429C9.42857 10.9155 9.51888 10.6975 9.67962 10.5368C9.84037 10.376 10.0584 10.2857 10.2857 10.2857H13.7143C13.9416 10.2857 14.1596 10.376 14.3204 10.5368C14.4811 10.6975 14.5714 10.9155 14.5714 11.1429V12L21.6857 9.80571C21.8663 9.74913 22.0231 9.63436 22.1317 9.47931C22.2402 9.32426 22.2944 9.13764 22.2857 8.94857V6.85714C22.2857 6.62981 22.1954 6.4118 22.0347 6.25105C21.8739 6.09031 21.6559 6 21.4286 6H2.57143ZM7.71429 4.28571H16.2857V2.57143C16.2857 2.3441 16.1954 2.12608 16.0347 1.96534C15.8739 1.80459 15.6559 1.71429 15.4286 1.71429H8.57143C8.3441 1.71429 8.12608 1.80459 7.96534 1.96534C7.80459 2.12608 7.71429 2.3441 7.71429 2.57143V4.28571Z" fill="#E8543E"/>
</svg>
