<svg width="20" height="27" viewBox="0 0 20 27" fill="none" xmlns="http://www.w3.org/2000/svg">
<path d="M16.7274 16.5705C17.2284 16.3399 17.739 16.0492 18.0994 15.5515C18.5495 14.9301 18.6173 14.1813 18.6772 13.5207C18.7104 13.1549 18.7416 12.8092 18.8307 12.5337C18.9131 12.2789 19.0848 11.9924 19.2666 11.6891C20.2452 10.1694 20.2437 9.14997 19.2666 7.63232C19.0848 7.32904 18.9131 7.04256 18.8307 6.78771C18.7416 6.51219 18.7104 6.16654 18.6772 5.80069C18.6174 5.14009 18.5495 4.39134 18.0994 3.76996C17.6448 3.14228 16.9514 2.84346 16.3396 2.57987C16.0057 2.43596 15.6902 2.3 15.4621 2.1331C15.2389 1.96991 15.0165 1.71351 14.7811 1.44206C14.3419 0.93561 13.8441 0.361618 13.0976 0.118028C12.3782 -0.116725 11.6496 0.0472354 11.0068 0.19187C10.6429 0.273721 10.2991 0.351025 10 0.351025C9.70086 0.351025 9.35713 0.273721 8.99324 0.19187C8.35047 0.047287 7.62187 -0.116725 6.90237 0.11808C5.81417 0.46109 5.31061 1.5064 4.53793 2.1331C4.30979 2.29995 3.99427 2.4359 3.66036 2.57987C3.04859 2.84351 2.35518 3.14228 1.90061 3.76991C1.45048 4.39129 1.38269 5.14009 1.3228 5.80069C1.28962 6.16654 1.25836 6.51219 1.16927 6.78771C1.0869 7.04256 0.915245 7.32904 0.733405 7.63232C-0.245243 9.15199 -0.243693 10.1715 0.733405 11.6891C0.915245 11.9924 1.0869 12.2789 1.16927 12.5337C1.25836 12.8092 1.28962 13.1549 1.3228 13.5207C1.38263 14.1813 1.45048 14.9301 1.90056 15.5514C2.26103 16.0492 2.77162 16.3399 3.2726 16.5705L0.395873 22.7397C0.270822 23.0078 0.309319 23.3237 0.495138 23.554C0.680905 23.7842 0.981491 23.8885 1.27004 23.8231L4.48564 23.0928L5.99322 26.0256C6.12824 26.2887 6.40258 26.4521 6.69753 26.4462C6.99331 26.4405 7.26005 26.2669 7.3851 25.9988L10 20.3911L12.6149 25.9988C12.74 26.2669 13.0067 26.4405 13.3025 26.4462C13.5975 26.4521 13.8718 26.2887 14.0068 26.0256L15.5144 23.0928L18.73 23.8231C19.0188 23.8885 19.3191 23.7842 19.5049 23.554C19.6907 23.3237 19.7292 23.0078 19.6042 22.7397L16.7274 16.5705ZM3.15602 14.6421C2.95594 14.3658 2.91259 13.8874 2.8667 13.3809C2.82733 12.9464 2.78661 12.4971 2.6444 12.0571C2.50762 11.6338 2.2816 11.2568 2.06312 10.8922C1.38051 9.78685 1.38108 9.53401 2.06312 8.42933C2.28165 8.06477 2.50762 7.68776 2.6444 7.26445C2.78661 6.82435 2.82733 6.37509 2.8667 5.94067C2.91259 5.43412 2.95594 4.95567 3.15608 4.67942C3.36044 4.39723 3.80412 4.20604 4.27383 4.00363C4.67203 3.83202 5.08381 3.65458 5.45302 3.38463C5.81758 3.11805 6.10861 2.78248 6.39007 2.45787C6.72704 2.06923 7.0454 1.70219 7.38324 1.59197C7.79462 1.48278 8.18191 1.60933 8.65307 1.70441C9.68112 1.96118 10.3202 1.96082 11.347 1.70441C11.8386 1.59388 12.3027 1.4896 12.6168 1.59197C12.9546 1.70219 13.2729 2.06923 13.61 2.45792C13.8914 2.78243 14.1825 3.11805 14.547 3.38469C14.9163 3.65468 15.328 3.83208 15.7262 4.00368C16.1959 4.20609 16.6396 4.39728 16.844 4.67953C17.0441 4.95577 17.0875 5.43417 17.1333 5.94073C17.1727 6.37515 17.2134 6.82445 17.3556 7.2645C17.4924 7.68781 17.7185 8.06483 17.9369 8.42938C18.6195 9.53474 18.619 9.78758 17.9369 10.8923C17.7184 11.2568 17.4924 11.6338 17.3556 12.0571C17.2134 12.4972 17.1727 12.9465 17.1333 13.3809C17.0328 14.6613 16.9073 14.823 15.7263 15.318C15.3281 15.4896 14.9163 15.667 14.5471 15.937C14.1825 16.2035 13.8915 16.5392 13.61 16.8637C12.7813 17.8344 12.5964 17.9164 11.3471 17.6172C10.319 17.3604 9.67999 17.3608 8.65307 17.6172C8.16155 17.7277 7.69737 17.832 7.3833 17.7296C7.0455 17.6194 6.72719 17.2524 6.39013 16.8637C6.10866 16.5392 5.81763 16.2035 5.45307 15.9369C5.08381 15.6669 4.67208 15.4895 4.27388 15.3179C3.80411 15.1156 3.36044 14.9244 3.15602 14.6421ZM6.6487 23.9099L5.5896 21.8495C5.42853 21.5331 5.06687 21.3695 4.72856 21.448L2.46943 21.961L4.65208 17.2803C4.83733 17.4402 5.02367 17.6541 5.21894 17.8793C5.65812 18.3858 6.15594 18.9598 6.90237 19.2034C7.54436 19.4171 8.23984 19.3004 8.86437 19.1583L6.6487 23.9099ZM15.2715 21.448C14.9262 21.3696 14.5722 21.5349 14.4105 21.8495L13.3514 23.9099L11.1357 19.1584C11.7461 19.2941 12.4258 19.4225 13.0977 19.2034C13.8441 18.9598 14.3419 18.3858 14.7811 17.8794C14.9763 17.6542 15.1627 17.4402 15.3479 17.2804L17.5306 21.9611L15.2715 21.448Z" fill="white"/>
<path d="M10.0001 15.1254C13.005 15.1254 15.4497 12.674 15.4497 9.66075C15.1502 2.41109 4.84888 2.4132 4.55042 9.6608C4.55047 12.674 6.99515 15.1254 10.0001 15.1254ZM10.0001 5.74632C12.1502 5.74632 13.8995 7.50229 13.8995 9.66075C13.6851 14.8539 6.31425 14.8524 6.10063 9.6607C6.10068 7.50234 7.84994 5.74632 10.0001 5.74632Z" fill="white"/>
</svg>
