<svg width="50" height="50" viewBox="0 0 50 50" fill="none" xmlns="http://www.w3.org/2000/svg">
<path d="M48.4375 31.2495C47.575 31.2495 46.875 31.9495 46.875 32.812V43.7495H3.125V24.9995H20.3125C21.175 24.9995 21.875 24.2995 21.875 23.437C21.875 22.5745 21.175 21.8745 20.3125 21.8745H3.125V15.6245H20.3125C21.175 15.6245 21.875 14.9245 21.875 14.062C21.875 13.1995 21.175 12.4995 20.3125 12.4995H3.125C1.4 12.4995 0 13.8995 0 15.6245V43.7495C0 45.4745 1.4 46.8745 3.125 46.8745H46.875C48.6 46.8745 50 45.4745 50 43.7495V32.812C50 31.9495 49.3 31.2495 48.4375 31.2495Z" fill="#6440FB"/>
<path d="M14.0625 31.2495H7.8125C6.95 31.2495 6.25 31.9495 6.25 32.812C6.25 33.6745 6.95 34.3745 7.8125 34.3745H14.0625C14.925 34.3745 15.625 33.6745 15.625 32.812C15.625 31.9495 14.925 31.2495 14.0625 31.2495Z" fill="#6440FB"/>
<path d="M49.0531 7.93721L38.1156 3.24971C37.7187 3.08408 37.2781 3.08408 36.8813 3.24971L25.9438 7.93721C25.3719 8.18408 25 8.74971 25 9.37471V15.6247C25 24.2216 28.1781 29.2466 36.7219 34.1685C36.9625 34.306 37.2312 34.3747 37.5 34.3747C37.7688 34.3747 38.0375 34.306 38.2781 34.1685C46.8219 29.2591 50 24.2341 50 15.6247V9.37471C50 8.74971 49.6281 8.18408 49.0531 7.93721ZM46.875 15.6247C46.875 22.8403 44.4875 26.8122 37.5 30.9997C30.5125 26.8028 28.125 22.831 28.125 15.6247V10.406L37.5 6.38721L46.875 10.406V15.6247Z" fill="#6440FB"/>
<path d="M43.1655 12.8404C42.4936 12.3091 41.5124 12.4122 40.9686 13.0841L36.0561 19.2279L34.1124 16.3216C33.628 15.6029 32.6561 15.4122 31.9468 15.8872C31.2311 16.3654 31.0343 17.3372 31.5124 18.0529L34.6374 22.7404C34.9155 23.156 35.3718 23.4122 35.8718 23.4372C35.8936 23.4372 35.9186 23.4372 35.9374 23.4372C36.4093 23.4372 36.8593 23.2247 37.1593 22.8497L43.4093 15.0372C43.9468 14.3622 43.8405 13.381 43.1655 12.8404Z" fill="#6440FB"/>
</svg>
