<svg width="50" height="50" viewBox="0 0 50 50" fill="none" xmlns="http://www.w3.org/2000/svg">
<g clip-path="url(#clip0_197_21767)">
<path d="M33.1162 20.0413V10.4153L41.4552 15.2197L33.1162 20.0413ZM35.2095 14.0358V16.438L37.2857 15.2369L35.2095 14.0358Z" fill="#6440FB"/>
<path d="M44.8013 28.1229H46.8774V38.5381H44.8013V28.1229Z" fill="#6440FB"/>
<path d="M5.2159 38.5382H3.12256V15.6315C3.12256 13.9156 4.52959 12.5087 6.2454 12.5087H22.9064V14.5848H6.26257C5.69636 14.5848 5.2159 15.0481 5.2159 15.6315V38.5382Z" fill="#6440FB"/>
<path d="M46.8772 45.8305H3.12284C1.40703 45.8305 0 44.4235 0 42.7077V39.5848H50V42.7077C50 44.4235 48.593 45.8305 46.8772 45.8305ZM2.09334 41.661V42.7077C2.09334 43.2739 2.55663 43.7544 3.14001 43.7544H46.8943C47.4605 43.7544 47.941 43.2911 47.941 42.7077V41.661H2.09334Z" fill="#6440FB"/>
<path d="M23.9703 38.5381H21.8942V36.462C21.8942 34.7461 20.4871 33.3391 18.7713 33.3391H11.4618C9.7459 33.3391 8.33895 34.7462 8.33895 36.462V38.5381H6.2627V36.462C6.2627 33.5965 8.59622 31.2458 11.4789 31.2458H18.7712C21.6367 31.2458 23.9874 33.5793 23.9874 36.462V38.5381H23.9703Z" fill="#6440FB"/>
<path d="M15.1169 30.2162C12.526 30.2162 10.4326 28.1057 10.4326 25.5319C10.4326 22.9581 12.526 20.8304 15.1169 20.8304C17.7079 20.8304 19.8012 22.9409 19.8012 25.5147C19.8012 28.0885 17.6907 30.2162 15.1169 30.2162ZM15.1169 22.9239C13.6756 22.9239 12.5088 24.0906 12.5088 25.532C12.5088 26.9733 13.6756 28.1401 15.1169 28.1401C16.5583 28.1401 17.7251 26.9734 17.7251 25.532C17.7251 24.0906 16.5411 22.9239 15.1169 22.9239Z" fill="#6440FB"/>
<path d="M27.0933 33.7681V26.0468H22.9238V4.16956H50V26.0467H34.8147L27.0933 33.7681ZM25 23.9534H29.1695V28.7234L33.9396 23.9534H47.9067V6.24573H25V23.9534Z" fill="#6440FB"/>
</g>
<defs>
<clipPath id="clip0_197_21767">
<rect width="50" height="50" fill="white"/>
</clipPath>
</defs>
</svg>
