<svg width="90" height="90" viewBox="0 0 90 90" fill="none" xmlns="http://www.w3.org/2000/svg">
<path d="M56.25 26.7188C53.1906 26.7188 50.1999 27.626 47.656 29.3257C45.1122 31.0254 43.1295 33.4413 41.9587 36.2679C40.788 39.0944 40.4816 42.2047 41.0785 45.2053C41.6753 48.2059 43.1486 50.9622 45.3119 53.1255C47.4753 55.2889 50.2316 56.7621 53.2322 57.359C56.2328 57.9559 59.3431 57.6495 62.1696 56.4787C64.9962 55.308 67.4121 53.3253 69.1118 50.7815C70.8115 48.2376 71.7188 45.2469 71.7188 42.1875C71.7139 38.0864 70.0826 34.1547 67.1827 31.2548C64.2828 28.3549 60.3511 26.7236 56.25 26.7188ZM65.7324 40.5127L61.2099 43.7991L62.9367 49.1175C63.0281 49.3999 63.0278 49.7039 62.9358 49.9861C62.8438 50.2683 62.665 50.5141 62.4248 50.6884C62.1846 50.8628 61.8954 50.9566 61.5986 50.9566C61.3018 50.9566 61.0127 50.8626 60.7725 50.6883L56.25 47.3991L51.7275 50.6855C51.4874 50.8598 51.1982 50.9538 50.9014 50.9538C50.6046 50.9538 50.3154 50.86 50.0752 50.6856C49.8351 50.5113 49.6562 50.2654 49.5642 49.9833C49.4723 49.7011 49.4719 49.3971 49.5633 49.1147L51.2902 43.7962L46.7677 40.5098C46.5286 40.3349 46.3509 40.0889 46.2599 39.807C46.1689 39.525 46.1692 39.2216 46.2609 38.9399C46.3526 38.6581 46.5309 38.4126 46.7703 38.2382C47.0098 38.0638 47.2983 37.9695 47.5945 37.9687H53.1844L54.9127 32.6531C55.0051 32.3718 55.1841 32.1268 55.424 31.9531C55.6639 31.7795 55.9524 31.686 56.2486 31.686C56.5448 31.686 56.8333 31.7795 57.0732 31.9531C57.3131 32.1268 57.4921 32.3718 57.5845 32.6531L59.3156 37.9687H64.9055C65.2017 37.9695 65.4902 38.0638 65.7297 38.2382C65.9692 38.4126 66.1475 38.6581 66.2391 38.9399C66.3308 39.2216 66.3312 39.525 66.2402 39.807C66.1491 40.0889 65.9714 40.3349 65.7324 40.5098V40.5127Z" fill="#C4A2FC"/>
<path d="M56.2498 18.2813C51.6964 18.279 47.2372 19.5779 43.3973 22.0251C39.5574 24.4723 36.4968 27.9657 34.5759 32.0941C32.6549 36.2225 31.9537 40.8138 32.5548 45.3273C33.1559 49.8409 35.0342 54.0887 37.9686 57.5705V81.5625C37.9686 81.8406 38.0512 82.1124 38.2057 82.3436C38.3602 82.5748 38.5798 82.755 38.8367 82.8614C39.0937 82.9678 39.3764 82.9957 39.6491 82.9415C39.9218 82.8872 40.1724 82.7533 40.3691 82.5567L43.5936 79.3308V87.1875C43.5936 87.4656 43.6762 87.7374 43.8307 87.9686C43.9852 88.1998 44.2048 88.38 44.4617 88.4864C44.7187 88.5928 45.0014 88.6207 45.2741 88.5665C45.5468 88.5122 45.7974 88.3783 45.9941 88.1817L56.2498 77.9245L66.5056 88.1789C66.7021 88.3754 66.9524 88.5092 67.2249 88.5635C67.4974 88.6178 67.7798 88.5902 68.0367 88.4842C68.2935 88.3781 68.5131 88.1983 68.6678 87.9676C68.8226 87.7368 68.9055 87.4654 68.9061 87.1875V79.3308L72.1306 82.5539C72.3271 82.7504 72.5774 82.8842 72.8499 82.9385C73.1224 82.9928 73.4048 82.9652 73.6617 82.8592C73.9185 82.7531 74.1381 82.5733 74.2928 82.3426C74.4476 82.1118 74.5305 81.8404 74.5311 81.5625V57.5705C77.4655 54.0887 79.3438 49.8409 79.9449 45.3273C80.546 40.8138 79.8447 36.2225 77.9238 32.0941C76.0029 27.9657 72.9422 24.4723 69.1024 22.0251C65.2625 19.5779 60.8032 18.279 56.2498 18.2813ZM43.5936 75.3525L40.7811 78.165V60.4195C41.6821 61.1525 42.6209 61.8378 43.5936 62.4727V75.3525ZM71.7186 78.165L68.9061 75.3525V62.4727C69.8816 61.842 70.8206 61.1565 71.7186 60.4195V78.165ZM56.2498 60.4688C52.6341 60.4688 49.0997 59.3966 46.0933 57.3878C43.087 55.379 40.7438 52.5239 39.3602 49.1834C37.9765 45.843 37.6145 42.1672 38.3199 38.621C39.0252 35.0748 40.7664 31.8174 43.323 29.2607C45.8797 26.704 49.1371 24.9629 52.6833 24.2575C56.2296 23.5521 59.9053 23.9142 63.2458 25.2978C66.5862 26.6815 69.4414 29.0246 71.4501 32.031C73.4589 35.0373 74.5311 38.5718 74.5311 42.1875C74.5255 47.0343 72.5977 51.6809 69.1705 55.1081C65.7433 58.5353 61.0966 60.4632 56.2498 60.4688Z" fill="#C4A2FC"/>
<path d="M28.125 15.4688H39.375C39.748 15.4688 40.1056 15.3206 40.3694 15.0569C40.6331 14.7931 40.7812 14.4355 40.7812 14.0625C40.7812 13.6895 40.6331 13.3319 40.3694 13.0681C40.1056 12.8044 39.748 12.6562 39.375 12.6562H28.125C27.752 12.6562 27.3944 12.8044 27.1306 13.0681C26.8669 13.3319 26.7188 13.6895 26.7188 14.0625C26.7188 14.4355 26.8669 14.7931 27.1306 15.0569C27.3944 15.3206 27.752 15.4688 28.125 15.4688Z" fill="#151A6A"/>
<path d="M57.6562 39.5016V5.625C57.6562 4.50612 57.2118 3.43306 56.4206 2.64189C55.6294 1.85072 54.5564 1.40625 53.4375 1.40625H14.0625C12.9436 1.40625 11.8706 1.85072 11.0794 2.64189C10.2882 3.43306 9.84375 4.50612 9.84375 5.625V67.5C9.84375 68.6189 10.2882 69.6919 11.0794 70.4831C11.8706 71.2743 12.9436 71.7188 14.0625 71.7188H52.0312C52.3978 71.7058 52.7473 71.561 53.0156 71.3109L56.25 68.0822L59.4745 71.3067C59.6712 71.5033 59.9217 71.6372 60.1945 71.6914C60.4672 71.7457 60.7499 71.7178 61.0069 71.6114C61.2638 71.505 61.4834 71.3248 61.6379 71.0936C61.7924 70.8624 61.8749 70.5906 61.875 70.3125V54.0844C63.0589 53.0276 63.92 51.6577 64.359 50.1326C64.7979 48.6076 64.7968 46.9895 64.3558 45.4651C63.9148 43.9406 63.0518 42.5719 61.8664 41.5167C60.681 40.4616 59.2215 39.763 57.6562 39.5016ZM50.625 68.9062H14.0625C13.6895 68.9062 13.3319 68.7581 13.0681 68.4944C12.8044 68.2306 12.6562 67.873 12.6562 67.5V5.625C12.6562 5.25204 12.8044 4.89435 13.0681 4.63063C13.3319 4.36691 13.6895 4.21875 14.0625 4.21875H53.4375C53.8105 4.21875 54.1681 4.36691 54.4319 4.63063C54.6956 4.89435 54.8438 5.25204 54.8438 5.625V39.4917C53.2775 39.7565 51.8178 40.4581 50.6326 41.5157C49.4474 42.5733 48.5848 43.944 48.1441 45.4701C47.7033 46.9962 47.7023 48.6158 48.1412 50.1424C48.5801 51.6691 49.4411 53.0408 50.625 54.0998V68.9062ZM59.0625 66.9178L57.2442 65.0995C56.9805 64.8359 56.6229 64.6878 56.25 64.6878C55.8771 64.6878 55.5195 64.8359 55.2558 65.0995L53.4375 66.9178V55.7747C55.2589 56.4085 57.2411 56.4085 59.0625 55.7747V66.9178ZM59.625 52.3125C58.647 53.0272 57.467 53.4124 56.2556 53.4124C55.0443 53.4124 53.8643 53.0272 52.8863 52.3125C51.9418 51.6041 51.2441 50.6166 50.8921 49.4897C50.5401 48.3628 50.5516 47.1537 50.9249 46.0337C51.2982 44.9137 52.0145 43.9396 52.9723 43.2493C53.93 42.559 55.0807 42.1875 56.2612 42.1875C57.4418 42.1875 58.5925 42.559 59.5502 43.2493C60.508 43.9396 61.2243 44.9137 61.5976 46.0337C61.9709 47.1537 61.9824 48.3628 61.6304 49.4897C61.2784 50.6166 60.5807 51.6041 59.6362 52.3125H59.625Z" fill="#151A6A"/>
<path d="M45 23.9062H22.5C22.127 23.9062 21.7694 24.0544 21.5056 24.3181C21.2419 24.5819 21.0938 24.9395 21.0938 25.3125C21.0938 25.6855 21.2419 26.0431 21.5056 26.3069C21.7694 26.5706 22.127 26.7188 22.5 26.7188H45C45.373 26.7188 45.7306 26.5706 45.9944 26.3069C46.2581 26.0431 46.4062 25.6855 46.4062 25.3125C46.4062 24.9395 46.2581 24.5819 45.9944 24.3181C45.7306 24.0544 45.373 23.9062 45 23.9062Z" fill="#151A6A"/>
<path d="M45 33.75H22.5C22.127 33.75 21.7694 33.8982 21.5056 34.1619C21.2419 34.4256 21.0938 34.7833 21.0938 35.1562C21.0938 35.5292 21.2419 35.8869 21.5056 36.1506C21.7694 36.4143 22.127 36.5625 22.5 36.5625H45C45.373 36.5625 45.7306 36.4143 45.9944 36.1506C46.2581 35.8869 46.4062 35.5292 46.4062 35.1562C46.4062 34.7833 46.2581 34.4256 45.9944 34.1619C45.7306 33.8982 45.373 33.75 45 33.75Z" fill="#151A6A"/>
<path d="M45 43.5938H22.5C22.127 43.5938 21.7694 43.7419 21.5056 44.0056C21.2419 44.2694 21.0938 44.627 21.0938 45C21.0938 45.373 21.2419 45.7306 21.5056 45.9944C21.7694 46.2581 22.127 46.4062 22.5 46.4062H45C45.373 46.4062 45.7306 46.2581 45.9944 45.9944C46.2581 45.7306 46.4062 45.373 46.4062 45C46.4062 44.627 46.2581 44.2694 45.9944 44.0056C45.7306 43.7419 45.373 43.5938 45 43.5938Z" fill="#151A6A"/>
</svg>
