<svg width="90" height="90" viewBox="0 0 90 90" fill="none" xmlns="http://www.w3.org/2000/svg">
<path d="M61.875 35.1562H39.375C38.5983 35.1562 37.9688 35.7858 37.9688 36.5625V87.1875C37.9688 87.9641 38.5983 88.5938 39.375 88.5938H61.875C62.6517 88.5938 63.2812 87.9641 63.2812 87.1875V36.5625C63.2812 35.7858 62.6517 35.1562 61.875 35.1562Z" fill="#C4A2FC"/>
<path d="M46.7373 27.1744L45.6657 30.5058C45.5742 30.7887 45.5748 31.0934 45.6673 31.376C45.7598 31.6586 45.9395 31.9046 46.1806 32.0786C46.4217 32.2527 46.7118 32.3459 47.0091 32.3447C47.3065 32.3436 47.5958 32.2482 47.8356 32.0723L50.6256 30.0262L53.4156 32.0723C53.6553 32.2482 53.9447 32.3436 54.242 32.3447C54.5394 32.3459 54.8295 32.2527 55.0706 32.0786C55.3117 31.9046 55.4914 31.6586 55.5839 31.376C55.6764 31.0934 55.6769 30.7887 55.5854 30.5058L54.5139 27.1744L57.3179 25.1184C57.5568 24.943 57.7341 24.6966 57.8246 24.4144C57.9151 24.1322 57.9142 23.8286 57.8218 23.547C57.7295 23.2653 57.5506 23.0201 57.3106 22.8462C57.0706 22.6723 56.7818 22.5787 56.4854 22.5788H53.0331L51.9643 19.2558C51.8719 18.9744 51.6929 18.7295 51.453 18.5558C51.2131 18.3821 50.9245 18.2886 50.6284 18.2886C50.3322 18.2886 50.0437 18.3821 49.8038 18.5558C49.5639 18.7295 49.3849 18.9744 49.2925 19.2558L48.2237 22.5788H44.7657C44.4694 22.5787 44.1806 22.6723 43.9406 22.8462C43.7006 23.0201 43.5217 23.2653 43.4293 23.547C43.337 23.8286 43.336 24.1322 43.4265 24.4144C43.517 24.6966 43.6944 24.943 43.9332 25.1184L46.7373 27.1744Z" fill="#C4A2FC"/>
<path d="M33.75 63.2812H16.875C16.0983 63.2812 15.4688 63.9108 15.4688 64.6875V87.1875C15.4688 87.9642 16.0983 88.5938 16.875 88.5938H33.75C34.5267 88.5938 35.1562 87.9642 35.1562 87.1875V64.6875C35.1562 63.9108 34.5267 63.2812 33.75 63.2812Z" fill="#C4A2FC"/>
<path d="M84.375 52.0312H67.5C66.7233 52.0312 66.0938 52.6608 66.0938 53.4375V87.1875C66.0938 87.9641 66.7233 88.5938 67.5 88.5938H84.375C85.1517 88.5938 85.7812 87.9641 85.7812 87.1875V53.4375C85.7812 52.6608 85.1517 52.0312 84.375 52.0312Z" fill="#C4A2FC"/>
<path d="M43.5938 19.6875C42.5807 19.6925 41.5883 19.974 40.7236 20.5017C40.6261 19.5367 40.2795 18.6136 39.718 17.8228C39.1564 17.0319 38.399 16.4005 37.5201 15.9904C36.6412 15.5803 35.6707 15.4055 34.7039 15.4831C33.7371 15.5608 32.8071 15.8883 32.0048 16.4334C31.7396 15.6495 31.3025 14.9347 30.7255 14.3413C30.1486 13.748 29.4463 13.291 28.67 13.004C27.8938 12.7169 27.0632 12.6068 26.239 12.682C25.4148 12.7571 24.6178 13.0154 23.9063 13.4381V7.03125C23.9063 5.53941 23.3136 4.10867 22.2587 3.05377C21.2038 1.99888 19.7731 1.40625 18.2813 1.40625C16.7894 1.40625 15.3587 1.99888 14.3038 3.05377C13.2489 4.10867 12.6563 5.53941 12.6563 7.03125V24.6094H9.84375C8.47306 24.6235 7.15263 25.1274 6.12103 26.0301C5.08942 26.9327 4.41469 28.1746 4.21875 29.5312V38.5172C4.21745 40.7534 4.7006 42.9633 5.63497 44.995C6.56935 47.0266 7.93276 48.8317 9.63141 50.2861C11.0219 51.4767 12.138 52.9544 12.903 54.6175C13.6679 56.2806 14.0635 58.0897 14.0625 59.9203V60.6684C12.7383 61.0092 11.5841 61.8216 10.8164 62.9531C10.0487 64.0846 9.72031 65.4573 9.89292 66.8137C10.0655 68.1701 10.7273 69.4168 11.7539 70.3199C12.7805 71.2231 14.1014 71.7205 15.4688 71.7188H39.375C40.7423 71.7205 42.0633 71.2231 43.0899 70.3199C44.1165 69.4168 44.7782 68.1701 44.9508 66.8137C45.1234 65.4573 44.7951 64.0846 44.0274 62.9531C43.2597 61.8216 42.1054 61.0092 40.7813 60.6684V59.4028C40.792 55.9589 42.1598 52.658 44.588 50.2158C46.0567 48.7484 47.2217 47.0058 48.0163 45.0877C48.8109 43.1696 49.2195 41.1137 49.2188 39.0375V25.3125C49.2188 23.8207 48.6261 22.3899 47.5712 21.335C46.5163 20.2801 45.0856 19.6875 43.5938 19.6875ZM32.3438 21.0938C32.3438 20.3478 32.6401 19.6325 33.1675 19.105C33.695 18.5776 34.4103 18.2812 35.1563 18.2812C35.9022 18.2812 36.6175 18.5776 37.145 19.105C37.6724 19.6325 37.9688 20.3478 37.9688 21.0938V28.125C37.9688 28.8709 37.6724 29.5863 37.145 30.1137C36.6175 30.6412 35.9022 30.9375 35.1563 30.9375C34.4103 30.9375 33.695 30.6412 33.1675 30.1137C32.6401 29.5863 32.3438 28.8709 32.3438 28.125V21.0938ZM23.9063 18.2812C23.9063 17.5353 24.2026 16.82 24.73 16.2925C25.2575 15.7651 25.9728 15.4688 26.7188 15.4688C27.4647 15.4688 28.18 15.7651 28.7075 16.2925C29.2349 16.82 29.5313 17.5353 29.5313 18.2812V25.8455C28.5346 25.0446 27.2942 24.6085 26.0156 24.6094H23.9063V18.2812ZM15.4688 7.03125C15.4688 6.28533 15.7651 5.56996 16.2925 5.04251C16.82 4.51507 17.5353 4.21875 18.2813 4.21875C19.0272 4.21875 19.7425 4.51507 20.27 5.04251C20.7974 5.56996 21.0938 6.28533 21.0938 7.03125V24.6094H15.4688V7.03125ZM42.1875 66.0938C42.1875 66.8397 41.8912 67.555 41.3637 68.0825C40.8363 68.6099 40.1209 68.9062 39.375 68.9062H15.4688C14.7228 68.9062 14.0075 68.6099 13.48 68.0825C12.9526 67.555 12.6563 66.8397 12.6563 66.0938C12.6563 65.3478 12.9526 64.6325 13.48 64.105C14.0075 63.5776 14.7228 63.2812 15.4688 63.2812H39.375C40.1209 63.2812 40.8363 63.5776 41.3637 64.105C41.8912 64.6325 42.1875 65.3478 42.1875 66.0938ZM46.4063 39.0375C46.4065 40.7439 46.0705 42.4335 45.4173 44.0099C44.7641 45.5863 43.8066 47.0185 42.5995 48.2245C39.645 51.1949 37.9811 55.2105 37.9688 59.4V60.4688H16.875V59.9203C16.8763 57.6841 16.3932 55.4742 15.4588 53.4425C14.5244 51.4109 13.161 49.6058 11.4623 48.1514C10.0718 46.9608 8.95572 45.4831 8.1908 43.82C7.42587 42.1569 7.03029 40.3478 7.03125 38.5172V30.2344C7.03125 29.4885 7.32757 28.7731 7.85501 28.2456C8.38246 27.7182 9.09783 27.4219 9.84375 27.4219H26.0156C26.7615 27.4219 27.4769 27.7182 28.0044 28.2456C28.5318 28.7731 28.8281 29.4885 28.8281 30.2344C28.8281 30.9803 28.5318 31.6957 28.0044 32.2231C27.4769 32.7506 26.7615 33.0469 26.0156 33.0469H16.875C16.502 33.0469 16.1444 33.195 15.8806 33.4588C15.6169 33.7225 15.4688 34.0802 15.4688 34.4531C15.4688 34.8261 15.6169 35.1838 15.8806 35.4475C16.1444 35.7112 16.502 35.8594 16.875 35.8594H26.0156C27.1631 35.8563 28.2819 35.5011 29.221 34.8417C30.1601 34.1822 30.8741 33.2504 31.2666 32.1722C31.8115 32.7028 32.4595 33.116 33.1704 33.3864C33.8813 33.6568 34.6401 33.7787 35.3999 33.7444C36.1597 33.7101 36.9045 33.5205 37.5882 33.1872C38.2719 32.8539 38.88 32.384 39.375 31.8066C40.2199 32.8011 41.3902 33.4636 42.6777 33.6763C43.9652 33.889 45.2864 33.6381 46.4063 32.9681V39.0375ZM46.4063 28.125C46.4063 28.8709 46.1099 29.5863 45.5825 30.1137C45.055 30.6412 44.3397 30.9375 43.5938 30.9375C42.8478 30.9375 42.1325 30.6412 41.605 30.1137C41.0776 29.5863 40.7813 28.8709 40.7813 28.125V25.3125C40.7813 24.5666 41.0776 23.8512 41.605 23.3238C42.1325 22.7963 42.8478 22.5 43.5938 22.5C44.3397 22.5 45.055 22.7963 45.5825 23.3238C46.1099 23.8512 46.4063 24.5666 46.4063 25.3125V28.125Z" fill="#151A6A"/>
</svg>
