<svg width="90" height="90" viewBox="0 0 90 90" fill="none" xmlns="http://www.w3.org/2000/svg">
<path d="M79.4531 18.2812H26.0156C25.6427 18.2812 25.285 18.4294 25.0213 18.6931C24.7575 18.9569 24.6094 19.3145 24.6094 19.6875C24.6094 20.0605 24.7575 20.4181 25.0213 20.6819C25.285 20.9456 25.6427 21.0938 26.0156 21.0938H28.8281V68.9062C28.8292 69.561 28.9822 70.2066 29.275 70.7922C29.5678 71.3778 29.9925 71.8875 30.5156 72.2813L51.8906 88.3125C52.134 88.4951 52.4301 88.5938 52.7344 88.5938C53.0386 88.5938 53.3347 88.4951 53.5781 88.3125L74.9531 72.2813C75.4759 71.8872 75.9004 71.3775 76.1932 70.7919C76.486 70.2063 76.6391 69.5609 76.6406 68.9062V21.0938H79.4531C79.8261 21.0938 80.1838 20.9456 80.4475 20.6819C80.7112 20.4181 80.8594 20.0605 80.8594 19.6875C80.8594 19.3145 80.7112 18.9569 80.4475 18.6931C80.1838 18.4294 79.8261 18.2812 79.4531 18.2812ZM73.8281 68.9062C73.8281 69.1246 73.7773 69.3399 73.6797 69.5351C73.582 69.7304 73.4403 69.9003 73.2656 70.0312L52.7344 85.4297L32.2031 70.0312C32.0285 69.9003 31.8867 69.7304 31.7891 69.5351C31.6915 69.3399 31.6406 69.1246 31.6406 68.9062V21.0938H34.4531V66.0938C34.4542 66.7485 34.6072 67.3941 34.9 67.9797C35.1928 68.5653 35.6175 69.075 36.1406 69.4688L51.8906 81.2812C52.134 81.4638 52.4301 81.5625 52.7344 81.5625C53.0386 81.5625 53.3347 81.4638 53.5781 81.2812L69.3281 69.4688C69.8509 69.0747 70.2754 68.565 70.5682 67.9794C70.861 67.3938 71.0141 66.7484 71.0156 66.0938V21.0938H73.8281V68.9062Z" fill="#C4A2FC"/>
<path d="M49.9228 19.6256V12.6224C49.9228 11.5035 49.4783 10.4305 48.6871 9.63933C47.896 8.84816 46.8229 8.40368 45.704 8.40368H38.9203L34.1812 1.94759C34.0445 1.77871 33.8718 1.64252 33.6757 1.54897C33.4796 1.45541 33.2651 1.40686 33.0478 1.40686C32.8305 1.40686 32.616 1.45541 32.4199 1.54897C32.2238 1.64252 32.051 1.77871 31.9143 1.94759L27.1753 8.40368H20.3915C19.2726 8.40368 18.1996 8.84816 17.4084 9.63933C16.6172 10.4305 16.1728 11.5035 16.1728 12.6224V19.6256C13.9436 21.8406 12.1746 24.4746 10.9674 27.376C9.76015 30.2774 9.13867 33.389 9.13867 36.5315C9.13867 39.674 9.76015 42.7855 10.9674 45.6869C12.1746 48.5884 13.9436 51.2224 16.1728 53.4374V60.4406C16.1728 61.5594 16.6172 62.6325 17.4084 63.4237C18.1996 64.2148 19.2726 64.6593 20.3915 64.6593H27.1753L31.9143 71.1168C32.045 71.2947 32.2157 71.4393 32.4126 71.539C32.6095 71.6387 32.8271 71.6907 33.0478 71.6907C33.2685 71.6907 33.4861 71.6387 33.683 71.539C33.8799 71.4393 34.0506 71.2947 34.1812 71.1168L38.9203 64.6593H45.704C46.8229 64.6593 47.896 64.2148 48.6871 63.4237C49.4783 62.6325 49.9228 61.5594 49.9228 60.4406V53.4374C52.1511 51.2225 53.9194 48.5888 55.1261 45.6879C56.3328 42.787 56.954 39.6762 56.954 36.5343C56.954 33.3924 56.3328 30.2816 55.1261 27.3807C53.9194 24.4798 52.1511 21.8461 49.9228 19.6312V19.6256ZM18.9853 12.6224C18.9853 12.2495 19.1334 11.8918 19.3972 11.6281C19.6609 11.3643 20.0186 11.2162 20.3915 11.2162H27.8868C28.1075 11.2162 28.3251 11.1643 28.522 11.0646C28.7189 10.9649 28.8896 10.8203 29.0203 10.6424L33.0478 5.15806L37.0753 10.6424C37.2059 10.8203 37.3766 10.9649 37.5735 11.0646C37.7704 11.1643 37.988 11.2162 38.2087 11.2162H45.704C46.077 11.2162 46.4347 11.3643 46.6984 11.6281C46.9621 11.8918 47.1103 12.2495 47.1103 12.6224V17.1913C43.0227 14.2218 38.1001 12.6225 33.0478 12.6225C27.9955 12.6225 23.0728 14.2218 18.9853 17.1913V12.6224ZM47.1103 60.4349C47.1103 60.8079 46.9621 61.1656 46.6984 61.4293C46.4347 61.693 46.077 61.8412 45.704 61.8412H38.2087C37.9879 61.8413 37.7702 61.8935 37.5733 61.9934C37.3764 62.0933 37.2058 62.2382 37.0753 62.4163L33.0478 67.9007L29.0203 62.4163C28.8898 62.2382 28.7192 62.0933 28.5222 61.9934C28.3253 61.8935 28.1077 61.8413 27.8868 61.8412H20.3915C20.0186 61.8412 19.6609 61.693 19.3972 61.4293C19.1334 61.1656 18.9853 60.8079 18.9853 60.4349V55.8674C23.0731 58.8361 27.9957 60.435 33.0478 60.435C38.0999 60.435 43.0224 58.8361 47.1103 55.8674V60.4349ZM47.549 51.8568C44.0233 55.1944 39.4542 57.2136 34.6126 57.5738C29.7711 57.934 24.9535 56.613 20.9727 53.8338C16.9919 51.0546 14.0917 46.9873 12.7614 42.3182C11.4311 37.6491 11.7521 32.664 13.6702 28.2041C15.5884 23.7441 18.9863 20.0824 23.2907 17.8367C27.595 15.591 32.5422 14.8988 37.2976 15.877C42.053 16.8551 46.3254 19.4437 49.394 23.2059C52.4625 26.9682 54.1393 31.6737 54.1415 36.5287C54.1475 39.3973 53.5656 42.2368 52.4318 44.8719C51.2979 47.5069 49.6362 49.8818 47.549 51.8498V51.8568Z" fill="#151A6A"/>
</svg>
