<svg width="30" height="30" viewBox="0 0 30 30" fill="none" xmlns="http://www.w3.org/2000/svg">
<path d="M29.4588 10.4006L15.3963 3.83813C15.2721 3.78016 15.1368 3.75012 14.9997 3.75012C14.8627 3.75012 14.7273 3.78016 14.6032 3.83813L0.540677 10.4006C0.379099 10.4761 0.242406 10.5961 0.146637 10.7466C0.050869 10.897 0 11.0717 0 11.25C0 11.4283 0.050869 11.603 0.146637 11.7534C0.242406 11.9039 0.379099 12.0239 0.540677 12.0994L5.62474 14.4722V21.5625C5.62474 24.2353 9.65599 26.25 14.9997 26.25C20.3435 26.25 24.3747 24.2353 24.3747 21.5625V14.4722L26.2497 13.5966V18.75C26.2497 18.9986 26.3485 19.2371 26.5243 19.4129C26.7001 19.5887 26.9386 19.6875 27.1872 19.6875C27.4359 19.6875 27.6743 19.5887 27.8502 19.4129C28.026 19.2371 28.1247 18.9986 28.1247 18.75V12.7219L29.4588 12.0994C29.6204 12.0239 29.7571 11.9039 29.8528 11.7534C29.9486 11.603 29.9995 11.4283 29.9995 11.25C29.9995 11.0717 29.9486 10.897 29.8528 10.7466C29.7571 10.5961 29.6204 10.4761 29.4588 10.4006ZM22.4997 21.5625C22.4997 22.71 19.5785 24.375 14.9997 24.375C10.421 24.375 7.49974 22.71 7.49974 21.5625V15.3469L14.6032 18.6619C14.7273 18.7198 14.8627 18.7499 14.9997 18.7499C15.1368 18.7499 15.2721 18.7198 15.3963 18.6619L20.0838 16.4738C20.3052 16.3662 20.4755 16.1759 20.5578 15.9439C20.6401 15.7119 20.6278 15.4569 20.5237 15.2338C20.4196 15.0108 20.2319 14.8377 20.0012 14.7518C19.7705 14.666 19.5153 14.6743 19.2907 14.775L14.9997 16.7812L3.15349 11.25L14.9997 5.71875L26.8451 11.25L23.0407 13.0256C22.8643 13.1091 22.7187 13.2461 22.6246 13.4171C22.5305 13.5881 22.4927 13.7844 22.5166 13.9781C22.5096 14.0059 22.5039 14.0341 22.4997 14.0625V21.5625Z" fill="#1A064F"/>
</svg>
