<svg width="30" height="30" viewBox="0 0 30 30" fill="none" xmlns="http://www.w3.org/2000/svg">
<path d="M19.7461 0H10.2539C4.5999 0 0 4.5999 0 10.2539V19.7461C0 25.4001 4.5999 30 10.2539 30H19.7461C25.4001 30 30 25.4001 30 19.7461V10.2539C30 4.5999 25.4001 0 19.7461 0ZM28.2422 19.7461C28.2422 24.4308 24.4308 28.2422 19.7461 28.2422H10.2539C5.56916 28.2422 1.75781 24.4308 1.75781 19.7461V10.2539C1.75781 5.56916 5.56916 1.75781 10.2539 1.75781H19.7461C24.4308 1.75781 28.2422 5.56916 28.2422 10.2539V19.7461Z" fill="#1A064F"/>
<path d="M20.1821 13.2947L12.9166 8.44048C11.5551 7.53087 9.72656 8.50904 9.72656 10.1457V19.8541C9.72656 21.5001 11.5662 22.4615 12.9166 21.5594L20.1822 16.7051C21.3951 15.8948 21.3986 14.1074 20.1821 13.2947ZM19.2056 15.2436L11.9401 20.0978C11.7457 20.2276 11.4844 20.0906 11.4844 19.8542V10.1457C11.4844 9.9123 11.7432 9.7705 11.9401 9.90205L19.2057 14.7563C19.3796 14.8726 19.3798 15.1271 19.2056 15.2436Z" fill="#1A064F"/>
</svg>
