<svg width="30" height="30" viewBox="0 0 30 30" fill="none" xmlns="http://www.w3.org/2000/svg">
<path d="M25.2781 15.8203H24.6051C24.2119 13.0837 22.0113 10.9232 19.2555 10.5915C20.4239 9.47098 21.1525 7.89516 21.1525 6.15234C21.1525 2.75994 18.3926 0 15.0002 0C11.6078 0 8.84783 2.75994 8.84783 6.15234C8.84783 7.89522 9.57645 9.47098 10.7449 10.5915C7.98914 10.9232 5.78848 13.0837 5.39525 15.8203H4.72225C3.11637 15.8203 1.88561 17.2449 2.11184 18.8286L3.58301 29.244C3.64424 29.6776 4.01537 30 4.4533 30H25.5471C25.985 30 26.3561 29.6776 26.4173 29.244L27.8883 18.8299C28.1152 17.2415 26.8811 15.8203 25.2781 15.8203ZM10.6056 6.15234C10.6056 3.7292 12.577 1.75781 15.0002 1.75781C17.4233 1.75781 19.3947 3.7292 19.3947 6.15234C19.3947 8.57549 17.4233 10.5469 15.0002 10.5469C12.577 10.5469 10.6056 8.57549 10.6056 6.15234ZM11.4846 12.3047H18.5158C20.638 12.3047 22.4136 13.8169 22.822 15.8203H7.17832C7.58666 13.8169 9.36234 12.3047 11.4846 12.3047ZM26.148 18.5827L24.7836 28.2422H5.21678L3.85219 18.5813C3.77637 18.0512 4.18582 17.5781 4.72225 17.5781C4.96518 17.5781 25.1764 17.5781 25.2781 17.5781C25.8139 17.5781 26.2241 18.05 26.148 18.5827Z" fill="#1A064F"/>
<path d="M15 21.1523C13.5461 21.1523 12.3633 22.3352 12.3633 23.7891C12.3633 25.2429 13.5461 26.4258 15 26.4258C16.4539 26.4258 17.6367 25.2429 17.6367 23.7891C17.6367 22.3352 16.4539 21.1523 15 21.1523ZM15 24.668C14.5154 24.668 14.1211 24.2737 14.1211 23.7891C14.1211 23.3044 14.5154 22.9102 15 22.9102C15.4846 22.9102 15.8789 23.3044 15.8789 23.7891C15.8789 24.2737 15.4846 24.668 15 24.668Z" fill="#1A064F"/>
</svg>
