<svg width="85" height="26" viewBox="0 0 85 26" fill="none" xmlns="http://www.w3.org/2000/svg">
<path d="M36.2 7.5H42.17V8.73H37.565V12.165H42.17V13.395H37.565V16.77H42.17V18H36.2V7.5ZM45.9499 14.52L43.3849 11.085H44.9899L46.7149 13.56L48.4249 11.085H50.0299L47.4649 14.52L50.0749 18H48.4549L46.7149 15.465L44.9599 18H43.3549L45.9499 14.52ZM55.258 10.905C55.908 10.905 56.488 11.06 56.998 11.37C57.508 11.67 57.903 12.1 58.183 12.66C58.463 13.21 58.603 13.84 58.603 14.55C58.603 15.25 58.458 15.875 58.168 16.425C57.878 16.975 57.473 17.405 56.953 17.715C56.433 18.025 55.843 18.18 55.183 18.18C54.653 18.18 54.163 18.055 53.713 17.805C53.273 17.555 52.943 17.215 52.723 16.785V21.195H51.418V11.085H52.723V12.3C52.943 11.87 53.278 11.53 53.728 11.28C54.188 11.03 54.698 10.905 55.258 10.905ZM55.003 17.01C55.673 17.01 56.223 16.78 56.653 16.32C57.083 15.86 57.298 15.27 57.298 14.55C57.298 14.08 57.198 13.655 56.998 13.275C56.808 12.895 56.538 12.6 56.188 12.39C55.838 12.18 55.443 12.075 55.003 12.075C54.313 12.075 53.748 12.305 53.308 12.765C52.878 13.225 52.663 13.82 52.663 14.55C52.663 15.27 52.878 15.86 53.308 16.32C53.748 16.78 54.313 17.01 55.003 17.01ZM60.2803 7.5H61.5853V18H60.2803V7.5ZM66.8848 18.18C66.1548 18.18 65.5148 18.02 64.9648 17.7C64.4248 17.38 64.0098 16.945 63.7198 16.395C63.4298 15.835 63.2848 15.215 63.2848 14.535C63.2848 13.865 63.4298 13.255 63.7198 12.705C64.0098 12.145 64.4248 11.705 64.9648 11.385C65.5148 11.065 66.1548 10.905 66.8848 10.905C67.6148 10.905 68.2498 11.065 68.7898 11.385C69.3298 11.705 69.7448 12.145 70.0348 12.705C70.3348 13.255 70.4848 13.865 70.4848 14.535C70.4848 15.215 70.3398 15.835 70.0498 16.395C69.7598 16.945 69.3398 17.38 68.7898 17.7C68.2498 18.02 67.6148 18.18 66.8848 18.18ZM66.8848 17.01C67.5948 17.01 68.1548 16.78 68.5648 16.32C68.9748 15.85 69.1798 15.255 69.1798 14.535C69.1798 13.825 68.9748 13.24 68.5648 12.78C68.1548 12.31 67.5948 12.075 66.8848 12.075C66.1748 12.075 65.6098 12.31 65.1898 12.78C64.7798 13.24 64.5748 13.83 64.5748 14.55C64.5748 15.26 64.7798 15.85 65.1898 16.32C65.6098 16.78 66.1748 17.01 66.8848 17.01ZM72.1748 11.085H73.4798V12.66C73.6098 12.11 73.8648 11.695 74.2448 11.415C74.6248 11.125 75.0448 10.98 75.5048 10.98C75.7748 10.98 75.9848 11 76.1348 11.04V12.24C75.9848 12.21 75.7698 12.195 75.4898 12.195C74.8398 12.195 74.3398 12.455 73.9898 12.975C73.6498 13.495 73.4798 14.16 73.4798 14.97V18H72.1748V11.085ZM83.5246 14.145C83.5246 14.335 83.5096 14.595 83.4796 14.925H78.1246C78.1346 15.585 78.3346 16.105 78.7246 16.485C79.1146 16.855 79.6396 17.04 80.2996 17.04C80.7496 17.04 81.1296 16.955 81.4396 16.785C81.7596 16.605 81.9896 16.35 82.1296 16.02H83.4346C83.3146 16.66 82.9646 17.18 82.3846 17.58C81.8046 17.98 81.1096 18.18 80.2996 18.18C79.2396 18.18 78.3946 17.855 77.7646 17.205C77.1446 16.545 76.8346 15.655 76.8346 14.535C76.8346 13.805 76.9746 13.17 77.2546 12.63C77.5346 12.08 77.9296 11.655 78.4396 11.355C78.9596 11.055 79.5596 10.905 80.2396 10.905C80.8896 10.905 81.4596 11.045 81.9496 11.325C82.4496 11.595 82.8346 11.975 83.1046 12.465C83.3846 12.955 83.5246 13.515 83.5246 14.145ZM82.2346 13.92C82.2346 13.31 82.0546 12.83 81.6946 12.48C81.3446 12.13 80.8546 11.955 80.2246 11.955C79.6046 11.955 79.1046 12.135 78.7246 12.495C78.3546 12.855 78.1546 13.33 78.1246 13.92H82.2346Z" fill="#00FF84"/>
<rect x="5" y="3" width="15" height="2" fill="#00FF84"/>
<rect y="11" width="20" height="2" fill="#00FF84"/>
<rect y="19" width="15" height="2" fill="#00FF84"/>
</svg>
