<svg width="140" height="50" viewBox="0 0 140 50" fill="none" xmlns="http://www.w3.org/2000/svg">
<path d="M66.36 17H74.92V19.6H69.6V22.78H74.92V25.32H69.6V28.4H74.92V31H66.36V17ZM87.1966 21.92H87.1766V31H84.1366V29.64C83.8699 30.12 83.4566 30.5133 82.8966 30.82C82.3499 31.1133 81.7432 31.26 81.0766 31.26C80.1432 31.26 79.3299 31.04 78.6366 30.6C77.9566 30.16 77.4366 29.56 77.0766 28.8C76.7166 28.0267 76.5366 27.1533 76.5366 26.18C76.5366 25.22 76.7232 24.3533 77.0966 23.58C77.4699 22.8067 78.0032 22.2 78.6966 21.76C79.4032 21.32 80.2099 21.1 81.1166 21.1C81.7966 21.1 82.4032 21.2467 82.9366 21.54C83.4699 21.8333 83.8699 22.2333 84.1366 22.74V17H87.1966V21.92ZM81.9566 28.72C82.6899 28.72 83.2566 28.48 83.6566 28C84.0566 27.52 84.2566 26.9133 84.2566 26.18C84.2566 25.46 84.0566 24.86 83.6566 24.38C83.2566 23.9 82.6899 23.66 81.9566 23.66C81.2632 23.66 80.7032 23.8933 80.2766 24.36C79.8632 24.8267 79.6566 25.4333 79.6566 26.18C79.6566 26.9267 79.8632 27.54 80.2766 28.02C80.7032 28.4867 81.2632 28.72 81.9566 28.72ZM93.177 31.26C92.0304 31.26 91.1504 30.92 90.537 30.24C89.9237 29.5467 89.617 28.5733 89.617 27.32V21.36H92.717V26.64C92.717 27.32 92.8437 27.8333 93.097 28.18C93.3504 28.5133 93.757 28.68 94.317 28.68C94.9437 28.68 95.4104 28.4933 95.717 28.12C96.0237 27.7467 96.177 27.22 96.177 26.54V21.36H99.217V31H96.177V29.62C95.897 30.14 95.5037 30.5467 94.997 30.84C94.5037 31.12 93.897 31.26 93.177 31.26ZM106.148 31.3C105.108 31.3 104.195 31.0867 103.408 30.66C102.635 30.2333 102.035 29.6333 101.608 28.86C101.195 28.0867 100.988 27.1933 100.988 26.18C100.988 25.1667 101.195 24.28 101.608 23.52C102.035 22.7467 102.635 22.1467 103.408 21.72C104.195 21.2933 105.108 21.08 106.148 21.08C107.575 21.08 108.735 21.4333 109.628 22.14C110.522 22.8467 111.028 23.8067 111.148 25.02H108.088C107.982 24.5667 107.768 24.2267 107.448 24C107.142 23.7733 106.715 23.66 106.168 23.66C105.502 23.66 104.982 23.88 104.608 24.32C104.235 24.76 104.048 25.38 104.048 26.18C104.048 26.98 104.235 27.6 104.608 28.04C104.982 28.48 105.502 28.7 106.168 28.7C106.715 28.7 107.142 28.5933 107.448 28.38C107.768 28.1667 107.982 27.8467 108.088 27.42H111.148C111.028 28.6067 110.522 29.5533 109.628 30.26C108.735 30.9533 107.575 31.3 106.148 31.3ZM112.901 21.36H115.961V23.38C116.121 22.6867 116.447 22.1533 116.941 21.78C117.447 21.3933 118.007 21.2 118.621 21.2C118.941 21.2 119.207 21.2267 119.421 21.28V24.12C119.061 24.08 118.754 24.06 118.501 24.06C117.714 24.06 117.094 24.32 116.641 24.84C116.187 25.36 115.961 26.1733 115.961 27.28V31H112.901V21.36ZM124.651 31.26C123.717 31.26 122.904 31.04 122.211 30.6C121.531 30.16 121.011 29.56 120.651 28.8C120.291 28.0267 120.111 27.1533 120.111 26.18C120.111 25.22 120.297 24.3533 120.671 23.58C121.044 22.8067 121.577 22.2 122.271 21.76C122.977 21.32 123.784 21.1 124.691 21.1C125.371 21.1 125.977 21.2467 126.511 21.54C127.044 21.8333 127.444 22.2333 127.711 22.74V21.36H130.751V31H127.711V29.64C127.444 30.12 127.031 30.5133 126.471 30.82C125.924 31.1133 125.317 31.26 124.651 31.26ZM125.531 28.72C126.264 28.72 126.831 28.48 127.231 28C127.631 27.52 127.831 26.9133 127.831 26.18C127.831 25.46 127.631 24.86 127.231 24.38C126.831 23.9 126.264 23.66 125.531 23.66C124.837 23.66 124.277 23.8933 123.851 24.36C123.437 24.8267 123.231 25.4333 123.231 26.18C123.231 26.9267 123.437 27.54 123.851 28.02C124.277 28.4867 124.837 28.72 125.531 28.72ZM138.351 28.62C138.778 28.62 139.131 28.6 139.411 28.56V31C138.825 31.1067 138.145 31.16 137.371 31.16C136.398 31.16 135.585 30.9267 134.931 30.46C134.278 29.9933 133.951 29.0467 133.951 27.62V23.78H132.431V21.36H133.951V18.5H137.011V21.36H139.191V23.78H137.011V26.98C137.011 27.6333 137.125 28.0733 137.351 28.3C137.578 28.5133 137.911 28.62 138.351 28.62Z" fill="white"/>
<rect width="50" height="50" rx="22" fill="white"/>
<path fill-rule="evenodd" clip-rule="evenodd" d="M12.999 23.5386L14.4985 24.4175V26.1727V27.9304V29.6856V31.4407L15.998 32.3196L17.4975 33.1984L18.997 34.0773L20.4965 34.9561L21.9959 35.835L23.4954 36.7138L24.9949 37.5927L26.4944 36.7138L27.9939 35.835L29.4934 34.9561L30.9929 34.0773L32.4924 33.1984L33.9919 32.3196L35.4914 31.4407V29.6856V27.9304V26.1727V24.4175L36.9909 23.5386V26.7172C36.8668 26.7932 36.7832 26.9376 36.7832 27.0895C36.7832 27.2415 36.8541 27.363 36.9605 27.4416L36.9098 27.5961L36.6084 28.5382H37.2112H37.8141L37.5127 27.5961L37.462 27.4416C37.5709 27.363 37.6393 27.2567 37.6393 27.0895C37.6393 26.9224 37.5177 26.7375 37.3506 26.6767V23.3259L25.3622 16.3001L25.7244 16.0874L37.7254 23.1131L38.5005 22.6598L40 21.7809L38.5005 20.9021L37.001 20.0232L35.5015 19.1444L33.9995 18.2681L32.5 17.3892L31.0005 16.5103L29.501 15.634L28.0015 14.7552L26.502 13.8763L25 13L23.5005 13.8789L22.001 14.7577L20.499 15.634L18.9995 16.5129L17.5 17.3917L16.0005 18.2681L14.501 19.1469L13.0015 20.0258L11.502 20.9046L10 21.7809L11.4995 22.6598L12.999 23.5386ZM23.5005 20.9046L25 20.0258L26.4995 20.9046L27.999 21.7835L26.4995 22.6623L25 23.5412L23.5005 24.4175V26.1752L25 27.0541L26.4995 26.1752L27.999 25.2963L29.4985 24.4175L30.998 23.5386L32.4975 22.6598L33.5284 22.0545L33.997 21.7809L32.7229 21.0363L32.4975 20.9046L30.998 20.0258L29.4985 19.1469L28.0015 18.2681L26.502 17.3892L25.0025 16.5103L23.5005 17.3917L22.001 18.2681L20.5015 19.1469L19.002 20.0258L17.5025 20.9046L16.003 21.7835L17.5025 22.6623V24.4175V26.1727V27.9304V28.832V29.6856L19.002 30.5644L20.5015 31.4433L22.001 32.3221L23.5005 33.201L25 34.0798L26.4995 33.201L27.999 32.3221L29.4985 31.4433L30.998 30.5644L32.4975 29.6856V27.9304V26.1727L30.998 27.0515L29.4985 27.9304L27.999 28.8092L26.4995 29.6881L25 30.5669L23.5005 29.6856L22.001 28.8067L20.5015 27.9278V22.6598L22.001 21.7809L23.5005 20.9046Z" fill="#6440FB"/>
</svg>
