<svg width="40" height="40" viewBox="0 0 40 40" fill="none" xmlns="http://www.w3.org/2000/svg">
<g clip-path="url(#clip0_200_6848)">
<path d="M37.6563 2.81226H23.2032C21.9109 2.81226 20.8595 3.86366 20.8595 5.156V13.8059L11.4692 16.4406H2.6278C1.17882 16.4406 0 17.6194 0 19.0684V24.6082C0 26.0572 1.17882 27.236 2.6278 27.236H3.84952L4.84076 34.8729C4.96756 35.8497 5.53529 36.616 6.39849 36.9755C7.30982 37.3557 8.41044 37.2188 9.19465 36.619C9.93106 36.0561 10.2801 35.1685 10.1523 34.1836L9.25059 27.236H11.4691L31.11 32.7467C31.3436 32.8125 31.5978 32.7653 31.793 32.6171C31.9878 32.4694 32.1023 32.239 32.1023 31.9946V16.8747H37.6563C38.9486 16.8747 40 15.8233 40 14.531V5.156C40 3.86366 38.9486 2.81226 37.6563 2.81226ZM1.56249 24.6081V19.0684C1.56249 18.4809 2.04038 18.0031 2.6278 18.0031H10.7953V25.6734H2.6278C2.04038 25.6735 1.56249 25.1955 1.56249 24.6081ZM8.60278 34.3846C8.65918 34.8192 8.53911 35.1533 8.24575 35.3775C7.58161 35.8736 6.46974 35.6198 6.39029 34.6718L5.42521 27.2359H7.67497L8.60278 34.3846ZM30.5398 30.9639L12.3579 25.8625V17.8141L21.02 15.3837C21.3618 16.2556 22.2116 16.8747 23.2031 16.8747H25.2233L26.5569 18.2084C26.862 18.5134 27.3567 18.5134 27.6618 18.2084L28.9955 16.8747H30.5399V30.9639H30.5398ZM38.4375 14.531C38.4375 14.9617 38.087 15.3122 37.6563 15.3122H28.6719C28.4647 15.3122 28.266 15.3946 28.1195 15.541L27.1094 16.5511L26.0993 15.541C25.9529 15.3946 25.7541 15.3122 25.5469 15.3122H23.2032C22.7724 15.3122 22.4219 14.9617 22.4219 14.531V5.156C22.4219 4.72522 22.7724 4.37475 23.2032 4.37475H37.6563C38.087 4.37475 38.4375 4.72522 38.4375 5.156V14.531Z" fill="#F01E00"/>
<path d="M35.1171 5.93726H25.7421C24.7067 5.97569 24.7074 7.46171 25.7421 7.49976H35.1171C36.1526 7.46132 36.1518 5.9753 35.1171 5.93726Z" fill="#F01E00"/>
<path d="M35.1171 9.06226H25.7421C24.7067 9.10069 24.7074 10.5867 25.7421 10.6248H35.1171C36.1526 10.5863 36.1518 9.1003 35.1171 9.06226Z" fill="#F01E00"/>
<path d="M30.4296 12.1873H25.7421C24.7067 12.2257 24.7074 13.7117 25.7421 13.7498H30.4296C31.4651 13.7113 31.4643 12.2253 30.4296 12.1873Z" fill="#F01E00"/>
</g>
<defs>
<clipPath id="clip0_200_6848">
<rect width="40" height="40" fill="white"/>
</clipPath>
</defs>
</svg>
