<svg width="40" height="40" viewBox="0 0 40 40" fill="none" xmlns="http://www.w3.org/2000/svg">
<g clip-path="url(#clip0_200_6900)">
<path d="M39.2188 32.1094H38.4375V13.3594C38.4375 11.6362 37.0356 10.2344 35.3125 10.2344H26.3711L25.8029 8.67188H26.6406C27.072 8.67188 27.4219 8.32203 27.4219 7.89062V3.98438C27.4219 3.55297 27.072 3.20312 26.6406 3.20312H25.0781V0.859375C25.0781 0.427969 24.7283 0.078125 24.2969 0.078125H15.7031C15.2716 0.078125 14.9219 0.427969 14.9219 0.859375V3.20312H13.3594C12.9279 3.20312 12.5781 3.55297 12.5781 3.98438V7.89062C12.5781 8.32203 12.9279 8.67188 13.3594 8.67188H14.1971L13.6289 10.2344H4.6875C2.96438 10.2344 1.5625 11.6362 1.5625 13.3594V32.1094H0.78125C0.349766 32.1094 0 32.4592 0 32.8906V36.7969C0 38.52 1.40188 39.9219 3.125 39.9219H36.875C38.5981 39.9219 40 38.52 40 36.7969V32.8906C40 32.4592 39.6502 32.1094 39.2188 32.1094ZM35.3125 11.7969C36.1741 11.7969 36.875 12.4978 36.875 13.3594V32.1094H35.3125V14.1406C35.3125 13.7092 34.9627 13.3594 34.5312 13.3594H27.5074L26.9393 11.7969H35.3125ZM16.4844 33.6719H23.5156V35.2344H16.4844V33.6719ZM6.25 32.1094V14.9219H11.9244L11.4533 16.2173C11.3653 16.4593 11.4022 16.729 11.5518 16.9384L18.4819 26.6406H13.225C12.9025 25.7313 12.0341 25.0781 11.0156 25.0781C9.72328 25.0781 8.67188 26.1295 8.67188 27.4219C8.67188 28.7142 9.72328 29.7656 11.0156 29.7656C12.0341 29.7656 12.9025 29.1124 13.225 28.2031H26.775C27.0976 29.1124 27.9659 29.7656 28.9844 29.7656C30.2767 29.7656 31.3281 28.7142 31.3281 27.4219C31.3281 26.1295 30.2767 25.0781 28.9844 25.0781C27.9659 25.0781 27.0976 25.7313 26.775 26.6406H21.5182L28.4483 16.9384C28.5979 16.7289 28.6348 16.4592 28.5467 16.2173L28.0756 14.9219H33.75V32.1094C31.0241 32.1094 6.80492 32.1094 6.25 32.1094ZM20 16.4844C19.5692 16.4844 19.2188 16.1339 19.2188 15.7031C19.2188 15.2723 19.5692 14.9219 20 14.9219C20.4308 14.9219 20.7812 15.2723 20.7812 15.7031C20.7812 16.1339 20.4308 16.4844 20 16.4844ZM11.7969 27.4219C11.7969 27.8527 11.4464 28.2031 11.0156 28.2031C10.5848 28.2031 10.2344 27.8527 10.2344 27.4219C10.2344 26.9911 10.5848 26.6406 11.0156 26.6406C11.4464 26.6406 11.7969 26.9911 11.7969 27.4219ZM28.2031 27.4219C28.2031 26.9911 28.5536 26.6406 28.9844 26.6406C29.4152 26.6406 29.7656 26.9911 29.7656 27.4219C29.7656 27.8527 29.4152 28.2031 28.9844 28.2031C28.5536 28.2031 28.2031 27.8527 28.2031 27.4219ZM16.4844 1.64062H23.5156V3.20312H16.4844V1.64062ZM14.1406 4.76562H25.8594V7.10938C24.9891 7.10938 15.8357 7.10938 14.1406 7.10938V4.76562ZM24.1403 8.67188L26.9377 16.3649L20.7812 24.984V17.9124C21.6905 17.59 22.3438 16.7216 22.3438 15.7031C22.3438 14.4108 21.2923 13.3594 20 13.3594C18.7077 13.3594 17.6562 14.4108 17.6562 15.7031C17.6562 16.7216 18.3095 17.59 19.2188 17.9124V24.984L13.0623 16.3649L15.8597 8.67188H24.1403ZM3.125 13.3594C3.125 12.4978 3.82594 11.7969 4.6875 11.7969H13.0608L12.4926 13.3594H5.46875C5.03727 13.3594 4.6875 13.7092 4.6875 14.1406V32.1094H3.125V13.3594ZM38.4375 36.7969C38.4375 37.6584 37.7366 38.3594 36.875 38.3594H3.125C2.26344 38.3594 1.5625 37.6584 1.5625 36.7969V33.6719H14.9219V36.0156C14.9219 36.447 15.2716 36.7969 15.7031 36.7969H24.2969C24.7283 36.7969 25.0781 36.447 25.0781 36.0156V33.6719H38.4375V36.7969Z" fill="#00D26F"/>
</g>
<defs>
<clipPath id="clip0_200_6900">
<rect width="40" height="40" fill="white"/>
</clipPath>
</defs>
</svg>
