<svg width="40" height="40" viewBox="0 0 40 40" fill="none" xmlns="http://www.w3.org/2000/svg">
<g clip-path="url(#clip0_200_6863)">
<path d="M20.0062 28.5718C19.7999 28.5718 19.5991 28.6554 19.4535 28.8007C19.3076 28.9459 19.2246 29.1476 19.2246 29.353C19.2246 29.5587 19.3076 29.7601 19.4535 29.9054C19.5991 30.051 19.7999 30.1346 20.0062 30.1346C20.2115 30.1346 20.413 30.051 20.5585 29.9054C20.7038 29.7601 20.7874 29.5587 20.7874 29.353C20.7874 29.1476 20.7038 28.9459 20.5585 28.8007C20.413 28.6554 20.2115 28.5718 20.0062 28.5718Z" fill="#3D85F9"/>
<path d="M33.9892 5.91669H18.1854L13.1576 0.888624C11.9726 -0.296371 10.0448 -0.296371 8.85985 0.888624C7.67486 2.07362 7.67486 4.00141 8.85985 5.18641L9.58983 5.91639H6.01623C3.862 5.91639 2.10938 7.66901 2.10938 9.82324V14.9999C2.10938 15.4314 2.45911 15.7812 2.89093 15.7812C3.32245 15.7812 3.67218 15.4314 3.67218 14.9999V9.82354C3.67218 8.53082 4.72381 7.47919 6.01623 7.47919H11.1526L17.2775 13.6044C17.2778 13.6047 17.2781 13.6047 17.2784 13.605L20.8459 17.1725C20.8923 17.2192 20.9445 17.2582 21.0003 17.2912C20.9564 17.5643 20.9326 17.8423 20.9326 18.1243C20.9326 19.5068 21.4712 20.8065 22.4487 21.784C24.0893 23.4249 26.1236 24.1851 29.0228 24.1851C29.7399 24.1851 30.5099 24.1387 31.34 24.0475C31.6384 24.0145 31.892 23.8134 31.9918 23.5299C32.0913 23.2464 32.0196 22.9308 31.8072 22.7181C30.8334 21.7446 30.9414 20.7 31.0778 19.3777C31.228 17.9226 31.415 16.112 29.7677 14.4646C28.5424 13.2394 26.8505 12.7596 25.2587 13.0224C25.2267 12.9699 25.1889 12.9202 25.1437 12.8747L19.7482 7.47919H33.9892C35.2819 7.47919 36.3336 8.53082 36.3336 9.82354V25.9148H3.67218V22.0324C3.67218 21.6009 3.32245 21.2508 2.89093 21.2508C2.45911 21.2508 2.10938 21.6009 2.10938 22.0324V28.8839C2.10938 31.0384 3.862 32.7907 6.01623 32.7907H16.0989V35.3136C13.9798 35.3545 12.268 37.09 12.268 39.2186C12.268 39.6501 12.6181 39.9999 13.0496 39.9999H26.9616C27.3934 39.9999 27.7432 39.6501 27.7432 39.2186C27.7432 37.09 26.0318 35.3545 23.9126 35.3136V32.7907H33.9892C36.1434 32.7907 37.896 31.0384 37.896 28.8839V9.82354C37.896 7.66931 36.1434 5.91669 33.9892 5.91669ZM9.96489 1.99366C10.2527 1.70588 10.6305 1.56184 11.0086 1.56184C11.3867 1.56184 11.7648 1.70588 12.0526 1.99366L19.9139 9.85528L17.8262 11.943L9.96489 4.08137C9.38933 3.50581 9.38933 2.56922 9.96489 1.99366ZM23.5882 20.7128C24.0924 19.6999 25.0918 19.0377 26.2286 18.9761C27.5479 18.9046 28.7445 18.2937 29.5675 17.3168C29.6575 17.9159 29.5928 18.5436 29.5233 19.2171C29.4131 20.2862 29.2919 21.4602 29.8284 22.6018C26.9555 22.7379 25.0445 22.1483 23.5882 20.7128ZM28.6627 15.57C28.703 15.61 28.7414 15.6506 28.7783 15.6908C28.2727 16.697 27.2763 17.3544 26.1438 17.4157C24.7515 17.4914 23.4957 18.1676 22.6715 19.2409C22.5564 18.8851 22.4954 18.5094 22.4954 18.1246C22.4954 17.1593 22.8714 16.2524 23.5537 15.57C24.2578 14.8656 25.1831 14.5135 26.108 14.5135C27.0333 14.5135 27.9586 14.8656 28.6627 15.57ZM22.4493 14.464C22.449 14.4643 22.4487 14.4646 22.4487 14.4646C22.4484 14.465 22.4481 14.4653 22.4478 14.4656L21.3983 15.5151L18.9352 13.0517L21.0229 10.964L23.486 13.4274L22.4493 14.464ZM26.0464 38.4371H13.9648C14.2871 37.5276 15.1562 36.8746 16.1749 36.8746H23.8363C24.855 36.8746 25.7241 37.5276 26.0464 38.4371ZM22.3498 35.2962H17.6617V32.7907H22.3498V35.2962ZM33.9892 31.2282H6.01623C4.72381 31.2282 3.67218 30.1766 3.67218 28.8839V27.4776H36.3336V28.8839C36.3336 30.1766 35.2819 31.2282 33.9892 31.2282Z" fill="#3D85F9"/>
<path d="M2.89093 19.2975C3.09631 19.2975 3.29773 19.2139 3.4433 19.0686C3.58856 18.9233 3.67218 18.7216 3.67218 18.5162C3.67218 18.3109 3.58856 18.1091 3.4433 17.9639C3.29773 17.8186 3.09631 17.735 2.89093 17.735C2.68524 17.735 2.48383 17.8186 2.33826 17.9639C2.19299 18.1091 2.10938 18.3109 2.10938 18.5162C2.10938 18.7216 2.19299 18.9233 2.33826 19.0686C2.48383 19.2139 2.68524 19.2975 2.89093 19.2975Z" fill="#3D85F9"/>
</g>
<defs>
<clipPath id="clip0_200_6863">
<rect width="40" height="40" fill="white"/>
</clipPath>
</defs>
</svg>
