<svg width="40" height="40" viewBox="0 0 40 40" fill="none" xmlns="http://www.w3.org/2000/svg">
<g clip-path="url(#clip0_200_6867)">
<path d="M35.0699 24.3937C32.1569 22.8495 28.1572 21.7962 23.7658 21.4123L23.8672 20.1964C24.8039 19.8893 25.4824 19.0066 25.4824 17.9685V11.7186C25.4824 9.61797 24.2918 7.79017 22.5501 6.87448C25.2818 4.562 23.6373 7.81244e-05 20.0137 0C16.39 0.000156249 14.7455 4.56262 17.4773 6.87456C15.7356 7.79025 14.545 9.61797 14.545 11.7187V17.9686C14.545 19.0067 15.2235 19.8894 16.1602 20.1965L16.2615 21.4124C9.97969 21.9972 0.427653 24.358 0.0136719 30.6248C0.548043 37.8476 12.9167 40.0158 20.0136 39.9999C25.2547 39.9998 30.1942 39.0817 33.9222 37.4147C41.3658 34.2439 42.2002 28.0907 35.0699 24.3937ZM16.8914 28.9709C16.9996 30.27 18.006 31.2498 19.2324 31.2498H20.795C22.0214 31.2498 23.0278 30.27 23.136 28.9709L23.3374 26.5539C28.0983 27.1005 30.9219 28.7009 30.9219 29.9949C30.4712 32.7226 23.1496 33.6972 20.0137 33.6228C16.8846 33.6997 9.54828 32.7182 9.10548 29.9949C9.10555 28.7009 11.9291 27.1005 16.69 26.5539L16.8914 28.9709ZM17.67 3.90622C17.67 2.61389 18.7214 1.56249 20.0137 1.56249C23.1187 1.6803 23.1179 6.13261 20.0137 6.24995C18.7214 6.24995 17.67 5.19855 17.67 3.90622ZM16.1075 17.9686V11.7187C16.3032 6.54557 23.7236 6.54331 23.92 11.7187C23.92 11.7187 23.92 17.9687 23.92 17.9687C23.92 18.3995 23.5695 18.7499 23.1387 18.7499C22.7324 18.7499 22.3939 19.0614 22.3602 19.4663L21.579 28.8412C21.5439 29.2616 21.2634 29.6873 20.7951 29.6873H19.2325C18.7642 29.6873 18.4836 29.2616 18.4486 28.8411L17.6674 19.4662C17.6336 19.0613 17.2951 18.7499 16.8889 18.7499C16.4579 18.7499 16.1075 18.3994 16.1075 17.9686ZM33.2844 35.9884C26.366 39.2295 13.6612 39.2295 6.74299 35.9882C3.4595 34.5201 1.57632 32.5652 1.57632 30.6249C2.00655 25.555 11.0845 23.4282 16.3914 22.9695L16.5603 24.9961C14.1496 25.2682 12.053 25.8104 10.4691 26.5739C5.77331 28.9156 7.12362 32.2479 11.4724 33.8436C15.9745 35.6192 24.0532 35.6192 28.5552 33.8436C32.9086 32.2465 34.2507 28.9141 29.5586 26.5738C27.9746 25.8104 25.878 25.2683 23.4674 24.9961L23.6363 22.9695C27.8205 23.3357 31.6069 24.3264 34.3382 25.7743C40.3521 28.9161 39.4881 33.2626 33.2844 35.9884Z" fill="#F5A700"/>
</g>
<defs>
<clipPath id="clip0_200_6867">
<rect width="40" height="40" fill="white"/>
</clipPath>
</defs>
</svg>
