<svg width="40" height="40" viewBox="0 0 40 40" fill="none" xmlns="http://www.w3.org/2000/svg">
<g clip-path="url(#clip0_200_6869)">
<path d="M19.9997 20C19.9013 20 19.8047 19.9834 19.7113 19.9484L3.87801 14.115C3.54967 13.995 3.33301 13.6817 3.33301 13.3334C3.33301 12.985 3.55134 12.6717 3.87967 12.5517L14.713 8.56837C15.143 8.4117 15.6247 8.6317 15.783 9.06337C15.9413 9.49504 15.7197 9.97337 15.288 10.1334L6.57967 13.3334L19.9997 18.2784L33.4197 13.3334L24.7113 10.1317C24.2797 9.97337 24.058 9.49337 24.2163 9.0617C24.3747 8.63004 24.8547 8.41004 25.2863 8.5667L36.1197 12.55C36.448 12.6717 36.6663 12.985 36.6663 13.3334C36.6663 13.6817 36.4497 13.995 36.1213 14.115L20.288 19.9484C20.1947 19.9834 20.098 20 19.9997 20Z" fill="#47C839"/>
<path d="M20.0002 40C19.9018 40 19.8052 39.9833 19.7135 39.9483L10.8635 36.6983C10.4319 36.54 10.2102 36.0617 10.3685 35.6283C10.5269 35.1967 11.0069 34.975 11.4385 35.1333L20.0002 38.2783L28.5635 35.1333C28.9952 34.9733 29.4735 35.1967 29.6335 35.6283C29.7918 36.06 29.5702 36.5383 29.1385 36.6983L20.2885 39.9483C20.1952 39.9833 20.0985 40 20.0002 40Z" fill="#47C839"/>
<path d="M4.16634 29.6C3.70634 29.6 3.33301 29.2267 3.33301 28.7667V13.3333C3.33301 12.8733 3.70634 12.5 4.16634 12.5C4.62634 12.5 4.99967 12.8733 4.99967 13.3333V28.7667C4.99967 29.2267 4.62634 29.6 4.16634 29.6Z" fill="#47C839"/>
<path d="M35.8333 29.6C35.3733 29.6 35 29.2267 35 28.7667V13.3333C35 12.8733 35.3733 12.5 35.8333 12.5C36.2933 12.5 36.6667 12.8733 36.6667 13.3333V28.7667C36.6667 29.2267 36.2933 29.6 35.8333 29.6Z" fill="#47C839"/>
<path d="M20.0003 13.3333C19.5403 13.3333 19.167 12.96 19.167 12.5V5.83333C19.167 5.37333 19.5403 5 20.0003 5C20.4603 5 20.8336 5.37333 20.8336 5.83333V12.5C20.8336 12.96 20.4603 13.3333 20.0003 13.3333Z" fill="#47C839"/>
<path d="M34.9004 35.7333C34.6871 35.7333 34.4738 35.6516 34.3104 35.49L30.2438 31.4233C29.9187 31.0983 29.9187 30.57 30.2438 30.245C30.5688 29.92 31.0971 29.92 31.4221 30.245L35.4888 34.3116C35.8138 34.6366 35.8138 35.165 35.4888 35.49C35.3271 35.6516 35.1138 35.7333 34.9004 35.7333Z" fill="#47C839"/>
<path d="M5.10035 35.7333C4.88702 35.7333 4.67368 35.6516 4.51035 35.49C4.18535 35.165 4.18535 34.6366 4.51035 34.3116L8.57702 30.245C8.90202 29.92 9.43035 29.92 9.75535 30.245C10.0804 30.57 10.0804 31.0983 9.75535 31.4233L5.68868 35.49C5.52702 35.6516 5.31368 35.7333 5.10035 35.7333Z" fill="#47C839"/>
<path d="M20.0003 40C19.5403 40 19.167 39.6267 19.167 39.1667V19.1667C19.167 18.7067 19.5403 18.3334 20.0003 18.3334C20.4603 18.3334 20.8336 18.7067 20.8336 19.1667V39.1667C20.8336 39.6267 20.4603 40 20.0003 40Z" fill="#47C839"/>
<path d="M20.0003 6.66667C18.162 6.66667 16.667 5.17167 16.667 3.33333C16.667 1.495 18.162 0 20.0003 0C21.8387 0 23.3337 1.495 23.3337 3.33333C23.3337 5.17167 21.8387 6.66667 20.0003 6.66667ZM20.0003 1.66667C19.082 1.66667 18.3337 2.415 18.3337 3.33333C18.3337 4.25167 19.082 5 20.0003 5C20.9187 5 21.667 4.25167 21.667 3.33333C21.667 2.415 20.9187 1.66667 20.0003 1.66667Z" fill="#47C839"/>
<path d="M36.6673 39.9999C34.829 39.9999 33.334 38.5049 33.334 36.6666C33.334 34.8283 34.829 33.3333 36.6673 33.3333C38.5056 33.3333 40.0006 34.8283 40.0006 36.6666C40.0006 38.5049 38.5056 39.9999 36.6673 39.9999ZM36.6673 34.9999C35.749 34.9999 35.0006 35.7483 35.0006 36.6666C35.0006 37.5849 35.749 38.3333 36.6673 38.3333C37.5856 38.3333 38.334 37.5849 38.334 36.6666C38.334 35.7483 37.5856 34.9999 36.6673 34.9999Z" fill="#47C839"/>
<path d="M3.33333 39.9999C1.495 39.9999 0 38.5049 0 36.6666C0 34.8283 1.495 33.3333 3.33333 33.3333C5.17167 33.3333 6.66667 34.8283 6.66667 36.6666C6.66667 38.5049 5.17167 39.9999 3.33333 39.9999ZM3.33333 34.9999C2.415 34.9999 1.66667 35.7483 1.66667 36.6666C1.66667 37.5849 2.415 38.3333 3.33333 38.3333C4.25167 38.3333 5 37.5849 5 36.6666C5 35.7483 4.25167 34.9999 3.33333 34.9999Z" fill="#47C839"/>
</g>
<defs>
<clipPath id="clip0_200_6869">
<rect width="40" height="40" fill="white"/>
</clipPath>
</defs>
</svg>
