<svg width="40" height="40" viewBox="0 0 40 40" fill="none" xmlns="http://www.w3.org/2000/svg">
<path d="M3.75 4.375C4.09518 4.375 4.375 4.09518 4.375 3.75C4.375 3.40482 4.09518 3.125 3.75 3.125C3.40482 3.125 3.125 3.40482 3.125 3.75C3.125 4.09518 3.40482 4.375 3.75 4.375Z" fill="#9788B7"/>
<path d="M8.125 3.125H15.625V4.375H8.125V3.125Z" fill="#9788B7"/>
<path d="M13.75 33.125H10C8.96625 33.125 8.125 33.9662 8.125 35C8.125 36.0338 8.96625 36.875 10 36.875H13.75C14.7838 36.875 15.625 36.0338 15.625 35C15.625 33.9662 14.7838 33.125 13.75 33.125ZM13.75 35.625H10C9.655 35.625 9.375 35.345 9.375 35C9.375 34.655 9.655 34.375 10 34.375H13.75C14.095 34.375 14.375 34.655 14.375 35C14.375 35.345 14.095 35.625 13.75 35.625Z" fill="#9788B7"/>
<path d="M37.5 3.125H23.0619C22.7712 1.70062 21.5088 0.625 20 0.625H3.75C2.02688 0.625 0.625 2.02688 0.625 3.75V36.25C0.625 37.9731 2.02688 39.375 3.75 39.375H20C21.7231 39.375 23.125 37.9731 23.125 36.25V20.625H37.5C38.5337 20.625 39.375 19.7838 39.375 18.75V5C39.375 3.96625 38.5337 3.125 37.5 3.125ZM38.125 5V8.125H20.625V5C20.625 4.65562 20.905 4.375 21.25 4.375H37.5C37.845 4.375 38.125 4.65562 38.125 5ZM19.375 18.75V25.625C19.375 26.3144 18.8144 26.875 18.125 26.875V9.375C18.8144 9.375 19.375 9.93563 19.375 10.625V18.75ZM3.75 1.875H20C20.8137 1.875 21.5013 2.39937 21.76 3.125H21.25C20.2162 3.125 19.375 3.96625 19.375 5V5.62437L1.875 5.625V3.75C1.875 2.71625 2.71625 1.875 3.75 1.875ZM20 38.125H3.75C2.71625 38.125 1.875 37.2837 1.875 36.25V31.875H21.875V36.25C21.875 37.2837 21.0338 38.125 20 38.125ZM21.875 30.625H1.875V6.875L19.375 6.87437V8.4725C19.0056 8.2575 18.5825 8.125 18.125 8.125C17.4356 8.125 16.875 8.68563 16.875 9.375V10.2969C13.8012 12.5206 10.0444 13.75 6.25 13.75C4.52688 13.75 3.125 15.1519 3.125 16.875V19.375C3.125 20.8838 4.20062 22.1462 5.625 22.4369V28.125C5.625 28.8144 6.18563 29.375 6.875 29.375H8.24125C8.83125 29.375 9.34688 28.9556 9.46813 28.3663L9.86125 26.25H10.7375C11.7094 26.25 12.5 25.4594 12.5 24.4881C12.5 24.3719 12.4881 24.2556 12.4656 24.1419L12.3525 23.5769C13.9606 24.1519 15.4869 24.9487 16.875 25.9525V26.875C16.875 27.5644 17.4356 28.125 18.125 28.125C19.5037 28.125 20.625 27.0037 20.625 25.625V20.51C20.8213 20.58 21.03 20.625 21.25 20.625H21.875V30.625ZM16.875 24.4375C14.2575 22.7237 11.2362 21.66 8.125 21.3531V14.8969C11.2362 14.5894 14.2575 13.5262 16.875 11.8125V24.4375ZM11.24 24.3875C11.2469 24.42 11.25 24.4538 11.25 24.4881C11.25 24.7706 11.0206 25 10.7381 25H10.0944L10.465 23.0069C10.6425 23.0494 10.8169 23.1019 10.9925 23.15L11.24 24.3875ZM4.375 18.75V17.5H5.625V16.25H4.49C4.74875 15.5244 5.43625 15 6.25 15C6.45875 15 6.66625 14.9812 6.875 14.9744V21.2756C6.66625 21.2688 6.45875 21.25 6.25 21.25C5.43625 21.25 4.74875 20.7256 4.49 20H5.625V18.75H4.375ZM6.875 22.5256C7.66813 22.5538 8.45875 22.6231 9.24 22.755L8.24125 28.125H6.875V22.5256ZM37.5 19.375H21.25C20.905 19.375 20.625 19.0944 20.625 18.75V10.625V9.375H38.125V18.75C38.125 19.0944 37.845 19.375 37.5 19.375Z" fill="#9788B7"/>
<path d="M21.875 5.625H23.125V6.875H21.875V5.625Z" fill="#9788B7"/>
<path d="M26.875 5.625H28.125V6.875H26.875V5.625Z" fill="#9788B7"/>
<path d="M24.375 5.625H25.625V6.875H24.375V5.625Z" fill="#9788B7"/>
<path d="M31.875 16.875H30.625V10.625H26.875V16.875H25.625V13.125H21.875V18.125H35.625V11.875H31.875V16.875ZM24.375 16.875H23.125V14.375H24.375V16.875ZM28.125 11.875H29.375V16.875H28.125V11.875ZM33.125 13.125H34.375V16.875H33.125V13.125Z" fill="#9788B7"/>
<path d="M26.875 25.625H38.125V21.875H26.875V25.625ZM28.125 23.125H36.875V24.375H28.125V23.125Z" fill="#9788B7"/>
<path d="M26.875 26.875H29.375V28.125H26.875V26.875Z" fill="#9788B7"/>
<path d="M30.625 26.875H38.125V28.125H30.625V26.875Z" fill="#9788B7"/>
<path d="M26.875 29.375H38.125V30.625H26.875V29.375Z" fill="#9788B7"/>
<path d="M26.875 31.875H28.125V33.125H26.875V31.875Z" fill="#9788B7"/>
<path d="M29.375 31.875H38.125V33.125H29.375V31.875Z" fill="#9788B7"/>
<path d="M26.875 34.375H38.125V35.625H26.875V34.375Z" fill="#9788B7"/>
<path d="M3.125 8.125H11.875V9.375H3.125V8.125Z" fill="#9788B7"/>
<path d="M3.125 10.625H11.875V11.875H3.125V10.625Z" fill="#9788B7"/>
</svg>
