<svg width="40" height="40" viewBox="0 0 40 40" fill="none" xmlns="http://www.w3.org/2000/svg">
<path d="M15.7816 28.0314C15.6305 28.0314 15.4783 27.9794 15.3541 27.8736L11.0808 24.2349C10.9334 24.1093 10.8486 23.9257 10.8486 23.7319C10.8486 23.5384 10.9338 23.3549 11.0808 23.2293L15.3541 19.5905C15.6316 19.354 16.0484 19.3875 16.285 19.665C16.5212 19.9428 16.488 20.3596 16.2102 20.5959L12.5276 23.7319L16.2102 26.868C16.488 27.1046 16.5212 27.5213 16.285 27.7988C16.1541 27.9525 15.9684 28.0314 15.7816 28.0314Z" fill="#00BF96"/>
<path d="M24.2183 28.0314C24.0315 28.0314 23.8458 27.9525 23.7153 27.7988C23.4787 27.5213 23.5122 27.1046 23.7897 26.868L27.4723 23.7319L23.7897 20.5959C23.5122 20.3596 23.4787 19.9428 23.7153 19.665C23.9515 19.3875 24.3687 19.354 24.6458 19.5905L28.9191 23.2293C29.0665 23.3549 29.1513 23.5384 29.1513 23.7319C29.1513 23.9257 29.0665 24.1093 28.9191 24.2349L24.6458 27.8736C24.5216 27.9794 24.3694 28.0314 24.2183 28.0314Z" fill="#00BF96"/>
<path d="M18.4876 30.7605C18.4423 30.7605 18.3966 30.7558 18.3505 30.7462C17.9938 30.671 17.7653 30.3205 17.8405 29.9638L20.5037 17.319C20.5789 16.9623 20.929 16.7338 21.2861 16.809C21.6428 16.8842 21.8713 17.2343 21.7961 17.5913L19.1329 30.2362C19.0673 30.5472 18.7931 30.7605 18.4876 30.7605Z" fill="#00BF96"/>
<path d="M35.566 37.6496H4.43396C1.98924 37.6496 0 35.6608 0 33.2157V6.79248C0 4.34776 1.98924 2.35852 4.43396 2.35852H35.566C38.0108 2.35852 40 4.34776 40 6.79248V33.2157C40 35.6608 38.0108 37.6496 35.566 37.6496ZM4.43396 3.67928C2.71742 3.67928 1.32075 5.07594 1.32075 6.79248V33.2157C1.32075 34.9322 2.71742 36.3289 4.43396 36.3289H35.566C37.2826 36.3289 38.6792 34.9322 38.6792 33.2157V6.79248C38.6792 5.07594 37.2826 3.67928 35.566 3.67928H4.43396Z" fill="#00BF96"/>
<path d="M39.3396 12.9329H0.660377C0.295548 12.9329 0 12.6374 0 12.2726C0 11.9081 0.295548 11.6122 0.660377 11.6122H39.3396C39.7045 11.6122 40 11.9081 40 12.2726C40 12.6374 39.7045 12.9329 39.3396 12.9329Z" fill="#00BF96"/>
<path d="M11.2832 9.77295C10.1312 9.77295 9.19336 8.83508 9.19336 7.68311C9.19336 6.53076 10.1312 5.59326 11.2832 5.59326C12.4355 5.59326 13.373 6.53076 13.373 7.68311C13.373 8.83508 12.4355 9.77295 11.2832 9.77295ZM11.2832 6.91402C10.8594 6.91402 10.5141 7.25895 10.5141 7.68311C10.5141 8.10727 10.8594 8.45219 11.2832 8.45219C11.7074 8.45219 12.0523 8.10727 12.0523 7.68311C12.0523 7.25895 11.7074 6.91402 11.2832 6.91402Z" fill="#00BF96"/>
<path d="M4.8623 9.75269C3.70996 9.75269 2.77246 8.81519 2.77246 7.66284C2.77246 6.5105 3.70996 5.573 4.8623 5.573C6.01465 5.573 6.95215 6.5105 6.95215 7.66284C6.95215 8.81519 6.01465 9.75269 4.8623 9.75269ZM4.8623 6.89375C4.43851 6.89375 4.09321 7.23905 4.09321 7.66284C4.09321 8.087 4.43851 8.43193 4.8623 8.43193C5.28646 8.43193 5.63139 8.087 5.63139 7.66284C5.63139 7.23905 5.28646 6.89375 4.8623 6.89375Z" fill="#00BF96"/>
<path d="M17.7037 9.79284C16.5518 9.79284 15.6143 8.85534 15.6143 7.703C15.6143 6.55103 16.5518 5.61353 17.7037 5.61353C18.8561 5.61353 19.7936 6.55103 19.7936 7.703C19.7936 8.85534 18.8561 9.79284 17.7037 9.79284ZM17.7037 6.93391C17.2799 6.93391 16.935 7.27884 16.935 7.703C16.935 8.12716 17.2799 8.47209 17.7037 8.47209C18.1279 8.47209 18.4728 8.12716 18.4728 7.703C18.4728 7.27884 18.1279 6.93391 17.7037 6.93391Z" fill="#00BF96"/>
</svg>
