<svg width="40" height="40" viewBox="0 0 40 40" fill="none" xmlns="http://www.w3.org/2000/svg">
<g clip-path="url(#clip0_255_15220)">
<path d="M14.4598 8.98046C14.5695 9.56671 15.1511 10.029 15.8371 9.90077C16.5032 9.76171 16.882 9.12303 16.7574 8.52264C16.6111 7.82452 15.9216 7.43561 15.2683 7.63046C14.6848 7.8046 14.3396 8.40717 14.4598 8.98046Z" fill="#6440FB"/>
<path d="M39.7062 25.3487C33.3295 6.78678 33.7682 8.05853 33.7409 7.99533C33.0772 6.45911 31.7887 5.26486 30.2057 4.71867C29.9791 4.64047 17.1439 1.63804 16.773 1.5096C15.6354 1.11561 14.0548 1.33647 12.9453 2.35697L1.94583 12.4783C0.709238 13.6156 0 15.2347 0 16.9206V34.8437C0 36.9559 1.70919 38.6743 3.8101 38.6743H27.3424C29.4433 38.6743 31.1525 36.9559 31.1525 34.8437V33.1113L37.7117 30.3042C39.6187 29.479 40.5058 27.2641 39.7062 25.3487ZM27.3424 36.3305H3.8101C3.00157 36.3305 2.34381 35.6635 2.34381 34.8437V16.9206C2.34381 15.8886 2.77711 14.8981 3.53267 14.2032C12.9564 5.53198 7.13152 10.9406 14.5696 4.08108C14.9575 3.72357 15.4931 3.57997 16.0243 3.74013C16.499 3.88193 15.6613 3.19957 27.62 14.2033C28.3754 14.8982 28.8087 15.8886 28.8087 16.9206V34.8437C28.8086 35.6635 28.1508 36.3305 27.3424 36.3305ZM36.7851 28.1513L31.1524 30.5619V16.9206C31.1524 15.2347 30.4432 13.6156 29.2067 12.4784L21.0153 4.94095L29.4923 6.95241C30.4176 7.28734 31.1719 7.98845 31.5725 8.8866C37.9371 27.4131 37.5077 26.1696 37.5356 26.2338C37.8556 26.9735 37.517 27.8345 36.7851 28.1513Z" fill="#6440FB"/>
<path d="M18.9036 15.805C18.3069 15.5545 17.6199 15.8354 17.3694 16.4322L11.6644 30.0294C11.3389 30.8051 11.9138 31.6551 12.7445 31.6551C13.2024 31.6551 13.6374 31.385 13.8257 30.9363L19.5308 17.3391C19.7812 16.7422 19.5004 16.0554 18.9036 15.805Z" fill="#6440FB"/>
<path d="M13.4112 19.182C13.4112 16.9202 11.7547 15.0801 9.71847 15.0801C7.68224 15.0801 6.02579 16.9202 6.02579 19.182C6.02579 21.4438 7.68232 23.2839 9.71854 23.2839C11.7548 23.2839 13.4112 21.4438 13.4112 19.182ZM9.71854 20.9401C8.98735 20.9401 8.3696 20.135 8.3696 19.182C8.3696 18.229 8.98727 17.4239 9.71854 17.4239C10.4498 17.4239 11.0675 18.229 11.0675 19.182C11.0674 20.135 10.4497 20.9401 9.71854 20.9401Z" fill="#6440FB"/>
<path d="M21.5437 24.3767C19.5074 24.3767 17.8509 26.2168 17.8509 28.4786C17.8509 30.7404 19.5074 32.5805 21.5437 32.5805C23.5799 32.5805 25.2364 30.7404 25.2364 28.4786C25.2364 26.2168 23.5798 24.3767 21.5437 24.3767ZM21.5437 30.2367C20.8125 30.2367 20.1947 29.4316 20.1947 28.4786C20.1947 27.5256 20.8124 26.7205 21.5437 26.7205C22.2749 26.7205 22.8926 27.5256 22.8926 28.4786C22.8926 29.4316 22.2748 30.2367 21.5437 30.2367Z" fill="#6440FB"/>
</g>
<defs>
<clipPath id="clip0_255_15220">
<rect width="40" height="40" fill="white"/>
</clipPath>
</defs>
</svg>
