<svg width="40" height="40" viewBox="0 0 40 40" fill="none" xmlns="http://www.w3.org/2000/svg">
<path d="M39.2787 13.8676L20.5287 5.11758C20.3632 5.0403 20.1827 5.00024 20 5.00024C19.8173 5.00024 19.6368 5.0403 19.4712 5.11758L0.721238 13.8676C0.505801 13.9682 0.323543 14.1282 0.195852 14.3288C0.0681611 14.5294 0.000335693 14.7623 0.000335693 15.0001C0.000335693 15.2379 0.0681611 15.4707 0.195852 15.6713C0.323543 15.8719 0.505801 16.0319 0.721238 16.1326L7.49999 19.2963V28.7501C7.49999 32.3138 12.875 35.0001 20 35.0001C27.125 35.0001 32.5 32.3138 32.5 28.7501V19.2963L35 18.1288V25.0001C35 25.3316 35.1317 25.6495 35.3661 25.884C35.6005 26.1184 35.9185 26.2501 36.25 26.2501C36.5815 26.2501 36.8994 26.1184 37.1339 25.884C37.3683 25.6495 37.5 25.3316 37.5 25.0001V16.9626L39.2787 16.1326C39.4942 16.0319 39.6764 15.8719 39.8041 15.6713C39.9318 15.4707 39.9996 15.2379 39.9996 15.0001C39.9996 14.7623 39.9318 14.5294 39.8041 14.3288C39.6764 14.1282 39.4942 13.9682 39.2787 13.8676ZM30 28.7501C30 30.2801 26.105 32.5001 20 32.5001C13.895 32.5001 9.99999 30.2801 9.99999 28.7501V20.4626L19.4712 24.8826C19.6368 24.9599 19.8173 24.9999 20 24.9999C20.1827 24.9999 20.3632 24.9599 20.5287 24.8826L26.7787 21.9651C27.074 21.8217 27.3009 21.5679 27.4107 21.2586C27.5204 20.9493 27.5041 20.6093 27.3652 20.3119C27.2264 20.0145 26.9762 19.7836 26.6686 19.6692C26.361 19.5547 26.0207 19.5658 25.7212 19.7001L20 22.3751L4.20499 15.0001L20 7.62508L35.7937 15.0001L30.7212 17.3676C30.486 17.4789 30.2919 17.6616 30.1664 17.8896C30.041 18.1176 29.9906 18.3793 30.0225 18.6376C30.0131 18.6747 30.0056 18.7122 30 18.7501V28.7501Z" fill="#6440FB"/>
</svg>
