<svg width="40" height="40" viewBox="0 0 40 40" fill="none" xmlns="http://www.w3.org/2000/svg">
<path d="M38.8281 37.6562H33.6719V26.1719C33.6719 24.8795 32.6205 23.8281 31.3281 23.8281H29.5858C29.1266 21.8251 28.2127 20.1052 26.9093 18.8132C26.089 18 25.1352 17.3786 24.0775 16.9605C26.3446 15.0045 27.8242 11.6229 27.8242 8.56766C27.8242 5.79516 27.053 3.61914 25.532 2.10031C24.1561 0.72625 22.2432 0 20 0C17.7569 0 15.8439 0.72625 14.468 2.10031C12.947 3.61914 12.1757 5.79516 12.1757 8.56766C12.1757 11.6228 13.6553 15.0045 15.9224 16.9605C14.8648 17.3786 13.911 18 13.0907 18.8132C11.7873 20.1052 10.8734 21.8252 10.4143 23.8281H8.67188C7.37953 23.8281 6.32812 24.8795 6.32812 26.1719V37.6562H1.17188C0.524687 37.6562 0 38.1809 0 38.8281C0 39.4753 0.524687 40 1.17188 40H38.8281C39.4753 40 40 39.4753 40 38.8281C40 38.1809 39.4753 37.6562 38.8281 37.6562ZM20 2.34375C21.7211 2.34375 24.4223 2.91586 25.2388 6.31727C24.0444 6.16539 23.3623 5.82797 22.8285 5.56383C22.3052 5.30492 21.7121 5.01141 20.9883 5.17734C20.4007 5.31203 19.9806 5.64352 19.5745 5.96414C18.8342 6.54844 17.7535 7.39953 14.5617 7.57187C14.9591 3.05133 18.0859 2.34375 20 2.34375ZM14.6375 9.91469C18.6177 9.70508 20.1044 8.53187 21.0266 7.80383C21.1602 7.69836 21.332 7.56281 21.4384 7.49789C21.5325 7.53758 21.6713 7.60625 21.7891 7.66453C22.4777 8.00523 23.5589 8.53992 25.4775 8.6968C25.4469 10.4223 24.8054 12.3362 23.7452 13.8441C22.6634 15.383 21.2982 16.2656 20 16.2656C18.7018 16.2656 17.3366 15.383 16.2547 13.8441C15.4395 12.6845 14.8707 11.2844 14.6375 9.91469ZM19.375 18.6719H20.625C23.8772 18.6719 26.2495 20.5734 27.17 23.8281H12.83C13.7505 20.5734 16.1228 18.6719 19.375 18.6719ZM8.67188 37.6562V26.1719H31.3281V37.6562H8.67188Z" fill="#6440FB"/>
<path d="M20 32.4216C20.6472 32.4216 21.1719 31.897 21.1719 31.2498C21.1719 30.6025 20.6472 30.0779 20 30.0779C19.3528 30.0779 18.8281 30.6025 18.8281 31.2498C18.8281 31.897 19.3528 32.4216 20 32.4216Z" fill="#6440FB"/>
</svg>
