<svg width="40" height="40" viewBox="0 0 40 40" fill="none" xmlns="http://www.w3.org/2000/svg">
<g clip-path="url(#clip0_255_15266)">
<path d="M5.55056 33.1249C5.35426 33.1247 5.16048 33.0808 4.98321 32.9965C4.80595 32.9122 4.64963 32.7895 4.52555 32.6374C1.4355 28.7957 -0.126679 23.948 0.138917 19.0249C0.404513 14.1018 2.47916 9.45031 5.9646 5.96332C9.45003 2.47634 14.1006 0.399622 19.0236 0.131838C23.9466 -0.135947 28.795 1.42407 32.6381 4.51242C32.7912 4.61693 32.921 4.75216 33.0192 4.90951C33.1173 5.06685 33.1816 5.24289 33.2081 5.42644C33.2346 5.60998 33.2226 5.79702 33.1729 5.97569C33.1232 6.15435 33.0369 6.32072 32.9195 6.46425C32.802 6.60777 32.656 6.72531 32.4907 6.8094C32.3255 6.89348 32.1445 6.94228 31.9594 6.95268C31.7742 6.96309 31.5889 6.93488 31.4152 6.86985C31.2416 6.80482 31.0833 6.70438 30.9506 6.57492C27.6296 3.84086 23.4097 2.44107 19.113 2.64827C14.8164 2.85547 10.7508 4.65482 7.7083 7.69575C4.66581 10.7367 2.86438 14.8014 2.65497 19.0979C2.44557 23.3944 3.8432 27.615 6.57556 30.9374C6.73253 31.1328 6.83144 31.3684 6.86099 31.6174C6.89054 31.8663 6.84955 32.1185 6.7427 32.3452C6.63584 32.572 6.46742 32.7641 6.25664 32.8998C6.04585 33.0354 5.80119 33.1091 5.55056 33.1124V33.1249Z" fill="#6440FB"/>
<path d="M19.999 40.0001C15.7419 40.0091 11.5953 38.6459 8.17401 36.1126C8.01569 36.0163 7.87912 35.8881 7.77294 35.7363C7.66676 35.5844 7.5933 35.4121 7.5572 35.2304C7.52111 35.0486 7.52318 34.8614 7.56327 34.6804C7.60337 34.4995 7.68062 34.3289 7.79012 34.1794C7.89962 34.03 8.03899 33.9049 8.19939 33.8121C8.35979 33.7193 8.53772 33.6609 8.72189 33.6405C8.90607 33.6201 9.09247 33.6382 9.26928 33.6936C9.44609 33.7491 9.60945 33.8406 9.74901 33.9626C12.7135 36.1612 16.3082 37.3448 19.999 37.3376C24.5962 37.3342 29.0041 35.5066 32.2548 32.2559C35.5055 29.0052 37.3332 24.5972 37.3365 20.0001C37.3474 16.3106 36.1682 12.7161 33.974 9.75005C33.8607 9.60959 33.7771 9.44767 33.728 9.27402C33.679 9.10038 33.6656 8.91861 33.6886 8.73965C33.7117 8.56069 33.7707 8.38825 33.8622 8.23269C33.9536 8.07714 34.0756 7.9417 34.2207 7.83452C34.3659 7.72734 34.5312 7.65064 34.7068 7.60904C34.8824 7.56743 35.0645 7.56178 35.2424 7.59243C35.4202 7.62308 35.5899 7.68939 35.7415 7.78737C35.893 7.88534 36.0231 8.01297 36.124 8.16255C38.6555 11.5888 40.0144 15.7401 39.999 20.0001C39.999 25.3044 37.8919 30.3915 34.1411 34.1422C30.3904 37.8929 25.3033 40.0001 19.999 40.0001Z" fill="#6440FB"/>
<path d="M17.4991 26.5251C16.794 26.5218 16.1187 26.2402 15.6201 25.7416C15.1215 25.243 14.8399 24.5677 14.8366 23.8626V16.1501C14.837 15.6823 14.9606 15.2228 15.195 14.818C15.4295 14.4132 15.7664 14.0773 16.1719 13.8441C16.5775 13.6109 17.0373 13.4887 17.5051 13.4898C17.9729 13.4908 18.4321 13.6151 18.8366 13.8501L25.4991 17.6876C25.9007 17.9254 26.2335 18.2637 26.4646 18.6692C26.6958 19.0746 26.8173 19.5333 26.8173 20.0001C26.8173 20.4668 26.6958 20.9255 26.4646 21.331C26.2335 21.7365 25.9007 22.0748 25.4991 22.3126L18.8366 26.1501C18.4318 26.3912 17.9703 26.5206 17.4991 26.5251ZM17.4991 16.1626V23.8626L24.2116 20.0001L17.4991 16.1626Z" fill="#6440FB"/>
</g>
<defs>
<clipPath id="clip0_255_15266">
<rect width="40" height="40" fill="white"/>
</clipPath>
</defs>
</svg>
