<svg width="24" height="24" viewBox="0 0 24 24" fill="none" xmlns="http://www.w3.org/2000/svg">
<g clip-path="url(#clip0_193_5896)">
<path d="M23.5673 8.32052L12.3173 3.07052C12.2179 3.02415 12.1096 3.00012 12 3.00012C11.8904 3.00012 11.7821 3.02415 11.6828 3.07052L0.432755 8.32052C0.303493 8.38092 0.194138 8.47692 0.117523 8.59728C0.0409089 8.71764 0.000213623 8.85735 0.000213623 9.00002C0.000213623 9.1427 0.0409089 9.28241 0.117523 9.40277C0.194138 9.52313 0.303493 9.61913 0.432755 9.67952L4.50001 11.5778V17.25C4.50001 19.3883 7.72501 21 12 21C16.275 21 19.5 19.3883 19.5 17.25V11.5778L21 10.8773V15C21 15.1989 21.079 15.3897 21.2197 15.5304C21.3603 15.671 21.5511 15.75 21.75 15.75C21.9489 15.75 22.1397 15.671 22.2803 15.5304C22.421 15.3897 22.5 15.1989 22.5 15V10.1775L23.5673 9.67952C23.6965 9.61913 23.8059 9.52313 23.8825 9.40277C23.9591 9.28241 23.9998 9.1427 23.9998 9.00002C23.9998 8.85735 23.9591 8.71764 23.8825 8.59728C23.8059 8.47692 23.6965 8.38092 23.5673 8.32052ZM18 17.25C18 18.168 15.663 19.5 12 19.5C8.337 19.5 6.00001 18.168 6.00001 17.25V12.2775L11.6828 14.9295C11.7821 14.9759 11.8904 14.9999 12 14.9999C12.1096 14.9999 12.2179 14.9759 12.3173 14.9295L16.0673 13.179C16.2444 13.093 16.3806 12.9407 16.4464 12.7552C16.5123 12.5696 16.5025 12.3655 16.4192 12.1871C16.3359 12.0087 16.1857 11.8702 16.0012 11.8015C15.8166 11.7328 15.6124 11.7395 15.4328 11.82L12 13.425L2.52301 9.00002L12 4.57502L21.4763 9.00002L18.4328 10.4205C18.2916 10.4873 18.1751 10.5969 18.0999 10.7337C18.0246 10.8705 17.9944 11.0276 18.0135 11.1825C18.0079 11.2048 18.0034 11.2273 18 11.25V17.25Z" fill="white"/>
</g>
<defs>
<clipPath id="clip0_193_5896">
<rect width="24" height="24" fill="white"/>
</clipPath>
</defs>
</svg>
