<svg width="24" height="24" viewBox="0 0 24 24" fill="none" xmlns="http://www.w3.org/2000/svg">
<path d="M20.2224 12.6562H19.684C19.3694 10.467 17.6089 8.73858 15.4043 8.47317C16.339 7.57678 16.9219 6.31612 16.9219 4.92188C16.9219 2.20795 14.7139 0 12 0C9.2861 0 7.07814 2.20795 7.07814 4.92188C7.07814 6.31617 7.66103 7.57678 8.59577 8.47317C6.39119 8.73858 4.63066 10.467 4.31608 12.6562H3.77767C2.49297 12.6562 1.50836 13.7959 1.68935 15.0629L2.86628 23.3952C2.91527 23.7421 3.21217 24 3.56252 24H20.4375C20.7879 24 21.0848 23.7421 21.1338 23.3952L22.3106 15.0639C22.4921 13.7932 21.5047 12.6562 20.2224 12.6562ZM8.48439 4.92188C8.48439 2.98336 10.0615 1.40625 12 1.40625C13.9385 1.40625 15.5156 2.98336 15.5156 4.92188C15.5156 6.86039 13.9385 8.4375 12 8.4375C10.0615 8.4375 8.48439 6.86039 8.48439 4.92188ZM9.18752 9.84375H14.8125C16.5103 9.84375 17.9308 11.0535 18.2575 12.6562H5.74253C6.06921 11.0535 7.48975 9.84375 9.18752 9.84375ZM20.9183 14.8662L19.8267 22.5938H4.1733L3.08163 14.865C3.02097 14.441 3.34853 14.0625 3.77767 14.0625C3.97202 14.0625 20.141 14.0625 20.2224 14.0625C20.651 14.0625 20.9792 14.44 20.9183 14.8662Z" fill="white"/>
<path d="M12.0001 16.9219C10.837 16.9219 9.89069 17.8681 9.89069 19.0312C9.89069 20.1944 10.837 21.1406 12.0001 21.1406C13.1632 21.1406 14.1094 20.1944 14.1094 19.0312C14.1094 17.8681 13.1632 16.9219 12.0001 16.9219ZM12.0001 19.7344C11.6124 19.7344 11.2969 19.419 11.2969 19.0312C11.2969 18.6435 11.6124 18.3281 12.0001 18.3281C12.3878 18.3281 12.7032 18.6435 12.7032 19.0312C12.7032 19.419 12.3878 19.7344 12.0001 19.7344Z" fill="white"/>
</svg>
