<svg width="60" height="43" viewBox="0 0 60 43" fill="none" xmlns="http://www.w3.org/2000/svg">
<path d="M14.837 42.3294C11.0326 42.3294 7.6087 40.8076 4.56522 37.7642C1.52174 34.612 0 29.9924 0 23.9055C0 16.9489 1.84783 11.2968 5.54348 6.94894C9.34783 2.49241 14.7283 0.26416 21.6848 0.26416C24.1848 0.26416 26.1413 0.427198 27.5543 0.753281V8.25328C26.0326 8.03589 24.0761 7.9272 21.6848 7.9272C17.9891 7.9272 15 9.1772 12.7174 11.6772C10.5435 13.8511 9.29348 16.7315 8.96739 20.3185C10.3804 18.5794 12.663 17.7098 15.8152 17.7098C19.0761 17.7098 21.8478 18.8511 24.1304 21.1337C26.413 23.3076 27.5543 26.1881 27.5543 29.775C27.5543 33.4707 26.3587 36.5142 23.9674 38.9055C21.5761 41.1881 18.5326 42.3294 14.837 42.3294ZM47.2826 42.3294C43.4783 42.3294 40.0543 40.8076 37.0109 37.7642C33.9674 34.612 32.4456 29.9924 32.4456 23.9055C32.4456 16.9489 34.2935 11.2968 37.9891 6.94894C41.7935 2.49241 47.1739 0.26416 54.1304 0.26416C56.6304 0.26416 58.587 0.427198 60 0.753281V8.25328C58.4783 8.03589 56.5217 7.9272 54.1304 7.9272C50.4348 7.9272 47.4456 9.1772 45.163 11.6772C42.9891 13.8511 41.7391 16.7315 41.413 20.3185C42.8261 18.5794 45.1087 17.7098 48.2609 17.7098C51.5217 17.7098 54.2935 18.8511 56.5761 21.1337C58.8587 23.3076 60 26.1881 60 29.775C60 33.4707 58.8043 36.5142 56.413 38.9055C54.0217 41.1881 50.9783 42.3294 47.2826 42.3294Z" fill="#1A064F"/>
</svg>
