<svg width="60" height="60" viewBox="0 0 60 60" fill="none" xmlns="http://www.w3.org/2000/svg">
<g clip-path="url(#clip0_159_3707)">
<path d="M19.6883 37.9938C20.525 32.8322 17.019 27.9696 11.8574 27.1328C6.69581 26.2961 1.83321 29.8021 0.996483 34.9637C0.159751 40.1253 3.66574 44.9879 8.82733 45.8246C13.9889 46.6613 18.8515 43.1553 19.6883 37.9938Z" fill="#E1D3CE"/>
<path d="M15.8301 43.9744C14.9882 41.7659 12.852 40.1963 10.3478 40.1963C7.83262 40.1963 5.68855 41.7798 4.85441 44.0037C4.83555 44.054 4.81738 44.1047 4.7998 44.1556C6.35922 45.2853 8.275 45.9531 10.3478 45.9531C12.4206 45.9531 14.3364 45.2853 15.8958 44.1556C15.8748 44.0948 15.853 44.0344 15.8301 43.9744Z" fill="#FFE177"/>
<path d="M10.3472 37.2274C11.9451 37.2274 13.2404 35.6695 13.2404 33.7477C13.2404 31.826 11.9451 30.2681 10.3472 30.2681C8.7494 30.2681 7.4541 31.826 7.4541 33.7477C7.4541 35.6695 8.7494 37.2274 10.3472 37.2274Z" fill="#FAF7F7"/>
<path d="M59.0052 37.9388C59.821 32.772 56.2939 27.9221 51.127 27.1063C45.9602 26.2905 41.1104 29.8177 40.2945 34.9845C39.4787 40.1513 43.0059 45.0012 48.1727 45.817C53.3395 46.6328 58.1894 43.1056 59.0052 37.9388Z" fill="#E1D3CE"/>
<path d="M41.4228 31.8018C40.635 33.1832 40.1826 34.7805 40.1826 36.4846C40.1826 40.6819 42.9146 44.239 46.6965 45.4807C46.8242 44.7088 46.8917 43.9166 46.8917 43.1086C46.8917 38.5263 44.7545 34.4436 41.4228 31.8018Z" fill="#CDBFBA"/>
<path d="M55.1338 43.9744C54.2919 41.7659 52.1557 40.1963 49.6515 40.1963C47.1363 40.1963 44.9923 41.7798 44.1581 44.0037C44.1393 44.054 44.1211 44.1047 44.1035 44.1556C45.6628 45.2853 47.5787 45.9531 49.6515 45.9531C51.7243 45.9531 53.6401 45.2853 55.1995 44.1556C55.1785 44.0948 55.1566 44.0344 55.1338 43.9744Z" fill="#FD8087"/>
<path d="M44.1581 44.0044C44.1393 44.0546 44.1211 44.1053 44.1035 44.1562C44.8863 44.7233 45.759 45.1739 46.6963 45.4821C46.8241 44.7099 46.8918 43.9173 46.8918 43.1088C46.8918 42.3834 46.8376 41.6708 46.7343 40.9741C45.5593 41.6497 44.64 42.7197 44.1581 44.0044Z" fill="#FE646F"/>
<path d="M56.64 2.46973H3.61039C2.71613 2.46973 1.99121 3.19465 1.99121 4.08891V16.8573C1.99121 17.7516 2.71613 18.4765 3.61039 18.4765H24.9634C25.4434 18.4765 25.8868 18.7325 26.1268 19.1482L29.2859 24.6199C29.6589 25.266 30.5915 25.266 30.9645 24.6199L34.1237 19.1482C34.3637 18.7325 34.8072 18.4765 35.2871 18.4765H56.6401C57.5343 18.4765 58.2591 17.7516 58.2591 16.8574V4.08891C58.259 3.19465 57.5341 2.46973 56.64 2.46973Z" fill="#FFE177"/>
<path d="M56.6406 2.46973H54.7441V14.5134C54.7441 15.4077 54.0192 16.1325 53.1251 16.1325H31.772C31.292 16.1325 30.8486 16.3886 30.6086 16.8042L27.6914 21.857L29.2866 24.6198C29.6596 25.2659 30.5921 25.2659 30.9652 24.6198L34.1243 19.1481C34.3643 18.7324 34.8079 18.4764 35.2877 18.4764H56.6407C57.535 18.4764 58.2598 17.7514 58.2598 16.8573V4.08891C58.2596 3.19465 57.5347 2.46973 56.6406 2.46973Z" fill="#FFD15B"/>
<path d="M49.6519 37.2274C51.2497 37.2274 52.545 35.6695 52.545 33.7477C52.545 31.826 51.2497 30.2681 49.6519 30.2681C48.0541 30.2681 46.7588 31.826 46.7588 33.7477C46.7588 35.6695 48.0541 37.2274 49.6519 37.2274Z" fill="#FAF7F7"/>
<path d="M40.3145 53.3039C45.9461 47.6723 45.9461 38.5416 40.3145 32.91C34.6829 27.2784 25.5522 27.2784 19.9206 32.91C14.289 38.5416 14.289 47.6723 19.9206 53.3039C25.5522 58.9355 34.6829 58.9355 40.3145 53.3039Z" fill="#F3EAE6"/>
<path d="M30.125 28.6855C29.5299 28.6855 28.9434 28.7223 28.3672 28.7924C35.5036 29.6596 41.0322 35.7381 41.0322 43.1085C41.0322 50.4789 35.5036 56.5573 28.3672 57.4246C28.9434 57.4946 29.5299 57.5315 30.125 57.5315C38.0906 57.5315 44.5478 51.0741 44.5478 43.1086C44.5478 35.1429 38.0906 28.6855 30.125 28.6855Z" fill="#E1D3CE"/>
<path d="M38.476 54.5174C37.1936 51.1534 33.9398 48.7627 30.1254 48.7627C26.2942 48.7627 23.0286 51.1746 21.758 54.5621C21.7293 54.6387 21.7015 54.7158 21.6748 54.7935C24.05 56.5142 26.968 57.5315 30.1253 57.5315C33.2826 57.5315 36.2007 56.5142 38.5758 54.7935C38.5441 54.7008 38.5108 54.6087 38.476 54.5174Z" fill="#62DBFB"/>
<path d="M28.3672 57.4248C30.0965 57.6329 31.8689 57.5344 33.56 57.1189C35.3945 56.6696 37.0911 55.869 38.5755 54.7936C38.3082 54.0142 37.9284 53.2732 37.4635 52.605C35.1833 55.2089 31.9818 56.9856 28.3672 57.4248Z" fill="#01D0FB"/>
<path d="M30.1256 44.2392C32.5594 44.2392 34.5324 41.8663 34.5324 38.9392C34.5324 36.0121 32.5594 33.6392 30.1256 33.6392C27.6918 33.6392 25.7188 36.0121 25.7188 38.9392C25.7188 41.8663 27.6918 44.2392 30.1256 44.2392Z" fill="#FAF7F7"/>
<path d="M12.0384 6.29512L12.9173 8.07602C12.9915 8.22637 13.1348 8.33043 13.3007 8.35457L15.2661 8.64016C15.6838 8.70086 15.8505 9.21414 15.5483 9.50875L14.1262 10.895C14.0062 11.0119 13.9514 11.1805 13.9797 11.3457L14.3155 13.303C14.3868 13.7191 13.9502 14.0363 13.5766 13.8399L11.8188 12.9157C11.6704 12.8377 11.4932 12.8377 11.3449 12.9157L9.58707 13.8399C9.21348 14.0363 8.77684 13.7191 8.8482 13.303L9.18395 11.3457C9.21231 11.1804 9.15746 11.0119 9.03746 10.895L7.61527 9.50875C7.31305 9.21414 7.47981 8.70086 7.89746 8.64016L9.86281 8.35457C10.0286 8.33043 10.1721 8.22625 10.2463 8.07602L11.1252 6.29512C11.312 5.9166 11.8516 5.9166 12.0384 6.29512Z" fill="#FAF7F7"/>
<path d="M24.4006 6.29512L25.2795 8.07602C25.3537 8.22637 25.4971 8.33043 25.6629 8.35457L27.6283 8.64016C28.0459 8.70086 28.2127 9.21414 27.9105 9.50875L26.4884 10.895C26.3684 11.0119 26.3137 11.1805 26.3419 11.3457L26.6776 13.303C26.749 13.7191 26.3124 14.0363 25.9388 13.8399L24.181 12.9157C24.0326 12.8377 23.8554 12.8377 23.7071 12.9157L21.9493 13.8399C21.5757 14.0363 21.139 13.7191 21.2104 13.303L21.5461 11.3457C21.5745 11.1804 21.5196 11.0119 21.3996 10.895L19.9776 9.50875C19.6754 9.21414 19.8421 8.70086 20.2598 8.64016L22.2251 8.35457C22.3909 8.33043 22.5344 8.22625 22.6086 8.07602L23.4875 6.29512C23.6741 5.9166 24.2138 5.9166 24.4006 6.29512Z" fill="#FAF7F7"/>
<path d="M36.7629 6.29512L37.6418 8.07602C37.716 8.22637 37.8593 8.33043 38.0252 8.35457L39.9906 8.64016C40.4082 8.70086 40.575 9.21414 40.2728 9.50875L38.8507 10.895C38.7307 11.0119 38.6759 11.1805 38.7042 11.3457L39.04 13.303C39.1113 13.7191 38.6747 14.0363 38.3011 13.8399L36.5433 12.9157C36.3949 12.8377 36.2177 12.8377 36.0694 12.9157L34.3116 13.8399C33.938 14.0363 33.5013 13.7191 33.5727 13.303L33.9084 11.3457C33.9368 11.1804 33.8821 11.0119 33.762 10.895L32.3399 9.50875C32.0377 9.21414 32.2044 8.70086 32.6221 8.64016L34.5874 8.35457C34.7532 8.33043 34.8967 8.22625 34.9709 8.07602L35.8498 6.29512C36.0364 5.9166 36.5761 5.9166 36.7629 6.29512Z" fill="#FAF7F7"/>
<path d="M49.1252 6.29512L50.0041 8.07602C50.0783 8.22637 50.2217 8.33043 50.3875 8.35457L52.3529 8.64016C52.7706 8.70086 52.9373 9.21414 52.6351 9.50875L51.213 10.895C51.093 11.0119 51.0383 11.1805 51.0665 11.3457L51.4023 13.303C51.4736 13.7191 51.037 14.0363 50.6634 13.8399L48.9056 12.9157C48.7572 12.8377 48.58 12.8377 48.4317 12.9157L46.6739 13.8399C46.3003 14.0363 45.8636 13.7191 45.935 13.303L46.2707 11.3457C46.2991 11.1804 46.2444 11.0119 46.1243 10.895L44.7022 9.50875C44.4 9.21414 44.5667 8.70086 44.9844 8.64016L46.9497 8.35457C47.1155 8.33043 47.259 8.22625 47.3332 8.07602L48.2121 6.29512C48.3988 5.9166 48.9384 5.9166 49.1252 6.29512Z" fill="#FAF7F7"/>
<path d="M10.3472 38.1061C12.4272 38.1061 14.1193 36.1509 14.1193 33.7476C14.1193 31.3443 12.4272 29.3892 10.3472 29.3892C8.26727 29.3892 6.5752 31.3444 6.5752 33.7476C6.5752 36.151 8.26738 38.1061 10.3472 38.1061ZM10.3472 31.147C11.4579 31.147 12.3614 32.3137 12.3614 33.7476C12.3614 35.1816 11.4578 36.3483 10.3472 36.3483C9.23652 36.3483 8.33301 35.1816 8.33301 33.7476C8.33301 32.3136 9.23664 31.147 10.3472 31.147Z" fill="black"/>
<path d="M49.6519 29.3892C47.572 29.3892 45.8799 31.3444 45.8799 33.7476C45.8799 36.1509 47.572 38.1061 49.6519 38.1061C51.7319 38.1061 53.4241 36.1509 53.4241 33.7476C53.4241 31.3443 51.7319 29.3892 49.6519 29.3892ZM49.6519 36.3483C48.5413 36.3483 47.6377 35.1816 47.6377 33.7476C47.6377 32.3136 48.5413 31.147 49.6519 31.147C50.7626 31.147 51.6662 32.3137 51.6662 33.7476C51.6662 35.1817 50.7626 36.3483 49.6519 36.3483Z" fill="black"/>
<path d="M49.7333 26.1346C49.7061 26.1344 49.6793 26.1343 49.652 26.1343C45.7309 26.1343 42.1696 28.3603 40.4229 31.7991C37.7025 29.32 34.0876 27.8064 30.1259 27.8064C26.0788 27.8064 22.3942 29.3865 19.6548 31.9612C17.9386 28.4411 14.3156 26.1364 10.3479 26.1364C4.64203 26.1364 0 30.7784 0 36.4843C0 42.1901 4.64203 46.8322 10.3478 46.8322C11.9919 46.8322 13.5969 46.4443 15.0455 45.7053C16.2824 52.9101 22.5735 58.4102 30.1257 58.4102C37.6385 58.4102 43.9041 52.9679 45.1871 45.8186C46.5497 46.4702 48.047 46.8178 49.571 46.8298C49.5989 46.8301 49.6267 46.8302 49.6545 46.8302C52.3874 46.8302 54.9616 45.7761 56.9115 43.8565C58.8813 41.9174 59.9781 39.3275 59.9998 36.5635C60.0444 30.8578 55.4389 26.1794 49.7333 26.1346ZM1.75781 36.4843C1.75781 31.7478 5.61129 27.8943 10.3478 27.8943C13.8701 27.8943 17.0652 30.0817 18.3471 33.3514C16.5452 35.523 15.3311 38.1987 14.9513 41.1326C13.7217 39.9831 12.0871 39.3174 10.3478 39.3174C7.90887 39.3174 5.65992 40.6614 4.47609 42.7458C2.80488 41.1775 1.75781 38.9514 1.75781 36.4843ZM5.8916 43.8255C6.73031 42.1622 8.46199 41.0752 10.3479 41.0752C12.1929 41.0752 13.8795 42.0879 14.7497 43.7181C14.7693 43.7547 14.7918 43.7887 14.8154 43.8213C13.4722 44.6409 11.9323 45.0744 10.3479 45.0744C8.71734 45.0742 7.19156 44.6176 5.8916 43.8255ZM22.749 54.4615C24.0244 51.5628 26.9389 49.6411 30.1257 49.6411C33.3168 49.6411 36.2268 51.5615 37.5022 54.4617C35.3784 55.8462 32.8446 56.6522 30.1257 56.6522C27.4068 56.6522 24.8729 55.8462 22.749 54.4615ZM38.9388 53.3841C37.3059 50.0597 33.8752 47.8835 30.1259 47.8835C26.3814 47.8835 22.9459 50.0614 21.3128 53.3841C18.4185 50.8982 16.5819 47.214 16.5819 43.1083C16.5819 35.6401 22.6577 29.5644 30.1259 29.5644C37.5941 29.5644 43.6698 35.6402 43.6698 43.1083C43.6697 47.2138 41.8331 50.8982 38.9388 53.3841ZM49.5848 45.0719C48.1136 45.0603 46.6732 44.6723 45.4042 43.9491C45.4146 43.7572 45.4209 43.5643 45.4242 43.3706C45.4242 43.3706 46.9774 41.0752 49.6521 41.0752C51.5411 41.0752 53.2709 42.1621 54.1092 43.8269C52.759 44.6501 51.2041 45.0861 49.5848 45.0719ZM55.6784 42.6037C55.6283 42.653 55.5762 42.6994 55.5252 42.7474C54.342 40.6612 52.095 39.3174 49.6521 39.3174C48.0286 39.3174 46.4808 39.9051 45.2728 40.9369C44.8521 37.9886 43.5885 35.3084 41.7336 33.1496C43.0673 29.9817 46.1902 27.8922 49.652 27.8922C49.6744 27.8922 49.6971 27.8922 49.7195 27.8924C54.456 27.9296 58.2791 31.8131 58.242 36.5495C58.2239 38.844 57.3135 40.994 55.6784 42.6037Z" fill="black"/>
<path d="M30.1256 32.7607C27.211 32.7607 24.8398 35.5326 24.8398 38.9397C24.8398 42.3468 27.211 45.1186 30.1256 45.1186C33.0401 45.1186 35.4113 42.3468 35.4113 38.9397C35.4113 35.5327 33.0401 32.7607 30.1256 32.7607ZM30.1256 43.3608C28.1803 43.3608 26.5977 41.3775 26.5977 38.9397C26.5977 36.5018 28.1803 34.5186 30.1256 34.5186C32.0709 34.5186 33.6535 36.5018 33.6535 38.9397C33.6535 41.3775 32.0709 43.3608 30.1256 43.3608Z" fill="black"/>
<path d="M8.28418 11.3886L7.98137 13.1544C7.89137 13.679 8.10301 14.1992 8.53356 14.5121C8.77696 14.6888 9.0616 14.7787 9.34813 14.7787C9.56879 14.7787 9.79051 14.7254 9.99536 14.6177L11.5811 13.784L13.1669 14.6177C13.6379 14.8655 14.1982 14.8249 14.6288 14.5121C15.0595 14.1994 15.2711 13.679 15.1811 13.1544L14.8783 11.3886L16.1613 10.1381C16.5425 9.76662 16.677 9.22135 16.5125 8.7151C16.3481 8.20897 15.9187 7.84697 15.392 7.77033L13.619 7.51264L12.8261 5.90611C12.5906 5.42881 12.1135 5.13232 11.5813 5.13232C11.049 5.13232 10.572 5.42893 10.3365 5.90611L9.5436 7.51264L7.77055 7.77033C7.24391 7.84686 6.81453 8.20885 6.65 8.7151C6.48559 9.22123 6.62012 9.76651 7.00133 10.1381L8.28418 11.3886ZM9.98856 9.2244C10.4409 9.15877 10.8317 8.87483 11.0339 8.46502L11.5813 7.35584L12.1286 8.4649C12.3309 8.87471 12.7216 9.15865 13.1738 9.22428L14.3979 9.40217L13.5119 10.2656C13.1849 10.5846 13.0357 11.0438 13.1129 11.4942L13.322 12.7132L12.2272 12.1377C11.8227 11.925 11.3397 11.925 10.9353 12.1376L9.84043 12.7132L10.0495 11.4944C10.1268 11.0441 9.97778 10.5847 9.65036 10.2655L8.76465 9.40217L9.98856 9.2244Z" fill="black"/>
<path d="M28.8756 8.71473C28.7112 8.20859 28.2818 7.8466 27.7551 7.76996L25.9821 7.51227L25.1892 5.90574C24.9537 5.42844 24.4767 5.13184 23.9445 5.13184C23.4122 5.13184 22.9353 5.42832 22.6997 5.90563L21.9068 7.51215L20.1339 7.76984C19.6071 7.84637 19.1778 8.20836 19.0133 8.71461C18.8488 9.22086 18.9835 9.76613 19.3645 10.1376L20.6474 11.3881L20.3446 13.1539C20.2546 13.6786 20.4662 14.1988 20.8968 14.5116C21.1402 14.6884 21.4248 14.7782 21.7113 14.7782C21.932 14.7782 22.1537 14.7249 22.3586 14.6172L23.9444 13.7836L25.5301 14.6172C26.0012 14.865 26.5614 14.8244 26.992 14.5116C27.4226 14.1988 27.6342 13.6786 27.5442 13.1539L27.2413 11.3881L28.5243 10.1376C28.9056 9.76625 29.0401 9.22098 28.8756 8.71473ZM25.8751 10.2654C25.5481 10.5843 25.3989 11.0436 25.4761 11.4939L25.6852 12.7129L24.5904 12.1374C24.3881 12.031 24.1662 11.9779 23.9444 11.9779C23.7225 11.9779 23.5006 12.0311 23.2984 12.1374L22.2035 12.713L22.4126 11.4939C22.4898 11.0436 22.3406 10.5843 22.0133 10.2652L21.1276 9.40191L22.3515 9.22402C22.8039 9.1584 23.1946 8.87445 23.3969 8.46465L23.9442 7.35547L24.4916 8.46477C24.694 8.87457 25.0847 9.1584 25.5368 9.22402L26.7608 9.40191L25.8751 10.2654Z" fill="black"/>
<path d="M41.238 8.7151C41.0736 8.20885 40.6442 7.84686 40.1174 7.77033L38.3445 7.51264L37.5516 5.90611C37.3161 5.42893 36.839 5.13232 36.3068 5.13232C35.7747 5.13232 35.2977 5.42881 35.0621 5.90611L34.2692 7.51264L32.4961 7.77033C31.9695 7.84686 31.5401 8.20885 31.3756 8.7151C31.2112 9.22123 31.3457 9.76651 31.7269 10.1381L33.0099 11.3886L32.707 13.1544C32.617 13.679 32.8286 14.1992 33.2591 14.5121C33.5025 14.6888 33.7871 14.7787 34.0737 14.7787C34.2943 14.7786 34.5161 14.7254 34.7209 14.6177L36.3067 13.784L37.8925 14.6177C38.3636 14.8655 38.9238 14.8249 39.3544 14.5121C39.785 14.1994 39.9966 13.679 39.9066 13.1544L39.6037 11.3886L40.8866 10.1381C41.2679 9.76651 41.4025 9.22123 41.238 8.7151ZM38.2377 10.2655C37.9104 10.5845 37.7613 11.0437 37.8385 11.4942L38.0475 12.7132L36.9528 12.1376C36.7505 12.0313 36.5287 11.9781 36.3068 11.9781C36.085 11.9781 35.8631 12.0313 35.6609 12.1376L34.5661 12.7132L34.7752 11.4941C34.8524 11.0436 34.7031 10.5844 34.3759 10.2654L33.4902 9.40205L34.7143 9.22416C35.1666 9.15842 35.5573 8.87459 35.7595 8.4649L36.3068 7.35572L36.8542 8.46479C37.0565 8.87459 37.4472 9.15854 37.8994 9.22416L39.1234 9.40205L38.2377 10.2655Z" fill="black"/>
<path d="M45.6224 14.5121C45.8658 14.6888 46.1504 14.7787 46.437 14.7787C46.6575 14.7786 46.8794 14.7254 47.0842 14.6177L48.67 13.784L50.2558 14.6177C50.7269 14.8655 51.287 14.8249 51.7177 14.5121C52.1484 14.1994 52.36 13.679 52.27 13.1544L51.9672 11.3886L53.2503 10.138C53.6314 9.76639 53.7659 9.22111 53.6014 8.71498C53.437 8.20885 53.0076 7.84686 52.4808 7.77033L50.7079 7.51264L49.915 5.90611C49.6795 5.42881 49.2024 5.13232 48.6701 5.13232C48.1379 5.13232 47.6609 5.42893 47.4254 5.90611L46.6325 7.51264L44.8594 7.77033C44.3328 7.84686 43.9034 8.20885 43.7389 8.7151C43.5745 9.22123 43.709 9.76651 44.0902 10.1381L45.373 11.3886L45.0702 13.1544C44.9802 13.679 45.1919 14.1992 45.6224 14.5121ZM47.0774 9.22428C47.5298 9.15865 47.9206 8.87471 48.1227 8.4649L48.6701 7.35572L49.2175 8.46479C49.4198 8.87459 49.8105 9.15854 50.2627 9.22416L51.4868 9.40205L50.6011 10.2654C50.2739 10.5844 50.1246 11.0436 50.2019 11.4941L50.4109 12.7131L49.3162 12.1376C49.1139 12.0312 48.8921 11.9781 48.6702 11.9781C48.4484 11.9781 48.2264 12.0313 48.0243 12.1376L46.9295 12.7132L47.1385 11.4944C47.2159 11.044 47.0666 10.5845 46.7393 10.2655L45.8536 9.40217L47.0774 9.22428Z" fill="black"/>
<path d="M8.79004 3.34852H56.641C57.0491 3.34852 57.3813 3.68051 57.3813 4.08867V16.8571C57.3813 17.2652 57.0493 17.5972 56.6411 17.5972H50.4085C49.9231 17.5972 49.5296 17.9907 49.5296 18.4761C49.5296 18.9615 49.9231 19.355 50.4085 19.355H56.6411C58.0185 19.355 59.1391 18.2345 59.1391 16.8571V4.08879C59.1391 2.71137 58.0185 1.59082 56.641 1.59082H8.79004C8.30465 1.59082 7.91113 1.98434 7.91113 2.46973C7.91113 2.95512 8.30465 3.34852 8.79004 3.34852Z" fill="black"/>
<path d="M3.61125 19.3552H24.9642C25.1297 19.3552 25.2838 19.4442 25.3665 19.5874L28.5257 25.0591C28.8596 25.6377 29.4579 25.983 30.126 25.983C30.7941 25.983 31.3923 25.6377 31.7264 25.0591L34.8855 19.5874C34.9683 19.4441 35.1225 19.3552 35.2878 19.3552H46.8926C47.378 19.3552 47.7715 18.9616 47.7715 18.4762C47.7715 17.9909 47.378 17.5973 46.8926 17.5973H35.2878C34.4965 17.5973 33.759 18.0231 33.3633 18.7085L30.2041 24.1802C30.1964 24.1937 30.1781 24.2253 30.126 24.2253C30.0739 24.2253 30.0557 24.1938 30.0479 24.1803L26.8888 18.7086C26.493 18.0232 25.7556 17.5975 24.9642 17.5975H3.61125C3.20309 17.5975 2.87109 17.2655 2.87109 16.8573V4.08879C2.87109 3.68062 3.20309 3.34863 3.61125 3.34863H5.27426C5.75965 3.34863 6.15316 2.95512 6.15316 2.46973C6.15316 1.98434 5.75965 1.59082 5.27426 1.59082H3.61125C2.23383 1.59082 1.11328 2.71137 1.11328 4.08879V16.8572C1.11328 18.2345 2.23395 19.3552 3.61125 19.3552Z" fill="black"/>
</g>
<defs>
<clipPath id="clip0_159_3707">
<rect width="60" height="60" fill="white"/>
</clipPath>
</defs>
</svg>
