<svg width="60" height="60" viewBox="0 0 60 60" fill="none" xmlns="http://www.w3.org/2000/svg">
<g clip-path="url(#clip0_159_3741)">
<path d="M0.880859 55.5972H59.1196V59.1197H0.880859V55.5972Z" fill="#E4E8ED"/>
<path d="M57.5931 55.5972H2.40723V49.7263L23.3859 47.0482C26.8949 46.6002 30.0002 49.3343 30.0002 52.8718V55.5972V52.8718C30.0002 49.3344 33.1055 46.6002 36.6145 47.0482L57.5931 49.7263V55.5972Z" fill="#FEEF8F"/>
<path d="M30.0002 52.8718C30.0002 52.6009 29.9799 52.3353 29.9446 52.0747H2.40723V55.5972H57.5931V52.0747H30.0557C30.0205 52.3353 30.0002 52.6007 30.0002 52.8718Z" fill="#FFC277"/>
<path d="M30 26.1256C31.9455 26.1256 33.5225 24.5485 33.5225 22.6031C33.5225 20.6576 31.9455 19.0806 30 19.0806C28.0546 19.0806 26.4775 20.6576 26.4775 22.6031C26.4775 24.5485 28.0546 26.1256 30 26.1256Z" fill="#EBFDC0"/>
<path d="M11.6836 36.106C13.6291 36.106 15.2061 34.529 15.2061 32.5835C15.2061 30.6381 13.6291 29.061 11.6836 29.061C9.73821 29.061 8.16113 30.6381 8.16113 32.5835C8.16113 34.529 9.73821 36.106 11.6836 36.106Z" fill="#EBFDC0"/>
<path d="M22.9561 10.3917C24.9015 10.3917 26.4786 8.81461 26.4786 6.86918C26.4786 4.92376 24.9015 3.34668 22.9561 3.34668C21.0107 3.34668 19.4336 4.92376 19.4336 6.86918C19.4336 8.81461 21.0107 10.3917 22.9561 10.3917Z" fill="#EBFDC0"/>
<path d="M48.9053 33.4053C50.8507 33.4053 52.4278 31.8283 52.4278 29.8829C52.4278 27.9374 50.8507 26.3604 48.9053 26.3604C46.9599 26.3604 45.3828 27.9374 45.3828 29.8829C45.3828 31.8283 46.9599 33.4053 48.9053 33.4053Z" fill="#EBFDC0"/>
<path d="M30 22.6031C28.6965 22.6031 27.5591 21.8943 26.9499 20.8418C26.65 21.3601 26.4775 21.9612 26.4775 22.6031C26.4775 24.5485 28.0546 26.1256 30 26.1256C31.9455 26.1256 33.5225 24.5485 33.5225 22.6031C33.5225 21.9612 33.3501 21.3601 33.0502 20.8418C32.441 21.8943 31.3036 22.6031 30 22.6031Z" fill="#C7EFBC"/>
<path d="M11.6836 32.5835C10.3801 32.5835 9.24266 31.8748 8.6335 30.8223C8.33362 31.3405 8.16113 31.9417 8.16113 32.5835C8.16113 34.529 9.73816 36.106 11.6836 36.106C13.6291 36.106 15.2061 34.529 15.2061 32.5835C15.2061 31.9417 15.0337 31.3405 14.7338 30.8223C14.1246 31.8748 12.9872 32.5835 11.6836 32.5835Z" fill="#C7EFBC"/>
<path d="M22.9551 6.86916C21.6516 6.86916 20.5141 6.16044 19.905 5.10791C19.6051 5.62619 19.4326 6.22736 19.4326 6.86916C19.4326 8.81464 21.0096 10.3917 22.9551 10.3917C24.9006 10.3917 26.4776 8.81464 26.4776 6.86916C26.4776 6.22736 26.3051 5.62619 26.0053 5.10791C25.3961 6.16044 24.2587 6.86916 22.9551 6.86916Z" fill="#C7EFBC"/>
<path d="M48.9043 29.8828C47.6008 29.8828 46.4634 29.1741 45.8542 28.1216C45.5543 28.6399 45.3818 29.241 45.3818 29.8828C45.3818 31.8283 46.9589 33.4053 48.9043 33.4053C50.8498 33.4053 52.4268 31.8283 52.4268 29.8828C52.4268 29.241 52.2543 28.6399 51.9545 28.1216C51.3453 29.1741 50.2079 29.8828 48.9043 29.8828Z" fill="#C7EFBC"/>
<path d="M25.0684 51.1938H26.8296V52.9551H25.0684V51.1938Z" fill="white"/>
<path d="M21.5459 51.1938H23.3071V52.9551H21.5459V51.1938Z" fill="white"/>
<path d="M58.4743 54.7163V48.9507L41.2227 46.7485L40.9996 48.4956L56.7131 50.5015V54.7163H40.0986V56.4776H58.2395V58.2388H8.63086V60.0001H60.0007V54.7163H58.4743Z" fill="black"/>
<path d="M1.76125 56.4772H38.3366V54.7159H30.8806V52.8712C30.8806 50.119 33.1142 47.8799 35.8599 47.8799C36.0733 47.8799 36.2894 47.8938 36.5028 47.9211L39.2519 48.2721L39.475 46.525L36.7263 46.1741C36.4395 46.1374 36.1479 46.1187 35.8599 46.1187C33.353 46.1187 31.1611 47.497 30 49.5367C28.8387 47.497 26.6469 46.1188 24.14 46.1188C23.8523 46.1188 23.5609 46.1373 23.2741 46.1741L1.52642 48.9503V54.7159H0V59.9997H6.86888V58.2384H1.76125V56.4772ZM3.28767 50.5011L23.4973 47.9211C23.7103 47.8939 23.9266 47.88 24.14 47.88C26.8856 47.88 29.1194 50.119 29.1194 52.8712V54.7159H3.28767V50.5011Z" fill="black"/>
<path d="M29.9998 18.1997C27.5719 18.1997 25.5967 20.1749 25.5967 22.6028C25.5967 25.0308 27.5719 27.006 29.9998 27.006C32.4277 27.006 34.4029 25.0308 34.4029 22.6028C34.4029 20.1749 32.4277 18.1997 29.9998 18.1997ZM29.9998 25.2447C28.5431 25.2447 27.3579 24.0595 27.3579 22.6028C27.3579 21.1462 28.5431 19.961 29.9998 19.961C31.4565 19.961 32.6417 21.1462 32.6417 22.6028C32.6417 24.0595 31.4565 25.2447 29.9998 25.2447Z" fill="black"/>
<path d="M11.6834 36.9863C12.8761 36.9863 13.9588 36.5089 14.7526 35.736C15.8 36.0324 16.9888 36.1787 18.2905 36.1787C19.3406 36.1787 20.4631 36.0845 21.6405 35.9003C23.4894 41.5738 26.5164 45.2055 30.0004 45.2055C33.4864 45.2055 36.5148 41.5697 38.3636 35.8907C38.4674 35.907 38.5712 35.9232 38.6741 35.9381C39.7541 36.0943 40.7734 36.1714 41.7243 36.1714C44.5209 36.1714 46.7198 35.5013 48.11 34.2124C48.3679 34.2597 48.6332 34.2857 48.9047 34.2857C51.3326 34.2857 53.3078 32.3105 53.3078 29.8826C53.3078 27.4546 51.3325 25.4795 48.9045 25.4795C48.7197 25.4795 48.5378 25.4923 48.3589 25.5144C47.7899 24.4624 47.0627 23.3901 46.1964 22.3169C46.7929 21.6546 47.3423 20.9876 47.8386 20.3196C50.7276 16.4319 51.5245 12.9163 50.0828 10.4206C48.6419 7.92458 45.1992 6.85785 40.3879 7.41511C39.5618 7.51092 38.7099 7.65311 37.8387 7.83828C35.9684 3.01362 33.174 0 30.0004 0C28.1663 0 26.4062 1.00157 24.8738 2.9063C24.2936 2.62427 23.6428 2.46575 22.9554 2.46575C20.5275 2.46575 18.5523 4.44094 18.5523 6.86889C18.5523 7.02094 18.56 7.17112 18.5752 7.31918C14.3061 7.0207 11.2562 8.10329 9.91816 10.4206C8.47652 12.9164 9.27342 16.4319 12.1622 20.3197C12.6568 20.9852 13.2041 21.6499 13.7981 22.3099C12.1258 24.3821 10.9808 26.4413 10.4956 28.3442C8.64301 28.864 7.28027 30.5669 7.28027 32.5832C7.28027 35.0111 9.25546 36.9863 11.6834 36.9863ZM21.9246 29.1251C22.7117 29.6396 23.5225 30.1389 24.355 30.6194C25.4802 31.2692 26.6188 31.8692 27.7589 32.4167C26.0728 33.0464 24.4298 33.5366 22.8777 33.8736C22.4746 32.3867 22.1552 30.7934 21.9246 29.1251ZM35.8342 37.613C34.2315 41.3188 32.1052 43.4442 30.0004 43.4442C27.8956 43.4442 25.7693 41.3188 24.1667 37.613C23.8867 36.9654 23.6274 36.2823 23.3889 35.5686C25.487 35.1059 27.7211 34.3853 30.0064 33.4262C32.2645 34.3705 34.498 35.0933 36.6148 35.5599C36.3755 36.2766 36.1153 36.9628 35.8342 37.613ZM37.1246 33.8684C35.5555 33.5306 33.9144 33.0427 32.2425 32.419C33.3749 31.8739 34.5126 31.2736 35.6458 30.6194C36.4782 30.1388 37.2892 29.6396 38.0762 29.1251C37.8459 30.7915 37.527 32.383 37.1246 33.8684ZM48.9045 27.2407C50.3612 27.2407 51.5464 28.4259 51.5464 29.8826C51.5464 31.3393 50.3612 32.5245 48.9045 32.5245C47.4479 32.5245 46.2627 31.3393 46.2627 29.8826C46.2627 28.4259 47.4479 27.2407 48.9045 27.2407ZM46.6681 26.0919C45.3725 26.8592 44.5014 28.2707 44.5014 29.8826C44.5014 31.3227 45.1964 32.6035 46.2687 33.4074C44.6964 34.3666 42.1096 34.6556 38.9263 34.1951C38.9065 34.1923 38.8863 34.1888 38.8663 34.1859C39.3864 32.2329 39.777 30.0844 40.013 27.792C41.851 26.4602 43.5219 25.0487 44.9747 23.6004C45.6362 24.4377 46.2051 25.2719 46.6681 26.0919ZM40.1313 18.7506C41.5178 19.8931 42.7616 21.0709 43.8325 22.2539C42.7464 23.3465 41.5262 24.4199 40.1967 25.4537C40.2479 24.5215 40.2744 23.5703 40.2744 22.6027C40.2744 21.2863 40.225 20 40.1313 18.7506ZM40.5908 9.16485C44.6011 8.69965 47.505 9.47859 48.5577 11.3015C49.6104 13.1241 48.8331 16.0283 46.4249 19.2692C46.0027 19.8375 45.5389 20.4055 45.0381 20.9708C43.5838 19.38 41.8438 17.8066 39.8868 16.3158C39.5724 13.8402 39.0751 11.5494 38.4278 9.51405C39.1663 9.36352 39.8889 9.24622 40.5908 9.16485ZM38.5131 22.6027C38.5131 24.0386 38.4522 25.4519 38.3336 26.8268C37.2022 27.6169 36.0088 28.3762 34.7652 29.0942C33.1808 30.0092 31.5795 30.8153 29.9975 31.508C28.4091 30.8121 26.8102 30.0034 25.2357 29.0942C23.9921 28.3764 22.7987 27.617 21.6672 26.8268C21.5486 25.4519 21.4877 24.0386 21.4877 22.6027C21.4877 20.784 21.5872 18.9959 21.779 17.2701C23.1694 16.2469 24.6689 15.2643 26.2525 14.3501C27.4959 13.6321 28.7502 12.9782 30.0001 12.3935C31.252 12.9786 32.5035 13.6313 33.7484 14.3501C35.3321 15.2645 36.8324 16.2449 38.2238 17.267C38.4144 18.9875 38.5131 20.7767 38.5131 22.6027ZM37.8928 14.8781C36.8499 14.1653 35.76 13.4777 34.6291 12.8247C33.7953 12.3433 32.9583 11.8912 32.1197 11.4668C33.6784 10.8329 35.2167 10.3132 36.7047 9.9189C37.1985 11.4488 37.5969 13.1151 37.8928 14.8781ZM30.0004 1.76125C32.1052 1.76125 34.2315 3.88673 35.8342 7.59253C35.9281 7.80986 36.0193 8.03178 36.1087 8.25675C34.1292 8.79088 32.0725 9.53202 30.0015 10.4575C28.9074 9.96904 27.8134 9.53119 26.7231 9.14513C27.1262 8.48055 27.3586 7.70137 27.3586 6.86889C27.3586 5.76305 26.9478 4.75198 26.2722 3.97785C27.1794 2.86027 28.4624 1.76125 30.0004 1.76125ZM27.8791 11.4681C27.0407 11.8922 26.2035 12.3445 25.3719 12.8247C24.239 13.4787 23.1502 14.1636 22.1123 14.8715C22.3228 13.6218 22.585 12.4165 22.8975 11.2705C22.9169 11.2708 22.936 11.272 22.9554 11.272C23.8487 11.272 24.6802 11.004 25.3751 10.545C26.207 10.8207 27.0423 11.1289 27.8791 11.4681ZM22.9554 4.22701C24.4121 4.22701 25.5973 5.41221 25.5973 6.86889C25.5973 8.32556 24.4121 9.51076 22.9554 9.51076C21.4987 9.51076 20.3135 8.32556 20.3135 6.86889C20.3135 5.41221 21.4987 4.22701 22.9554 4.22701ZM13.5759 19.2692C11.1677 16.0282 10.3904 13.1241 11.4433 11.3015C12.479 9.50783 15.2885 8.72971 19.1852 9.14078C19.651 9.91092 20.3464 10.5268 21.1755 10.8948C20.7172 12.5924 20.3644 14.4097 20.1214 16.3047C18.1484 17.804 16.4068 19.3786 14.9569 20.9641C14.4583 20.4011 13.9965 19.8352 13.5759 19.2692ZM19.8042 25.4537C18.4751 24.4202 17.2553 23.3472 16.1694 22.255C17.2378 21.0789 18.4835 19.9006 19.8723 18.7551C19.7766 20.0168 19.7265 21.3026 19.7265 22.6027C19.7265 23.5703 19.7531 24.5215 19.8042 25.4537ZM15.0253 23.5995C16.4782 25.0479 18.1495 26.4599 19.9878 27.7919C20.2242 30.0865 20.6153 32.2371 21.1362 34.1918C19.1074 34.4925 17.2843 34.4973 15.7863 34.1783C15.9795 33.6833 16.0867 33.1456 16.0867 32.5832C16.0867 30.3855 14.4683 28.5589 12.3607 28.2322C12.835 26.7775 13.7518 25.2033 15.0253 23.5995ZM11.6834 29.9413C13.1401 29.9413 14.3253 31.1265 14.3253 32.5832C14.3253 34.0398 13.1401 35.2251 11.6834 35.2251C10.2267 35.2251 9.04153 34.0398 9.04153 32.5832C9.04153 31.1265 10.2267 29.9413 11.6834 29.9413Z" fill="black"/>
<path d="M53.3066 2.34863H55.0679V4.10989H53.3066V2.34863Z" fill="black"/>
<path d="M53.3066 8.21875H55.0679V9.98H53.3066V8.21875Z" fill="black"/>
<path d="M56.2422 5.28369H58.0034V7.04494H56.2422V5.28369Z" fill="black"/>
<path d="M50.3711 5.28369H52.1323V7.04494H50.3711V5.28369Z" fill="black"/>
<path d="M5.75391 38.1602H7.51516V39.9214H5.75391V38.1602Z" fill="black"/>
<path d="M5.75391 44.0312H7.51516V45.7925H5.75391V44.0312Z" fill="black"/>
<path d="M8.68945 41.0957H10.4507V42.857H8.68945V41.0957Z" fill="black"/>
<path d="M2.81836 41.0957H4.57961V42.857H2.81836V41.0957Z" fill="black"/>
</g>
<defs>
<clipPath id="clip0_159_3741">
<rect width="60" height="60" fill="white"/>
</clipPath>
</defs>
</svg>
