<svg width="60" height="60" viewBox="0 0 60 60" fill="none" xmlns="http://www.w3.org/2000/svg">
<path d="M23.399 18.5273C19.4847 18.5273 16.3115 21.7005 16.3115 25.6148V28.4203C16.3115 32.3346 19.4847 35.5078 23.399 35.5078C27.3133 35.5078 30.4865 32.3346 30.4865 28.4203V25.6148C30.4865 21.7004 27.3133 18.5273 23.399 18.5273Z" fill="#FFCDAC"/>
<path d="M31.1703 1.17285H18.5175C17.2215 1.17285 16.1709 2.22344 16.1709 3.51941V24.3781C16.1709 23.0821 17.2215 22.0315 18.5175 22.0315H31.1703V1.17285Z" fill="#FFEFD5"/>
<path d="M1.17188 1.17285H13.8247C15.1207 1.17285 16.1713 2.22344 16.1713 3.51941V24.3781C16.1713 23.0821 15.1207 22.0315 13.8247 22.0315H1.17188V1.17285Z" fill="white"/>
<path d="M28.9065 35.5073H17.9293C12.1695 35.5073 7.5 40.1768 7.5 45.9367V58.8268H39.3359V45.9367C39.3359 40.1768 34.6664 35.5073 28.9065 35.5073Z" fill="#FFB954"/>
<path d="M54.8437 37.9683H29.5321C27.3317 37.9683 25.5479 39.752 25.5479 41.9525V58.8269H58.8279V41.9525C58.8279 39.7521 57.0442 37.9683 54.8437 37.9683Z" fill="#C9F3FF"/>
<path d="M42.1884 51.3274C44.0005 51.3274 45.4695 49.8584 45.4695 48.0463C45.4695 46.2342 44.0005 44.7651 42.1884 44.7651C40.3762 44.7651 38.9072 46.2342 38.9072 48.0463C38.9072 49.8584 40.3762 51.3274 42.1884 51.3274Z" fill="#72D8FF"/>
<path d="M23.399 18.5273C19.4847 18.5273 16.3115 21.7005 16.3115 25.6148V28.4203C16.3115 32.3346 19.4847 35.5078 23.399 35.5078C27.3133 35.5078 30.4865 32.3346 30.4865 28.4203V25.6148C30.4865 21.7004 27.3133 18.5273 23.399 18.5273Z" fill="white"/>
<path d="M56.6022 7.50098H43.9444C42.7152 7.50098 41.7189 8.49742 41.7189 9.72649V21.3119L38.6553 24.3755L41.7189 27.4392V28.7124C41.7189 29.9416 42.7154 30.9379 43.9444 30.9379H56.6022C57.8314 30.9379 58.8277 29.9415 58.8277 28.7124V9.7266C58.8277 8.49742 57.8314 7.50098 56.6022 7.50098Z" fill="#A0E557"/>
<path d="M42.1884 43.5933C39.733 43.5933 37.7354 45.5908 37.7354 48.0463C37.7354 50.5017 39.7329 52.4993 42.1884 52.4993C44.6437 52.4993 46.6414 50.5017 46.6414 48.0463C46.6414 45.5908 44.6437 43.5933 42.1884 43.5933ZM42.1884 50.1555C41.0253 50.1555 40.0791 49.2092 40.0791 48.0463C40.0791 46.8833 41.0254 45.937 42.1884 45.937C43.3514 45.937 44.2976 46.8833 44.2976 48.0463C44.2976 49.2092 43.3513 50.1555 42.1884 50.1555Z" fill="black"/>
<path d="M54.8441 36.7966H29.5325C26.6895 36.7966 24.3764 39.1096 24.3764 41.9528V57.6554H16.1715V51.3275C16.1715 50.6804 15.6468 50.1557 14.9996 50.1557C14.3525 50.1557 13.8278 50.6804 13.8278 51.3275V57.6554H8.67188V45.937C8.67188 40.8323 12.8248 36.6796 17.9293 36.6796C18.5764 36.6796 19.1012 36.1548 19.1012 35.5077C19.1012 35.4946 19.0997 35.4818 19.0992 35.4687C20.3527 36.2362 21.8252 36.6796 23.3996 36.6796C27.9539 36.6796 31.659 32.9745 31.659 28.4202V25.6147C31.659 21.0605 27.9539 17.3555 23.3996 17.3555C18.8455 17.3555 15.1404 21.0606 15.1404 25.6147V28.4202C15.1404 30.7398 16.103 32.8378 17.6479 34.3393C11.3804 34.4895 6.32812 39.6342 6.32812 45.937V58.8272C6.32812 59.4743 6.85289 59.9991 7.5 59.9991H58.8284C59.4755 59.9991 60.0002 59.4743 60.0002 58.8272V41.9528C60.0002 39.1097 57.6872 36.7966 54.8441 36.7966ZM17.4839 28.4201V25.6146C17.4839 22.3528 20.1376 19.6991 23.3994 19.6991C26.6612 19.6991 29.315 22.3528 29.315 25.6146V28.4201C29.315 31.6819 26.6613 34.3357 23.3994 34.3357C20.1375 34.3357 17.4839 31.6821 17.4839 28.4201ZM39.3359 57.6553H26.72V41.9528C26.72 40.402 27.9818 39.1404 29.5324 39.1404H54.8441C56.3948 39.1404 57.6565 40.4021 57.6565 41.9528V52.9608H52.1781C51.531 52.9608 51.0062 53.4855 51.0062 54.1327C51.0062 54.7798 51.531 55.3045 52.1781 55.3045H57.6565V57.6555L39.3359 57.6553Z" fill="black"/>
<path d="M47.5215 52.9624C47.2132 52.9624 46.9108 53.0877 46.693 53.3058C46.475 53.5237 46.3496 53.826 46.3496 54.1343C46.3496 54.4425 46.4749 54.7448 46.693 54.9627C46.9108 55.1806 47.2132 55.3062 47.5215 55.3062C47.8309 55.3062 48.132 55.1808 48.3499 54.9627C48.569 54.7448 48.6934 54.4425 48.6934 54.1343C48.6934 53.826 48.569 53.5237 48.3499 53.3058C48.1319 53.0878 47.8307 52.9624 47.5215 52.9624Z" fill="black"/>
<path d="M56.603 6.3291H43.9454C42.0721 6.3291 40.548 7.85312 40.548 9.72648V20.8265L37.8276 23.5467C37.37 24.0044 37.37 24.7464 37.8276 25.2041L40.548 27.9244V28.7123C40.548 30.5855 42.0721 32.1096 43.9454 32.1096H56.6031C58.4762 32.1096 60.0004 30.5855 60.0004 28.7123V9.72648C60.0004 7.85312 58.4762 6.3291 56.603 6.3291ZM57.6568 28.7121C57.6568 29.2931 57.1841 29.7659 56.6031 29.7659H43.9454C43.3643 29.7659 42.8916 29.2931 42.8916 28.7121V27.4389C42.8916 27.1281 42.7681 26.83 42.5484 26.6103L40.3135 24.3754L42.5484 22.1405C42.7681 21.9208 42.8916 21.6226 42.8916 21.3119V9.72648C42.8916 9.14547 43.3643 8.67273 43.9454 8.67273H56.6031C57.1841 8.67273 57.6568 9.14547 57.6568 9.72648V28.7121Z" fill="black"/>
<path d="M31.1709 15.5864C30.8627 15.5864 30.5604 15.7118 30.3424 15.9298C30.1244 16.1478 29.999 16.4501 29.999 16.7583C29.999 17.0665 30.1243 17.3688 30.3424 17.5868C30.5605 17.8048 30.8627 17.9302 31.1709 17.9302C31.4791 17.9302 31.7814 17.8048 31.9993 17.5868C32.2173 17.3688 32.3428 17.0665 32.3428 16.7583C32.3428 16.4501 32.2174 16.1478 31.9993 15.9298C31.7814 15.7118 31.4791 15.5864 31.1709 15.5864Z" fill="black"/>
<path d="M12.3043 22.0315C12.3043 21.3843 11.7796 20.8596 11.1325 20.8596H2.34363V2.34473H13.8247C14.4725 2.34473 14.9995 2.87172 14.9995 3.51953V18.5274C14.9995 19.1746 15.5243 19.6993 16.1714 19.6993C16.8185 19.6993 17.3433 19.1746 17.3433 18.5274V3.51953C17.3433 2.87172 17.8703 2.34473 18.5181 2.34473H29.9992V12.7756C29.9992 13.4228 30.5239 13.9475 31.1711 13.9475C31.8182 13.9475 32.3429 13.4228 32.3429 12.7756V1.17285C32.3429 0.525625 31.8182 0.000976562 31.1711 0.000976562H18.518C17.617 0.000976562 16.7944 0.341758 16.1714 0.900625C15.5483 0.341641 14.7257 0.000976562 13.8248 0.000976562H1.17187C0.524766 0.000976562 0 0.525625 0 1.17285V22.0315C0 22.6788 0.524766 23.2034 1.17187 23.2034H11.1325C11.7796 23.2034 12.3043 22.6788 12.3043 22.0315Z" fill="black"/>
<path d="M53.3464 12.8911H47.4492C46.8021 12.8911 46.2773 13.4158 46.2773 14.063C46.2773 14.7102 46.8021 15.2349 47.4492 15.2349H53.3464C53.9936 15.2349 54.5183 14.7102 54.5183 14.063C54.5183 13.4158 53.9937 12.8911 53.3464 12.8911Z" fill="black"/>
<path d="M53.3464 18.0474H47.4492C46.8021 18.0474 46.2773 18.572 46.2773 19.2192C46.2773 19.8665 46.8021 20.3911 47.4492 20.3911H53.3464C53.9936 20.3911 54.5183 19.8665 54.5183 19.2192C54.5183 18.572 53.9937 18.0474 53.3464 18.0474Z" fill="black"/>
<path d="M53.3464 23.2036H47.4492C46.8021 23.2036 46.2773 23.7283 46.2773 24.3755C46.2773 25.0227 46.8021 25.5474 47.4492 25.5474H53.3464C53.9936 25.5474 54.5183 25.0227 54.5183 24.3755C54.5183 23.7283 53.9937 23.2036 53.3464 23.2036Z" fill="black"/>
<path d="M11.3837 5.27441H5.48633C4.83922 5.27441 4.31445 5.79906 4.31445 6.44629C4.31445 7.09352 4.83922 7.61817 5.48633 7.61817H11.3836C12.0307 7.61817 12.5554 7.09352 12.5554 6.44629C12.5554 5.79906 12.0309 5.27441 11.3837 5.27441Z" fill="black"/>
<path d="M11.3837 10.4307H5.48633C4.83922 10.4307 4.31445 10.9553 4.31445 11.6025C4.31445 12.2498 4.83922 12.7744 5.48633 12.7744H11.3836C12.0307 12.7744 12.5554 12.2498 12.5554 11.6025C12.5554 10.9553 12.0309 10.4307 11.3837 10.4307Z" fill="black"/>
<path d="M11.3837 15.5864H5.48633C4.83922 15.5864 4.31445 16.1111 4.31445 16.7583C4.31445 17.4055 4.83922 17.9302 5.48633 17.9302H11.3836C12.0307 17.9302 12.5554 17.4055 12.5554 16.7583C12.5554 16.1111 12.0309 15.5864 11.3837 15.5864Z" fill="black"/>
<path d="M26.3836 5.27441H20.4863C19.8392 5.27441 19.3145 5.79906 19.3145 6.44629C19.3145 7.09352 19.8392 7.61817 20.4863 7.61817H26.3836C27.0307 7.61817 27.5554 7.09352 27.5554 6.44629C27.5554 5.79906 27.0307 5.27441 26.3836 5.27441Z" fill="black"/>
<path d="M26.3836 10.4307H20.4863C19.8392 10.4307 19.3145 10.9553 19.3145 11.6025C19.3145 12.2498 19.8392 12.7744 20.4863 12.7744H26.3836C27.0307 12.7744 27.5554 12.2498 27.5554 11.6025C27.5554 10.9553 27.0307 10.4307 26.3836 10.4307Z" fill="black"/>
</svg>
