<svg width="65" height="65" viewBox="0 0 65 65" fill="none" xmlns="http://www.w3.org/2000/svg">
<path d="M55.3516 12.543V43.0625C55.3516 44.6875 54.0312 45.957 52.457 45.957H49.3594L51.0859 45.1953L50.832 43.0117L52.1523 41.2344L50.832 39.457L51.0859 37.2734L49.0547 36.4102L48.1914 34.3789L46.0078 34.6328L44.2305 33.3125L42.4531 34.6328L40.2695 34.3789L39.4062 36.4102L37.375 37.2734L37.6289 39.457L36.3086 41.2344L37.6289 43.0117L37.375 45.1953L39.1016 45.957H12.543C10.918 45.957 9.64844 44.6367 9.64844 43.0625V12.543C9.64844 10.918 10.9688 9.64844 12.543 9.64844H52.457C54.0312 9.64844 55.3516 10.9688 55.3516 12.543Z" fill="#FECD1A"/>
<path d="M47.5312 48.0391V55.3516L44.2305 53.6758L40.8789 55.3516V48.0391L42.4531 47.8867L44.2305 49.1563L46.0078 47.8867L47.5312 48.0391Z" fill="#9D0191"/>
<path d="M50.832 43.0117L51.0859 45.1953L49.3594 45.957L49.0547 46.1094L48.1914 48.1406L47.5313 48.0391L46.0078 47.8867L44.2305 49.1563L42.4531 47.8867L40.2695 48.1406L39.3555 46.1094L39.1016 45.957L37.375 45.1953L37.5781 43.0117L36.3086 41.2344L37.5781 39.457L37.375 37.2734L39.3555 36.4102L40.2695 34.3789L42.4531 34.6328L44.2305 33.3125L46.0078 34.6328L48.1914 34.3789L49.0547 36.4102L51.0859 37.2734L50.832 39.457L52.1523 41.2344L50.832 43.0117Z" fill="#FD3A69"/>
<path d="M44.2305 44.1289C45.8291 44.1289 47.125 42.833 47.125 41.2344C47.125 39.6358 45.8291 38.3398 44.2305 38.3398C42.6319 38.3398 41.3359 39.6358 41.3359 41.2344C41.3359 42.833 42.6319 44.1289 44.2305 44.1289Z" fill="#FFF8CD"/>
<path d="M52.457 8.73438H12.543C10.4609 8.73438 8.73438 10.4102 8.73438 12.543V21.6836C8.73438 22.1914 9.14062 22.5977 9.64844 22.5977C10.1562 22.5977 10.5625 22.1914 10.5625 21.6836V12.543C10.5625 11.4258 11.4766 10.5117 12.5937 10.5117H52.5078C53.625 10.5117 54.5391 11.4258 54.5391 12.543V43.0625C54.5391 44.1797 53.625 45.0938 52.5078 45.0938H52L51.7969 43.2656L52.9141 41.793C53.168 41.4883 53.168 41.0312 52.9141 40.7266L51.7969 39.2539L52 37.4258C52.0508 37.0195 51.8477 36.6641 51.4922 36.5117L49.8164 35.75L49.0039 34.0234C48.8516 33.668 48.4961 33.4648 48.0898 33.5156L46.2109 33.7188L44.7383 32.6016C44.4336 32.3477 43.9766 32.3477 43.6719 32.6016L42.1992 33.7188L40.3711 33.5156C39.9648 33.4648 39.6094 33.668 39.457 34.0234L38.6953 35.6992L37.0195 36.4609C36.6641 36.6133 36.4609 36.9687 36.5117 37.375L36.7148 39.2031L35.5977 40.6758C35.3437 40.9805 35.3437 41.4375 35.5977 41.7422L36.7148 43.2148L36.5117 45.043H12.543C11.4258 45.043 10.5117 44.1289 10.5117 43.0117V37.5781C10.5117 37.0703 10.1055 36.6641 9.59766 36.6641C9.08984 36.6641 8.78516 37.0703 8.78516 37.5781V43.0625C8.78516 45.1445 10.4609 46.8711 12.5937 46.8711H38.7969L39.5078 48.4961C39.6094 48.75 39.8125 48.9023 40.0664 49.0039V55.3516C40.0664 56.0117 40.7773 56.418 41.3359 56.1641L44.2812 54.6914L47.2266 56.1641C47.8359 56.4687 48.4961 56.0117 48.4961 55.3516V48.9531C48.75 48.9023 48.9531 48.6992 49.0547 48.4453L49.7656 46.8203H52.5078C54.5898 46.8203 56.3164 45.1445 56.3164 43.0117V12.543C56.2148 10.4609 54.5391 8.78516 52.457 8.73438ZM38.2891 37.832L39.7109 37.2227C39.9141 37.1211 40.0664 36.9688 40.168 36.7656L40.7773 35.3437L42.3008 35.4961C42.5039 35.4961 42.7578 35.4453 42.9102 35.3437L44.1797 34.4297L45.3984 35.3437C45.6016 35.4961 45.8047 35.5469 46.0078 35.4961L47.5312 35.3437L48.1406 36.7656C48.2422 36.9688 48.3945 37.1211 48.5977 37.2227L50.0195 37.832L49.8672 39.3555C49.8672 39.5586 49.918 39.8125 50.0195 39.9648L50.9336 41.1836L50.0195 42.4531C49.8672 42.6562 49.8164 42.8594 49.8672 43.0625L50.0195 44.5859L48.5977 45.1953C48.3945 45.2969 48.2422 45.4492 48.1406 45.6523L47.5312 47.0742L46.0078 46.9219C45.8047 46.8711 45.5508 46.9727 45.3984 47.0742L44.1797 47.9883L42.9102 47.0742C42.7578 46.9727 42.5039 46.8711 42.3008 46.9219L40.7773 47.0742L40.168 45.6523C40.0664 45.4492 39.9141 45.2969 39.7109 45.1953L38.3398 44.6875L38.4922 43.1641C38.4922 42.9609 38.4414 42.707 38.3398 42.5547L37.4258 41.2852L38.3398 40.0664C38.4922 39.8633 38.543 39.6602 38.4922 39.457C38.4414 39 38.2891 37.832 38.2891 37.832ZM46.668 53.9297L44.6367 52.9141C44.3828 52.8125 44.0781 52.8125 43.8242 52.9141L41.793 53.9297V48.8516L42.1992 48.8008L43.6719 49.918C43.9766 50.1719 44.4336 50.1719 44.7383 49.918L46.2109 48.8008L46.6172 48.8516L46.668 53.9297ZM8.78516 30.3164V29.6562C8.78516 29.1484 9.19141 28.7422 9.69922 28.7422C10.207 28.7422 10.6133 29.1484 10.6133 29.6562V30.3164C10.6133 30.8242 10.207 31.2305 9.69922 31.2305C9.19141 31.2305 8.78516 30.7734 8.78516 30.3164ZM17.418 37.5781C17.418 37.0703 17.8242 36.6641 18.332 36.6641H27.625C28.1328 36.6641 28.5391 37.0703 28.5391 37.5781C28.5391 38.0859 28.1328 38.4922 27.625 38.4922H18.2812C17.8242 38.4922 17.418 38.0859 17.418 37.5781ZM17.418 29.0977C17.418 28.5898 17.8242 28.1836 18.332 28.1836H46.5664C47.0742 28.1836 47.4805 28.5898 47.4805 29.0977C47.4805 29.6055 47.0742 30.0117 46.5664 30.0117H18.2812C17.8242 30.0117 17.418 29.6055 17.418 29.0977ZM18.2812 21.7852H46.5156C47.0234 21.7852 47.4297 22.1914 47.4297 22.6992C47.4297 23.207 47.0234 23.6133 46.5156 23.6133H18.2812C17.7734 23.6133 17.3672 23.207 17.3672 22.6992C17.3672 22.1914 17.8242 21.7852 18.2812 21.7852ZM44.2305 45.043C46.3125 45.043 48.0391 43.3672 48.0391 41.2344C48.0391 39.1016 46.3633 37.4258 44.2305 37.4258C42.0977 37.4258 40.4219 39.1016 40.4219 41.2344C40.4219 43.3164 42.1484 45.043 44.2305 45.043ZM44.2305 39.2539C45.3477 39.2539 46.2617 40.168 46.2617 41.2852C46.2617 42.4023 45.3477 43.3164 44.2305 43.3164C43.1133 43.3164 42.1992 42.4023 42.1992 41.2852C42.1992 40.168 43.1133 39.2539 44.2305 39.2539ZM37.4258 16.8594C36.918 16.8594 36.5117 16.4531 36.5117 15.9453C36.5117 15.4375 36.918 15.0312 37.4258 15.0312H46.7188C47.2266 15.0312 47.6328 15.4375 47.6328 15.9453C47.6328 16.4531 47.2266 16.8594 46.7188 16.8594H37.4258Z" fill="#03036B"/>
</svg>
