<svg width="34" height="34" viewBox="0 0 34 34" fill="none" xmlns="http://www.w3.org/2000/svg">
<path d="M26.8821 20.4606C26.7703 20.3413 26.6571 20.2229 26.5409 20.1067C24.5645 18.1303 22.1423 16.7618 19.5013 16.0943C22.2935 14.7021 24.2164 11.817 24.2164 8.49077C24.2163 3.80893 20.4074 0 15.7256 0C11.0438 0 7.23485 3.80893 7.23485 8.4907C7.23485 11.8169 9.15777 14.7021 11.95 16.0942C9.30891 16.7618 6.88681 18.1303 4.91043 20.1067C2.02163 22.9955 0.430664 26.8364 0.430664 30.9219C0.430664 31.2959 0.733875 31.5991 1.10794 31.5991H21.6323C22.8751 33.0666 24.7301 34 26.7992 34C30.5323 34 33.5694 30.9629 33.5694 27.2298C33.5694 23.5244 30.5771 20.5053 26.8821 20.4606ZM8.5894 8.4907C8.5894 4.55587 11.7907 1.35455 15.7256 1.35455C19.6604 1.35455 22.8617 4.55587 22.8617 8.4907C22.8617 12.4255 19.6604 15.6269 15.7256 15.6269C11.7907 15.6269 8.5894 12.4257 8.5894 8.4907ZM1.80142 30.2445C2.15596 22.8711 8.26594 16.9815 15.7256 16.9815C19.3577 16.9815 22.6695 18.3783 25.1531 20.6623C22.2129 21.3995 20.0289 24.0643 20.0289 27.2297C20.0289 28.3123 20.2847 29.3362 20.7386 30.2446H1.80142V30.2445ZM26.7992 32.6454C23.813 32.6454 21.3835 30.216 21.3835 27.2298C21.3835 24.2437 23.813 21.8142 26.7992 21.8142C29.7853 21.8142 32.2148 24.2437 32.2148 27.2298C32.2148 30.216 29.7853 32.6454 26.7992 32.6454Z" fill="#6440FB"/>
<path d="M10.1212 20.1982C9.92936 19.877 9.51346 19.7723 9.19245 19.9641C6.25743 21.7176 4.11789 24.6214 3.32261 27.9312C3.23522 28.295 3.45921 28.6606 3.82291 28.748C3.87611 28.7608 3.9293 28.7669 3.98176 28.7669C4.28762 28.7669 4.5652 28.5583 4.63971 28.2477C5.35046 25.2901 7.26309 22.6947 9.88719 21.1269C10.2082 20.9351 10.3131 20.5193 10.1212 20.1982Z" fill="#6440FB"/>
<path d="M15.7253 18.1663C14.7266 18.1663 13.732 18.2821 12.7691 18.5107C12.4051 18.597 12.1802 18.9621 12.2665 19.3261C12.3404 19.6375 12.6182 19.8471 12.9249 19.8471C12.9767 19.8471 13.0293 19.8412 13.0818 19.8287C13.9425 19.6244 14.8319 19.5208 15.7253 19.5208C16.0993 19.5208 16.4025 19.2176 16.4025 18.8435C16.4025 18.4695 16.0993 18.1663 15.7253 18.1663Z" fill="#6440FB"/>
<path d="M29.5911 26.6752H27.4863V24.5703C27.4863 24.1963 27.183 23.8931 26.809 23.8931C26.435 23.8931 26.1317 24.1963 26.1317 24.5703V26.6752H24.0269C23.6529 26.6752 23.3496 26.9784 23.3496 27.3524C23.3496 27.7265 23.6529 28.0297 24.0269 28.0297H26.1317V30.1346C26.1317 30.5087 26.435 30.8119 26.809 30.8119C27.183 30.8119 27.4863 30.5087 27.4863 30.1346V28.0297H29.5911C29.9651 28.0297 30.2683 27.7265 30.2683 27.3524C30.2683 26.9784 29.9651 26.6752 29.5911 26.6752Z" fill="#6440FB"/>
</svg>
