<svg width="34" height="34" viewBox="0 0 34 34" fill="none" xmlns="http://www.w3.org/2000/svg">
<path d="M25.707 20.3203C26.0736 20.3203 26.3711 20.0228 26.3711 19.6562C26.3711 19.2897 26.0736 18.9922 25.707 18.9922C25.3405 18.9922 25.043 19.2897 25.043 19.6562C25.043 20.0228 25.3405 20.3203 25.707 20.3203Z" fill="#6440FB"/>
<path d="M11.1828 26.1685C12.9822 28.2597 13.0899 28.3849 13.0899 30.2812V32.0078C13.0899 33.1063 13.9836 34 15.0821 34H24.379C25.4775 34 26.3712 33.1063 26.3712 32.0078V30.2812C26.3712 28.1533 26.9244 27.1282 27.565 25.9412C28.2505 24.6711 29.0274 23.2315 29.0274 20.3576V13.6797C29.0274 12.215 27.8358 11.0234 26.3712 11.0234C25.8246 11.0234 25.3161 11.1895 24.8933 11.4737C24.5299 10.4392 23.5439 9.69531 22.3868 9.69531C21.8402 9.69531 21.3317 9.86139 20.9089 10.1455C20.5456 9.11107 19.5595 8.36719 18.4024 8.36719C17.9188 8.36719 17.4653 8.49774 17.0743 8.72452V2.65625C17.0743 1.19159 15.8827 0 14.4181 0C12.9534 0 11.7618 1.19159 11.7618 2.65625V17.6025L9.64577 15.4722C8.87147 14.6926 7.71142 14.4523 6.68982 14.8602C5.031 15.5244 4.44596 17.5779 5.50554 19.0219C8.24672 22.7562 10.0136 24.8097 11.1828 26.1685ZM7.18296 16.0934C7.70823 15.8836 8.30509 16.0071 8.70346 16.4081L11.9547 19.6813C12.1442 19.8721 12.4303 19.9298 12.6789 19.8272C12.9276 19.7247 13.0899 19.4823 13.0899 19.2133V2.65625C13.0899 1.92392 13.6857 1.32812 14.418 1.32812C15.1503 1.32812 15.7461 1.92392 15.7461 2.65625V17C15.7461 17.3668 16.0434 17.6641 16.4102 17.6641C16.7769 17.6641 17.0742 17.3668 17.0742 17V11.0234C17.0742 10.2911 17.67 9.69531 18.4024 9.69531C19.1347 9.69531 19.7305 10.2911 19.7305 11.0234C19.7305 11.7718 19.7305 16.3591 19.7305 17C19.7305 17.3668 20.0278 17.6641 20.3945 17.6641C20.7613 17.6641 21.0586 17.3668 21.0586 17V12.3516C21.0586 11.6192 21.6544 11.0234 22.3867 11.0234C23.1191 11.0234 23.7149 11.6192 23.7149 12.3516C23.7149 13.6074 23.7149 16.1728 23.7149 17C23.7149 17.3668 24.0122 17.6641 24.3789 17.6641C24.7457 17.6641 25.043 17.3668 25.043 17V13.6797C25.043 12.9474 25.6388 12.3516 26.3711 12.3516C27.1034 12.3516 27.6992 12.9474 27.6992 13.6797V20.3575C27.6992 22.8959 27.0663 24.0687 26.3961 25.3104C25.7309 26.5431 25.043 27.8178 25.043 30.2812V32.0078C25.043 32.374 24.7451 32.6719 24.3789 32.6719H15.082C14.7159 32.6719 14.418 32.374 14.418 32.0078V30.2812C14.418 27.8921 14.0341 27.446 12.1895 25.3022C11.0337 23.9589 9.28691 21.9289 6.57627 18.2361C6.02955 17.4911 6.33209 16.4341 7.18296 16.0934Z" fill="#6440FB"/>
<path d="M23.0495 29.6138C23.4142 29.6502 23.7398 29.3838 23.7761 29.0188C23.9775 26.9962 24.6417 25.7655 25.2274 24.6803C25.6 23.9913 25.9519 23.3406 26.1602 22.4575C26.2444 22.1006 26.0232 21.7429 25.6663 21.6588C25.3091 21.5745 24.9517 21.7958 24.8675 22.1527C24.6998 22.864 24.4171 23.3867 24.0589 24.049C23.4456 25.1854 22.6822 26.5997 22.4545 28.8873C22.4182 29.2521 22.6846 29.5774 23.0495 29.6138Z" fill="#6440FB"/>
</svg>
