<svg width="34" height="34" viewBox="0 0 34 34" fill="none" xmlns="http://www.w3.org/2000/svg">
<g clip-path="url(#clip0_200_6607)">
<path d="M30.6806 6.10948H27.8915V3.3203C27.8915 1.48949 26.402 0 24.5712 0H3.32128C1.49046 0 0.000976562 1.48949 0.000976562 3.3203V24.5702C0.000976562 26.401 1.49046 27.8905 3.32128 27.8905H6.11039V30.6797C6.11039 32.5105 7.59988 34 9.43069 34H30.6806C32.5114 34 34.0009 32.5105 34.0009 30.6797V9.42972C34.001 7.5989 32.5115 6.10948 30.6806 6.10948ZM3.32128 26.5624C2.22279 26.5624 1.3291 25.6688 1.3291 24.5702V3.3203C1.3291 2.22181 2.22279 1.32812 3.32128 1.32812H24.5712C25.6697 1.32812 26.5634 2.22181 26.5634 3.3203V24.5702C26.5634 25.6687 25.6697 26.5624 24.5712 26.5624H3.32128ZM32.6728 30.6797C32.6728 31.7782 31.7791 32.6719 30.6806 32.6719H9.43069C8.3322 32.6719 7.43851 31.7782 7.43851 30.6797V27.8905H24.5712C26.402 27.8905 27.8915 26.401 27.8915 24.5702V7.4376H30.6806C31.7791 7.4376 32.6728 8.3313 32.6728 9.42978V30.6797Z" fill="#6440FB"/>
<path d="M9.44566 30.3477H9.42773C9.06097 30.3477 8.76367 30.645 8.76367 31.0117C8.76367 31.3785 9.06097 31.6758 9.42773 31.6758H9.44566C9.81242 31.6758 10.1097 31.3785 10.1097 31.0117C10.1097 30.645 9.81249 30.3477 9.44566 30.3477Z" fill="#6440FB"/>
<path d="M30.6806 30.3477H11.3535C10.9868 30.3477 10.6895 30.645 10.6895 31.0117C10.6895 31.3785 10.9868 31.6758 11.3535 31.6758H30.6806C31.0473 31.6758 31.3446 31.3785 31.3446 31.0117C31.3446 30.645 31.0473 30.3477 30.6806 30.3477Z" fill="#6440FB"/>
<path d="M7.30699 2.32422H7.28906C6.9223 2.32422 6.625 2.62152 6.625 2.98828C6.625 3.35504 6.9223 3.65234 7.28906 3.65234H7.30699C7.67375 3.65234 7.97105 3.35504 7.97105 2.98828C7.97105 2.62152 7.67382 2.32422 7.30699 2.32422Z" fill="#6440FB"/>
<path d="M5.38122 2.32422H3.32031C2.95355 2.32422 2.65625 2.62152 2.65625 2.98828C2.65625 3.35504 2.95355 3.65234 3.32031 3.65234H5.38115C5.74791 3.65234 6.04521 3.35504 6.04521 2.98828C6.04528 2.62152 5.74798 2.32422 5.38122 2.32422Z" fill="#6440FB"/>
<path d="M19.4896 13.3562C19.3318 12.7718 18.9559 12.284 18.4323 11.9831L15.1838 10.1077C15.1512 10.0865 15.1184 10.0662 15.0853 10.0472L11.8452 8.17642C11.4741 7.93172 11.0426 7.80249 10.5959 7.80249C9.34277 7.80249 8.32324 8.82195 8.32324 10.0752V17.8188C8.32324 17.8459 8.3249 17.8726 8.32802 17.8987C8.34111 18.2693 8.4457 18.6332 8.63256 18.9559C9.03697 19.6542 9.78988 20.088 10.5975 20.088C10.995 20.088 11.3877 19.9823 11.7323 19.7827L15.0853 17.8467C15.1043 17.8357 15.1226 17.824 15.1401 17.8114L18.4085 15.9245C18.7653 15.7253 19.062 15.432 19.2667 15.0759C19.5682 14.5512 19.6474 13.9404 19.4896 13.3562ZM18.1153 14.4141C18.0301 14.5624 17.9068 14.6842 17.7588 14.7664C17.7555 14.7681 17.7522 14.77 17.749 14.7719L14.4198 16.6938C14.4008 16.7047 14.3825 16.7166 14.365 16.7291L11.0675 18.633C10.9242 18.716 10.7616 18.7599 10.5975 18.7599C10.2622 18.7599 9.94959 18.58 9.78185 18.2904C9.69864 18.1467 9.65475 17.9839 9.65488 17.8195C9.65488 17.7969 9.65375 17.7744 9.65143 17.7521V10.0752H9.65149C9.65149 9.55435 10.0752 9.13061 10.5961 9.13061C10.7854 9.13061 10.9676 9.18613 11.1231 9.29111C11.136 9.29981 11.1492 9.30811 11.1627 9.31595L14.4226 11.1982C14.439 11.2076 14.4546 11.2176 14.4702 11.2278C14.4812 11.2351 14.4924 11.2421 14.5038 11.2487L17.7695 13.134C17.9866 13.2588 18.1422 13.4607 18.2075 13.7025C18.2728 13.9444 18.24 14.1971 18.1153 14.4141Z" fill="#6440FB"/>
</g>
<defs>
<clipPath id="clip0_200_6607">
<rect width="34" height="34" fill="white"/>
</clipPath>
</defs>
</svg>
