<svg width="1035" height="606" viewBox="0 0 1035 606" fill="none" xmlns="http://www.w3.org/2000/svg">
<path d="M627.808 183.631V7.291H392.613V183.631H382.022V193.466H637.043V183.631H627.808ZM455.902 183.462H396.426V130.814H455.902V183.462ZM455.902 127.253H396.426V10.4278H455.902V127.253ZM558.842 183.462H460.223V131.068H558.842V183.462ZM558.842 127.253H460.223V10.4278H558.842V127.253ZM623.148 183.631H563.671V130.983H623.148V183.631ZM623.148 127.253H563.671V10.8517H623.148V127.253Z" fill="#C8CBE3"/>
<path d="M275.439 601.761C277.387 602.185 279.336 600.913 279.76 598.963L311.108 431.779L294.586 427.71L272.643 597.777C272.389 599.642 273.659 601.337 275.439 601.761Z" fill="#C8CBE3"/>
<path d="M410.912 601.761C408.964 602.185 407.015 600.913 406.591 598.963L375.243 431.779L391.764 427.71L413.708 597.777C413.962 599.642 412.776 601.337 410.912 601.761Z" fill="#C8CBE3"/>
<path d="M419.47 447.633C419.47 447.633 280.607 465.437 276.371 424.827C269.423 358.785 259.087 327.755 252.902 308.85C248.835 296.557 246.463 289.351 247.903 280.873C251.462 259.424 272.812 254.506 292.892 264.51C311.701 274.006 419.47 447.633 419.47 447.633Z" fill="#52A1FA"/>
<path d="M413.539 445.768C385.834 444.835 299.331 455.093 284.504 391.594C275.608 353.528 262.391 321.058 252.902 308.85C248.835 296.557 246.463 289.351 247.903 280.873C251.462 259.424 272.812 254.506 292.892 264.51C311.701 274.006 403.288 427.795 413.539 445.768Z" fill="#297AD6"/>
<path d="M485.217 486.038C484.709 489.683 484.201 493.329 483.608 496.889C479.117 525.46 473.441 549.707 472.339 554.37C472.17 554.878 472.17 555.217 472.17 555.217H455.818C453.361 542.755 451.328 531.14 449.803 520.204C447.176 501.552 445.905 485.02 446.498 469.675C447.176 451.872 448.871 435.509 450.311 419.147L442.262 414.569L347.201 360.056L314.328 341.32H377.109C377.109 341.32 466.663 370.399 481.828 395.748C492.08 412.789 490.047 451.194 485.217 486.038Z" fill="#F0B7AA"/>
<path d="M455.478 554.454L450.226 571.749L453.53 598.624L458.867 598.879L463.697 575.31L472.254 590.909C474.541 595.148 478.015 598.54 482.76 599.218C495.299 600.829 519.869 601.252 520.886 593.029C521.902 584.551 498.18 584.212 491.232 574.886C484.539 565.9 476.405 554.031 476.405 554.031L455.478 554.454Z" fill="#141A1F"/>
<path d="M495.214 555.896L474.287 556.235C473.694 555.726 473.016 555.048 472.338 554.37C465.73 547.672 457.596 534.786 449.717 520.204C434.805 492.735 420.572 459.078 417.945 448.481C402.441 428.303 329.832 442.885 308.82 411.602C291.96 386.507 293.909 341.32 293.909 341.32C308.142 341.744 326.273 339.116 339.66 341.32C341.608 341.659 343.472 342.083 345.167 342.592C389.647 357.004 437.008 375.401 456.834 403.294C459.714 407.363 462.002 411.602 463.612 416.095C471.152 436.951 476.32 460.011 481.488 485.529C482.251 489.175 482.929 492.99 483.691 496.805C487.08 515.202 490.554 535.464 495.214 555.896Z" fill="#FFD3C9"/>
<path d="M474.287 556.235L469.034 573.53L472.338 600.405L477.676 600.659L482.505 577.09L491.063 592.69C493.35 596.929 496.824 600.32 501.568 600.998C514.108 602.609 538.678 603.033 539.694 594.809C540.711 586.331 516.988 585.992 510.041 576.667C503.348 567.68 495.214 555.811 495.214 555.811L474.287 556.235Z" fill="#30334D"/>
<path d="M481.912 395.748C459.714 392.442 457.342 426.438 435.059 441.783C430.399 445.005 424.807 447.463 417.945 448.481C393.798 433.136 327.12 444.411 302.55 410.161C284.927 385.575 293.823 341.32 293.823 341.32C296.365 341.405 300.686 341.49 306.024 341.49C330.509 341.659 377.108 341.32 377.108 341.32C377.108 341.32 466.746 370.399 481.912 395.748Z" fill="#30334D"/>
<path d="M435.059 441.783C430.399 445.005 424.807 447.463 417.945 448.481C393.798 433.136 327.12 444.411 302.55 410.161C284.927 385.575 293.823 341.32 293.823 341.32C296.365 341.405 300.686 341.49 306.024 341.49C306.109 357.089 306.109 394.9 330.509 409.228C349.657 420.419 417.013 423.895 435.059 441.783Z" fill="#23273D"/>
<path d="M353.639 197.789C352.707 195.331 351.606 193.042 350.25 190.837C350.081 190.668 349.827 190.837 349.911 191.007C354.402 198.807 356.012 208.302 354.402 217.119C353.978 219.578 353.131 221.951 352.368 224.325C352.199 224.834 353.046 225.258 353.3 224.749C354.232 222.714 354.825 220.425 355.249 218.136C355.673 215.847 355.927 213.558 355.927 211.269C355.927 206.776 355.164 202.113 353.639 197.789Z" fill="#30334D"/>
<path d="M368.551 158.028C366.772 154.806 361.773 152.263 358.215 150.991C358.13 150.991 358.045 151.076 358.13 151.161C361.095 152.602 365.755 154.552 367.449 157.435C369.313 160.487 370.076 164.047 369.568 167.608C369.059 171.338 367.195 174.645 364.569 177.273C361.858 179.901 358.638 181.936 355.503 183.886C353.555 185.072 351.606 186.175 349.573 187.277C347.539 188.379 345.421 189.311 343.473 190.414C343.134 190.583 343.388 191.261 343.727 191.092C347.709 189.651 351.521 187.446 355.164 185.242C358.553 183.207 361.942 181.088 364.823 178.375C367.534 175.747 369.568 172.525 370.245 168.71C370.923 165.065 370.33 161.25 368.551 158.028Z" fill="#30334D"/>
<path d="M356.775 256.541L339.067 290.622C339.067 290.622 342.626 309.104 347.116 316.141C349.743 320.21 359.486 322.838 371.347 323.856C384.141 324.873 399.561 324.025 411.337 321.058C425.147 331.147 437.517 327.247 443.787 321.482C451.836 314.021 426.927 316.141 425.74 312.834C424.808 310.291 430.824 307.917 428.536 305.119C425.063 300.796 412.185 309.358 412.185 309.358C399.476 307.324 389.394 304.696 379.566 302.576C374.821 301.559 366.433 298.676 361.519 298.083L356.775 256.541Z" fill="#FFD3C9"/>
<path d="M354.996 226.105L323.986 272.31C323.986 272.31 339.66 313.428 346.438 318.345C353.64 323.517 369.06 324.28 380.921 325.212L381.006 302.83C377.871 302.152 373.55 300.965 369.738 299.948C366.603 299.1 364.4 296.302 364.485 292.996C364.654 267.308 363.637 234.838 354.996 226.105Z" fill="#FFC880"/>
<path d="M361.011 152.856C356.266 148.109 346.862 147.685 341.185 151.246C336.949 153.874 335.509 154.976 331.272 157.604C324.833 161.504 316.361 159.13 309.159 161.334C305.008 162.606 301.449 165.489 299.162 169.134C296.281 170.914 294.163 173.797 293.146 177.019C292.469 179.053 292.469 181.173 292.553 183.292C292.723 185.666 293.146 188.209 292.214 190.498C290.605 194.568 285.945 196.687 282.217 198.298C277.811 200.163 273.236 201.435 268.661 202.876C264.255 204.233 259.85 205.674 255.783 207.878C252.055 209.913 248.666 212.795 246.972 216.865C246.209 218.815 245.87 220.934 246.124 222.969C246.378 224.919 247.31 226.699 248.412 228.31C250.361 231.277 253.326 234.753 251.123 238.398C250.191 239.924 248.581 241.027 247.056 242.044C245.447 243.061 243.752 243.994 242.227 245.181C238.923 247.724 236.296 251.031 234.517 254.761C234.093 255.693 233.755 256.626 233.416 257.559C231.552 263.408 232.992 272.056 240.956 278.075C247.226 282.823 262.391 269.936 266.035 281.89C266.882 284.603 275.863 292.742 278.658 293.335C304.754 299.1 330.086 259.424 336.017 242.637C352.369 223.477 354.995 207.285 349.827 188.548C354.741 183.97 364.061 175.408 365.416 168.795C366.857 162.352 365.671 157.604 361.011 152.856ZM295.603 192.363C293.824 196.263 289.757 198.468 285.775 200.078C276.117 204.148 265.357 206.691 258.155 214.236C256.037 216.525 254.258 219.408 254.512 222.545C254.851 225.682 257.223 228.31 257.562 231.447C257.986 234.923 255.698 238.229 252.987 240.348C250.191 242.468 246.887 243.655 243.752 245.35C242.989 245.774 242.227 246.283 241.464 246.876C242.82 245.689 244.26 244.672 245.785 243.74C247.395 242.807 249.005 241.874 250.361 240.603C251.631 239.416 252.563 237.975 252.818 236.279C253.072 234.499 252.394 232.803 251.547 231.277C250.615 229.581 249.344 228.055 248.412 226.445C247.395 224.664 246.887 222.714 247.141 220.595C247.565 216.186 250.445 212.541 254.004 210.167C257.816 207.624 262.222 206.013 266.543 204.656C271.033 203.215 275.608 201.944 280.014 200.333C282.132 199.485 284.25 198.637 286.284 197.535C288.063 196.602 289.842 195.416 291.198 193.89C292.638 192.363 293.485 190.498 293.655 188.379C293.909 185.92 293.316 183.462 293.316 181.088C293.316 177.103 295.18 173.203 298.145 170.66C298.23 170.575 298.315 170.491 298.484 170.406C297.383 172.525 296.62 174.814 296.451 177.188C296.112 182.19 297.806 187.701 295.603 192.363Z" fill="#30334D"/>
<path d="M381.683 342.846C356.436 339.455 335.678 349.968 309.922 347.933C306.787 347.679 303.652 347.255 300.348 346.661C294.333 345.474 290.181 339.964 290.774 333.944L299.247 251.115L306.702 225.597L308.397 219.747L319.75 215.593L338.559 214.576C360.502 224.156 373.55 248.487 360.248 276.973C347.539 304.696 381.683 342.846 381.683 342.846Z" fill="#FFB657"/>
<path d="M338.728 214.576C338.728 223.308 328.052 224.325 319.919 215.593L324.325 202.791L327.29 195.246L337.796 202.283L338.728 213.05V214.576Z" fill="#FFD3C9"/>
<path d="M317.547 272.056C311.701 287.994 305.686 326.145 309.922 348.018C306.787 347.763 303.652 347.339 300.348 346.746C294.333 345.559 290.181 340.048 290.774 334.029L299.247 251.2L306.702 225.682C313.311 230.853 319.326 236.109 319.326 236.109C319.326 236.109 324.749 252.557 317.547 272.056Z" fill="#F5AA4A"/>
<path d="M401.762 324.364C397.272 331.231 371.516 324.619 371.516 324.619C371.516 324.619 339.998 324.873 326.866 324.28C311.022 323.686 292.044 322.16 284.842 318.515C277.556 314.7 286.537 263.408 292.044 249.759C299.33 231.616 308.481 219.747 308.481 219.747L299.246 251.115L304.922 300.033C313.479 301.135 362.281 311.732 369.228 312.75C388.969 308.426 405.321 318.854 401.762 324.364Z" fill="#FFD3C9"/>
<path d="M338.22 305.628L336.186 327.077C320.343 326.484 291.875 325.975 284.674 322.33C277.388 318.515 277.049 261.543 286.199 242.807C295.942 222.714 308.566 219.747 308.566 219.747C335.508 238.653 304.076 255.778 305.008 299.948C313.565 301.05 329.493 303.085 338.22 305.628Z" fill="#FFC880"/>
<path d="M338.729 213.134C337.881 213.219 336.949 213.304 336.017 213.389C330.595 213.643 326.613 207.454 324.41 202.791L326.867 195.839L340.423 201.52L338.729 213.134Z" fill="#F0BBAF"/>
<path d="M351.86 169.049C351.86 169.049 346.607 180.155 329.07 184.225C329.07 184.225 323.562 178.205 321.19 182.02C318.818 185.751 324.579 192.363 324.579 192.363C325.257 203.215 333.052 211.863 341.1 209.828C359.486 205.165 351.86 169.049 351.86 169.049Z" fill="#FFD3C9"/>
<path d="M681.778 599.811L613.066 424.573C624.25 419.062 633.654 410.924 640.093 400.835L677.796 341.405C678.812 339.794 678.135 337.675 676.271 336.827C674.407 335.894 672.035 336.488 671.018 338.183L633.315 397.613C622.217 415.078 601.12 426.014 578.16 426.014H472.847C448.955 426.014 426.757 413.891 416.251 395.24L384.31 338.353C383.378 336.657 381.006 335.979 379.142 336.827C377.193 337.675 376.431 339.709 377.363 341.32L409.304 398.207C414.303 407.109 421.674 414.739 430.57 420.504C430.57 420.588 430.485 420.673 430.4 420.758L360.842 600.235C360.249 602.015 361.35 603.88 363.383 604.474C363.722 604.559 364.146 604.643 364.485 604.643C366.179 604.643 367.704 603.711 368.213 602.27L427.011 453.483H614.168C614.507 453.483 614.761 453.398 615.1 453.398L674.407 601.846C674.915 603.287 676.44 604.22 678.135 604.22C678.474 604.22 678.897 604.135 679.236 604.05C681.27 603.457 682.456 601.591 681.778 599.811ZM429.384 446.7L437.263 424.234C447.938 429.66 460.139 432.627 472.847 432.627H578.16C587.903 432.627 597.392 430.847 606.034 427.625L612.727 446.7H429.384Z" fill="#C8CBE3"/>
<path d="M762.774 336.318H246.718C243.414 336.318 240.787 333.605 240.787 330.384C240.787 327.077 243.498 324.449 246.718 324.449H762.774C766.078 324.449 768.705 327.162 768.705 330.384C768.705 333.605 766.078 336.318 762.774 336.318Z" fill="#2363A8"/>
<path d="M417.777 255.439L399.985 318.684H358.809V324.364H398.375H407.356H487.505L506.907 255.439H417.777Z" fill="#C8CBE3"/>
<path d="M700.417 256.626C677.88 270.869 648.396 292.403 648.396 292.403C648.396 292.403 585.954 288.842 567.314 282.06C557.741 282.992 535.882 276.295 532.662 266.969C526.731 250.098 551.725 265.867 558.418 266.206C565.789 266.63 548.421 255.609 558.418 256.626C562.316 257.05 570.619 261.543 572.737 266.46C575.024 268.071 645.007 272.395 645.007 272.395C645.007 272.395 680.083 238.398 706.432 222.29C710.414 235.177 704.568 244.079 700.417 256.626Z" fill="#FFD3C9"/>
<path d="M695.672 266.375C684.404 275.447 667.798 293.759 650.429 299.439C640.856 302.576 587.564 289.266 575.872 286.468C574.77 281.466 575.787 272.734 578.498 266.799C592.732 270.021 642.889 271.462 642.889 271.462C657.716 255.185 674.491 211.778 702.959 217.373C722.106 220.934 713.549 251.963 695.672 266.375Z" fill="#E35166"/>
<path d="M654.158 424.997C676.525 462.724 685.506 521.221 688.217 564.458C682.795 565.476 678.135 568.019 672.374 568.867C661.36 537.838 614.761 453.398 617.896 427.456C622.302 391.085 652.972 372.604 675.763 350.815C689.319 349.628 702.027 347.848 715.244 346.661C727.275 386.592 685.252 406.091 654.158 424.997Z" fill="#FFD3C9"/>
<path d="M661.19 429.151C676.779 464.758 683.557 504.604 686.268 543.264C678.304 545.468 667.968 549.961 659.326 548.52C648.651 519.441 613.32 454.839 608.068 428.219C603.153 403.378 650.684 371.247 673.983 348.781C688.047 348.357 701.01 342.846 714.82 342.422C741.085 407.278 692.792 409.737 661.19 429.151Z" fill="#141A1F"/>
<path d="M671.187 565.73C677.626 566.917 682.879 564.034 688.132 561.661C694.995 570.478 698.214 578.616 697.79 586.925C675.932 592.096 657.885 595.148 636.026 600.15C639.246 575.819 657.207 582.008 671.187 565.73Z" fill="#141A1F"/>
<path d="M603.153 431.864C617.726 473.151 615.184 532.412 609.423 575.31C603.916 575.225 598.832 576.836 592.986 576.582C588.242 544.027 569.433 447.802 577.566 422.877C588.919 388.033 612.219 380.234 638.737 363.278C652.293 364.719 665.087 365.482 678.304 366.923C682.37 408.465 637.297 419.401 603.153 431.864Z" fill="#FFD3C9"/>
<path d="M609.254 437.375C617.641 475.356 618.488 515.541 613.659 553.946C606.034 556.319 592.393 557.082 584.175 554.03C579.346 523.425 560.029 446.531 565.705 420.08C571.382 393.713 614.845 375.825 642.042 358.276C655.937 360.65 665.002 360.48 678.643 362.684C691.86 431.355 644.075 424.403 609.254 437.375Z" fill="#30334D"/>
<path d="M592.563 573.275C598.663 575.734 604.34 573.869 610.016 572.597C615.015 582.601 616.54 592.096 614.591 600.15C592.139 600.998 573.924 599.557 551.387 600.15C545.287 572.597 575.618 586.416 592.563 573.275Z" fill="#30334D"/>
<path d="M717.107 353.359C717.107 353.444 717.277 353.528 717.192 353.698C694.825 356.326 670.509 349.968 648.227 353.444C654.92 322.923 654.411 299.439 650.599 268.834C650.514 268.834 650.429 268.919 650.345 268.919C649.074 261.289 671.78 222.036 673.983 221.104C676.948 219.917 677.202 212.541 680.252 211.184C686.607 212.71 687.539 208.641 694.825 211.354C702.196 214.067 708.72 220.764 713.973 231.023C732.188 266.121 714.65 313.089 717.107 353.359Z" fill="#FFD3C9"/>
<path d="M697.621 212.965C687.877 219.408 660.427 230.768 677.117 213.389C679.829 205.674 680.167 200.248 680.167 193.889C685.081 193.72 690.08 193.635 694.994 193.466C694.91 196.602 695.503 208.217 697.621 212.965Z" fill="#F0BBAF"/>
<path d="M721.513 353.359C721.683 355.732 719.819 358.7 717.277 359.378C713.804 360.311 709.483 361.413 706.263 361.837C695.588 363.278 684.743 363.363 674.322 363.024C663.901 362.684 648.142 362.345 639.585 358.445C643.059 341.998 644.16 270.869 653.649 245.689C659.665 229.581 673.983 216.865 676.948 213.558C665.595 225.342 688.471 218.645 697.452 212.795C715.498 219.069 726.851 246.537 727.105 258.915C727.868 289.605 719.226 321.567 721.513 353.359Z" fill="#D94559"/>
<path d="M691.521 271.717C671.78 289.69 646.448 315.971 646.448 315.971C646.448 315.971 584.345 323.177 564.858 319.786C555.538 322.414 532.917 319.532 528.088 310.884C519.361 295.285 546.642 306.561 553.336 305.713C560.707 304.865 541.644 296.981 551.726 296.302C555.623 296.048 564.604 299.015 567.569 303.509C570.111 304.696 639.754 296.811 639.754 296.811C639.754 296.811 668.476 257.219 691.606 236.872C697.621 248.911 693.385 258.745 691.521 271.717Z" fill="#FFD3C9"/>
<path d="M688.471 282.144C678.982 292.996 665.765 313.936 649.582 322.499C640.686 327.162 585.954 323.347 573.923 322.584C571.975 317.836 572.314 308.341 573.923 301.983C588.496 302.661 637.382 296.133 637.382 296.133C649.159 277.566 658.224 231.87 687.2 232.464C706.686 232.888 703.636 264.934 688.471 282.144Z" fill="#ED6376"/>
<path d="M664.409 163.708C661.867 174.984 658.054 194.229 664.748 202.537C668.984 207.793 688.047 206.013 695.079 191.685C698.638 187.531 696.858 179.477 693.385 175.662C690.928 172.949 690.504 178.714 686.268 177.866C684.658 177.527 686.776 164.471 681.777 162.437C676.779 160.317 669.492 166.76 664.409 163.708Z" fill="#FFD3C9"/>
<path d="M707.958 177.781C708.466 176.679 708.974 175.492 709.313 174.39C710.076 172.186 710.499 169.897 710.245 167.608C710.076 165.573 709.483 163.623 708.381 161.928C707.28 160.232 705.585 158.961 703.637 158.282C701.773 157.604 699.739 157.435 697.791 157.435C696.689 157.095 695.673 156.756 694.91 156.163C693.639 155.23 688.81 149.974 684.32 151.33C680.846 152.348 680.338 154.467 678.558 154.806C677.965 154.552 677.288 154.298 676.694 153.959C675.339 153.196 673.898 152.348 672.373 152.009C670.086 151.5 667.544 152.178 665.68 153.619C665.002 154.043 664.409 154.552 663.816 155.315C661.02 158.876 659.156 164.386 661.359 167.778C663.562 171.169 671.441 169.304 671.95 172.101C672.204 173.203 672.289 174.899 672.882 176.51C672.797 178.714 673.814 181.003 675.678 182.275C677.033 183.207 678.558 183.546 680.083 184.225C680.592 184.479 681.185 184.818 681.608 185.157C681.778 188.209 680.931 192.618 685.167 194.313C691.521 196.942 690.25 200.841 695.249 201.52C699.909 202.198 704.823 199.739 706.179 194.144C707.449 188.548 710.754 191.346 711.686 185.496C712.702 179.986 709.567 179.647 707.958 177.781ZM667.036 153.026C667.629 152.687 668.307 152.433 669.069 152.263C670.51 152.009 671.95 152.348 673.305 152.941C674.153 153.28 674.915 153.789 675.678 154.213C673.051 153.28 669.832 152.093 667.036 153.026ZM677.372 182.36C675.254 181.427 673.814 179.647 673.39 177.527C674.322 179.647 676.101 181.681 679.829 182.275C680.846 182.444 681.354 183.123 681.608 184.055C680.168 183.292 678.728 182.953 677.372 182.36ZM707.449 176.849C707.11 176.001 707.026 174.814 707.534 173.034C709.229 166.591 708.636 163.793 705.501 160.741C703.891 159.215 701.773 158.452 699.824 157.943C702.874 158.282 705.84 159.3 707.704 161.928C710.076 165.319 709.991 169.812 708.805 173.627C708.381 174.645 707.873 175.747 707.449 176.849Z" fill="#30334D"/>
<path d="M738.713 602.355C736.764 602.778 734.816 601.507 734.392 599.557L703.044 427.371L719.565 423.301L741.509 598.37C741.763 600.235 740.577 601.931 738.713 602.355Z" fill="#C8CBE3"/>
<path d="M603.323 602.355C605.272 602.778 607.221 601.507 607.644 599.557L638.992 427.371L622.471 423.301L600.527 598.37C600.273 600.235 601.459 601.931 603.323 602.355Z" fill="#C8CBE3"/>
<path d="M607.39 425.336C603.238 433.39 608.491 443.14 617.472 444.072C651.023 447.548 734.392 452.804 737.781 420.419C749.303 311.308 769.891 297.913 766.333 276.464C762.774 255.015 727.953 255.1 707.195 263.408C678.219 275.023 709.822 333.859 680.931 378.029C662.207 406.685 620.014 401.004 607.39 425.336Z" fill="#52A1FA"/>
<path d="M766.333 276.464C764.215 263.832 751.337 258.661 736.849 258.237C741.085 261.119 744.05 265.189 744.982 270.699C748.541 292.148 727.953 305.543 716.43 414.654C713.38 443.479 647.041 442.461 608.83 439.494C610.863 441.953 613.829 443.733 617.472 444.072C651.023 447.548 734.392 452.804 737.781 420.419C749.303 311.308 769.891 297.913 766.333 276.464Z" fill="#4592EB"/>
<path d="M784.379 68.5862H721.513C715.074 68.5862 709.821 73.8425 709.821 80.2857V111.315C709.821 117.758 715.074 123.014 721.513 123.014V132.255L732.866 123.014H784.379C790.818 123.014 796.07 117.758 796.07 111.315V80.2857C796.07 73.8425 790.818 68.5862 784.379 68.5862Z" fill="#FFB657"/>
<path d="M718.039 94.4438C718.039 91.8156 720.157 89.6961 722.784 89.6961C725.41 89.6961 727.528 91.8156 727.528 94.4438C727.528 97.0719 725.41 99.1914 722.784 99.1914C720.157 99.1066 718.039 96.9871 718.039 94.4438Z" fill="white"/>
<path d="M733.119 94.4438C733.119 91.8156 735.237 89.6961 737.864 89.6961C740.49 89.6961 742.608 91.8156 742.608 94.4438C742.608 97.0719 740.49 99.1914 737.864 99.1914C735.237 99.1066 733.119 96.9871 733.119 94.4438Z" fill="white"/>
<path d="M748.201 94.4438C748.201 91.8156 750.319 89.6961 752.946 89.6961C755.572 89.6961 757.69 91.8156 757.69 94.4438C757.69 97.0719 755.572 99.1914 752.946 99.1914C750.319 99.1066 748.201 96.9871 748.201 94.4438Z" fill="white"/>
<path d="M763.367 94.1894C763.367 91.5613 765.485 89.4418 768.112 89.4418C770.738 89.4418 772.856 91.5613 772.856 94.1894C772.856 96.8176 770.738 98.937 768.112 98.937C765.485 98.937 763.367 96.8176 763.367 94.1894Z" fill="white"/>
<path d="M778.448 94.1894C778.448 91.5613 780.566 89.4418 783.193 89.4418C785.819 89.4418 787.937 91.5613 787.937 94.1894C787.937 96.8176 785.819 98.937 783.193 98.937C780.566 98.937 778.448 96.8176 778.448 94.1894Z" fill="white"/>
<path d="M211.557 75.0294H274.423C280.862 75.0294 286.115 80.2857 286.115 86.7289V117.758C286.115 124.201 280.862 129.457 274.423 129.457V138.698L263.07 129.457H211.557C205.118 129.457 199.865 124.201 199.865 117.758V86.7289C199.865 80.2857 205.118 75.0294 211.557 75.0294Z" fill="#D94559"/>
<path d="M277.896 100.887C277.896 98.2588 275.778 96.1393 273.152 96.1393C270.525 96.1393 268.407 98.2588 268.407 100.887C268.407 103.515 270.525 105.635 273.152 105.635C275.778 105.55 277.896 103.515 277.896 100.887Z" fill="white"/>
<path d="M262.815 100.887C262.815 98.2588 260.697 96.1393 258.071 96.1393C255.444 96.1393 253.326 98.2588 253.326 100.887C253.326 103.515 255.444 105.635 258.071 105.635C260.697 105.55 262.815 103.515 262.815 100.887Z" fill="white"/>
<path d="M247.734 100.887C247.734 98.2588 245.616 96.1393 242.99 96.1393C240.363 96.1393 238.245 98.2588 238.245 100.887C238.245 103.515 240.363 105.635 242.99 105.635C245.616 105.55 247.734 103.515 247.734 100.887Z" fill="white"/>
<path d="M232.568 100.717C232.568 98.0893 230.45 95.9698 227.824 95.9698C225.197 95.9698 223.079 98.0893 223.079 100.717C223.079 103.346 225.197 105.465 227.824 105.465C230.45 105.38 232.568 103.261 232.568 100.717Z" fill="white"/>
<path d="M217.488 100.717C217.488 98.0893 215.37 95.9698 212.744 95.9698C210.117 95.9698 207.999 98.0893 207.999 100.717C207.999 103.346 210.117 105.465 212.744 105.465C215.37 105.38 217.488 103.261 217.488 100.717Z" fill="white"/>
<path d="M140.981 584.551C136.66 566.069 133.864 513.082 143.692 477.475C152.249 446.7 143.861 428.642 143.777 428.473L145.64 427.625C145.979 428.388 154.452 446.446 145.725 478.069C135.982 513.337 138.778 565.815 143.014 584.127L140.981 584.551Z" fill="#0D3F75"/>
<path d="M151.149 586.077C149.793 585.568 143.015 580.651 145.727 529.868C148.438 478.662 121.834 470.354 121.58 470.354L122.173 468.404C123.359 468.743 150.556 477.221 147.76 530.038C145.133 579.634 151.827 584.297 151.911 584.297L151.149 586.077Z" fill="#0D3F75"/>
<path d="M147.59 583.11C146.065 576.667 148.861 562.593 151.741 547.672C153.69 537.668 155.723 527.24 156.147 520.204C156.571 512.997 155.469 504.435 154.368 496.211C152.843 484.597 151.402 473.66 153.859 465.86C155.384 460.943 158.943 457.298 163.603 455.856C168.602 454.33 174.278 455.433 178.768 458.908L177.498 460.519C173.6 457.467 168.601 456.45 164.196 457.806C160.129 459.078 157.164 462.13 155.808 466.454C153.521 473.745 154.961 484.512 156.401 495.872C157.503 504.265 158.604 512.913 158.18 520.289C157.757 527.495 155.723 537.923 153.69 548.011C150.894 562.085 148.098 576.582 149.454 582.601L147.59 583.11Z" fill="#0D3F75"/>
<path d="M89.215 493.329C95.061 490.87 101.924 479.425 108.278 479.679C109.718 486.97 98.9583 487.309 94.8915 491.633C91.5026 496.127 107.431 498.5 114.378 494.007C120.139 490.531 117.682 482.223 123.867 469.845C129.035 459.163 132.848 458.824 133.272 452.465C134.034 440.766 121.919 430.168 120.648 430.931C120.139 431.271 121.58 433.22 122.258 438.477C122.681 438.901 122.681 459.587 117.344 452.804C113.616 444.242 123.359 437.883 116.75 428.134C111.836 420.843 99.2125 421.097 98.9583 422.03C105.397 423.471 109.464 439.918 106.753 446.531C104.804 450.346 103.195 447.124 102.601 443.309C99.043 430.847 98.0263 424.064 88.7914 419.062C77.523 412.958 68.7117 423.725 54.5627 426.269C54.5627 426.269 51.3432 443.648 58.3753 453.228C65.1533 462.469 74.473 453.652 81.9287 455.772C85.233 456.365 86.0802 460.604 84.0468 462.724C81.1662 466.962 74.473 467.386 69.6437 467.641C61.6796 468.065 58.7989 466.369 57.867 467.895C55.41 471.795 67.9492 482.308 74.6424 479.764C83.1996 480.358 92.604 465.776 101.246 469.421C101.5 476.203 84.5552 483.918 77.2689 484.512C73.3715 484.342 70.7451 482.647 70.4062 483.24C72.3548 486.97 83.8774 495.109 89.215 493.329Z" fill="#195494"/>
<path d="M103.618 491.887C105.567 491.633 107.431 490.87 109.04 489.768C110.565 488.666 111.836 487.225 112.768 485.529C113.785 483.749 114.548 481.714 115.31 479.764C116.157 477.645 117.089 475.61 118.191 473.575C118.699 472.643 119.123 471.795 119.716 470.947C120.224 470.269 120.817 469.591 121.749 469.506C121.919 469.591 122.003 469.675 122.173 469.76C122.596 470.014 123.105 470.354 123.528 470.608C123.528 470.523 123.613 470.438 123.613 470.438C122.851 469.93 122.003 469.421 121.156 468.997C120.817 468.743 120.563 468.404 120.394 467.98C120.224 467.641 119.97 467.217 119.97 466.878C119.97 466.284 120.224 465.691 120.394 465.097C120.648 464.589 120.817 463.995 121.071 463.487C122.851 459.671 125.053 456.111 126.324 452.126C127.341 448.82 127.68 445.174 126.409 441.953C126.324 441.783 126.155 441.953 126.24 442.037C127.002 443.987 127.171 446.022 127.002 448.057C126.578 452.041 124.799 455.687 123.02 459.163C122.003 461.113 120.987 463.063 120.139 465.097C119.8 465.86 119.462 466.708 119.8 467.556C119.97 467.98 120.224 468.404 120.563 468.828C118.106 467.641 115.564 466.878 112.938 466.03C112.853 466.03 112.684 465.945 112.599 465.945C111.243 464.504 110.396 462.639 109.972 460.774C109.04 456.874 109.972 452.889 110.989 449.159C111.243 448.142 111.582 447.039 111.836 446.022C112.091 445.005 112.345 444.072 112.429 443.055C112.599 441.359 112.345 439.409 111.074 438.222C110.989 438.138 110.82 438.222 110.904 438.392C112.514 440.003 112.429 442.377 112.006 444.496C111.159 448.565 109.549 452.55 109.379 456.789C109.295 460.011 110.057 463.487 112.26 466.03C109.803 465.267 107.431 464.504 105.143 463.317C103.872 462.639 102.771 461.876 101.669 461.028C100.653 460.265 99.7208 459.417 98.7888 458.569C97.2638 457.128 95.8235 455.602 94.2984 454.161C93.3664 452.126 93.0275 449.922 92.8581 447.802C92.4345 443.903 92.7734 439.833 91.5025 436.103C90.4011 432.797 87.6052 429.575 83.7926 429.405C83.6231 429.405 83.6231 429.66 83.7926 429.66C85.9107 429.745 87.7746 430.847 89.1302 432.373C91.7567 435.34 92.1803 439.494 92.3497 443.309C92.5192 446.785 92.6039 450.515 93.9595 453.822C93.7901 453.652 93.5359 453.483 93.3664 453.228C91.4178 451.448 89.2997 449.837 86.9274 448.481C82.1828 445.768 76.9299 443.987 71.7617 442.207C71.5923 442.122 71.5923 442.377 71.677 442.377C72.2701 442.546 72.9479 442.8 73.5409 443.055C78.5397 444.75 83.5384 446.615 87.9441 449.413C86.5038 449.159 85.0634 449.498 83.7079 449.752C82.0134 450.091 79.98 450.515 78.4549 449.413C78.3702 449.328 78.2008 449.498 78.2855 449.583C79.7258 450.6 81.5897 450.431 83.1995 450.091C84.894 449.752 86.7579 449.159 88.4524 449.837C90.6553 451.278 92.6039 453.059 94.5526 454.924C96.3318 456.704 98.111 458.569 100.06 460.18C100.229 460.35 100.399 460.519 100.653 460.604C98.7041 459.926 96.5012 460.265 94.722 461.028C92.6039 461.96 90.8247 463.487 89.0455 465.013C87.351 466.539 85.5718 467.895 83.5384 469.082C79.7258 471.286 75.4049 472.558 70.9992 472.812C70.8297 472.812 70.9145 473.067 70.9992 473.067C73.3715 472.897 75.7438 472.473 78.0313 471.71C80.0647 471.032 82.0981 470.184 83.8773 469.082C85.826 467.98 87.5205 466.623 89.2149 465.097C90.9942 463.571 92.7734 462.045 94.9762 461.113C97.0096 460.35 99.4666 460.011 101.415 461.113C103.025 462.384 104.72 463.402 106.583 464.165C109.125 465.267 111.836 466.03 114.548 466.878C114.802 466.962 114.971 467.047 115.225 467.132C113.7 467.386 112.26 468.065 110.989 468.912C109.634 469.845 108.532 471.117 107.431 472.304C106.329 473.575 105.143 474.847 103.957 475.949C101.5 478.153 98.7888 480.103 95.9082 481.629C95.7387 481.714 95.9082 481.884 95.9929 481.799C97.6027 480.951 99.1277 480.018 100.568 479.001C101.924 478.068 103.11 477.051 104.296 475.949C105.482 474.847 106.583 473.575 107.685 472.304C108.786 471.032 109.888 469.845 111.328 468.912C112.599 468.065 114.039 467.386 115.649 467.217C117.598 467.895 119.546 468.573 121.41 469.591C120.648 469.76 120.055 470.354 119.546 470.947C118.868 471.88 118.36 472.897 117.767 473.914C116.75 475.864 115.818 477.899 114.971 479.934C114.209 481.884 113.446 483.918 112.429 485.783C111.413 487.479 110.142 488.92 108.532 490.022C107.007 491.04 105.313 491.718 103.449 491.972C103.449 491.633 103.449 491.887 103.618 491.887Z" fill="#8DB5E0"/>
<path d="M216.979 445.683C210.709 446.616 201.39 456.111 195.205 454.33C195.544 446.87 206.05 449.159 211.048 445.937C215.369 442.377 200.458 436.188 192.748 438.985C186.309 441.02 186.732 449.668 177.752 460.18C170.211 469.336 166.399 468.743 164.45 474.847C160.976 486.038 170.211 499.178 171.567 498.755C172.16 498.585 171.143 496.296 171.821 491.04C171.482 490.531 176.396 470.438 179.954 478.323C181.564 487.564 170.55 491.464 174.617 502.4C177.667 510.624 189.952 513.421 190.46 512.574C184.614 509.606 184.53 492.735 188.766 486.886C191.562 483.664 192.409 487.14 191.985 491.04C192.494 504.011 191.816 510.878 199.61 517.83C209.1 526.392 220.199 518.084 234.602 519.017C234.602 519.017 241.888 502.909 237.313 491.972C232.907 481.46 221.808 487.733 215.03 483.833C211.98 482.477 212.15 478.153 214.607 476.627C218.335 473.236 224.943 474.423 229.688 475.271C237.567 476.797 239.939 479.086 241.125 477.814C244.514 474.677 234.771 461.452 227.654 462.215C219.521 459.587 206.897 471.456 199.356 465.86C200.712 459.163 219.012 455.687 226.214 456.874C229.942 457.976 232.06 460.265 232.568 459.756C231.806 455.856 222.656 445.174 216.979 445.683Z" fill="#195494"/>
<path d="M202.661 443.648C200.712 443.394 198.679 443.733 196.899 444.411C195.12 445.09 193.595 446.276 192.24 447.633C190.799 449.159 189.613 450.939 188.427 452.635C187.156 454.5 185.716 456.28 184.191 457.976C183.513 458.739 182.835 459.502 182.073 460.18C181.395 460.774 180.632 461.282 179.785 461.113C179.7 461.028 179.531 460.943 179.446 460.774C179.107 460.435 178.684 460.011 178.345 459.587C178.345 459.671 178.26 459.671 178.175 459.756C178.853 460.434 179.531 461.113 180.209 461.791C180.463 462.13 180.632 462.554 180.717 462.978C180.802 463.317 180.971 463.826 180.802 464.165C180.632 464.758 180.293 465.267 179.955 465.776C179.616 466.284 179.277 466.708 178.853 467.217C176.227 470.523 173.177 473.406 171.058 477.051C169.279 480.018 168.093 483.41 168.517 486.97C168.517 487.14 168.771 487.055 168.771 486.886C168.517 484.851 168.856 482.816 169.533 480.866C170.889 477.051 173.431 473.999 176.057 471.032C177.498 469.421 178.938 467.725 180.209 465.945C180.717 465.267 181.225 464.504 181.141 463.656C181.056 463.147 180.971 462.724 180.717 462.215C182.835 463.91 185.123 465.352 187.495 466.708C187.58 466.793 187.749 466.878 187.834 466.878C188.851 468.573 189.189 470.608 189.189 472.558C189.105 476.543 187.326 480.188 185.462 483.664C184.953 484.596 184.445 485.529 183.937 486.546C183.428 487.479 183.005 488.327 182.666 489.344C182.073 490.955 181.903 492.905 182.835 494.431C182.92 494.516 183.089 494.431 183.005 494.346C181.818 492.396 182.496 490.107 183.344 488.157C185.123 484.342 187.664 480.866 188.766 476.797C189.613 473.66 189.698 470.099 188.173 467.132C190.376 468.404 192.494 469.76 194.442 471.456C195.459 472.388 196.391 473.406 197.323 474.508C198.086 475.525 198.848 476.542 199.526 477.56C200.627 479.34 201.729 481.121 202.83 482.901C203.254 485.105 203.084 487.309 202.745 489.429C202.237 493.329 200.966 497.144 201.305 501.128C201.644 504.689 203.593 508.419 207.151 509.437C207.321 509.437 207.321 509.267 207.236 509.267C205.202 508.674 203.677 507.148 202.745 505.367C200.881 501.807 201.475 497.737 202.152 493.922C202.83 490.446 203.593 486.885 203.084 483.325C203.254 483.579 203.338 483.749 203.508 484.003C204.948 486.207 206.643 488.327 208.591 490.192C212.573 494.007 217.149 496.974 221.808 499.857C221.893 499.941 222.063 499.772 221.893 499.687C221.3 499.348 220.792 499.009 220.199 498.585C215.793 495.787 211.387 492.735 207.659 488.92C208.93 489.514 210.455 489.514 211.896 489.598C213.675 489.598 215.708 489.768 216.894 491.209C216.979 491.294 217.149 491.209 217.064 491.04C215.962 489.683 214.014 489.429 212.404 489.344C210.709 489.259 208.761 489.344 207.236 488.412C205.457 486.462 203.932 484.257 202.576 482.053C201.22 479.934 199.949 477.729 198.509 475.61C198.34 475.44 198.255 475.186 198.086 475.016C199.78 476.119 201.983 476.373 204.016 476.034C206.304 475.695 208.422 474.593 210.455 473.49C212.489 472.473 214.522 471.541 216.725 470.862C220.961 469.675 225.452 469.421 229.772 470.269C229.942 470.269 229.942 470.099 229.772 470.015C227.4 469.591 225.028 469.421 222.571 469.591C220.453 469.76 218.335 470.099 216.217 470.693C214.098 471.371 212.065 472.219 210.116 473.236C208.083 474.253 205.965 475.356 203.593 475.695C201.475 475.949 199.018 475.695 197.408 474.169C196.137 472.558 194.697 471.201 193.087 469.93C190.884 468.234 188.427 466.878 186.055 465.436C185.885 465.352 185.631 465.182 185.462 465.097C186.987 465.267 188.512 464.928 189.952 464.334C191.477 463.741 192.833 462.808 194.188 461.876C195.544 460.943 196.984 459.926 198.509 459.163C201.39 457.552 204.525 456.365 207.659 455.602C207.829 455.602 207.744 455.348 207.659 455.348C205.88 455.772 204.186 456.365 202.491 457.043C200.966 457.637 199.526 458.315 198.086 459.163C196.645 460.011 195.29 460.943 193.934 461.876C192.578 462.808 191.138 463.741 189.613 464.334C188.173 464.843 186.563 465.182 185.038 464.928C183.259 463.826 181.564 462.639 180.039 461.198C180.802 461.198 181.564 460.774 182.157 460.265C183.005 459.502 183.767 458.654 184.53 457.806C185.97 456.196 187.41 454.415 188.681 452.635C189.952 450.855 191.053 449.074 192.578 447.548C193.934 446.192 195.544 445.09 197.323 444.411C199.018 443.818 200.881 443.564 202.661 443.733C202.745 443.818 202.83 443.648 202.661 443.648Z" fill="#8DB5E0"/>
<path d="M105.651 418.045C111.243 421.012 124.375 418.978 128.273 424.149C123.613 429.914 116.496 421.775 110.565 421.351C104.974 421.606 113.192 435.425 121.156 437.883C127.51 440.088 132.34 432.966 145.811 429.829C157.333 427.032 160.044 429.745 165.213 426.014C174.702 419.147 175.21 403.124 173.77 402.615C173.177 402.446 172.584 404.82 168.94 408.635C168.94 409.228 152.928 422.369 154.792 413.976C159.028 405.583 170.127 409.058 173.516 397.868C175.973 389.474 167.754 379.894 166.907 380.234C169.872 386.083 159.79 399.733 152.928 401.852C148.691 402.785 150.216 399.478 152.758 396.596C160.129 385.914 164.704 380.827 162.671 370.569C160.214 358.022 146.319 358.021 135.39 348.696C135.39 348.696 119.885 357.258 117.004 368.788C114.209 379.894 126.917 381.505 129.967 388.627C131.577 391.594 128.866 394.9 125.985 394.646C120.902 395.155 116.327 390.238 113.107 386.677C107.685 380.742 107.176 377.521 105.482 377.775C100.907 378.284 100.737 394.731 107.007 398.292C112.006 405.243 129.205 403.293 131.831 412.28C126.748 416.773 110.057 408.635 104.974 403.378C102.601 400.326 102.262 397.189 101.585 397.274C99.8054 400.92 100.822 414.993 105.651 418.045Z" fill="#4E88C7"/>
<path d="M115.903 428.219C117.343 429.575 119.123 430.508 120.987 431.101C122.85 431.61 124.714 431.61 126.663 431.271C128.696 430.931 130.73 430.168 132.678 429.575C134.797 428.897 136.999 428.303 139.202 427.879C140.219 427.71 141.236 427.456 142.252 427.371C143.1 427.286 144.032 427.371 144.625 427.964C144.625 428.134 144.709 428.303 144.709 428.388C144.794 428.897 144.879 429.405 144.879 429.999C144.964 429.999 145.048 429.999 145.133 429.914C145.048 428.982 144.879 427.964 144.709 427.032C144.709 426.608 144.879 426.184 144.964 425.845C145.133 425.506 145.302 425.082 145.557 424.827C146.065 424.488 146.658 424.234 147.166 424.064C147.759 423.895 148.268 423.725 148.861 423.556C152.928 422.454 157.079 421.945 160.976 420.419C164.196 419.147 167.161 417.112 168.941 414.06C169.025 413.976 168.771 413.806 168.771 413.976C167.754 415.756 166.314 417.197 164.62 418.384C161.315 420.588 157.333 421.521 153.521 422.369C151.403 422.793 149.2 423.301 147.166 423.895C146.404 424.149 145.472 424.403 145.048 425.166C144.794 425.59 144.625 426.014 144.54 426.523C143.947 423.895 142.845 421.351 141.829 418.893C141.744 418.808 141.744 418.638 141.659 418.554C141.913 416.604 142.761 414.739 144.032 413.213C146.489 409.991 150.047 408.211 153.69 406.6C154.707 406.176 155.639 405.752 156.655 405.243C157.587 404.82 158.519 404.396 159.367 403.802C160.807 402.87 162.078 401.428 162.247 399.648C162.247 399.478 162.078 399.478 161.993 399.648C161.824 401.937 159.875 403.378 158.011 404.396C154.283 406.346 150.216 407.617 146.827 410.161C144.286 412.111 142.083 414.993 141.49 418.215C140.558 415.841 139.626 413.467 139.033 411.008C138.779 409.652 138.609 408.295 138.524 406.854C138.524 406.854 138.524 406.854 138.524 406.769C138.524 405.498 138.524 404.226 138.609 403.039C138.779 400.92 138.948 398.885 139.118 396.766C140.134 394.816 141.575 393.12 143.1 391.594C145.895 388.796 149.2 386.422 151.233 383.116C153.097 380.149 153.775 375.91 151.487 372.943C151.403 372.858 151.233 372.943 151.318 373.027C152.589 374.723 152.928 376.842 152.589 378.877C151.996 382.862 149.03 385.744 146.234 388.372C143.608 390.746 140.812 393.12 139.118 396.257C139.118 396.003 139.202 395.748 139.202 395.494C139.372 392.781 139.202 390.153 138.779 387.525C137.931 382.099 135.983 376.927 134.034 371.841C133.949 371.671 133.78 371.756 133.865 371.925C134.119 372.519 134.373 373.197 134.542 373.79C136.406 378.708 138.186 383.71 138.779 388.966C138.101 387.694 136.915 386.762 135.813 385.914C134.458 384.812 132.848 383.54 132.763 381.59C132.763 381.421 132.509 381.421 132.509 381.59C132.594 383.37 133.949 384.727 135.22 385.744C136.576 386.846 138.186 387.949 138.779 389.644C139.033 392.272 138.948 394.9 138.694 397.529C138.44 400.072 138.186 402.615 138.101 405.074C138.101 405.328 138.101 405.583 138.101 405.837C137.423 403.887 135.729 402.446 133.949 401.513C131.916 400.411 129.544 400.072 127.256 399.648C124.969 399.309 122.766 398.8 120.648 397.952C116.496 396.342 112.768 393.883 109.803 390.661C109.718 390.577 109.549 390.746 109.633 390.831C111.243 392.611 113.107 394.137 115.141 395.409C116.92 396.596 118.868 397.529 120.902 398.292C123.02 399.055 125.138 399.478 127.341 399.902C129.628 400.326 132.001 400.665 134.034 401.852C135.898 402.87 137.677 404.65 138.101 406.854C138.186 408.889 138.44 410.839 139.033 412.874C139.795 415.586 140.897 418.13 141.998 420.673C142.083 420.928 142.168 421.097 142.252 421.351C141.066 420.334 139.626 419.656 138.186 419.232C136.576 418.808 134.966 418.723 133.272 418.638C131.577 418.554 129.883 418.469 128.188 418.299C124.884 417.875 121.749 416.943 118.699 415.671C118.53 415.586 118.445 415.841 118.614 415.841C120.309 416.519 122.003 417.112 123.698 417.621C125.223 418.045 126.833 418.384 128.442 418.554C130.052 418.723 131.747 418.808 133.356 418.893C135.051 418.978 136.661 419.062 138.27 419.486C139.795 419.91 141.151 420.673 142.252 421.775C143.015 423.725 143.693 425.675 144.116 427.71C143.523 427.201 142.676 427.116 141.913 427.201C140.812 427.286 139.626 427.54 138.524 427.71C136.322 428.134 134.204 428.727 132.085 429.405C130.052 430.084 128.019 430.762 125.901 431.101C123.952 431.44 122.003 431.355 120.224 430.762C118.445 430.253 116.835 429.321 115.564 428.049C115.903 427.964 115.734 428.134 115.903 428.219Z" fill="#DAF2EE"/>
<path d="M169.873 566.832C169.619 570.138 165.298 596.674 164.874 601.846H126.748C126.325 596.505 121.58 570.393 121.241 566.832H169.873Z" fill="#D94559"/>
<path d="M121.325 566.832C121.41 567.341 121.495 568.951 121.664 571.241H136.321C149.623 571.241 159.197 582.601 159.112 595.911C159.112 598.878 157.926 600.659 156.401 601.761H164.874C165.297 596.674 169.618 570.054 169.872 566.747H121.325V566.832Z" fill="#C43348"/>
<path d="M168.941 566.832H122.258C119.123 566.832 116.581 564.797 116.581 562.254C116.581 559.711 119.123 557.676 122.258 557.676H168.941C172.076 557.676 174.617 559.711 174.617 562.254C174.617 564.713 172.076 566.832 168.941 566.832Z" fill="#D94559"/>
<path d="M856.394 189.481H818.945L823.351 130.136H831.908C831.908 127.508 833.687 125.303 836.06 124.54V0H839.364V124.625C841.736 125.303 843.515 127.592 843.515 130.22H852.073L856.394 189.481Z" fill="#C8CBE3"/>
<path d="M926.377 128.779H888.929L893.334 69.434H901.892C901.892 66.8058 903.671 64.6016 906.043 63.8386V0H909.347V63.8386C911.72 64.5168 913.499 66.8058 913.499 69.434H922.056L926.377 128.779Z" fill="#C8CBE3"/>
<path d="M942.728 416.773H800.476C782.938 416.773 768.704 431.016 768.704 448.565C768.704 466.115 782.938 480.358 800.476 480.358H942.643C960.181 480.358 974.415 466.115 974.415 448.565C974.415 431.016 960.266 416.773 942.728 416.773Z" fill="#C8CBE3"/>
<path d="M941.627 426.777H801.578C789.547 426.777 779.804 436.527 779.804 448.565C779.804 460.604 789.547 470.354 801.578 470.354H941.627C953.658 470.354 963.402 460.604 963.402 448.565C963.402 436.527 953.658 426.777 941.627 426.777Z" fill="white"/>
<path d="M906.804 449.922H847.243C845.549 449.922 844.193 448.565 844.193 446.87C844.193 445.174 845.549 443.818 847.243 443.818H906.889C908.584 443.818 909.939 445.174 909.939 446.87C909.939 448.565 908.584 449.922 906.804 449.922Z" fill="#C8CBE3"/>
<path d="M955.86 602.185H963.4L939.593 475.356H932.052L935.018 491.209H811.998L814.963 475.356H807.423L783.615 602.185H791.156L810.558 498.924H936.458L955.86 602.185Z" fill="#C8CBE3"/>
<path d="M168.907 76.2482C179.708 56.3284 172.326 31.419 152.419 20.6116C132.512 9.80409 107.618 17.1911 96.8178 37.1109C86.0173 57.0307 93.3995 81.9401 113.307 92.7476C133.214 103.555 158.107 96.168 168.907 76.2482Z" fill="#C8CBE3"/>
<path d="M169.665 65.1864C174.369 44.8404 161.699 24.531 141.366 19.8241C121.033 15.1171 100.737 27.795 96.0328 48.141C91.3289 68.487 103.999 88.7964 124.332 93.5034C144.664 98.2103 164.961 85.5324 169.665 65.1864Z" fill="white"/>
<path d="M169.195 56.7171C169.195 76.8097 152.927 93.0873 132.848 93.0873C112.768 93.0873 96.501 76.8097 96.501 56.7171C96.501 36.6245 112.768 20.3469 132.848 20.3469C152.927 20.3469 169.195 36.6245 169.195 56.7171Z" fill="white"/>
<path d="M169.195 56.7171C169.195 76.8097 152.927 93.0873 132.848 93.0873C112.768 93.0873 96.501 76.8097 96.501 56.7171C96.501 36.6245 112.768 20.3469 132.848 20.3469C152.927 20.3469 169.195 36.6245 169.195 56.7171Z" fill="white"/>
<path d="M132.848 80.7096C132.678 80.7096 132.594 80.54 132.594 80.2857V59.9387C132.594 59.6844 132.763 59.5148 132.848 59.5148C133.017 59.5148 133.102 59.6844 133.102 59.9387V80.2009C133.102 80.4552 133.017 80.7096 132.848 80.7096Z" fill="#C8CBE3"/>
<path d="M134.373 77.9966H131.323C131.153 77.9966 131.069 78.1662 131.153 78.3358L132.678 80.9639C132.763 81.1335 133.017 81.1335 133.102 80.9639L134.627 78.3358C134.627 78.251 134.542 77.9966 134.373 77.9966Z" fill="#C8CBE3"/>
<path d="M135.305 54.9368C135.135 54.9368 135.051 54.852 134.966 54.7672C134.797 54.5976 134.797 54.2585 134.966 54.0042L145.98 42.9829C146.15 42.8134 146.488 42.8134 146.743 42.9829C146.912 43.1525 146.912 43.4916 146.743 43.7459L135.728 54.7672C135.559 54.852 135.39 54.9368 135.305 54.9368Z" fill="#C8CBE3"/>
<path d="M148.014 41.2874L143.608 42.559C143.439 42.6438 143.439 42.8134 143.523 42.8981L146.828 46.1198C146.912 46.2045 147.167 46.2045 147.167 46.035L148.268 41.5417C148.268 41.3721 148.099 41.2026 148.014 41.2874Z" fill="#C8CBE3"/>
<path d="M129.459 56.7171C129.459 54.852 130.984 53.326 132.848 53.326C134.712 53.326 136.237 54.852 136.237 56.7171C136.237 58.5823 134.712 60.1083 132.848 60.1083C130.984 60.0235 129.459 58.5823 129.459 56.7171Z" fill="#C8CBE3"/>
<path d="M131.069 23.6533C131.069 22.7207 131.832 21.9577 132.764 21.9577C133.696 21.9577 134.458 22.7207 134.458 23.6533C134.458 24.5859 133.696 25.3489 132.764 25.3489C131.832 25.3489 131.069 24.5859 131.069 23.6533Z" fill="#C8CBE3"/>
<path d="M131.069 89.6114C131.069 88.6788 131.832 87.9158 132.764 87.9158C133.696 87.9158 134.458 88.6788 134.458 89.6114C134.458 90.5439 133.696 91.3069 132.764 91.3069C131.832 91.3917 131.069 90.5439 131.069 89.6114Z" fill="#C8CBE3"/>
<path d="M164.365 56.7171C164.365 55.7846 165.128 55.0215 166.06 55.0215C166.992 55.0215 167.754 55.7846 167.754 56.7171C167.754 57.6497 166.992 58.4127 166.06 58.4127C165.128 58.4127 164.365 57.6497 164.365 56.7171Z" fill="#C8CBE3"/>
<path d="M97.7725 56.8019C97.7725 55.8693 98.535 55.1063 99.467 55.1063C100.399 55.1063 101.161 55.8693 101.161 56.8019C101.161 57.7345 100.399 58.4975 99.467 58.4975C98.535 58.4975 97.7725 57.7345 97.7725 56.8019Z" fill="#C8CBE3"/>
</svg>
