<svg width="470" height="534" viewBox="0 0 470 534" fill="none" xmlns="http://www.w3.org/2000/svg">
<path opacity="0.07" d="M-484.132 237.958C-486.56 161.125 -497.51 80.8306 -516.981 -2.92664C-536.453 -86.6839 -521.732 -166.898 -472.818 -243.569C-423.904 -320.241 -352.727 -351.09 -259.288 -336.116C-165.849 -321.142 -83.2176 -317.624 -11.3934 -325.563C60.4309 -333.502 124.812 -314.791 181.751 -269.429C238.69 -224.068 307.993 -177.464 389.663 -129.617C471.332 -81.7696 490.075 -16.2193 445.893 67.0338C401.711 150.287 375.741 232.805 367.982 314.588C360.223 396.37 317.516 449.9 239.86 475.175C162.205 500.451 88.4195 517.904 18.504 527.535C-51.4116 537.166 -121.53 534.34 -191.852 519.059C-262.174 503.777 -327.86 472.315 -388.912 424.672C-449.963 377.029 -481.703 314.791 -484.132 237.958Z" fill="#00FF84"/>
</svg>
