<svg width="579" height="915" viewBox="0 0 579 915" fill="none" xmlns="http://www.w3.org/2000/svg">
<path opacity="0.05" d="M288.478 765.833C238.017 684.481 176.211 604.702 103.058 526.494C29.9044 448.286 -4.16585 352.609 0.84662 239.461C5.8591 126.314 63.4142 48.7244 173.512 6.6919C283.61 -35.3407 374.918 -82.9993 447.437 -136.284C519.956 -189.569 601.043 -209.477 690.696 -196.01C780.349 -182.542 884.112 -175.433 1001.99 -174.683C1119.86 -173.932 1180.89 -114.907 1185.08 2.39179C1189.27 119.691 1212.64 224.858 1255.2 317.892C1297.75 410.925 1285.02 495.249 1217.01 570.863C1149 646.476 1080.29 711.244 1010.88 765.165C941.474 819.086 864.092 859.7 778.735 887.006C693.377 914.312 602.944 921.281 507.434 907.913C411.923 894.545 338.938 847.185 288.478 765.833Z" fill="#6440FB"/>
</svg>
