<svg width="50" height="50" viewBox="0 0 50 50" fill="none" xmlns="http://www.w3.org/2000/svg">
<path d="M25 49.2183C20.8197 49.2165 16.7599 47.8177 13.4656 45.2442C10.1713 42.6708 7.83144 39.0702 6.81783 35.0146C5.80423 30.959 6.17498 26.681 7.8712 22.8603C9.56741 19.0396 12.4918 15.8952 16.1797 13.9269C16.3627 13.8296 16.5768 13.809 16.7749 13.8696C16.9731 13.9302 17.1391 14.067 17.2363 14.25C17.3336 14.4329 17.3542 14.647 17.2937 14.8452C17.2331 15.0433 17.0963 15.2093 16.9133 15.3066C13.5307 17.11 10.8481 19.9924 9.29184 23.4956C7.73562 26.9988 7.39517 30.9217 8.3246 34.6406C9.25403 38.3595 11.4 41.661 14.4213 44.0201C17.4427 46.3793 21.1659 47.6608 24.9992 47.6608C28.8325 47.6608 32.5558 46.3793 35.5771 44.0201C38.5985 41.661 40.7444 38.3595 41.6739 34.6406C42.6033 30.9217 42.2628 26.9988 40.7066 23.4956C39.1504 19.9924 36.4678 17.11 33.0852 15.3066C32.9946 15.2584 32.9144 15.1929 32.8491 15.1137C32.7838 15.0345 32.7348 14.9433 32.7048 14.8452C32.6748 14.7471 32.6644 14.644 32.6743 14.5419C32.6841 14.4397 32.714 14.3405 32.7621 14.25C32.8103 14.1594 32.8758 14.0791 32.955 14.0139C33.0342 13.9486 33.1254 13.8996 33.2235 13.8696C33.3217 13.8396 33.4247 13.8292 33.5269 13.839C33.629 13.8489 33.7282 13.8787 33.8188 13.9269C37.5066 15.8952 40.4309 19.0394 42.1271 22.86C43.8234 26.6805 44.1942 30.9584 43.1808 35.0139C42.1674 39.0694 39.8279 42.6699 36.5338 45.2435C33.2398 47.8171 29.1802 49.2161 25 49.2183Z" fill="#6440FB"/>
<path d="M25.0003 21.8745C20.5432 21.8753 16.2323 20.2851 12.8433 17.3902C12.6858 17.2555 12.5883 17.0638 12.5722 16.8572C12.5561 16.6506 12.6227 16.4461 12.7574 16.2886C12.892 16.1311 13.0838 16.0336 13.2903 16.0175C13.4969 16.0014 13.7015 16.068 13.8589 16.2027C16.9649 18.8549 20.9153 20.312 24.9996 20.312C29.0838 20.312 33.0342 18.8549 36.1402 16.2027C36.2182 16.136 36.3085 16.0853 36.4061 16.0535C36.5036 16.0218 36.6065 16.0095 36.7088 16.0175C36.811 16.0255 36.9108 16.0535 37.0022 16.1001C37.0937 16.1466 37.1751 16.2106 37.2417 16.2886C37.3084 16.3666 37.3591 16.4569 37.3909 16.5545C37.4226 16.652 37.4349 16.7549 37.4269 16.8572C37.4189 16.9595 37.3909 17.0592 37.3444 17.1506C37.2979 17.2421 37.2338 17.3235 37.1558 17.3902C33.7673 20.2847 29.4569 21.8749 25.0003 21.8745Z" fill="#6440FB"/>
<path d="M36.6485 44.922C36.4623 44.922 36.2822 44.8555 36.1407 44.7345C33.0347 42.0823 29.0843 40.6252 25 40.6252C20.9158 40.6252 16.9654 42.0823 13.8594 44.7345C13.7019 44.8691 13.4974 44.9358 13.2908 44.9196C13.0843 44.9035 12.8925 44.806 12.7579 44.6485C12.6232 44.4911 12.5566 44.2865 12.5727 44.0799C12.5888 43.8734 12.6863 43.6816 12.8438 43.547C16.233 40.6526 20.5436 39.0625 25.0004 39.0625C29.4573 39.0625 33.7679 40.6526 37.1571 43.547C37.2785 43.6508 37.3651 43.7893 37.4054 43.9438C37.4456 44.0984 37.4375 44.2616 37.3822 44.4114C37.3269 44.5612 37.227 44.6905 37.0959 44.7817C36.9649 44.873 36.809 44.922 36.6493 44.922H36.6485Z" fill="#6440FB"/>
<path d="M25 49.2181C19.3047 49.2181 14.8438 40.9821 14.8438 30.4681C14.8438 24.4392 16.4 18.7564 19.007 15.2665C19.0686 15.1844 19.1457 15.1153 19.234 15.063C19.3223 15.0107 19.42 14.9764 19.5215 14.9619C19.6231 14.9474 19.7265 14.953 19.8259 14.9785C19.9253 15.0039 20.0187 15.0487 20.1008 15.1103C20.1829 15.1718 20.252 15.2489 20.3043 15.3372C20.3565 15.4255 20.3909 15.5232 20.4054 15.6248C20.4199 15.7263 20.4143 15.8298 20.3888 15.9291C20.3634 16.0285 20.3186 16.1219 20.257 16.204C17.8469 19.4306 16.4062 24.7649 16.4062 30.4681C16.4062 39.7845 20.3414 47.6556 25 47.6556C29.6586 47.6556 33.5938 39.7845 33.5938 30.4681C33.5938 24.7649 32.1531 19.4314 29.7414 16.2017C29.6171 16.0359 29.5637 15.8275 29.593 15.6224C29.6223 15.4173 29.7319 15.2322 29.8977 15.1079C30.0634 14.9836 30.2718 14.9302 30.4769 14.9595C30.682 14.9888 30.8671 15.0984 30.9914 15.2642C33.6 18.7564 35.1562 24.4392 35.1562 30.4681C35.1562 40.9821 30.6953 49.2181 25 49.2181Z" fill="#6440FB"/>
<path d="M25 49.2188C24.7928 49.2188 24.5941 49.1364 24.4476 48.9899C24.3011 48.8434 24.2188 48.6447 24.2188 48.4375V16.4062C24.2188 16.199 24.3011 16.0003 24.4476 15.8538C24.5941 15.7073 24.7928 15.625 25 15.625C25.2072 15.625 25.4059 15.7073 25.5524 15.8538C25.6989 16.0003 25.7812 16.199 25.7812 16.4062V48.4375C25.7812 48.6447 25.6989 48.8434 25.5524 48.9899C25.4059 49.1364 25.2072 49.2188 25 49.2188Z" fill="#6440FB"/>
<path d="M42.9688 31.25H7.03125C6.82405 31.25 6.62534 31.1677 6.47882 31.0212C6.33231 30.8747 6.25 30.676 6.25 30.4688C6.25 30.2615 6.33231 30.0628 6.47882 29.9163C6.62534 29.7698 6.82405 29.6875 7.03125 29.6875H42.9688C43.1759 29.6875 43.3747 29.7698 43.5212 29.9163C43.6677 30.0628 43.75 30.2615 43.75 30.4688C43.75 30.676 43.6677 30.8747 43.5212 31.0212C43.3747 31.1677 43.1759 31.25 42.9688 31.25Z" fill="#6440FB"/>
<path d="M25 17.1875C21.9104 17.2261 18.8525 16.5623 16.057 15.2461C15.9272 15.1812 15.8179 15.0814 15.7416 14.9579C15.6653 14.8344 15.6249 14.6921 15.625 14.5469V6.84375C15.625 6.63655 15.7073 6.43784 15.8538 6.29132C16.0003 6.14481 16.199 6.0625 16.4063 6.0625C16.6135 6.0625 16.8122 6.14481 16.9587 6.29132C17.1052 6.43784 17.1875 6.63655 17.1875 6.84375V14.0547C19.6527 15.1204 22.3145 15.6555 25 15.625C27.6855 15.6555 30.3473 15.1204 32.8125 14.0547V6.84375C32.8125 6.63655 32.8948 6.43784 33.0413 6.29132C33.1878 6.14481 33.3865 6.0625 33.5938 6.0625C33.801 6.0625 33.9997 6.14481 34.1462 6.29132C34.2927 6.43784 34.375 6.63655 34.375 6.84375V14.5469C34.3751 14.6921 34.3347 14.8344 34.2584 14.9579C34.1821 15.0814 34.0728 15.1812 33.943 15.2461C31.1475 16.5623 28.0896 17.2261 25 17.1875Z" fill="#6440FB"/>
<path d="M25.0002 10.1559C24.9256 10.1557 24.8515 10.1449 24.7799 10.1239L11.4987 6.21764C11.3367 6.17009 11.1945 6.07136 11.0933 5.93623C10.9922 5.8011 10.9375 5.63684 10.9375 5.46803C10.9375 5.29923 10.9922 5.13497 11.0933 4.99984C11.1945 4.86471 11.3367 4.76598 11.4987 4.71842L24.7799 0.812175C24.9238 0.770291 25.0767 0.770291 25.2205 0.812175L38.5018 4.71842C38.6638 4.76598 38.806 4.86471 38.9071 4.99984C39.0083 5.13497 39.063 5.29923 39.063 5.46803C39.063 5.63684 39.0083 5.8011 38.9071 5.93623C38.806 6.07136 38.6638 6.17009 38.5018 6.21764L25.2205 10.1239C25.149 10.1449 25.0748 10.1557 25.0002 10.1559ZM14.4877 5.46842L25.0002 8.55983L35.5127 5.46842L25.0002 2.37624L14.4877 5.46842Z" fill="#6440FB"/>
<path d="M38.2812 10.9375C38.074 10.9375 37.8753 10.8552 37.7288 10.7087C37.5823 10.5622 37.5 10.3635 37.5 10.1562V6.25H26.5625C26.3553 6.25 26.1566 6.16769 26.0101 6.02118C25.8636 5.87466 25.7812 5.67595 25.7812 5.46875C25.7812 5.26155 25.8636 5.06284 26.0101 4.91632C26.1566 4.76981 26.3553 4.6875 26.5625 4.6875H38.2812C38.4885 4.6875 38.6872 4.76981 38.8337 4.91632C38.9802 5.06284 39.0625 5.26155 39.0625 5.46875V10.1562C39.0625 10.3635 38.9802 10.5622 38.8337 10.7087C38.6872 10.8552 38.4885 10.9375 38.2812 10.9375Z" fill="#6440FB"/>
<path d="M39.8438 14.8438H36.7188C36.5115 14.8438 36.3128 14.7614 36.1663 14.6149C36.0198 14.4684 35.9375 14.2697 35.9375 14.0625V11.7188C35.9375 11.0971 36.1844 10.501 36.624 10.0615C37.0635 9.62193 37.6596 9.375 38.2812 9.375C38.9029 9.375 39.499 9.62193 39.9385 10.0615C40.3781 10.501 40.625 11.0971 40.625 11.7188V14.0625C40.625 14.2697 40.5427 14.4684 40.3962 14.6149C40.2497 14.7614 40.051 14.8438 39.8438 14.8438ZM37.5 13.2812H39.0625V11.7188C39.0625 11.5115 38.9802 11.3128 38.8337 11.1663C38.6872 11.0198 38.4885 10.9375 38.2812 10.9375C38.074 10.9375 37.8753 11.0198 37.7288 11.1663C37.5823 11.3128 37.5 11.5115 37.5 11.7188V13.2812Z" fill="#6440FB"/>
</svg>
