<svg width="50" height="50" viewBox="0 0 50 50" fill="none" xmlns="http://www.w3.org/2000/svg">
<path d="M6.24838 6.17641C6.04408 5.68608 5.4644 5.44458 4.97299 5.64907C4.48168 5.85356 4.24086 6.43217 4.44467 6.92446C4.64789 7.41548 5.22983 7.65532 5.72006 7.4518C6.21313 7.24712 6.45063 6.66958 6.24838 6.17641Z" fill="#6440FB"/>
<path d="M9.58901 6.17748C9.38735 5.6851 8.80385 5.44593 8.31362 5.64916C7.82192 5.85297 7.58207 6.43148 7.7853 6.92357C7.98823 7.41508 8.56938 7.65648 9.06078 7.45189C9.55073 7.24789 9.79389 6.66888 9.58901 6.17748Z" fill="#6440FB"/>
<path d="M13.1251 6.17718C12.9234 5.6846 12.3399 5.44642 11.8497 5.64886C11.3576 5.85208 11.1184 6.43167 11.3214 6.92327C11.5244 7.41478 12.1055 7.65608 12.5969 7.45159C13.0868 7.24769 13.33 6.66849 13.1251 6.17718Z" fill="#6440FB"/>
<path d="M49.7163 43.1067L45.3942 38.7847L49.2756 37.5823C49.6785 37.4575 49.9616 37.075 49.9632 36.6533C49.9647 36.2316 49.6847 35.8468 49.2828 35.7189L44.1915 34.0982V26.9856C44.1915 26.4463 43.7542 26.009 43.2149 26.009C42.6756 26.009 42.2383 26.4463 42.2383 26.9856V33.4764L34.0635 30.874C33.3215 30.6382 32.6009 31.3618 32.8364 32.1009L35.5608 40.6582H4.67336C3.17339 40.6582 1.95322 39.438 1.95322 37.9381V11.1026H42.2383V18.3862C42.2383 18.9256 42.6756 19.3628 43.2149 19.3628C43.7542 19.3628 44.1915 18.9256 44.1915 18.3862L44.1924 6.67141C44.1924 4.09483 42.0962 1.99854 39.5195 1.99854H4.67336C2.09668 1.99854 0.000488304 4.09483 0.000488304 6.67141L0 37.9381C0 40.515 2.09648 42.6115 4.67336 42.6115H36.1827L37.6816 47.3202C37.8092 47.7209 38.192 48.0007 38.6125 48.0006C39.0331 48.0005 39.416 47.7202 39.5431 47.3191L40.7969 43.365L45.1274 47.6955C45.5089 48.077 46.1271 48.077 46.5086 47.6955L49.7164 44.4878C50.0945 44.1242 50.0945 43.4704 49.7163 43.1067ZM1.9537 6.67141C1.9537 5.17183 3.17368 3.95175 4.67336 3.95175H39.5196C41.0192 3.95175 42.2393 5.17183 42.2393 6.67141V9.14916H1.9537V6.67141ZM45.818 45.6239L41.0422 40.848C40.5331 40.339 39.6377 40.5591 39.4206 41.2433L38.6103 43.7987L35.2708 33.3084L45.7271 36.6369L43.2702 37.3979C42.5814 37.6114 42.3577 38.5104 42.8686 39.0215L47.6445 43.7974L45.818 45.6239Z" fill="#6440FB"/>
<path d="M11.4462 13.1314C11.1795 13.0957 10.9142 13.0776 10.6578 13.0776C7.40188 13.0776 4.75293 15.7266 4.75293 18.9824C4.75293 22.2382 7.40188 24.8872 10.6578 24.8872C13.4546 24.8872 15.8879 22.9001 16.4436 20.1622C16.551 19.6337 16.2095 19.1183 15.6808 19.0108C15.1523 18.9037 14.6368 19.2449 14.5295 19.7737C14.1577 21.6048 12.5295 22.934 10.6577 22.934C8.47869 22.934 6.70605 21.1613 6.70605 18.9824C6.70605 16.8035 8.47869 15.0309 10.6577 15.0309C10.8277 15.0309 11.006 15.0432 11.1873 15.0674C11.7213 15.1391 12.2132 14.7636 12.2847 14.2289C12.3562 13.6943 11.9809 13.2029 11.4462 13.1314Z" fill="#6440FB"/>
<path d="M10.6578 38.5718C13.9137 38.5718 16.5626 35.9229 16.5626 32.6671C16.5626 29.4112 13.9137 26.7622 10.6578 26.7622C7.40188 26.7622 4.75293 29.4112 4.75293 32.6671C4.75293 35.9229 7.40188 38.5718 10.6578 38.5718ZM10.6578 28.7153C12.8367 28.7153 14.6094 30.488 14.6094 32.667C14.6094 34.8459 12.8367 36.6185 10.6578 36.6185C8.47879 36.6185 6.70615 34.8459 6.70615 32.667C6.70615 30.4881 8.47879 28.7153 10.6578 28.7153Z" fill="#6440FB"/>
<path d="M35.8104 15.5322H19.878C19.3387 15.5322 18.9014 15.9695 18.9014 16.5088C18.9014 17.0482 19.3387 17.4854 19.878 17.4854H35.8104C36.3496 17.4854 36.787 17.0482 36.787 16.5088C36.787 15.9695 36.3496 15.5322 35.8104 15.5322Z" fill="#6440FB"/>
<path d="M36.787 21.2002C36.787 20.6609 36.3496 20.2236 35.8104 20.2236H19.878C19.3387 20.2236 18.9014 20.6609 18.9014 21.2002C18.9014 21.7396 19.3387 22.1769 19.878 22.1769H35.8104C36.3496 22.1769 36.787 21.7396 36.787 21.2002Z" fill="#6440FB"/>
<path d="M19.878 31.3604H28.8704C29.4097 31.3604 29.847 30.9232 29.847 30.3838C29.847 29.8445 29.4097 29.4072 28.8704 29.4072H19.878C19.3387 29.4072 18.9014 29.8445 18.9014 30.3838C18.9014 30.9232 19.3387 31.3604 19.878 31.3604Z" fill="#6440FB"/>
<path d="M19.878 36.0518H29.8479C30.3872 36.0518 30.8245 35.6146 30.8245 35.0752C30.8245 34.5359 30.3872 34.0986 29.8479 34.0986H19.878C19.3387 34.0986 18.9014 34.5359 18.9014 35.0752C18.9014 35.6146 19.3387 36.0518 19.878 36.0518Z" fill="#6440FB"/>
<path d="M9.91724 17.7177C9.53578 17.3364 8.91758 17.3364 8.53602 17.7177C8.15466 18.0991 8.15466 18.7175 8.53602 19.0989L10.033 20.5959C10.4144 20.9773 11.0326 20.9773 11.4142 20.5959L16.1588 15.8512C16.5402 15.4699 16.5402 14.8515 16.1588 14.4701C15.7776 14.0887 15.1594 14.0887 14.7776 14.4701L10.7235 18.5242L9.91724 17.7177Z" fill="#6440FB"/>
<path d="M44.0262 22.1362C43.799 21.7887 43.3526 21.6273 42.9546 21.7383C42.5604 21.8481 42.2729 22.1986 42.2413 22.6066C42.1712 23.5125 43.3243 24.0022 43.9347 23.3378C44.2353 23.0104 44.2726 22.5056 44.0262 22.1362Z" fill="#6440FB"/>
</svg>
