<svg width="50" height="50" viewBox="0 0 50 50" fill="none" xmlns="http://www.w3.org/2000/svg">
<path d="M25.9317 15.9261H25.7386L26.2717 14.4623C26.4563 13.9556 26.1951 13.3952 25.6882 13.2106C25.1811 13.026 24.621 13.2873 24.4365 13.7941L23.4261 16.5685C23.3171 16.8679 23.361 17.2017 23.5438 17.4627C23.7265 17.7238 24.0251 17.8792 24.3438 17.8792H25.9318C26.471 17.8792 26.9084 17.442 26.9084 16.9027C26.9084 16.3633 26.471 15.9261 25.9317 15.9261Z" fill="#6440FB"/>
<path d="M25.2927 34.4457C27.4661 34.4457 29.2343 32.8427 29.2343 30.8723C29.2343 28.9019 27.4661 27.2988 25.2927 27.2988C23.1193 27.2988 21.3511 28.9019 21.3511 30.8723C21.3511 32.8427 23.1193 34.4457 25.2927 34.4457ZM25.2927 29.2519C26.3892 29.2519 27.2812 29.9787 27.2812 30.8722C27.2812 31.7656 26.3891 32.4925 25.2927 32.4925C24.1963 32.4925 23.3042 31.7656 23.3042 30.8722C23.3042 29.9787 24.1963 29.2519 25.2927 29.2519Z" fill="#6440FB"/>
<path d="M46.4506 42.9014H45.4219C46.2133 41.9562 46.6908 40.7399 46.6908 39.4137V37.559C46.6908 35.7394 46.0748 33.884 44.9096 32.1935L42.0688 28.0711L42.5181 22.0979C42.5199 22.0734 42.5208 22.049 42.5208 22.0246C42.5208 20.81 41.5326 19.8217 40.3179 19.8217H33.0137C34.0001 18.283 34.5434 16.4721 34.5434 14.626V11.852C35.077 11.6608 35.5452 11.3053 35.8727 10.8226C36.3764 10.08 36.4793 9.13926 36.1479 8.30615C35.5614 6.83242 34.495 4.71689 32.7441 3.00791C30.6993 1.01201 28.2071 0 25.3367 0C22.5394 0 20.1518 0.766992 18.2403 2.27959C16.503 3.65449 15.1972 5.61328 14.359 8.10176C13.9251 9.39014 14.5446 10.8276 15.7729 11.4076C15.7666 11.5482 15.7622 11.6891 15.7622 11.8299V14.7645C15.7622 16.5886 16.2764 18.3273 17.2363 19.8217H9.69434C8.47969 19.8217 7.49141 20.8099 7.49141 22.0246C7.49141 22.049 7.49228 22.0734 7.49414 22.0979L7.94316 28.0687L5.09043 32.1934C3.925 33.8839 3.30908 35.7394 3.30908 37.5591V39.4138C3.30908 40.7399 3.78662 41.9563 4.57803 42.9015H3.54932C1.59219 42.9014 0 44.4936 0 46.4507C0 48.4078 1.59219 50 3.54932 50H20.6525C21.1919 50 21.6291 49.5628 21.6291 49.0234C21.6291 48.4841 21.1919 48.0469 20.6525 48.0469H3.54932C2.66924 48.0469 1.95312 47.3308 1.95312 46.4507C1.95312 45.5706 2.66924 44.8545 3.54932 44.8545H46.4506C47.3308 44.8545 48.0469 45.5706 48.0469 46.4507C48.0469 47.3308 47.3308 48.0469 46.4506 48.0469H29.2458C28.7065 48.0469 28.2692 48.4841 28.2692 49.0234C28.2692 49.5628 28.7065 50 29.2458 50H46.4507C48.4077 50 50 48.4078 50 46.4507C50 44.4936 48.4077 42.9014 46.4506 42.9014ZM41.8355 31.1745L43.3015 33.3019C44.4886 35.0241 44.7378 36.5675 44.7378 37.5591V39.4138C44.7378 41.3368 43.1732 42.9014 41.2501 42.9014H41.0066C41.194 42.4865 41.2983 42.0265 41.2983 41.5425V39.3415C41.2983 39.1703 41.2543 39.0094 41.177 38.8695C41.2605 38.6425 41.3058 38.3991 41.3104 38.1573L41.8355 31.1745ZM16.2101 8.72519C16.9255 6.60098 18.0164 4.94756 19.4524 3.81123C21.0104 2.57822 22.9901 1.95312 25.3367 1.95312C27.6794 1.95312 29.7127 2.77822 31.38 4.40557C32.8853 5.8748 33.8167 7.73027 34.333 9.02812C34.4374 9.29043 34.383 9.5916 34.1968 9.80244C34.0188 10.0039 33.788 10.0574 33.5296 10.0574H30.8018C29.6754 10.0574 29.197 8.65977 29.0118 7.825C28.8936 7.29609 28.4282 6.91055 27.8877 6.89111C27.3751 6.87266 26.9725 7.17666 26.7404 7.61279C26.0414 8.91885 24.6262 9.71523 23.1541 9.71523H16.9285C16.4249 9.71514 16.0478 9.20674 16.2101 8.72519ZM17.7154 14.7645V11.8299C17.7154 11.7762 17.716 11.7224 17.7172 11.6687H23.1538C24.1014 11.6687 25.0115 11.4526 25.8254 11.0582C26.4938 10.7345 27.0975 10.2908 27.6019 9.74473C28.2863 11.2029 29.405 12.0117 30.8016 12.0117H32.5902V14.6261C32.5902 16.546 31.853 18.418 30.5557 19.8218H19.7002C18.4173 18.4431 17.7154 16.6619 17.7154 14.7645ZM9.69434 21.7748H40.318C40.4479 21.7748 40.5552 21.8746 40.5667 22.0017L39.3603 38.0417C39.348 38.2061 39.2922 38.3649 39.0934 38.3649H10.9066C10.906 38.3649 10.9054 38.3648 10.9048 38.3648C10.767 38.3648 10.6549 38.2527 10.6549 38.1149C10.6549 38.0905 10.654 38.0661 10.6521 38.0417L9.4457 22.0017C9.45713 21.8746 9.56426 21.7748 9.69434 21.7748ZM5.2623 37.559C5.2623 36.5674 5.51152 35.0239 6.69775 33.303L8.17617 31.1654L8.70195 38.157C8.70645 38.3948 8.75 38.633 8.83018 38.8568C8.74844 38.9996 8.70166 39.1651 8.70166 39.3414V41.5424C8.70166 42.0264 8.80596 42.4864 8.99336 42.9013H8.75C6.82695 42.9013 5.2624 41.3367 5.2624 39.4137V37.559H5.2623ZM12.0138 42.9013C11.2645 42.9013 10.6549 42.2917 10.6549 41.5424V40.318H39.3452V41.5424C39.3452 42.2917 38.7356 42.9013 37.9863 42.9013C37.986 42.9013 37.9857 42.9013 37.9854 42.9013H12.0146C12.0144 42.9014 12.0141 42.9013 12.0138 42.9013Z" fill="#6440FB"/>
<path d="M25.9015 48.6507C25.6999 48.1588 25.1174 47.9188 24.6271 48.1224C24.136 48.3263 23.8941 48.9057 24.0988 49.3978C24.3032 49.8891 24.8815 50.1281 25.3731 49.9251C25.8643 49.7222 26.1062 49.1418 25.9015 48.6507Z" fill="#6440FB"/>
</svg>
