<svg width="30" height="30" viewBox="0 0 30 30" fill="none" xmlns="http://www.w3.org/2000/svg">
<path d="M16.9341 11.0486C16.2184 11.0486 15.5717 11.3631 15.1077 11.8699C15.0495 11.9335 14.9496 11.9335 14.8914 11.8699C14.4274 11.3632 13.7808 11.0486 13.0651 11.0486C11.6528 11.0486 10.5078 12.2734 10.5078 13.7845C10.5078 16.0452 11.7114 17.2337 14.3771 18.6075C14.5393 18.6909 14.9996 18.9497 14.9996 18.9497C14.9996 18.9497 15.46 18.6909 15.6222 18.6075C18.2876 17.2338 19.4912 16.0452 19.4912 13.7845C19.4911 12.2734 18.3464 11.0486 16.9341 11.0486Z" fill="#B2F0FB"/>
<path d="M29.153 12.1444C29.0795 11.6077 28.8038 11.1311 28.3757 10.8002L25.836 8.62657V3.63833C25.836 3.31476 25.5736 3.05236 25.25 3.05236H22.676C22.3524 3.05236 22.09 3.31476 22.09 3.63833V5.42067L16.2673 0.437294C16.2586 0.429853 16.2497 0.422704 16.2406 0.415789C15.5103 -0.138596 14.4902 -0.138596 13.7599 0.415789C13.7509 0.422704 13.742 0.429853 13.7333 0.437294L1.62476 10.8002C1.19671 11.1311 0.920951 11.6077 0.847471 12.1444C0.773111 12.6873 0.914623 13.2267 1.24599 13.663C1.57724 14.0994 2.05861 14.3807 2.60151 14.4551C2.69591 14.468 2.79031 14.4744 2.88401 14.4744C3.22774 14.4744 3.56303 14.3883 3.86398 14.2229V29.414C3.86398 29.7376 4.12638 30 4.44995 30H25.5506C25.8742 30 26.1366 29.7376 26.1366 29.414V14.2229C26.4367 14.3879 26.7715 14.474 27.1196 14.474C27.7674 14.474 28.3634 14.1783 28.7545 13.663C29.0859 13.2267 29.2274 12.6873 29.153 12.1444ZM23.262 4.2243H24.6641V7.62357L23.262 6.42368V4.2243ZM12.5118 28.828V22.0794H17.4888V28.828H12.5118ZM18.6607 28.828V21.4935C18.6607 21.1699 18.3983 20.9075 18.0747 20.9075H11.9258C11.6022 20.9075 11.3398 21.1699 11.3398 21.4935V28.828H5.03592V13.2673L15.0003 4.66348L24.9646 13.2673V28.828H18.6607ZM27.821 12.9544C27.6534 13.1754 27.3977 13.3021 27.1196 13.3021C26.9321 13.3021 26.7535 13.2436 26.602 13.1327L15.3832 3.44578C15.1632 3.25592 14.8373 3.25592 14.6173 3.44578L3.39855 13.1327C3.21379 13.2679 2.98802 13.325 2.76048 13.2939C2.5278 13.2621 2.32148 13.1415 2.17944 12.9544C2.0374 12.7673 1.97675 12.5361 2.00857 12.3034C2.04045 12.0707 2.16104 11.8643 2.34814 11.7223C2.35722 11.7154 2.36613 11.7082 2.3748 11.7008L14.4806 1.34027C14.7888 1.11444 15.2118 1.11444 15.52 1.34027L27.6257 11.7008C27.6344 11.7082 27.6433 11.7154 27.6524 11.7223C27.8395 11.8643 27.9601 12.0707 27.992 12.3034C28.0238 12.5361 27.9631 12.7673 27.821 12.9544Z" fill="#020288"/>
</svg>
