<svg width="30" height="30" viewBox="0 0 30 30" fill="none" xmlns="http://www.w3.org/2000/svg">
<g clip-path="url(#clip0_324_18657)">
<path fill-rule="evenodd" clip-rule="evenodd" d="M14.47 4.80701C8.50227 3.7298 4.06768 10.365 7.28538 15.4551C11.4174 21.8914 21.3951 18.1551 20.1645 10.5015L18.7811 9.11814L14.7817 10.1898L15.8534 6.19035L14.47 4.80701Z" fill="#E2C4FF"/>
<path d="M12.2368 11.6206C10.575 12.9313 7.05784 15.292 5.57301 15.3799C5.46408 14.6614 4.42634 14.7217 4.40625 15.4536C4.40625 15.8945 4.61422 16.249 4.9768 16.4263C5.79779 16.7683 6.79892 16.3824 8.51082 15.4945C9.87647 14.756 11.4968 13.6809 12.9562 12.5449C13.2115 12.3461 13.2573 11.9782 13.0587 11.7229C12.8599 11.4677 12.4919 11.4219 12.2368 11.6206Z" fill="#020288"/>
<path d="M28.2942 17.1931C27.1705 14.6859 25.114 10.5639 24.3391 7.96732C24.1192 7.31811 23.8401 6.68513 23.5082 6.08254L24.9367 0.751293C24.9908 0.549181 24.933 0.333539 24.7851 0.185542C24.6371 0.0375444 24.4214 -0.0203193 24.2193 0.0339718L18.8889 1.46223C11.2607 -2.8598 1.42086 2.94484 1.5302 11.7274C1.53008 14.0159 2.20225 15.6788 2.9806 17.6044C4.07263 20.3061 5.31037 23.3683 5.30972 29.4142C5.30972 29.5695 5.37139 29.7185 5.48126 29.8284C5.59108 29.9382 5.74007 29.9999 5.89539 29.9999H18.5437C18.8671 29.9999 19.1293 29.7377 19.1293 29.4143C19.1293 26.514 19.5907 25.5489 22.3212 25.5489C26.6932 25.6659 25.7117 22.7341 25.8352 19.6337H26.7812C28.0077 19.6537 28.8591 18.2863 28.2942 17.1931ZM21.1838 2.05996L15.9326 5.44217L14.3748 3.88442L21.1838 2.05996ZM16.3596 6.56032L22.1209 2.84967L18.4103 8.61097L15.609 9.36155L16.3596 6.56032ZM22.9107 3.78667L21.0862 10.5958L19.5284 9.03809L22.9107 3.78667ZM27.22 18.2131C27.1738 18.2881 27.0387 18.4624 26.782 18.4624H25.2494C24.9259 18.4624 24.6637 18.7246 24.6637 19.048V22.3277C24.6637 23.5005 24.4377 23.8444 24.2407 24.0131C23.9423 24.2685 23.3682 24.3776 22.3211 24.3776C19.088 24.3385 17.983 25.9326 17.9652 28.8286H6.47713C6.3973 22.9323 5.10849 19.7433 4.06653 17.1654C3.30382 15.2785 2.70141 13.7881 2.70141 11.7273C2.59488 4.40221 10.3844 -0.871113 17.1414 1.93047L13.0918 3.01559C12.6643 3.1196 12.5108 3.69156 12.8292 3.99546L15.1992 6.36547L14.2151 10.0383C14.1609 10.2404 14.2187 10.456 14.3667 10.604C14.5147 10.752 14.7302 10.8098 14.9324 10.7556L18.6052 9.77152L20.9752 12.1415C21.0865 12.2528 21.2361 12.3131 21.3894 12.3131C21.6497 12.3155 21.8902 12.1315 21.9551 11.879L23.0403 7.82905C23.6407 9.48905 24.0012 10.6914 24.7587 12.302L27.2339 17.6908C27.3592 17.9093 27.2709 18.1428 27.22 18.2131Z" fill="#020288"/>
</g>
<defs>
<clipPath id="clip0_324_18657">
<rect width="30" height="30" fill="white"/>
</clipPath>
</defs>
</svg>
