<svg width="30" height="30" viewBox="0 0 30 30" fill="none" xmlns="http://www.w3.org/2000/svg">
<path fill-rule="evenodd" clip-rule="evenodd" d="M6.70898 18.6621V26.2793H23.2911V18.6621H17.3438V19.834C17.3438 20.4785 16.8165 21.0059 16.1719 21.0059H13.8282C13.1837 21.0059 12.6563 20.4785 12.6563 19.834V18.6621H6.70898Z" fill="#FFBEBC"/>
<path fill-rule="evenodd" clip-rule="evenodd" d="M6.70898 18.6621H12.6563C12.6563 17.373 13.711 16.3184 15.0001 16.3184C16.2892 16.3184 17.3438 17.373 17.3438 18.6621H23.2911V11.6309C23.2911 10.3418 22.2365 9.28711 20.9474 9.28711H9.05273C7.76367 9.28711 6.70898 10.3418 6.70898 11.6309V18.6621Z" fill="#FFBEBC"/>
<path d="M28.2422 5.77148H20.2003C20.0528 4.29305 18.8017 3.13477 17.2852 3.13477H12.7148C11.1983 3.13477 9.94717 4.29305 9.79969 5.77148H1.75781C0.788555 5.77148 0 6.56004 0 7.5293V25.1074C0 26.0767 0.788555 26.8652 1.75781 26.8652H28.2422C29.2114 26.8652 30 26.0767 30 25.1074V7.5293C30 6.56004 29.2114 5.77148 28.2422 5.77148ZM12.7148 4.30664H17.2852C18.1546 4.30664 18.8787 4.94121 19.0185 5.77148H10.9814C11.1213 4.94121 11.8453 4.30664 12.7148 4.30664ZM1.17188 7.5293C1.17188 7.20621 1.43473 6.94336 1.75781 6.94336H28.2422C28.5653 6.94336 28.8281 7.20621 28.8281 7.5293V15.1465C28.8281 16.762 27.5139 18.0762 25.8984 18.0762H17.8708C17.5986 16.7406 16.4149 15.7325 15 15.7325C13.5851 15.7325 12.4014 16.7406 12.1291 18.0762H4.10156C2.48613 18.0762 1.17188 16.762 1.17188 15.1465V7.5293ZM13.2422 19.248H16.7578V19.834C16.7578 20.1571 16.495 20.4199 16.1719 20.4199H13.8281C13.505 20.4199 13.2422 20.1571 13.2422 19.834V19.248ZM13.3426 18.0762C13.5844 17.3941 14.2361 16.9043 15 16.9043C15.7639 16.9043 16.4156 17.3941 16.6574 18.0762H13.3426ZM28.8281 25.1074C28.8281 25.4305 28.5653 25.6934 28.2422 25.6934H1.75781C1.43473 25.6934 1.17188 25.4305 1.17188 25.1074V18.0142C1.91689 18.7752 2.955 19.248 4.10156 19.248H12.0703V19.834C12.0703 20.8032 12.8589 21.5918 13.8281 21.5918H16.1719C17.1411 21.5918 17.9297 20.8032 17.9297 19.834V19.248H25.8984C27.045 19.248 28.0832 18.7752 28.8281 18.0142V25.1074Z" fill="#020288"/>
</svg>
