<svg width="30" height="30" viewBox="0 0 30 30" fill="none" xmlns="http://www.w3.org/2000/svg">
<path fill-rule="evenodd" clip-rule="evenodd" d="M6.50391 19.1309H23.4961V22.0605H6.50391V19.1309Z" fill="#FFF59B"/>
<path d="M8.78906 14.3848H21.0938V16.7285H8.78906V14.3848Z" fill="#FFF59B"/>
<path d="M29.4141 23.7598H28.7695V6.82617C28.7695 6.50262 28.5071 6.24023 28.1836 6.24023H21.7383V5.6543C21.7383 5.33074 21.4759 5.06836 21.1523 5.06836H18.8086V4.18945C18.8086 2.08939 17.1001 0.380859 15 0.380859C12.8999 0.380859 11.1914 2.08939 11.1914 4.18945V5.06836H8.84766C8.52404 5.06836 8.26172 5.33074 8.26172 5.6543V6.24023H1.81641C1.49285 6.24023 1.23047 6.50262 1.23047 6.82617V23.7598H0.585938C0.262324 23.7598 0 24.0221 0 24.3457V25.5176C0 27.7792 1.83996 29.6191 4.10156 29.6191H25.8984C28.16 29.6191 30 27.7792 30 25.5176V24.3457C30 24.0221 29.7376 23.7598 29.4141 23.7598ZM27.5977 7.41211V23.7598H26.4258V9.16992C26.4258 8.84637 26.1634 8.58398 25.8398 8.58398H21.7383V7.41211H27.5977ZM4.74609 23.7598V9.75586H8.26172V16.7871C8.26172 17.1107 8.52404 17.373 8.84766 17.373H21.1523C21.4759 17.373 21.7383 17.1107 21.7383 16.7871V9.75586H25.2539V23.7598C24.2282 23.7598 5.78391 23.7598 4.74609 23.7598ZM18.8347 24.9316C18.643 25.5752 17.9544 26.1035 17.2852 26.1035H12.7148C12.0456 26.1035 11.357 25.5752 11.1653 24.9316H18.8347ZM12.3633 4.18945C12.3633 2.73557 13.5461 1.55273 15 1.55273C16.4539 1.55273 17.6367 2.73557 17.6367 4.18945V5.06836H12.3633V4.18945ZM9.43359 6.24023H11.1914V7.99805C11.1914 8.32166 11.4537 8.58398 11.7773 8.58398C12.101 8.58398 12.3633 8.32166 12.3633 7.99805V6.24023H17.6367V7.99805C17.6367 8.32166 17.8991 8.58398 18.2227 8.58398C18.5462 8.58398 18.8086 8.32166 18.8086 7.99805V6.24023H20.5664V16.2012H9.43359V6.24023ZM2.40234 7.41211H8.26172V8.58398H4.16016C3.8366 8.58398 3.57422 8.84637 3.57422 9.16992V23.7598H2.40234V7.41211ZM28.8281 25.5176C28.8281 27.133 27.5139 28.4473 25.8984 28.4473H4.10156C2.48613 28.4473 1.17188 27.133 1.17188 25.5176V24.9316H9.96094L9.99955 25.1031C10.2737 26.3213 11.4663 27.2754 12.7148 27.2754H17.2852C18.5337 27.2754 19.7263 26.3213 20.0005 25.1031L20.0391 24.9316H28.8281V25.5176Z" fill="#020288"/>
<path d="M4.74609 26.1035C4.4267 26.1035 4.16016 26.3703 4.16016 26.6894C4.16016 27.0088 4.42676 27.2753 4.74609 27.2753C5.06543 27.2753 5.33203 27.0084 5.33203 26.6895C5.33209 26.3812 5.06666 26.1035 4.74609 26.1035Z" fill="#020288"/>
<path d="M7.08984 26.1035C6.7732 26.1035 6.50396 26.374 6.50391 26.6893C6.50385 26.9971 6.7708 27.2753 7.08979 27.2753C7.40713 27.2754 7.67572 27.0058 7.67578 26.6895C7.67584 26.3821 7.40854 26.1035 7.08984 26.1035Z" fill="#020288"/>
</svg>
