<svg width="30" height="30" viewBox="0 0 30 30" fill="none" xmlns="http://www.w3.org/2000/svg">
<path d="M4.79688 7.18085V19.6576H25.2049V7.18085H4.79688ZM18.9538 16.27C16.4331 17.3689 13.5687 17.3689 11.0481 16.27V12.3803L9.35113 11.7137L15.0009 9.49442L20.6507 11.7138L18.9538 12.3804V16.27Z" fill="#E2C4FF"/>
<path d="M29.4141 21.6653H28.3681V6.11491C28.3681 4.95803 27.4269 4.01678 26.2699 4.01678H3.73008C2.57314 4.01678 1.63189 4.95798 1.63189 6.11491V21.6653H0.585938C0.262324 21.6653 0 21.9277 0 22.2513V23.4843C0 24.8622 1.12102 25.9832 2.49896 25.9832H27.501C28.879 25.9832 30 24.8622 30 23.4843V22.2513C30 21.9277 29.7377 21.6653 29.4141 21.6653ZM2.80377 6.11491C2.80377 5.60415 3.21932 5.18866 3.73008 5.18866H26.2699C26.7807 5.18866 27.1962 5.60415 27.1962 6.11491V19.0716H2.80377V6.11491ZM2.80377 20.2435H27.1962V21.6653H2.80377V20.2435ZM28.8281 23.4843C28.8281 24.216 28.2328 24.8113 27.501 24.8113H2.49896C1.76719 24.8113 1.17188 24.216 1.17188 23.4843V22.8372H14.4141V23.0211C14.4141 23.3447 14.6764 23.6071 15 23.6071C15.3236 23.6071 15.5859 23.3447 15.5859 23.0211V22.8372H28.8281V23.4843Z" fill="#020288"/>
<path d="M20.8635 11.1684L15.2137 8.94905C15.0759 8.89491 14.9229 8.89491 14.7852 8.94905L9.13539 11.1684C8.91115 11.2565 8.76367 11.4729 8.76367 11.7138C8.76367 11.9547 8.91115 12.1711 9.13539 12.2592L10.4607 12.7798V16.2701C10.4607 16.5032 10.5988 16.7141 10.8124 16.8072C12.1429 17.3873 13.5712 17.6774 14.9994 17.6774C16.4276 17.6774 17.856 17.3873 19.1864 16.8072C19.4 16.7141 19.5381 16.5032 19.5381 16.2701V12.7798L20.8634 12.2592C21.0876 12.1711 21.2351 11.9547 21.2351 11.7138C21.2351 11.4729 21.0877 11.2565 20.8635 11.1684ZM14.9994 10.124L19.0466 11.7138L14.9994 13.3036L10.9521 11.7138L14.9994 10.124ZM18.3663 15.8777C16.2065 16.7151 13.7923 16.7151 11.6325 15.8777V13.24L14.7852 14.4785C14.854 14.5056 14.9267 14.519 14.9994 14.519C15.0721 14.519 15.1448 14.5056 15.2136 14.4785L18.3663 13.24V15.8777Z" fill="#020288"/>
</svg>
