<svg width="30" height="30" viewBox="0 0 30 30" fill="none" xmlns="http://www.w3.org/2000/svg">
<g clip-path="url(#clip0_324_18685)">
<path d="M20.025 26.2593C18.1676 25.0705 17.0586 23.0442 17.0586 20.8388V18.6524L20.5886 17.2404L24.1186 18.6524V20.8388C24.1186 23.0442 23.0096 25.0705 21.1521 26.2593L20.5886 26.62L20.025 26.2593Z" fill="#8FEFFA"/>
<path d="M18.2358 2.93921V15.6471L15.4871 16.7468L14.7058 17.0591V20.8392C14.7058 21.3516 14.7506 21.8582 14.8376 22.3541H5.88086V2.93921H18.2358Z" fill="#8FEFFA"/>
<path d="M12.0575 24.1215C11.0856 24.1215 10.2949 24.9122 10.2949 25.8841C10.2949 26.856 11.0856 27.6467 12.0575 27.6467C13.0294 27.6467 13.8202 26.856 13.8202 25.8841C13.8202 24.9122 13.0294 24.1215 12.0575 24.1215ZM12.0575 26.4748C11.7318 26.4748 11.4668 26.2099 11.4668 25.8841C11.4668 25.5584 11.7318 25.2934 12.0575 25.2934C12.3833 25.2934 12.6483 25.5584 12.6483 25.8841C12.6483 26.2099 12.3833 26.4748 12.0575 26.4748Z" fill="#090E8B"/>
<path d="M19.8265 21.6456C19.5976 21.4169 19.2266 21.4169 18.9978 21.6456C18.769 21.8745 18.769 22.2455 18.9978 22.4743L19.8803 23.3568C20.1092 23.5856 20.48 23.5856 20.709 23.3568L22.474 21.5918C22.7028 21.363 22.7028 20.992 22.474 20.7632C22.2452 20.5345 21.8743 20.5344 21.6453 20.7632L20.2946 22.1139L19.8265 21.6456Z" fill="#090E8B"/>
<path d="M26.6898 16.5151L21.1748 14.3091V2.3509C21.1748 1.05463 20.1202 0 18.8239 0H5.2923C3.99603 0 2.94141 1.05463 2.94141 2.3509V27.6491C2.94141 28.9454 3.99603 30 5.2923 30H20.5888C20.6664 30 20.7554 29.9826 20.8376 29.944C20.8579 29.9344 20.8775 29.9238 20.8965 29.912C20.8992 29.9104 22.7368 28.735 22.7368 28.735C25.4426 27.003 27.0581 24.0513 27.0581 20.8392V17.0591C27.0581 16.8196 26.9123 16.6041 26.6898 16.5151ZM4.11328 27.6491V2.3509C4.11328 1.70074 4.64215 1.17188 5.2923 1.17188H18.8239C19.474 1.17188 20.0029 1.70074 20.0029 2.3509V14.3091L14.488 16.5151C14.2655 16.604 14.1196 16.8195 14.1196 17.0591V20.8392C14.1196 22.254 14.4468 23.6723 15.066 24.9423C15.0694 24.9501 15.0729 24.9578 15.0768 24.9656C16.3353 27.5306 18.4077 28.7003 18.4707 28.7541L18.4709 28.7538C18.4827 28.7614 18.4281 28.7263 18.5864 28.8281H5.2923C4.64215 28.8281 4.11328 28.2993 4.11328 27.6491ZM25.8862 20.8392C25.8862 23.6498 24.4727 26.2325 22.1051 27.7479L20.5889 28.7184C18.9071 27.6421 17.2996 26.8186 16.1391 24.47C16.1358 24.4627 16.1324 24.4553 16.1288 24.4481C15.5811 23.3321 15.2916 22.0842 15.2916 20.8392V17.4559L20.5889 15.3369L25.8862 17.4558V20.8392Z" fill="#090E8B"/>
<path d="M8.23438 7.64349H15.8827C16.2063 7.64349 16.4686 7.38111 16.4686 7.05756C16.4686 6.734 16.2063 6.47162 15.8827 6.47162H8.23438C7.91076 6.47162 7.64844 6.734 7.64844 7.05756C7.64844 7.38117 7.91082 7.64349 8.23438 7.64349Z" fill="#090E8B"/>
<path d="M8.23438 9.99683H15.8827C16.2063 9.99683 16.4686 9.73444 16.4686 9.41089C16.4686 9.08728 16.2063 8.82495 15.8827 8.82495H8.23438C7.91076 8.82495 7.64844 9.08728 7.64844 9.41089C7.64844 9.7345 7.91082 9.99683 8.23438 9.99683Z" fill="#090E8B"/>
<path d="M16.4686 11.7642C16.4686 11.4405 16.2063 11.1782 15.8827 11.1782H8.23438C7.91076 11.1782 7.64844 11.4405 7.64844 11.7642C7.64844 12.0877 7.91076 12.3501 8.23438 12.3501H15.8827C16.2063 12.3501 16.4686 12.0878 16.4686 11.7642Z" fill="#090E8B"/>
</g>
<defs>
<clipPath id="clip0_324_18685">
<rect width="30" height="30" fill="white"/>
</clipPath>
</defs>
</svg>
