<svg width="50" height="50" viewBox="0 0 50 50" fill="none" xmlns="http://www.w3.org/2000/svg">
<g clip-path="url(#clip0_200_6156)">
<path d="M8.62334 31.7544C10.3566 31.7544 11.7667 30.125 11.7667 28.1223C11.7667 26.1195 10.3566 24.4902 8.62334 24.4902C6.89004 24.4902 5.47998 26.1196 5.47998 28.1223C5.47998 30.1251 6.89014 31.7544 8.62334 31.7544ZM8.62334 25.9551C9.54893 25.9551 10.3019 26.9273 10.3019 28.1223C10.3019 29.3173 9.54883 30.2895 8.62334 30.2895C7.69775 30.2895 6.94482 29.3173 6.94482 28.1223C6.94482 26.9272 7.69785 25.9551 8.62334 25.9551Z" fill="#04D697"/>
<path d="M41.3768 24.4902C39.6435 24.4902 38.2334 26.1196 38.2334 28.1223C38.2334 30.125 39.6435 31.7544 41.3768 31.7544C43.1101 31.7544 44.5202 30.125 44.5202 28.1223C44.5202 26.1195 43.1101 24.4902 41.3768 24.4902ZM41.3768 30.2895C40.4513 30.2895 39.6982 29.3173 39.6982 28.1223C39.6982 26.9272 40.4513 25.9551 41.3768 25.9551C42.3023 25.9551 43.0554 26.9273 43.0554 28.1223C43.0554 29.3174 42.3023 30.2895 41.3768 30.2895Z" fill="#04D697"/>
<path d="M41.4444 21.7786C41.4218 21.7784 41.3994 21.7783 41.3767 21.7783C38.1091 21.7783 35.1413 23.6333 33.6857 26.499C31.4187 24.4331 28.4063 23.1718 25.1049 23.1718C21.7323 23.1718 18.6618 24.4885 16.379 26.6341C14.9488 23.7007 11.9297 21.7801 8.62324 21.7801C3.86836 21.7801 0 25.6484 0 30.4033C0 35.1582 3.86836 39.0266 8.62315 39.0266C9.99326 39.0266 11.3308 38.7033 12.5379 38.0875C13.5687 44.0915 18.8112 48.6749 25.1048 48.6749C31.3654 48.6749 36.5867 44.1396 37.656 38.1819C38.7914 38.7249 40.0392 39.0146 41.3092 39.0246C41.3324 39.0248 41.3556 39.0249 41.3787 39.0249C43.6562 39.0249 45.8014 38.1465 47.4263 36.5469C49.0678 34.931 49.9817 32.7727 49.9998 30.4693C50.037 25.7146 46.1991 21.8159 41.4444 21.7786ZM1.46484 30.4033C1.46484 26.4562 4.67607 23.245 8.62315 23.245C11.5584 23.245 14.221 25.0679 15.2893 27.7926C13.7877 29.6022 12.7759 31.832 12.4594 34.277C11.4348 33.319 10.0726 32.7643 8.62315 32.7643C6.59072 32.7643 4.7166 33.8843 3.73008 35.6213C2.3374 34.3144 1.46484 32.4593 1.46484 30.4033ZM4.90967 36.521C5.60859 35.135 7.05166 34.2291 8.62324 34.2291C10.1607 34.2291 11.5662 35.073 12.2914 36.4315C12.3077 36.462 12.3265 36.4903 12.3462 36.5175C11.2269 37.2005 9.94355 37.5617 8.62324 37.5617C7.26445 37.5616 5.99297 37.1811 4.90967 36.521ZM18.9575 45.3844C20.0203 42.9688 22.4491 41.3674 25.1048 41.3674C27.764 41.3674 30.189 42.9677 31.2519 45.3845C29.482 46.5383 27.3705 47.21 25.1048 47.21C22.839 47.21 20.7274 46.5383 18.9575 45.3844ZM32.449 44.4865C31.0883 41.7162 28.2293 39.9026 25.1049 39.9026C21.9845 39.9026 19.1216 41.7176 17.7606 44.4865C15.3487 42.4149 13.8183 39.3447 13.8183 35.9233C13.8183 29.6998 18.8814 24.6367 25.1049 24.6367C31.3284 24.6367 36.3915 29.6999 36.3915 35.9233C36.3914 39.3446 34.8609 42.4149 32.449 44.4865ZM41.3207 37.5597C40.0946 37.55 38.8943 37.2267 37.8368 36.624C37.8455 36.4641 37.8508 36.3033 37.8535 36.1419C37.8535 36.1419 39.1479 34.2291 41.3768 34.2291C42.9509 34.2291 44.3924 35.1349 45.091 36.5222C43.9658 37.2082 42.6701 37.5715 41.3207 37.5597ZM46.3986 35.5028C46.3569 35.5439 46.3135 35.5826 46.271 35.6226C45.285 33.8841 43.4125 32.7643 41.3768 32.7643C40.0238 32.7643 38.734 33.254 37.7273 34.1139C37.3768 31.6569 36.3237 29.4234 34.778 27.6244C35.8895 24.9845 38.4918 23.2433 41.3767 23.2433C41.3953 23.2433 41.4143 23.2433 41.4329 23.2435C45.38 23.2744 48.5659 26.5106 48.535 30.4577C48.5199 32.3697 47.7612 34.1614 46.3986 35.5028Z" fill="#04D697"/>
<path d="M25.105 27.3C22.6762 27.3 20.7002 29.6099 20.7002 32.4492C20.7002 35.2884 22.6762 37.5983 25.105 37.5983C27.5338 37.5983 29.5098 35.2884 29.5098 32.4492C29.5098 29.61 27.5338 27.3 25.105 27.3ZM25.105 36.1334C23.4839 36.1334 22.165 34.4807 22.165 32.4492C22.165 30.4176 23.4839 28.7649 25.105 28.7649C26.7261 28.7649 28.0449 30.4176 28.0449 32.4492C28.0449 34.4807 26.7261 36.1334 25.105 36.1334Z" fill="#04D697"/>
<path d="M6.90414 9.49019L6.65179 10.9617C6.57679 11.3989 6.75316 11.8324 7.11195 12.0931C7.31478 12.2404 7.55199 12.3153 7.79076 12.3153C7.97464 12.3153 8.15941 12.2708 8.33011 12.1811L9.6516 11.4864L10.9731 12.1811C11.3656 12.3875 11.8325 12.3538 12.1913 12.0931C12.5502 11.8325 12.7266 11.3989 12.6516 10.9617L12.3993 9.49019L13.4684 8.4481C13.7861 8.13853 13.8982 7.68413 13.7611 7.26226C13.6241 6.84048 13.2662 6.53882 12.8273 6.47495L11.3498 6.2602L10.6891 4.92144C10.4928 4.52368 10.0953 4.27661 9.6517 4.27661C9.20814 4.27661 8.81068 4.52378 8.61439 4.92144L7.95365 6.2602L6.47611 6.47495C6.03724 6.53872 5.67943 6.84038 5.54232 7.26226C5.40531 7.68403 5.51742 8.13843 5.83509 8.4481L6.90414 9.49019ZM8.32445 7.68667C8.7014 7.63198 9.02709 7.39536 9.19554 7.05386L9.6517 6.12954L10.1078 7.05376C10.2764 7.39526 10.602 7.63188 10.9788 7.68657L11.9989 7.83481L11.2606 8.55435C10.988 8.82017 10.8637 9.20288 10.9281 9.57817L11.1023 10.594L10.19 10.1144C9.85287 9.93716 9.45043 9.93716 9.11341 10.1143L8.20101 10.594L8.37523 9.57837C8.43968 9.20308 8.31546 8.82026 8.04261 8.55425L7.30453 7.83481L8.32445 7.68667Z" fill="#04D697"/>
<path d="M24.0632 7.26211C23.9262 6.84033 23.5683 6.53867 23.1294 6.4748L21.6519 6.26006L20.9912 4.92129C20.7949 4.52354 20.3974 4.27637 19.9539 4.27637C19.5103 4.27637 19.1129 4.52344 18.9166 4.92119L18.2558 6.25996L16.7784 6.47471C16.3394 6.53848 15.9816 6.84014 15.8446 7.26201C15.7075 7.68389 15.8197 8.13828 16.1373 8.44785L17.2063 9.48994L16.954 10.9614C16.879 11.3986 17.0554 11.8321 17.4141 12.0929C17.617 12.2401 17.8542 12.315 18.0929 12.315C18.2768 12.315 18.4616 12.2706 18.6323 12.1809L19.9538 11.4861L21.2753 12.1809C21.6679 12.3873 22.1346 12.3535 22.4935 12.0929C22.8523 11.8321 23.0287 11.3986 22.9537 10.9614L22.7013 9.48994L23.7704 8.44785C24.0882 8.13838 24.2003 7.68398 24.0632 7.26211ZM21.5628 8.5543C21.2902 8.82012 21.1659 9.20283 21.2303 9.57812L21.4045 10.5939L20.4922 10.1144C20.3236 10.0257 20.1387 9.98144 19.9538 9.98144C19.7689 9.98144 19.584 10.0258 19.4155 10.1144L18.5031 10.594L18.6773 9.57812C18.7417 9.20283 18.6174 8.82012 18.3446 8.5542L17.6065 7.83476L18.6264 7.68652C19.0034 7.63184 19.329 7.39521 19.4975 7.05371L19.9537 6.12939L20.4098 7.05381C20.5785 7.39531 20.9041 7.63184 21.2808 7.68652L22.3009 7.83476L21.5628 8.5543Z" fill="#04D697"/>
<path d="M34.365 7.26226C34.228 6.84038 33.8702 6.53872 33.4312 6.47495L31.9537 6.26021L31.293 4.92144C31.0967 4.52378 30.6992 4.27661 30.2557 4.27661C29.8122 4.27661 29.4148 4.52368 29.2184 4.92144L28.5577 6.26021L27.0801 6.47495C26.6412 6.53872 26.2834 6.84038 26.1463 7.26226C26.0093 7.68403 26.1214 8.13843 26.4391 8.4481L27.5082 9.49019L27.2558 10.9617C27.1808 11.3989 27.3572 11.8324 27.716 12.0931C27.9188 12.2404 28.1559 12.3153 28.3948 12.3153C28.5786 12.3152 28.7634 12.2708 28.9341 12.1811L30.2556 11.4864L31.5771 12.1811C31.9697 12.3875 32.4365 12.3538 32.7953 12.0931C33.1541 11.8325 33.3305 11.3989 33.2555 10.9617L33.0031 9.49019L34.0722 8.4481C34.3899 8.13843 34.5021 7.68403 34.365 7.26226ZM31.8648 8.55425C31.592 8.82007 31.4677 9.20278 31.5321 9.57817L31.7063 10.594L30.794 10.1143C30.6254 10.0257 30.4406 9.9814 30.2557 9.9814C30.0708 9.9814 29.8859 10.0257 29.7174 10.1143L28.8051 10.594L28.9793 9.57808C29.0437 9.20269 28.9193 8.81997 28.6466 8.55415L27.9085 7.83472L28.9286 7.68647C29.3055 7.63169 29.6311 7.39517 29.7995 7.05376L30.2557 6.12944L30.7119 7.05366C30.8804 7.39517 31.206 7.63179 31.5828 7.68647L32.6029 7.83472L31.8648 8.55425Z" fill="#04D697"/>
<path d="M38.0182 12.0931C38.221 12.2404 38.4581 12.3153 38.697 12.3153C38.8808 12.3152 39.0657 12.2708 39.2364 12.1811L40.5578 11.4864L41.8793 12.1811C42.2719 12.3875 42.7387 12.3538 43.0976 12.0931C43.4565 11.8325 43.6328 11.3989 43.5578 10.9617L43.3055 9.49019L44.3747 8.448C44.6923 8.13833 44.8044 7.68394 44.6673 7.26216C44.5303 6.84038 44.1725 6.53872 43.7335 6.47495L42.2561 6.26021L41.5953 4.92144C41.3991 4.52368 41.0015 4.27661 40.5579 4.27661C40.1144 4.27661 39.7169 4.52378 39.5206 4.92144L38.8599 6.26021L37.3824 6.47495C36.9435 6.53872 36.5857 6.84038 36.4486 7.26226C36.3116 7.68403 36.4237 8.13843 36.7413 8.4481L37.8104 9.49019L37.558 10.9617C37.483 11.3989 37.6594 11.8324 38.0182 12.0931ZM39.2307 7.68657C39.6076 7.63188 39.9333 7.39526 40.1018 7.05376L40.5579 6.12944L41.0141 7.05366C41.1827 7.39517 41.5082 7.63179 41.8851 7.68647L42.9052 7.83472L42.1671 8.55415C41.8945 8.81997 41.7701 9.20269 41.8344 9.57808L42.0086 10.5939L41.0963 10.1143C40.9278 10.0256 40.7429 9.9814 40.558 9.9814C40.3732 9.9814 40.1882 10.0257 40.0198 10.1143L39.1075 10.594L39.2816 9.57837C39.3461 9.20298 39.2217 8.82007 38.949 8.55425L38.2109 7.83481L39.2307 7.68657Z" fill="#04D697"/>
<path d="M7.32471 2.78994H47.2005C47.5406 2.78994 47.8174 3.0666 47.8174 3.40674V14.0471C47.8174 14.3872 47.5407 14.6639 47.2006 14.6639H42.0067C41.6022 14.6639 41.2743 14.9918 41.2743 15.3963C41.2743 15.8008 41.6022 16.1287 42.0067 16.1287H47.2006C48.3484 16.1287 49.2822 15.1949 49.2822 14.0471V3.40684C49.2822 2.25898 48.3484 1.3252 47.2005 1.3252H7.32471C6.92021 1.3252 6.59229 1.65312 6.59229 2.05762C6.59229 2.46211 6.92021 2.78994 7.32471 2.78994Z" fill="#04D697"/>
<path d="M3.00889 16.1288H20.803C20.9409 16.1288 21.0693 16.203 21.1383 16.3224L23.7709 20.8821C24.0492 21.3643 24.5478 21.6521 25.1045 21.6521C25.6612 21.6521 26.1598 21.3643 26.4382 20.8821L29.0708 16.3224C29.1397 16.2029 29.2683 16.1288 29.4061 16.1288H39.0767C39.4812 16.1288 39.8091 15.8009 39.8091 15.3964C39.8091 14.9919 39.4812 14.664 39.0767 14.664H29.4061C28.7466 14.664 28.132 15.0187 27.8022 15.5899L25.1696 20.1497C25.1632 20.1609 25.148 20.1873 25.1045 20.1873C25.0611 20.1873 25.0459 20.161 25.0395 20.1498L22.4068 15.59C22.0771 15.0188 21.4625 14.6641 20.803 14.6641H3.00889C2.66875 14.6641 2.39209 14.3874 2.39209 14.0473V3.40684C2.39209 3.0667 2.66875 2.79004 3.00889 2.79004H4.39473C4.79922 2.79004 5.12715 2.46211 5.12715 2.05762C5.12715 1.65312 4.79922 1.3252 4.39473 1.3252H3.00889C1.86104 1.3252 0.927246 2.25898 0.927246 3.40684V14.0472C0.927246 15.1949 1.86113 16.1288 3.00889 16.1288Z" fill="#04D697"/>
</g>
<defs>
<clipPath id="clip0_200_6156">
<rect width="50" height="50" fill="white"/>
</clipPath>
</defs>
</svg>
