<svg width="50" height="50" viewBox="0 0 50 50" fill="none" xmlns="http://www.w3.org/2000/svg">
<g clip-path="url(#clip0_200_6168)">
<path d="M48.7276 45.5969V40.7922L34.3513 38.957L34.1654 40.4129L47.2599 42.0845V45.5969H33.4145V47.0646H48.5319V48.5323H7.19141V50H49.9996V45.5969H48.7276Z" fill="#ECB53E"/>
<path d="M1.46771 47.0647H31.9472V45.597H25.7339V44.0597C25.7339 41.7663 27.5952 39.9003 29.8833 39.9003C30.0611 39.9003 30.2412 39.9119 30.419 39.9347L32.7099 40.2271L32.8958 38.7713L30.6053 38.4788C30.3662 38.4483 30.1233 38.4326 29.8833 38.4326C27.7941 38.4326 25.9676 39.5812 25 41.281C24.0323 39.5812 22.2058 38.4327 20.1166 38.4327C19.8769 38.4327 19.6341 38.4482 19.3951 38.4788L1.27202 40.7923V45.597H0V50.0001H5.72407V48.5324H1.46771V47.0647ZM2.73973 42.0847L19.5811 39.9347C19.7586 39.912 19.9388 39.9004 20.1166 39.9004C22.4047 39.9004 24.2661 41.7663 24.2661 44.0597V45.597H2.73973V42.0847Z" fill="#ECB53E"/>
<path d="M24.9998 15.1665C22.9766 15.1665 21.3306 16.8125 21.3306 18.8358C21.3306 20.8591 22.9766 22.5051 24.9998 22.5051C27.0231 22.5051 28.6691 20.8591 28.6691 18.8358C28.6691 16.8125 27.0231 15.1665 24.9998 15.1665ZM24.9998 21.0373C23.7859 21.0373 22.7983 20.0497 22.7983 18.8358C22.7983 17.6219 23.7859 16.6342 24.9998 16.6342C26.2137 16.6342 27.2014 17.6219 27.2014 18.8358C27.2014 20.0497 26.2137 21.0373 24.9998 21.0373Z" fill="#ECB53E"/>
<path d="M9.73617 30.8219C10.7301 30.8219 11.6324 30.4241 12.2938 29.78C13.1667 30.027 14.1573 30.1489 15.242 30.1489C16.1172 30.1489 17.0526 30.0705 18.0337 29.9169C19.5745 34.6448 22.097 37.6712 25.0004 37.6712C27.9053 37.6712 30.429 34.6414 31.9696 29.9089C32.0561 29.9225 32.1426 29.936 32.2284 29.9484C33.1284 30.0786 33.9779 30.1429 34.7702 30.1429C37.1007 30.1429 38.9331 29.5844 40.0916 28.5104C40.3066 28.5497 40.5277 28.5714 40.7539 28.5714C42.7772 28.5714 44.4232 26.9254 44.4232 24.9022C44.4232 22.8789 42.7771 21.2329 40.7538 21.2329C40.5998 21.2329 40.4482 21.2435 40.2991 21.262C39.8249 20.3853 39.2189 19.4918 38.497 18.5975C38.9941 18.0455 39.4519 17.4896 39.8655 16.933C42.273 13.6932 42.937 10.7636 41.7357 8.68386C40.5349 6.60382 37.666 5.71487 33.6566 6.17926C32.9682 6.2591 32.2583 6.37759 31.5323 6.5319C29.9736 2.51135 27.645 0 25.0004 0C23.4719 0 22.0052 0.834638 20.7281 2.42192C20.2447 2.18689 19.7023 2.05479 19.1295 2.05479C17.1062 2.05479 15.4602 3.70078 15.4602 5.72407C15.4602 5.85078 15.4667 5.97593 15.4793 6.09932C11.9218 5.85059 9.3802 6.75274 8.26513 8.68386C7.06376 10.7637 7.72785 13.6932 10.1352 16.9331C10.5473 17.4877 11.0034 18.0416 11.4984 18.5916C10.1049 20.3184 9.15065 22.0344 8.74635 23.6202C7.20251 24.0533 6.06689 25.4724 6.06689 27.1526C6.06689 29.1759 7.71288 30.8219 9.73617 30.8219ZM18.2705 24.2709C18.9264 24.6997 19.6021 25.1158 20.2959 25.5161C21.2335 26.0576 22.1824 26.5576 23.1325 27.0139C21.7274 27.5387 20.3582 27.9472 19.0647 28.228C18.7288 26.9889 18.4627 25.6612 18.2705 24.2709ZM29.8618 31.3441C28.5263 34.4323 26.7544 36.2035 25.0004 36.2035C23.2463 36.2035 21.4744 34.4323 20.1389 31.3441C19.9055 30.8045 19.6895 30.2352 19.4908 29.6405C21.2392 29.2549 23.1009 28.6544 25.0053 27.8552C26.8871 28.6421 28.7483 29.2444 30.5123 29.6333C30.3129 30.2305 30.0961 30.8024 29.8618 31.3441ZM30.9371 28.2237C29.6296 27.9422 28.262 27.5356 26.8688 27.0159C27.8124 26.5615 28.7605 26.0614 29.7049 25.5161C30.3985 25.1157 31.0743 24.6997 31.7302 24.2709C31.5382 25.6596 31.2725 26.9858 30.9371 28.2237ZM40.7538 22.7006C41.9677 22.7006 42.9553 23.6883 42.9553 24.9022C42.9553 26.116 41.9677 27.1037 40.7538 27.1037C39.5399 27.1037 38.5522 26.116 38.5522 24.9022C38.5522 23.6883 39.5399 22.7006 40.7538 22.7006ZM38.8901 21.7432C37.8104 22.3827 37.0845 23.5589 37.0845 24.9022C37.0845 26.1023 37.6637 27.1696 38.5572 27.8395C37.247 28.6388 35.0914 28.8797 32.4386 28.4959C32.4221 28.4935 32.4053 28.4907 32.3886 28.4883C32.822 26.8608 33.1475 25.0704 33.3442 23.16C34.8758 22.0502 36.2683 20.8739 37.4789 19.667C38.0302 20.3648 38.5043 21.0599 38.8901 21.7432ZM33.4427 15.6255C34.5982 16.5776 35.6347 17.5591 36.5271 18.5449C35.622 19.4554 34.6052 20.3499 33.4972 21.2115C33.5399 20.4345 33.562 19.6419 33.562 18.8356C33.562 17.7386 33.5208 16.6666 33.4427 15.6255ZM33.8257 7.63738C37.1676 7.24971 39.5875 7.89883 40.4647 9.41791C41.342 10.9368 40.6943 13.3569 38.6874 16.0576C38.3356 16.5312 37.9491 17.0046 37.5318 17.4756C36.3198 16.15 34.8698 14.8388 33.239 13.5965C32.977 11.5335 32.5626 9.62446 32.0232 7.92838C32.6386 7.80294 33.2408 7.70519 33.8257 7.63738ZM32.0943 18.8356C32.0943 20.0322 32.0435 21.2099 31.9447 22.3557C31.0018 23.0141 30.0073 23.6469 28.971 24.2452C27.6507 25.0076 26.3162 25.6795 24.9979 26.2567C23.6742 25.6767 22.3418 25.0028 21.0297 24.2452C19.9934 23.647 18.9989 23.0142 18.056 22.3557C17.9572 21.2099 17.9064 20.0322 17.9064 18.8356C17.9064 17.32 17.9893 15.8299 18.1492 14.3918C19.3078 13.539 20.5574 12.7203 21.8771 11.9584C22.9133 11.3601 23.9585 10.8152 25.0001 10.3279C26.0433 10.8155 27.0863 11.3594 28.1236 11.9584C29.4434 12.7205 30.6937 13.5374 31.8532 14.3891C32.012 15.8229 32.0943 17.3139 32.0943 18.8356ZM31.5774 12.3984C30.7083 11.8044 29.8 11.2314 28.8576 10.6873C28.1628 10.2861 27.4652 9.9093 26.7664 9.55568C28.0653 9.0274 29.3472 8.59433 30.5872 8.26575C30.9988 9.5407 31.3308 10.9293 31.5774 12.3984ZM25.0004 1.46771C26.7544 1.46771 28.5263 3.23894 29.8618 6.3271C29.9401 6.50822 30.0161 6.69315 30.0906 6.88063C28.441 7.32573 26.7271 7.94335 25.0012 8.71458C24.0895 8.30754 23.1779 7.94266 22.2692 7.62094C22.6052 7.06712 22.7988 6.41781 22.7988 5.72407C22.7988 4.80254 22.4565 3.95998 21.8935 3.31487C22.6495 2.38356 23.7187 1.46771 25.0004 1.46771ZM23.2325 9.55675C22.5339 9.91018 21.8363 10.2871 21.1432 10.6873C20.1992 11.2323 19.2918 11.803 18.4269 12.393C18.6023 11.3515 18.8208 10.3471 19.0813 9.39207C19.0974 9.39237 19.1134 9.39335 19.1295 9.39335C19.8739 9.39335 20.5668 9.16996 21.146 8.78748C21.8392 9.01722 22.5353 9.27407 23.2325 9.55675ZM19.1295 3.52251C20.3434 3.52251 21.3311 4.51018 21.3311 5.72407C21.3311 6.93797 20.3434 7.92564 19.1295 7.92564C17.9156 7.92564 16.928 6.93797 16.928 5.72407C16.928 4.51018 17.9156 3.52251 19.1295 3.52251ZM11.3133 16.0576C9.30642 13.3568 8.65868 10.9368 9.53607 9.41791C10.3992 7.92319 12.7404 7.27476 15.9876 7.61732C16.3758 8.2591 16.9553 8.77231 17.6462 9.07896C17.2644 10.4936 16.9703 12.0081 16.7679 13.5873C15.1236 14.8367 13.6724 16.1488 12.4641 17.4701C12.0486 17.0009 11.6638 16.5294 11.3133 16.0576ZM16.5035 21.2115C15.396 20.3502 14.3794 19.456 13.4745 18.5458C14.3648 17.5658 15.4029 16.5839 16.5602 15.6293C16.4805 16.6806 16.4387 17.7522 16.4387 18.8356C16.4387 19.6419 16.4609 20.4345 16.5035 21.2115ZM12.5211 19.6662C13.7319 20.8733 15.1246 22.0499 16.6565 23.1599C16.8535 25.0721 17.1794 26.8643 17.6135 28.4932C15.9229 28.7437 14.4036 28.7478 13.1553 28.4819C13.3162 28.0694 13.4055 27.6213 13.4055 27.1526C13.4055 25.3212 12.0569 23.7991 10.3006 23.5268C10.6959 22.3146 11.4598 21.0027 12.5211 19.6662ZM9.73617 24.9511C10.9501 24.9511 11.9377 25.9387 11.9377 27.1526C11.9377 28.3665 10.9501 29.3542 9.73617 29.3542C8.52228 29.3542 7.5346 28.3665 7.5346 27.1526C7.5346 25.9387 8.52228 24.9511 9.73617 24.9511Z" fill="#ECB53E"/>
<path d="M44.4224 1.95703H45.8901V3.42474H44.4224V1.95703Z" fill="#ECB53E"/>
<path d="M44.4224 6.84937H45.8901V8.31707H44.4224V6.84937Z" fill="#ECB53E"/>
<path d="M46.8687 4.40308H48.3364V5.87079H46.8687V4.40308Z" fill="#ECB53E"/>
<path d="M41.9761 4.40308H43.4438V5.87079H41.9761V4.40308Z" fill="#ECB53E"/>
<path d="M4.79492 31.8005H6.26263V33.2682H4.79492V31.8005Z" fill="#ECB53E"/>
<path d="M4.79492 36.6926H6.26263V38.1603H4.79492V36.6926Z" fill="#ECB53E"/>
<path d="M7.24072 34.2466H8.70843V35.7143H7.24072V34.2466Z" fill="#ECB53E"/>
<path d="M2.34863 34.2466H3.81634V35.7143H2.34863V34.2466Z" fill="#ECB53E"/>
<path d="M20.8901 42.6614H22.3578V44.1291H20.8901V42.6614Z" fill="#ECB53E"/>
<path d="M17.9551 42.6614H19.4228V44.1291H17.9551V42.6614Z" fill="#ECB53E"/>
</g>
<defs>
<clipPath id="clip0_200_6168">
<rect width="50" height="50" fill="white"/>
</clipPath>
</defs>
</svg>
