<svg width="50" height="50" viewBox="0 0 50 50" fill="none" xmlns="http://www.w3.org/2000/svg">
<g clip-path="url(#clip0_200_6113)">
<path d="M35.1566 36.3276C33.1105 36.3276 31.4458 37.9923 31.4458 40.0385C31.4458 42.0846 33.1104 43.7493 35.1566 43.7493C37.2027 43.7493 38.8675 42.0847 38.8675 40.0385C38.8675 37.9924 37.2027 36.3276 35.1566 36.3276ZM35.1566 41.7962C34.1874 41.7962 33.3989 41.0076 33.3989 40.0385C33.3989 39.0692 34.1875 38.2808 35.1566 38.2808C36.1259 38.2808 36.9144 39.0693 36.9144 40.0385C36.9144 41.0077 36.1258 41.7962 35.1566 41.7962Z" fill="#65C2F9"/>
<path d="M45.7034 30.6639H24.6104C22.2412 30.6639 20.3137 32.5913 20.3137 34.9606V48.0462H13.4763V42.7729C13.4763 42.2337 13.039 41.7964 12.4997 41.7964C11.9604 41.7964 11.5231 42.2337 11.5231 42.7729V48.0462H7.22656V38.2809C7.22656 34.027 10.6873 30.5663 14.9411 30.5663C15.4804 30.5663 15.9177 30.129 15.9177 29.5897C15.9177 29.5788 15.9164 29.5682 15.916 29.5572C16.9605 30.1969 18.1877 30.5663 19.4997 30.5663C23.2949 30.5663 26.3825 27.4787 26.3825 23.6835V21.3456C26.3825 17.5504 23.2949 14.4629 19.4997 14.4629C15.7046 14.4629 12.617 17.5505 12.617 21.3456V23.6835C12.617 25.6165 13.4191 27.3648 14.7065 28.6161C9.48369 28.7412 5.27344 33.0285 5.27344 38.2809V49.0227C5.27344 49.5619 5.71074 49.9992 6.25 49.9992H49.0236C49.5629 49.9992 50.0002 49.5619 50.0002 49.0227V34.9606C50.0002 32.5914 48.0727 30.6639 45.7034 30.6639ZM14.5699 23.6834V21.3455C14.5699 18.6273 16.7813 16.4159 19.4995 16.4159C22.2177 16.4159 24.4292 18.6273 24.4292 21.3455V23.6834C24.4292 26.4016 22.2178 28.6131 19.4995 28.6131C16.7812 28.6132 14.5699 26.4018 14.5699 23.6834ZM48.0472 44.1339H43.4818C42.9426 44.1339 42.5053 44.5712 42.5053 45.1104C42.5053 45.6497 42.9426 46.087 43.4818 46.087H48.0472V48.0462H32.7799V48.0461H22.2667V34.9606C22.2667 33.6684 23.3182 32.617 24.6104 32.617H45.7034C46.9957 32.617 48.0471 33.6685 48.0471 34.9606V44.1339H48.0472Z" fill="#65C2F9"/>
<path d="M40.2914 44.4214C40.1099 44.2397 39.8589 44.1353 39.6011 44.1353C39.3441 44.1353 39.0922 44.2396 38.9106 44.4214C38.729 44.603 38.6245 44.8549 38.6245 45.1118C38.6245 45.3687 38.7289 45.6206 38.9106 45.8021C39.0922 45.9838 39.3441 46.0884 39.6011 46.0884C39.8589 46.0884 40.1099 45.9839 40.2914 45.8021C40.474 45.6206 40.5776 45.3687 40.5776 45.1118C40.5776 44.8549 40.474 44.603 40.2914 44.4214Z" fill="#65C2F9"/>
<path d="M47.169 5.27417H36.621C35.0599 5.27417 33.7898 6.54419 33.7898 8.10532V17.3553L31.5228 19.6222C31.1415 20.0036 31.1415 20.6219 31.5228 21.0034L33.7898 23.2703V23.9268C33.7898 25.4878 35.0599 26.7579 36.621 26.7579H47.1691C48.73 26.7579 50.0002 25.4878 50.0002 23.9268V8.10532C50.0002 6.54419 48.73 5.27417 47.169 5.27417ZM48.0471 23.9267C48.0471 24.4109 47.6533 24.8048 47.1691 24.8048H36.621C36.1368 24.8048 35.7428 24.4109 35.7428 23.9267V22.8657C35.7428 22.6067 35.6399 22.3582 35.4568 22.1751L33.5944 20.3127L35.4568 18.4503C35.6399 18.2672 35.7428 18.0188 35.7428 17.7598V8.10532C35.7428 7.62114 36.1368 7.2272 36.621 7.2272H47.1691C47.6533 7.2272 48.0471 7.62114 48.0471 8.10532V23.9267Z" fill="#65C2F9"/>
<path d="M26.6659 13.2749C26.4844 13.0933 26.2324 12.9888 25.9756 12.9888C25.7187 12.9888 25.4668 13.0933 25.2852 13.2749C25.1035 13.4565 24.999 13.7085 24.999 13.9653C24.999 14.2222 25.1034 14.4741 25.2852 14.6558C25.4669 14.8374 25.7187 14.9419 25.9756 14.9419C26.2324 14.9419 26.4844 14.8374 26.6659 14.6558C26.8476 14.4741 26.9521 14.2222 26.9521 13.9653C26.9521 13.7085 26.8477 13.4565 26.6659 13.2749Z" fill="#65C2F9"/>
<path d="M25.9757 0.000976562H15.4316C14.6809 0.000976562 13.9953 0.284961 13.4762 0.750684C12.9569 0.284863 12.2714 0.000976562 11.5207 0.000976562H0.976562C0.437305 0.000976562 0 0.438184 0 0.977539V18.3598C0 18.8991 0.437305 19.3363 0.976562 19.3363H9.27705C9.81631 19.3363 10.2536 18.8991 10.2536 18.3598C10.2536 17.8204 9.81631 17.3832 9.27705 17.3832H1.95303V1.954H11.5206C12.0604 1.954 12.4996 2.39316 12.4996 2.93301V15.4396C12.4996 15.9789 12.9369 16.4161 13.4762 16.4161C14.0154 16.4161 14.4527 15.9789 14.4527 15.4396V2.93301C14.4527 2.39316 14.8919 1.954 15.4317 1.954H24.9993V10.6464C24.9993 11.1857 25.4366 11.6229 25.9759 11.6229C26.5151 11.6229 26.9524 11.1857 26.9524 10.6464V0.977442C26.9522 0.438086 26.5149 0.000976562 25.9757 0.000976562Z" fill="#65C2F9"/>
<path d="M44.4549 10.7427H39.5405C39.0013 10.7427 38.564 11.1799 38.564 11.7192C38.564 12.2586 39.0013 12.6958 39.5405 12.6958H44.4549C44.9941 12.6958 45.4314 12.2586 45.4314 11.7192C45.4314 11.1799 44.9942 10.7427 44.4549 10.7427Z" fill="#65C2F9"/>
<path d="M44.4549 15.0393H39.5405C39.0013 15.0393 38.564 15.4765 38.564 16.0159C38.564 16.5552 39.0013 16.9924 39.5405 16.9924H44.4549C44.9941 16.9924 45.4314 16.5552 45.4314 16.0159C45.4314 15.4765 44.9942 15.0393 44.4549 15.0393Z" fill="#65C2F9"/>
<path d="M44.4549 19.3362H39.5405C39.0013 19.3362 38.564 19.7734 38.564 20.3127C38.564 20.8521 39.0013 21.2893 39.5405 21.2893H44.4549C44.9941 21.2893 45.4314 20.8521 45.4314 20.3127C45.4314 19.7734 44.9942 19.3362 44.4549 19.3362Z" fill="#65C2F9"/>
<path d="M9.48672 4.39526H4.57227C4.03301 4.39526 3.5957 4.83247 3.5957 5.37183C3.5957 5.91118 4.03301 6.34839 4.57227 6.34839H9.48662C10.0259 6.34839 10.4632 5.91118 10.4632 5.37183C10.4632 4.83247 10.0261 4.39526 9.48672 4.39526Z" fill="#65C2F9"/>
<path d="M9.48672 8.69189H4.57227C4.03301 8.69189 3.5957 9.1291 3.5957 9.66846C3.5957 10.2078 4.03301 10.645 4.57227 10.645H9.48662C10.0259 10.645 10.4632 10.2078 10.4632 9.66846C10.4632 9.1291 10.0261 8.69189 9.48672 8.69189Z" fill="#65C2F9"/>
<path d="M9.48672 12.9888H4.57227C4.03301 12.9888 3.5957 13.426 3.5957 13.9653C3.5957 14.5047 4.03301 14.9419 4.57227 14.9419H9.48662C10.0259 14.9419 10.4632 14.5047 10.4632 13.9653C10.4632 13.426 10.0261 12.9888 9.48672 12.9888Z" fill="#65C2F9"/>
<path d="M21.9866 4.39526H17.0723C16.533 4.39526 16.0957 4.83247 16.0957 5.37183C16.0957 5.91118 16.533 6.34839 17.0723 6.34839H21.9866C22.5259 6.34839 22.9632 5.91118 22.9632 5.37183C22.9632 4.83247 22.5259 4.39526 21.9866 4.39526Z" fill="#65C2F9"/>
<path d="M21.9866 8.69189H17.0723C16.533 8.69189 16.0957 9.1291 16.0957 9.66846C16.0957 10.2078 16.533 10.645 17.0723 10.645H21.9866C22.5259 10.645 22.9632 10.2078 22.9632 9.66846C22.9632 9.1291 22.5259 8.69189 21.9866 8.69189Z" fill="#65C2F9"/>
</g>
<defs>
<clipPath id="clip0_200_6113">
<rect width="50" height="50" fill="white"/>
</clipPath>
</defs>
</svg>
