<svg width="60" height="60" viewBox="0 0 60 60" fill="none" xmlns="http://www.w3.org/2000/svg">
<path d="M48.4219 8.0625H11.5781C9.65625 8.0625 8.0625 9.60938 8.0625 11.5781V39.75C8.0625 41.6719 9.60938 43.2656 11.5781 43.2656H35.7656L36.4219 44.7656C36.5156 45 36.7031 45.1406 36.9375 45.2344V51.0938C36.9375 51.7031 37.5938 52.0781 38.1094 51.8438L40.8281 50.4844L43.5469 51.8438C44.1094 52.125 44.7188 51.7031 44.7188 51.0938V45.1875C44.9531 45.1406 45.1406 44.9531 45.2344 44.7188L45.8906 43.2188H48.4219C50.3438 43.2188 51.9375 41.6719 51.9375 39.7031V11.5781C51.8906 9.65625 50.3438 8.10938 48.4219 8.0625ZM35.5313 36.3281L35.3906 34.9219L36.7031 34.3594C36.8906 34.2656 37.0312 34.125 37.125 33.9375L37.6875 32.625L39.0937 32.7656C39.2812 32.7656 39.5156 32.7188 39.6562 32.625L40.8281 31.7813L41.9531 32.625C42.1406 32.7656 42.3281 32.8125 42.5156 32.7656L43.9219 32.625L44.4844 33.9375C44.5781 34.125 44.7188 34.2656 44.9063 34.3594L46.2187 34.9219L46.0781 36.3281C46.0781 36.5156 46.125 36.75 46.2187 36.8906L47.0625 38.0156L46.2187 39.1875C46.0781 39.375 46.0313 39.5625 46.0781 39.75L46.2187 41.1563L44.9063 41.7188C44.7188 41.8125 44.5781 41.9531 44.4844 42.1406L43.9219 43.4531L42.5156 43.3125C42.3281 43.2656 42.0938 43.3594 41.9531 43.4531L40.8281 44.2969L39.6562 43.4531C39.4687 43.3125 39.2344 43.2656 39.0937 43.3125L37.6875 43.4531L37.125 42.1406C37.0312 41.9531 36.8906 41.8125 36.7031 41.7188L35.3906 41.25L35.5313 39.8438C35.5313 39.6563 35.4844 39.4219 35.3906 39.2813L34.5469 38.1094L35.3906 36.9844C35.4844 36.75 35.5313 36.5625 35.5313 36.3281ZM43.0781 49.7813L41.2031 48.8438C40.9688 48.75 40.6875 48.75 40.4531 48.8438L38.5781 49.7813V45.0938L38.9531 45.0469L40.3125 46.0781C40.5938 46.3125 41.0156 46.3125 41.2969 46.0781L42.6562 45.0469L43.0313 45.0938L43.0781 49.7813ZM50.2969 39.75C50.2969 40.7813 49.4531 41.625 48.4219 41.625H47.9531L47.7656 39.9375L48.7969 38.5781C49.0312 38.2969 49.0312 37.875 48.7969 37.5938L47.7656 36.2344L47.9531 34.5469C48 34.1719 47.8125 33.8438 47.4844 33.7031L45.9375 33L45.2344 31.4063C45.0938 31.0781 44.7656 30.8906 44.3906 30.9375L42.6562 31.125L41.2969 30.0938C41.0156 29.8594 40.5938 29.8594 40.3125 30.0938L38.9531 31.125L37.2656 30.9375C36.8906 30.8906 36.5625 31.0781 36.4219 31.4063L35.7187 32.9531L34.1719 33.6563C33.8438 33.7969 33.6562 34.125 33.7031 34.5L33.8906 36.1875L32.8594 37.5469C32.625 37.8281 32.625 38.25 32.8594 38.5313L33.8906 39.8906L33.7031 41.5781H11.5781C10.5469 41.5781 9.70312 40.7344 9.70312 39.7031V11.5781C9.70312 10.5469 10.5469 9.70313 11.5781 9.70313H48.4219C49.4531 9.70313 50.2969 10.5469 50.2969 11.5781V39.75Z" fill="#E97D38"/>
<path d="M25.4531 33.8438H16.875C16.4062 33.8438 16.0312 34.2188 16.0312 34.6875C16.0312 35.1563 16.4062 35.5313 16.875 35.5313H25.4531C25.9219 35.5313 26.2969 35.1563 26.2969 34.6875C26.2969 34.2188 25.9219 33.8438 25.4531 33.8438Z" fill="#E97D38"/>
<path d="M42.9375 26.0625H16.875C16.4062 26.0625 16.0312 26.4375 16.0312 26.9063C16.0312 27.375 16.4062 27.75 16.875 27.75H42.9375C43.4063 27.75 43.7813 27.375 43.7813 26.9063C43.7813 26.4375 43.4063 26.0625 42.9375 26.0625Z" fill="#E97D38"/>
<path d="M42.9375 20.1094H16.875C16.4062 20.1094 16.0312 20.4844 16.0312 20.9531C16.0312 21.4219 16.4062 21.7969 16.875 21.7969H42.9375C43.4063 21.7969 43.7813 21.4219 43.7813 20.9531C43.7813 20.4844 43.4063 20.1094 42.9375 20.1094Z" fill="#E97D38"/>
<path d="M40.8281 41.5781C42.75 41.5781 44.3438 40.0313 44.3438 38.0625C44.3438 36.0938 42.7969 34.5469 40.8281 34.5469C38.8594 34.5469 37.3125 36.0938 37.3125 38.0625C37.3125 39.9844 38.9062 41.5781 40.8281 41.5781ZM40.8281 36.2344C41.8594 36.2344 42.7031 37.0781 42.7031 38.1094C42.7031 39.1406 41.8594 39.9844 40.8281 39.9844C39.7969 39.9844 38.9531 39.1406 38.9531 38.1094C38.9531 37.0781 39.7969 36.2344 40.8281 36.2344Z" fill="#E97D38"/>
<path d="M43.125 13.9219H34.5469C34.0781 13.9219 33.7031 14.2969 33.7031 14.7656C33.7031 15.2344 34.0781 15.6094 34.5469 15.6094H43.125C43.5937 15.6094 43.9688 15.2344 43.9688 14.7656C43.9219 14.2969 43.5469 13.9219 43.125 13.9219Z" fill="#E97D38"/>
</svg>
