<svg width="84" height="26" viewBox="0 0 84 26" fill="none" xmlns="http://www.w3.org/2000/svg">
<g clip-path="url(#clip0_28_369)">
<path fill-rule="evenodd" clip-rule="evenodd" d="M51.8 19.66C46.967 23.233 39.938 25.137 33.875 25.137C25.7877 25.1773 17.976 22.2007 11.966 16.789C11.527 16.379 11.907 15.822 12.466 16.145C18.2859 19.4943 24.802 21.4512 31.5043 21.8628C38.2065 22.2743 44.913 21.1291 51.099 18.517C51.917 18.196 52.591 19.078 51.8 19.66Z" fill="#6A7A99"/>
<path fill-rule="evenodd" clip-rule="evenodd" d="M53.821 17.346C53.206 16.555 49.721 16.965 48.168 17.17C47.699 17.229 47.611 16.819 48.051 16.526C50.834 14.564 55.373 15.149 55.901 15.794C56.429 16.439 55.755 21.008 53.148 23.175C52.738 23.497 52.357 23.321 52.533 22.882C53.118 21.418 54.436 18.166 53.821 17.346Z" fill="#6A7A99"/>
<path fill-rule="evenodd" clip-rule="evenodd" d="M48.256 2.76V0.860005C48.2527 0.797543 48.2626 0.735089 48.285 0.676686C48.3074 0.618284 48.3418 0.565245 48.386 0.521016C48.4302 0.476786 48.4833 0.442339 48.5417 0.419942C48.6001 0.397545 48.6625 0.387698 48.725 0.391011H57.216C57.3443 0.38776 57.4686 0.435132 57.5622 0.522908C57.6558 0.610685 57.711 0.731798 57.716 0.860005V2.471C57.716 2.735 57.482 3.08601 57.072 3.67101L52.679 9.93902C54.3531 9.84883 56.0215 10.2013 57.516 10.961C57.6457 11.0352 57.7542 11.1415 57.8311 11.2697C57.9079 11.3979 57.9506 11.5436 57.955 11.693V13.714C57.955 14.007 57.662 14.329 57.34 14.153C55.9541 13.4357 54.4155 13.0637 52.8549 13.0688C51.2944 13.0738 49.7582 13.4557 48.377 14.182C48.3071 14.207 48.2322 14.2148 48.1586 14.2045C48.0851 14.1943 48.0151 14.1664 47.9547 14.1233C47.8943 14.0802 47.8452 14.0231 47.8116 13.9568C47.7781 13.8906 47.7611 13.8172 47.762 13.743V11.807C47.7332 11.3543 47.8457 10.9039 48.084 10.518L53.184 3.225H48.761C48.6327 3.22825 48.5084 3.18087 48.4148 3.0931C48.3212 3.00532 48.266 2.88421 48.261 2.756L48.256 2.76ZM17.297 14.56H14.716C14.6005 14.5484 14.492 14.4992 14.4072 14.4199C14.3225 14.3405 14.2662 14.2355 14.247 14.121V0.886006C14.252 0.757799 14.3072 0.636685 14.4008 0.548909C14.4944 0.461133 14.6187 0.413761 14.747 0.417012H17.147C17.2658 0.418628 17.3797 0.464508 17.4665 0.545705C17.5532 0.626902 17.6066 0.737566 17.616 0.856007V2.584H17.675C17.9031 1.86969 18.3523 1.24636 18.9578 0.804066C19.5633 0.361772 20.2937 0.123402 21.0435 0.123402C21.7933 0.123402 22.5238 0.361772 23.1293 0.804066C23.7348 1.24636 24.184 1.86969 24.412 2.584C24.669 1.84756 25.1538 1.21211 25.7963 0.769795C26.4387 0.327476 27.2053 0.101289 27.985 0.124013C28.5638 0.112336 29.137 0.239196 29.6567 0.494038C30.1765 0.74888 30.6278 1.12431 30.973 1.58901C31.793 2.70201 31.617 4.31301 31.617 5.74801V14.125C31.6121 14.2532 31.5568 14.3743 31.4632 14.4621C31.3696 14.5499 31.2453 14.5973 31.117 14.594H28.569C28.447 14.5867 28.332 14.5349 28.2455 14.4485C28.1591 14.3621 28.1074 14.247 28.1 14.125V7.096C28.1393 6.26565 28.1196 5.43357 28.041 4.60601C27.9873 4.25373 27.7974 3.93661 27.5121 3.72301C27.2269 3.50941 26.8692 3.41641 26.516 3.46401C26.1798 3.47371 25.8538 3.58147 25.578 3.77407C25.3023 3.96666 25.0889 4.23568 24.964 4.54799C24.7518 5.37961 24.6728 6.23963 24.73 7.096V14.125C24.7251 14.2532 24.6698 14.3743 24.5762 14.4621C24.4827 14.5499 24.3583 14.5973 24.23 14.594H21.653C21.531 14.5867 21.416 14.5349 21.3295 14.4485C21.2431 14.3621 21.1914 14.247 21.184 14.125V7.096C21.184 5.631 21.418 3.43502 19.602 3.43502C17.757 3.43502 17.815 5.544 17.815 7.096V14.125C17.7966 14.2502 17.7327 14.3643 17.6354 14.4453C17.5382 14.5263 17.4145 14.5686 17.288 14.564L17.297 14.56ZM65.039 0.120015C68.876 0.120015 70.956 3.40001 70.956 7.58901C70.956 11.631 68.671 14.853 65.039 14.853C61.29 14.853 59.239 11.573 59.239 7.472C59.21 3.342 61.289 0.120015 65.039 0.120015ZM65.039 2.84401C63.139 2.84401 63.018 5.451 63.018 7.062C63.018 8.673 62.989 12.129 65.01 12.129C67.002 12.129 67.119 9.346 67.119 7.648C67.155 6.46436 67.0268 5.28146 66.738 4.13302C66.658 3.74946 66.4416 3.40789 66.129 3.17162C65.8165 2.93535 65.4289 2.8204 65.038 2.84801L65.039 2.84401ZM75.905 14.56H73.328C73.206 14.5527 73.091 14.5009 73.0045 14.4144C72.9181 14.328 72.8664 14.213 72.859 14.091V0.827016C72.8752 0.705764 72.9348 0.594463 73.0267 0.513753C73.1186 0.433043 73.2367 0.388363 73.359 0.38799H75.759C75.868 0.391634 75.9729 0.430865 76.0576 0.499654C76.1423 0.568442 76.2021 0.663025 76.228 0.769002V2.79H76.287C77.019 0.973998 78.015 0.124989 79.802 0.124989C80.3966 0.0979752 80.9879 0.227022 81.5172 0.499287C82.0464 0.771553 82.4952 1.17756 82.819 1.67699C83.493 2.73199 83.493 4.518 83.493 5.807V14.155C83.4753 14.2731 83.4143 14.3805 83.322 14.4563C83.2296 14.532 83.1123 14.5708 82.993 14.565H80.416C80.3047 14.5545 80.1995 14.5092 80.1154 14.4357C80.0312 14.3621 79.9723 14.2639 79.947 14.155V6.95C79.947 5.486 80.123 3.377 78.336 3.377C78.0125 3.3921 77.6999 3.49933 77.4352 3.68605C77.1706 3.87278 76.9647 4.13123 76.842 4.43099C76.5287 5.2322 76.389 6.09079 76.432 6.95V14.097C76.4158 14.2257 76.3535 14.3442 76.2565 14.4304C76.1596 14.5167 76.0347 14.5648 75.905 14.566V14.56ZM41.49 8.23299C41.5857 9.17619 41.4236 10.1277 41.021 10.986C40.8577 11.3252 40.605 11.6135 40.2902 11.82C39.9753 12.0265 39.6102 12.1433 39.234 12.158C38.234 12.158 37.652 11.396 37.652 10.283C37.652 8.08301 39.614 7.67601 41.489 7.67601L41.49 8.23299ZM44.097 14.533C44.0135 14.6059 43.9093 14.6508 43.799 14.6614C43.6887 14.672 43.5778 14.6477 43.482 14.592C42.8854 14.1092 42.3795 13.5241 41.988 12.864C41.4773 13.4884 40.8266 13.9835 40.0887 14.3093C39.3508 14.6351 38.5465 14.7823 37.741 14.739C37.2125 14.77 36.6835 14.6863 36.1904 14.4935C35.6974 14.3007 35.2519 14.0034 34.8846 13.6221C34.5172 13.2408 34.2368 12.7846 34.0625 12.2847C33.8883 11.7847 33.8243 11.253 33.875 10.726C33.8446 9.82521 34.0927 8.93695 34.5853 8.18218C35.0779 7.42741 35.7912 6.84282 36.628 6.50802C38.2001 5.98659 39.8357 5.68111 41.49 5.6V5.278C41.5776 4.63477 41.4651 3.98017 41.168 3.403C40.9996 3.18466 40.7816 3.0096 40.532 2.89238C40.2825 2.77517 40.0086 2.71916 39.733 2.72899C39.2563 2.68739 38.7809 2.82257 38.3973 3.10875C38.0138 3.39494 37.7489 3.81215 37.653 4.281C37.594 4.515 37.453 4.74999 37.214 4.74999L34.724 4.48601C34.6639 4.47756 34.6061 4.45705 34.554 4.42571C34.502 4.39437 34.4569 4.35285 34.4213 4.30364C34.3857 4.25443 34.3604 4.19852 34.347 4.1393C34.3335 4.08008 34.3322 4.01876 34.343 3.959C34.929 0.913004 37.653 0.00499424 40.113 0.00499424C41.5267 -0.0554585 42.9138 0.40298 44.013 1.294C45.272 2.466 45.155 4.04699 45.155 5.74599V9.75899C45.1714 10.6507 45.5157 11.5051 46.122 12.159C46.298 12.393 46.327 12.686 46.122 12.833C45.561 13.275 44.622 14.095 44.097 14.533ZM7.66101 8.23299C7.75675 9.17619 7.59464 10.1277 7.192 10.986C7.02865 11.3252 6.776 11.6135 6.46117 11.82C6.14634 12.0265 5.78123 12.1433 5.40502 12.158C4.40502 12.158 3.82301 11.396 3.82301 10.283C3.82301 8.08301 5.78501 7.67601 7.66001 7.67601L7.66101 8.23299ZM10.239 14.533C10.1555 14.6059 10.0513 14.6508 9.941 14.6614C9.83068 14.672 9.71982 14.6477 9.62401 14.592C9.02744 14.1092 8.52154 13.5241 8.13001 12.864C7.61931 13.4884 6.96861 13.9835 6.2307 14.3093C5.49279 14.6351 4.68847 14.7823 3.88301 14.739C3.35449 14.77 2.82552 14.6863 2.33244 14.4935C1.83937 14.3007 1.39387 14.0034 1.02655 13.6221C0.659238 13.2408 0.378811 12.7846 0.204546 12.2847C0.0302803 11.7847 -0.0336902 11.253 0.0170153 10.726C-0.0133488 9.82521 0.234659 8.93695 0.727281 8.18218C1.2199 7.42741 1.93319 6.84282 2.77001 6.50802C4.34208 5.98659 5.9777 5.68111 7.63201 5.6V5.278C7.71956 4.63477 7.60716 3.98017 7.31001 3.403C7.14164 3.18466 6.92361 3.0096 6.67404 2.89238C6.42448 2.77517 6.15055 2.71916 5.875 2.72899C5.39826 2.68739 4.92288 2.82257 4.53934 3.10875C4.15579 3.39494 3.89088 3.81215 3.79502 4.281C3.73602 4.515 3.59 4.74999 3.356 4.74999L0.866014 4.48601C0.805878 4.47756 0.748063 4.45705 0.696047 4.42571C0.64403 4.39437 0.598875 4.35285 0.563295 4.30364C0.527716 4.25443 0.502438 4.19852 0.488985 4.1393C0.475532 4.08008 0.474178 4.01876 0.485002 3.959C1.071 0.913004 3.79501 0.00499424 6.25501 0.00499424C7.66872 -0.0554585 9.05578 0.40298 10.155 1.294C11.414 2.466 11.297 4.04699 11.297 5.74599V9.75899C11.3135 10.6506 11.6577 11.505 12.264 12.159C12.44 12.393 12.469 12.686 12.264 12.833C11.707 13.272 10.77 14.092 10.243 14.533H10.239Z" fill="#6A7A99"/>
</g>
<defs>
<clipPath id="clip0_28_369">
<rect width="83.493" height="25.138" fill="white"/>
</clipPath>
</defs>
</svg>
