<svg width="83" height="20" viewBox="0 0 83 20" fill="none" xmlns="http://www.w3.org/2000/svg">
<g clip-path="url(#clip0_28_374)">
<path d="M19.338 18.332H14.771L13.371 14.963H5.764L4.491 18.332H0L6.861 1.315H11.777L19.338 18.332ZM9.382 5.381L6.882 11.993H12.122L9.382 5.381ZM35.925 1.315H39.618V18.332H35.376V7.7L30.785 13.039H30.136L25.545 7.7V18.332H21.3V1.315H25L30.46 7.628L35.925 1.315ZM50.367 1.315C56.58 1.315 59.773 5.182 59.773 9.848C59.773 14.738 56.679 18.332 49.893 18.332H42.856V1.315H50.367ZM47.1 15.213H49.869C54.136 15.213 55.408 12.313 55.408 9.822C55.408 6.902 53.836 4.433 49.819 4.433H47.1V15.213ZM68.212 5.35L62.863 0H82.336V19.474L76.987 14.125V5.35H68.212ZM68.206 6.422L62.7 11.929V19.638H70.408L75.915 14.131H68.206V6.422Z" fill="#6A7A99"/>
</g>
<defs>
<clipPath id="clip0_28_374">
<rect width="82.336" height="19.638" fill="white"/>
</clipPath>
</defs>
</svg>
