<svg width="74" height="42" viewBox="0 0 74 42" fill="none" xmlns="http://www.w3.org/2000/svg">
<path d="M23.9 37.441H20.891V25.517H23.9V37.441Z" fill="#6A7A99"/>
<path d="M48.162 28.9341C47.3852 28.5126 46.5149 28.293 45.6311 28.2959C45.2017 28.2723 44.7721 28.3377 44.3691 28.4878C43.9661 28.6378 43.5984 28.8693 43.289 29.168C42.9797 29.4666 42.7354 29.8261 42.5714 30.2236C42.4074 30.6211 42.3272 31.0481 42.336 31.478C42.327 31.908 42.4069 32.3352 42.5707 32.7329C42.7345 33.1306 42.9787 33.4902 43.2881 33.7891C43.5975 34.0879 43.9653 34.3197 44.3685 34.4697C44.7717 34.6198 45.2015 34.685 45.6311 34.6611C46.5142 34.6631 47.3838 34.4453 48.162 34.0278V37.228C47.2732 37.5005 46.3497 37.6431 45.4201 37.6518C44.5906 37.6902 43.762 37.5581 42.9856 37.2637C42.2092 36.9692 41.5015 36.5187 40.906 35.9399C40.3105 35.3613 39.8399 34.667 39.5232 33.8994C39.2066 33.1318 39.0506 32.3073 39.065 31.477C39.0515 30.6472 39.208 29.8232 39.525 29.0561C39.842 28.2891 40.3127 27.5953 40.908 27.0171C41.5035 26.439 42.211 25.9891 42.987 25.6948C43.763 25.4006 44.591 25.2682 45.4201 25.3061C46.3506 25.3087 47.2752 25.453 48.162 25.7349V28.9341ZM16.755 28.9341C15.9796 28.5118 15.1099 28.2924 14.227 28.2969C13.7973 28.2725 13.3672 28.3376 12.9636 28.4873C12.5601 28.637 12.1919 28.8683 11.882 29.167C11.572 29.4657 11.3272 29.8253 11.1628 30.2231C10.9985 30.621 10.9182 31.0486 10.927 31.479C10.9181 31.9095 10.9983 32.3373 11.1624 32.7353C11.3266 33.1334 11.5713 33.493 11.8811 33.792C12.191 34.0908 12.5594 34.3224 12.9632 34.4722C13.3669 34.6219 13.7971 34.6866 14.227 34.6621C15.1093 34.6651 15.9783 34.4472 16.755 34.0288V37.229C15.8655 37.5029 14.9408 37.6455 14.01 37.6528C13.1809 37.6912 12.3526 37.5591 11.5765 37.2646C10.8004 36.9702 10.0931 36.5197 9.49807 35.9409C8.90311 35.362 8.43311 34.6675 8.11715 33.8999C7.8012 33.1323 7.64596 32.308 7.66104 31.478C7.64728 30.6486 7.80352 29.8253 8.12014 29.0586C8.43677 28.2919 8.90707 27.598 9.50204 27.02C10.097 26.442 10.804 25.9922 11.5794 25.6977C12.3549 25.4033 13.1824 25.2706 14.011 25.3081C14.9421 25.3092 15.8676 25.453 16.755 25.7349V28.9341ZM57.628 28.3418C57.2161 28.3379 56.8077 28.4166 56.4267 28.5732C56.0458 28.7299 55.7001 28.9614 55.4101 29.2539C55.1201 29.5463 54.8916 29.8937 54.7382 30.2759C54.5849 30.658 54.5097 31.0673 54.5171 31.479C54.5093 31.891 54.5842 32.3001 54.7375 32.6826C54.8907 33.0651 55.119 33.4133 55.409 33.706C55.6991 33.9988 56.0449 34.2304 56.4261 34.3872C56.8072 34.544 57.2159 34.623 57.628 34.6191C58.0401 34.6229 58.4489 34.544 58.83 34.3872C59.2111 34.2304 59.557 33.9988 59.8471 33.706C60.1373 33.4134 60.3659 33.0656 60.5194 32.6831C60.673 32.3006 60.7484 31.8911 60.7411 31.479C60.7474 31.0668 60.671 30.6575 60.5164 30.2754C60.3618 29.8932 60.1321 29.5458 59.841 29.2539C59.5509 28.9615 59.2052 28.7304 58.8243 28.5737C58.4434 28.4171 58.0349 28.338 57.6231 28.3418H57.628ZM63.9231 31.478C63.9306 32.3016 63.7719 33.1185 63.4564 33.8794C63.141 34.6402 62.6752 35.3296 62.0871 35.9062C61.4989 36.4829 60.8003 36.935 60.0333 37.2353C59.2662 37.5357 58.4465 37.6778 57.6231 37.6538C56.7997 37.6779 55.98 37.536 55.2129 37.2358C54.4459 36.9356 53.7473 36.4837 53.159 35.9072C52.5707 35.3305 52.1048 34.6409 51.7893 33.8799C51.4739 33.1188 51.3153 32.3018 51.323 31.478C51.316 30.6546 51.4751 29.8381 51.7909 29.0776C52.1067 28.3171 52.5728 27.6284 53.161 27.0522C53.7493 26.476 54.4477 26.0241 55.2146 25.7241C55.9814 25.4241 56.8009 25.282 57.6241 25.3061C58.447 25.2824 59.2663 25.4249 60.033 25.7251C60.7996 26.0253 61.4979 26.477 62.086 27.0532C62.674 27.6294 63.1399 28.3178 63.4557 29.0781C63.7715 29.8384 63.9308 30.6548 63.924 31.478H63.9231ZM35.3061 28.228C34.5387 28.0166 33.7495 27.895 32.9541 27.8652C31.7481 27.8652 31.093 28.2648 31.093 28.8418C31.093 29.5688 31.9771 29.822 32.4721 29.978L33.302 30.2422C34.0903 30.4088 34.7996 30.8361 35.3153 31.4551C35.8311 32.0741 36.1234 32.8484 36.145 33.6538C36.145 36.6538 33.511 37.6538 31.208 37.6538C30.1181 37.6437 29.0312 37.5349 27.961 37.3281V34.582C28.8852 34.8508 29.8399 34.9998 30.802 35.0259C32.302 35.0259 32.987 34.5881 32.987 33.9131C32.987 33.3131 32.387 32.9601 31.645 32.7261C31.464 32.6651 31.189 32.5801 31.003 32.5181C29.327 31.9881 27.93 31.0028 27.93 29.0298C27.93 26.7998 29.6001 25.3022 32.3731 25.3022C33.362 25.3156 34.3462 25.4427 35.3061 25.6811V28.2261V28.228Z" fill="#6A7A99"/>
<path d="M4.46899 12.703C4.46793 12.3076 4.30997 11.9288 4.02985 11.6498C3.74972 11.3708 3.37033 11.2147 2.97498 11.2152C2.57987 11.2149 2.20081 11.3711 1.92078 11.6498C1.64074 11.9285 1.48261 12.3069 1.48102 12.702V15.8329C1.49192 16.2224 1.6539 16.5925 1.93274 16.8646C2.21158 17.1367 2.58536 17.2895 2.97498 17.2909C3.36505 17.291 3.73969 17.1385 4.01886 16.8661C4.29803 16.5936 4.45959 16.2228 4.46899 15.8329V12.703ZM12.674 8.59509C12.674 8.19886 12.5166 7.81863 12.2364 7.53845C11.9562 7.25827 11.5762 7.10095 11.18 7.10095C10.7838 7.10095 10.4038 7.25827 10.1236 7.53845C9.84342 7.81863 9.68597 8.19886 9.68597 8.59509V15.8329C9.68597 16.2291 9.84342 16.6093 10.1236 16.8895C10.4038 17.1697 10.7838 17.327 11.18 17.327C11.5762 17.327 11.9562 17.1697 12.2364 16.8895C12.5166 16.6093 12.674 16.2291 12.674 15.8329V8.59412V8.59509ZM20.88 2.97302C20.8789 2.57775 20.7212 2.19893 20.4413 1.9198C20.1614 1.64067 19.7822 1.48425 19.387 1.48425C18.9913 1.48399 18.6118 1.64043 18.3317 1.9198C18.0515 2.19917 17.8938 2.57838 17.893 2.974V18.807C17.9027 19.1968 18.0643 19.5675 18.3434 19.8397C18.6226 20.1119 18.9971 20.2642 19.387 20.264C19.7769 20.2642 20.1514 20.1119 20.4305 19.8397C20.7097 19.5675 20.8713 19.1968 20.881 18.807L20.88 2.97302ZM29.085 8.59509C29.085 8.19886 28.9276 7.81863 28.6474 7.53845C28.3672 7.25827 27.9872 7.10095 27.591 7.10095C27.1948 7.10095 26.8147 7.25827 26.5345 7.53845C26.2544 7.81863 26.097 8.19886 26.097 8.59509V15.8329C26.097 16.2291 26.2544 16.6093 26.5345 16.8895C26.8147 17.1697 27.1948 17.327 27.591 17.327C27.9872 17.327 28.3672 17.1697 28.6474 16.8895C28.9276 16.6093 29.085 16.2291 29.085 15.8329V8.59412V8.59509ZM37.285 12.703C37.2852 12.3088 37.129 11.9308 36.8505 11.6517C36.5721 11.3727 36.1942 11.2157 35.8 11.2152C35.4047 11.2144 35.0253 11.3705 34.7452 11.6493C34.465 11.9281 34.307 12.3068 34.306 12.702V15.8329C34.306 16.2278 34.4629 16.6069 34.7421 16.8861C35.0214 17.1653 35.4001 17.3221 35.795 17.3221C36.189 17.3208 36.5665 17.1633 36.8447 16.8842C37.1228 16.6051 37.279 16.2269 37.279 15.8329L37.285 12.703ZM45.494 8.59509C45.4844 8.20654 45.3232 7.83725 45.045 7.5658C44.7669 7.29435 44.3937 7.14211 44.005 7.14197C43.6163 7.14211 43.2431 7.29435 42.9649 7.5658C42.6867 7.83725 42.5256 8.20654 42.516 8.59509V15.8329C42.516 16.2278 42.6728 16.6069 42.9521 16.8861C43.2313 17.1653 43.6101 17.3221 44.005 17.3221C44.3999 17.3221 44.7786 17.1653 45.0579 16.8861C45.3371 16.6069 45.494 16.2278 45.494 15.8329V8.59412V8.59509ZM53.705 2.97302C53.7048 2.57829 53.5477 2.1998 53.2685 1.92078C52.9893 1.64175 52.6107 1.48523 52.216 1.48523C51.8213 1.48523 51.4427 1.64175 51.1635 1.92078C50.8842 2.1998 50.7273 2.57829 50.727 2.97302V18.807C50.7152 19.0758 50.7763 19.3427 50.904 19.5795C51.0316 19.8163 51.221 20.0144 51.452 20.1522C51.683 20.2899 51.947 20.3622 52.216 20.3622C52.485 20.3622 52.7489 20.2899 52.98 20.1522C53.2111 20.0143 53.4006 19.816 53.5283 19.579C53.6559 19.342 53.717 19.075 53.705 18.806V2.97302ZM61.914 8.59509C61.9133 8.3979 61.8737 8.20276 61.7975 8.02087C61.7214 7.83899 61.61 7.67386 61.47 7.53503C61.3297 7.39667 61.1635 7.28738 60.981 7.21326C60.7984 7.13913 60.603 7.1015 60.406 7.10291C60.011 7.10317 59.6322 7.26052 59.353 7.53992C59.0738 7.81932 58.917 8.19814 58.917 8.59314V15.8319C58.9165 16.0279 58.9547 16.222 59.0293 16.4032C59.1039 16.5844 59.2136 16.7493 59.352 16.8881C59.6314 17.168 60.0105 17.3255 60.406 17.326C60.6033 17.3278 60.799 17.2905 60.9818 17.2162C61.1646 17.1419 61.3309 17.0319 61.471 16.8929C61.6113 16.7541 61.7227 16.5892 61.7987 16.4071C61.8747 16.225 61.9139 16.0293 61.914 15.8319V8.59314V8.59509ZM70.108 12.703C70.108 12.3076 69.9509 11.9284 69.6713 11.6488C69.3916 11.3692 69.0124 11.2118 68.617 11.2118C68.2216 11.2118 67.8423 11.3692 67.5627 11.6488C67.2831 11.9284 67.126 12.3076 67.126 12.703V15.8329C67.1256 16.029 67.1638 16.2234 67.2386 16.4047C67.3133 16.586 67.4231 16.7507 67.5616 16.8895C67.7001 17.0284 67.8646 17.1385 68.0457 17.2137C68.2268 17.289 68.4209 17.3279 68.617 17.328C68.8129 17.3277 69.0069 17.289 69.1878 17.2137C69.3687 17.1385 69.533 17.0283 69.6714 16.8895C69.8097 16.7508 69.9195 16.5863 69.9942 16.4052C70.0689 16.224 70.1073 16.0298 70.107 15.8339V12.704L70.108 12.703Z" fill="#6A7A99"/>
<path d="M68.384 35.8709V36.0579H67.852V37.4412H67.633V36.0589H67.0991V35.8709H68.384ZM68.4951 35.8709H68.837L69.3069 37.159H69.315L69.77 35.8719H70.106V37.4412H69.882V36.1541H69.874L69.398 37.4412H69.191L68.726 36.1541H68.716V37.4412H68.497L68.4951 35.8709Z" fill="#6A7A99"/>
</svg>
