<svg width="122" height="24" viewBox="0 0 122 24" fill="none" xmlns="http://www.w3.org/2000/svg">
<g clip-path="url(#clip0_28_384)">
<path fill-rule="evenodd" clip-rule="evenodd" d="M3.70101 2.23499C4.60927 1.44582 5.66477 0.844236 6.80664 0.464929C7.9485 0.0856223 9.15416 -0.0639063 10.3541 0.0249639C11.554 0.113834 12.7245 0.439345 13.798 0.98273C14.8716 1.52611 15.8269 2.27662 16.609 3.19099C18.2908 4.89172 19.2731 7.16169 19.3616 9.55191C19.4502 11.9421 18.6384 14.2785 17.087 16.099L9.91601 23.27C8.48201 22.314 6.09201 20.402 7.04801 18.489C8.96001 16.099 11.348 14.189 13.263 11.796C14.697 9.88399 13.741 6.05899 10.873 5.58099C10.2294 5.35603 9.53887 5.30008 8.86747 5.41849C8.19607 5.5369 7.56632 5.82571 7.03852 6.25726C6.51073 6.68881 6.10257 7.24864 5.85315 7.88314C5.60372 8.51764 5.52138 9.20555 5.61401 9.88099C5.61401 12.271 7.52601 13.705 8.96001 15.14C7.52601 16.574 5.61401 17.53 5.61401 19.44C4.18001 17.528 1.79001 16.094 0.83301 13.703C-0.0410163 11.7462 -0.233446 9.55278 0.286508 7.47369C0.806463 5.3946 2.00875 3.54999 3.70101 2.23499Z" fill="#6A7A99"/>
<path fill-rule="evenodd" clip-rule="evenodd" d="M34.297 2.23499C34.775 0.800995 36.209 1.27899 37.165 1.27899V18.962H34.297V17.532C33.146 18.46 31.712 18.9661 30.2335 18.9661C28.755 18.9661 27.321 18.46 26.17 17.532C24.8461 16.3232 24.0531 14.6404 23.9636 12.8499C23.8741 11.0593 24.4953 9.30585 25.692 7.97099C26.7682 6.79969 28.232 6.05758 29.8129 5.88184C31.3938 5.7061 32.9849 6.10862 34.292 7.01499L34.297 2.23499ZM29.997 8.44999C27.607 8.92799 25.697 12.274 27.607 14.665C27.9641 15.1859 28.452 15.6038 29.0217 15.8765C29.5913 16.1493 30.2227 16.2674 30.8524 16.2189C31.4822 16.1705 32.0881 15.9573 32.6093 15.6006C33.1306 15.2439 33.5488 14.7564 33.822 14.187C35.253 11.796 32.862 8.44899 29.994 8.44899L29.997 8.44999Z" fill="#6A7A99"/>
<path fill-rule="evenodd" clip-rule="evenodd" d="M39.5551 6.05901H42.423V7.01501C43.379 5.58101 45.2911 5.58101 47.2041 6.05901C46.7261 7.01501 46.2481 7.49301 46.2481 8.44901C44.3361 7.97101 42.4241 8.92701 42.4241 10.361V17.532C41.9451 18.971 40.5111 18.971 39.5551 18.971V6.05901Z" fill="#6A7A99"/>
<path fill-rule="evenodd" clip-rule="evenodd" d="M51.506 6.05997C56.287 4.14797 61.067 8.92797 60.106 13.709C59.145 18.49 52.457 20.88 49.106 17.533C45.282 14.187 46.716 7.01597 51.496 6.05997H51.506ZM52.94 8.44997C52.1373 8.66412 51.4052 9.08623 50.8178 9.67371C50.2303 10.2612 49.8082 10.9932 49.594 11.796C49.4959 12.3414 49.523 12.902 49.6732 13.4354C49.8234 13.9688 50.0928 14.4612 50.461 14.8753C50.8293 15.2894 51.2868 15.6145 51.7991 15.8259C52.3113 16.0374 52.8649 16.1297 53.418 16.096C55.33 16.096 57.242 14.662 57.242 12.75C57.242 10.362 54.853 7.97197 52.942 8.44997H52.94Z" fill="#6A7A99"/>
<path fill-rule="evenodd" clip-rule="evenodd" d="M62.024 6.05897H64.892V7.01497C66.1992 6.1086 67.7903 5.70608 69.3712 5.88181C70.9521 6.05755 72.4159 6.79966 73.4921 7.97097C74.083 8.58524 74.5418 9.31419 74.8399 10.1128C75.138 10.9113 75.2692 11.7626 75.2253 12.6138C75.1814 13.4651 74.9635 14.2983 74.5849 15.062C74.2062 15.8257 73.675 16.5037 73.024 17.054C71.112 19.444 67.287 19.444 64.897 18.01V22.31C64.419 23.744 62.9851 23.744 62.0291 23.744V6.05897H62.024ZM68.239 8.44897C65.371 8.92697 63.939 12.273 65.371 14.186C66.805 16.576 70.63 16.576 71.586 14.186C73.497 11.795 71.107 8.44897 68.239 8.44897Z" fill="#6A7A99"/>
<path fill-rule="evenodd" clip-rule="evenodd" d="M80.19 6.53801C81.3999 5.85953 82.7953 5.5863 84.1717 5.75833C85.5482 5.93037 86.8333 6.53862 87.839 7.494C87.361 7.972 86.883 8.92801 85.927 9.40601C85.4814 9.045 84.958 8.79252 84.3981 8.66849C83.8381 8.54447 83.2571 8.55231 82.7007 8.69138C82.1443 8.83045 81.6279 9.09694 81.1922 9.46983C80.7564 9.84272 80.4134 10.3118 80.19 10.84C79.9823 11.4061 79.9078 12.0124 79.9725 12.6119C80.0371 13.2115 80.2391 13.788 80.5628 14.2967C80.8865 14.8055 81.3231 15.2328 81.8388 15.5453C82.3545 15.8579 82.9352 16.0474 83.536 16.099C84.492 16.099 85.448 15.621 86.404 15.621C87.2579 15.997 87.94 16.6791 88.316 17.533C84.97 20.401 79.233 19.445 77.799 15.143C75.887 12.274 77.321 8.44801 80.19 6.53801Z" fill="#6A7A99"/>
<path fill-rule="evenodd" clip-rule="evenodd" d="M88.317 14.664C86.885 10.362 90.229 5.58099 94.532 5.58099C96.2531 5.65612 97.8983 6.31104 99.2002 7.43934C100.502 8.56764 101.384 10.103 101.703 11.796V18.967C100.269 18.967 99.313 18.967 98.357 18.011C95.011 20.401 89.757 18.489 88.318 14.665L88.317 14.664ZM94.532 8.44899C93.8737 8.57285 93.2545 8.8524 92.7262 9.2643C92.1979 9.6762 91.7757 10.2085 91.495 10.8168C91.2143 11.425 91.0832 12.0916 91.1126 12.7609C91.142 13.4302 91.3311 14.0827 91.664 14.664C93.576 17.054 97.401 16.576 98.357 14.186C98.6019 13.5556 98.6913 12.8756 98.6179 12.2033C98.5445 11.531 98.3103 10.8863 97.9352 10.3237C97.56 9.76099 97.0549 9.2969 96.4626 8.97061C95.8703 8.64431 95.2081 8.4654 94.532 8.44899Z" fill="#6A7A99"/>
<path fill-rule="evenodd" clip-rule="evenodd" d="M103.615 6.05997H106.483V7.01597C107.917 5.10397 111.264 5.58197 113.176 7.49397C115.566 4.62597 120.347 5.58197 121.303 8.92797C121.781 11.796 121.303 15.143 121.303 18.011C121.303 18.967 119.869 18.967 118.435 18.967C118.435 16.099 118.913 13.23 118.435 10.367C118.341 9.86507 118.075 9.41171 117.683 9.08544C117.29 8.75917 116.796 8.58056 116.285 8.58056C115.774 8.58056 115.28 8.75917 114.887 9.08544C114.495 9.41171 114.229 9.86507 114.135 10.367V18.967H111.267C111.346 15.9314 111.186 12.8944 110.789 9.88397C110.311 7.97197 106.965 8.44997 106.965 10.362C106.568 13.2105 106.408 16.087 106.487 18.962H103.615V6.05997Z" fill="#6A7A99"/>
</g>
<defs>
<clipPath id="clip0_28_384">
<rect width="121.516" height="23.743" fill="white"/>
</clipPath>
</defs>
</svg>
