<svg width="82" height="25" viewBox="0 0 82 25" fill="none" xmlns="http://www.w3.org/2000/svg">
<g clip-path="url(#clip0_28_398)">
<path d="M0 17.57V0.364H3.022V17.57H0ZM10.759 5.088C9.9039 5.06873 9.05358 5.22077 8.25813 5.53515C7.46268 5.84954 6.73819 6.31992 6.12731 6.91858C5.51643 7.51725 5.03152 8.23211 4.70114 9.02105C4.37077 9.80999 4.2016 10.6571 4.2036 11.5124C4.2056 12.3677 4.37873 13.214 4.7128 14.0014C5.04687 14.7887 5.53512 15.5013 6.14879 16.0971C6.76246 16.6929 7.48915 17.1599 8.28607 17.4706C9.08298 17.7812 9.93399 17.9293 10.789 17.906C11.6373 17.9144 12.4789 17.7544 13.265 17.4351C14.051 17.1158 14.7658 16.6437 15.368 16.046C15.9701 15.4484 16.4477 14.7372 16.7729 13.9536C17.0982 13.17 17.2646 12.3297 17.2626 11.4813C17.2606 10.6329 17.0903 9.79337 16.7614 9.01133C16.4325 8.22928 15.9516 7.52031 15.3466 6.92551C14.7417 6.33071 14.0246 5.86193 13.2371 5.54633C12.4496 5.23073 11.6073 5.07461 10.759 5.087V5.088ZM10.724 8C11.5246 7.99747 12.3013 8.27247 12.9219 8.77819C13.5425 9.28391 13.9687 9.98909 14.1278 10.7737C14.287 11.5583 14.1693 12.3738 13.7949 13.0814C13.4204 13.789 12.8122 14.3449 12.074 14.6545C11.3357 14.9642 10.5129 15.0084 9.74574 14.7797C8.97855 14.5509 8.31434 14.0633 7.86619 13.3999C7.41805 12.7366 7.21366 11.9384 7.28784 11.1412C7.36201 10.3441 7.71015 9.59731 8.273 9.028C8.92249 8.37556 9.80341 8.00609 10.724 8ZM24.888 5.088C24.0329 5.06873 23.1826 5.22077 22.3871 5.53515C21.5917 5.84954 20.8672 6.31992 20.2563 6.91858C19.6454 7.51725 19.1605 8.23211 18.8301 9.02105C18.4998 9.80999 18.3306 10.6571 18.3326 11.5124C18.3346 12.3677 18.5077 13.214 18.8418 14.0014C19.1759 14.7887 19.6641 15.5013 20.2778 16.0971C20.8915 16.6929 21.6182 17.1599 22.4151 17.4706C23.212 17.7812 24.063 17.9293 24.918 17.906C25.772 17.9268 26.6213 17.775 27.4152 17.4597C28.2091 17.1444 28.9311 16.6721 29.5381 16.071C30.145 15.4699 30.6244 14.7525 30.9474 13.9617C31.2704 13.171 31.4305 12.3231 31.418 11.469C31.5028 10.2907 31.1523 9.12217 30.433 8.185L31.271 7.898V5.445H26.984C26.3085 5.21092 25.5989 5.09029 24.884 5.088H24.888ZM24.853 8C25.6535 7.99793 26.43 8.27333 27.0502 8.77931C27.6705 9.28529 28.0963 9.99059 28.2551 10.7752C28.4139 11.5597 28.2959 12.3751 27.9213 13.0825C27.5466 13.7899 26.9383 14.3455 26.2 14.6549C25.4618 14.9643 24.6391 15.0083 23.872 14.7794C23.1049 14.5505 22.4409 14.0629 21.9929 13.3995C21.5449 12.7362 21.3406 11.938 21.4149 11.141C21.4891 10.3439 21.8372 9.59725 22.4 9.028C23.05 8.37508 23.9317 8.00556 24.853 8ZM28.353 18.408C28.353 19.3331 27.9855 20.2203 27.3314 20.8744C26.6773 21.5285 25.7901 21.896 24.865 21.896C23.9399 21.896 23.0527 21.5285 22.3986 20.8744C21.7445 20.2203 21.377 19.3331 21.377 18.408H18.31C18.2957 19.2701 18.4575 20.126 18.7857 20.9233C19.1138 21.7206 19.6014 22.4425 20.2184 23.0447C20.8354 23.6469 21.5689 24.1168 22.3739 24.4255C23.1789 24.7342 24.0385 24.8752 24.9 24.84C25.7534 24.8618 26.6025 24.7109 27.3962 24.3965C28.1899 24.0821 28.9119 23.6106 29.519 23.0103C30.126 22.41 30.6055 21.6933 30.9287 20.9031C31.252 20.1129 31.4123 19.2656 31.4 18.412L28.353 18.408ZM32.635 17.567V5.445H35.658V17.57L32.635 17.567ZM38.592 17.567V8.161H36.971V5.445H38.592V1.722H41.614V5.445H43.279V8.161H41.614V17.57L38.592 17.567ZM36.141 2C36.141 2.39556 36.0237 2.78224 35.8039 3.11114C35.5842 3.44004 35.2718 3.69638 34.9064 3.84776C34.5409 3.99913 34.1388 4.03874 33.7508 3.96157C33.3629 3.8844 33.0065 3.69392 32.7268 3.41421C32.4471 3.13451 32.2566 2.77814 32.1794 2.39018C32.1023 2.00222 32.1419 1.60009 32.2932 1.23463C32.4446 0.869181 32.701 0.556824 33.0299 0.337061C33.3588 0.117298 33.7454 0 34.141 0C34.6714 0 35.1801 0.210714 35.5552 0.585786C35.9303 0.960859 36.141 1.46957 36.141 2ZM50.074 5.08C49.2196 5.06267 48.3707 5.21999 47.5792 5.54231C46.7877 5.86463 46.0704 6.34518 45.4712 6.95449C44.872 7.5638 44.4035 8.28906 44.0945 9.0858C43.7855 9.88255 43.6424 10.734 43.674 11.588C43.639 12.4402 43.7834 13.2903 44.0979 14.0832C44.4124 14.8761 44.89 15.594 45.4997 16.1905C46.1094 16.787 46.8376 17.2487 47.6371 17.5458C48.4367 17.8429 49.2897 17.9687 50.141 17.915C51.1682 17.9475 52.1904 17.7589 53.1384 17.3621C54.0865 16.9653 54.9382 16.3695 55.636 15.615L53.616 13.592C52.7097 14.5413 51.4877 15.1266 50.18 15.238C49.4216 15.2678 48.6765 15.0327 48.0725 14.5731C47.4685 14.1135 47.0434 13.4579 46.87 12.719H56.288V11.887C56.288 8.566 54.366 5.081 50.079 5.081L50.074 5.08ZM49.974 7.741C50.7164 7.69831 51.4483 7.9329 52.0276 8.39928C52.6068 8.86565 52.9922 9.53055 53.109 10.265H46.779C46.9276 9.53374 47.3307 8.87884 47.9166 8.41672C48.5025 7.95459 49.2332 7.71517 49.979 7.741H49.974ZM63.843 17.916C62.9999 17.9169 62.1649 17.7516 61.3857 17.4298C60.6064 17.1079 59.8982 16.6358 59.3015 16.0402C58.0963 14.8375 57.4182 13.2052 57.4165 11.5025C57.4148 9.79981 58.0895 8.16617 59.2923 6.96097C60.495 5.75577 62.1273 5.07772 63.83 5.076C64.8199 5.06859 65.799 5.28239 66.6957 5.70176C67.5924 6.12114 68.3841 6.73551 69.013 7.5L66.9 9.6C66.5225 9.13765 66.0531 8.75867 65.5215 8.48705C64.99 8.21543 64.4079 8.05708 63.812 8.022C63.3531 8.01057 62.8965 8.09221 62.47 8.26199C62.0434 8.43177 61.6557 8.68618 61.3301 9.00987C61.0046 9.33357 60.7479 9.71984 60.5757 10.1454C60.4035 10.571 60.3192 11.027 60.328 11.486C60.3164 11.9461 60.3976 12.4037 60.5667 12.8318C60.7358 13.2598 60.9894 13.6494 61.3123 13.9773C61.6351 14.3052 62.0208 14.5648 62.4461 14.7405C62.8714 14.9162 63.3278 15.0044 63.788 15C64.3883 14.9688 64.9755 14.8121 65.5115 14.5399C66.0475 14.2678 66.5205 13.8863 66.9 13.42L69.03 15.52C68.3993 16.282 67.606 16.8931 66.7082 17.3084C65.8104 17.7237 64.8311 17.9327 63.842 17.92L63.843 17.916ZM70.131 17.579V0.32H73.153V6.661C73.6076 6.13835 74.174 5.72463 74.8101 5.45044C75.4462 5.17626 76.1359 5.04863 76.828 5.077C79.993 5.077 81.828 7.43 81.828 10.439V17.579H78.8V10.9C78.8454 10.5312 78.8097 10.157 78.6955 9.80348C78.5812 9.44994 78.3911 9.12564 78.1384 8.85324C77.8857 8.58085 77.5766 8.36694 77.2326 8.22647C76.8886 8.086 76.5181 8.02236 76.147 8.04C75.7434 8.00791 75.3377 8.06407 74.958 8.20458C74.5783 8.3451 74.2337 8.56659 73.9482 8.85368C73.6628 9.14077 73.4432 9.48657 73.3049 9.86706C73.1665 10.2475 73.1126 10.6536 73.147 11.057V17.584H70.131V17.579Z" fill="#6A7A99"/>
</g>
<defs>
<clipPath id="clip0_28_398">
<rect width="81.828" height="24.845" fill="white"/>
</clipPath>
</defs>
</svg>
