<svg width="99" height="30" viewBox="0 0 99 30" fill="none" xmlns="http://www.w3.org/2000/svg">
<g clip-path="url(#clip0_28_400)">
<path d="M14.756 3.38876e-08C11.8376 0.000197812 8.98474 0.86579 6.55826 2.48732C4.13178 4.10885 2.24062 6.41349 1.12393 9.10982C0.00723636 11.8061 -0.284839 14.773 0.284638 17.6354C0.854114 20.4977 2.25957 23.1269 4.32327 25.1904C6.38697 27.254 9.01624 28.6593 11.8786 29.2285C14.741 29.7978 17.7078 29.5055 20.4041 28.3887C23.1003 27.2718 25.4049 25.3805 27.0262 22.9539C28.6476 20.5273 29.513 17.6744 29.513 14.756C29.513 12.8181 29.1313 10.8992 28.3897 9.10889C27.648 7.31855 26.561 5.69181 25.1907 4.32158C23.8204 2.95134 22.1936 1.86445 20.4032 1.12295C18.6128 0.381447 16.6939 -0.000131294 14.756 3.38876e-08ZM21.523 21.282C21.4596 21.3848 21.3767 21.4741 21.2788 21.5448C21.181 21.6155 21.0701 21.6663 20.9526 21.6941C20.8352 21.722 20.7134 21.7264 20.5942 21.7072C20.475 21.6879 20.3607 21.6454 20.258 21.582C16.793 19.466 12.432 18.982 7.29498 20.16C7.05708 20.2142 6.80738 20.1717 6.60081 20.0419C6.39424 19.912 6.24772 19.7054 6.19348 19.4675C6.13925 19.2296 6.18174 18.9799 6.3116 18.7733C6.44147 18.5668 6.64808 18.4202 6.88598 18.366C12.507 17.082 17.329 17.635 21.218 20.012C21.3218 20.075 21.412 20.158 21.4836 20.2561C21.5552 20.3541 21.6066 20.4654 21.635 20.5835C21.6633 20.7015 21.668 20.824 21.6488 20.9439C21.6296 21.0638 21.5868 21.1787 21.523 21.282ZM23.329 17.264C23.1695 17.5241 22.9133 17.7102 22.6166 17.7814C22.32 17.8527 22.0072 17.8032 21.747 17.644C17.268 15.1469 11.9816 14.528 7.04698 15.923C6.75525 16.0122 6.44 15.9819 6.17061 15.8388C5.90121 15.6956 5.69973 15.4512 5.61048 15.1595C5.52124 14.8678 5.55154 14.5525 5.69472 14.2831C5.83791 14.0137 6.08224 13.8122 6.37398 13.723C9.12784 12.9302 12.0123 12.6952 14.8581 13.0318C17.704 13.3683 20.454 14.2697 22.947 15.683C23.0758 15.762 23.1877 15.8655 23.2765 15.9878C23.3653 16.11 23.429 16.2486 23.4642 16.3955C23.4994 16.5424 23.5053 16.6948 23.4816 16.844C23.4579 16.9932 23.405 17.1362 23.326 17.265L23.329 17.264ZM23.484 13.08C18.728 10.255 10.884 9.995 6.34098 11.374C6.16648 11.4305 5.98246 11.4516 5.7997 11.4361C5.61693 11.4207 5.43908 11.3689 5.27655 11.2839C5.11401 11.199 4.97005 11.0824 4.85308 10.9411C4.7361 10.7999 4.64847 10.6367 4.59529 10.4611C4.54212 10.2856 4.52447 10.1012 4.54339 9.91877C4.5623 9.73633 4.61739 9.55949 4.70544 9.39858C4.79349 9.23768 4.91273 9.09595 5.0562 8.98167C5.19966 8.86738 5.36447 8.78285 5.54098 8.733C10.753 7.151 19.418 7.456 24.894 10.707C25.0499 10.7994 25.186 10.9217 25.2946 11.0668C25.4033 11.2118 25.4823 11.3769 25.5271 11.5525C25.572 11.7281 25.5818 11.9108 25.556 12.0902C25.5303 12.2696 25.4694 12.4421 25.377 12.598C25.2845 12.7539 25.1623 12.89 25.0172 12.9987C24.8722 13.1073 24.7071 13.1863 24.5315 13.2311C24.3559 13.276 24.1732 13.2858 23.9938 13.2601C23.8144 13.2343 23.6419 13.1734 23.486 13.081L23.484 13.08ZM40.147 13.623C37.599 13.015 37.147 12.589 37.147 11.693C37.147 10.846 37.947 10.277 39.129 10.277C40.4037 10.3225 41.6277 10.7876 42.611 11.6C42.6289 11.6132 42.6492 11.6227 42.6708 11.628C42.6923 11.6333 42.7148 11.6342 42.7367 11.6308C42.7587 11.6273 42.7797 11.6196 42.7986 11.6079C42.8176 11.5963 42.834 11.581 42.847 11.563L44.091 9.809C44.1156 9.77422 44.126 9.73134 44.1201 9.68914C44.1141 9.64694 44.0923 9.60861 44.059 9.582C42.6804 8.45437 40.9467 7.85203 39.166 7.882C36.415 7.882 34.493 9.533 34.493 11.895C34.493 14.428 36.151 15.325 39.016 16.017C41.453 16.579 41.865 17.049 41.865 17.89C41.865 18.822 41.033 19.402 39.694 19.402C38.1752 19.3903 36.7203 18.7894 35.636 17.726C35.6021 17.6972 35.5584 17.6825 35.514 17.685C35.4919 17.6865 35.4703 17.6924 35.4506 17.7023C35.4308 17.7123 35.4133 17.7261 35.399 17.743L33.999 19.403C33.9709 19.4363 33.9569 19.4793 33.9599 19.5227C33.9629 19.5662 33.9826 19.6068 34.015 19.636C35.5533 21.0298 37.5572 21.7977 39.633 21.789C42.597 21.789 44.512 20.17 44.512 17.662C44.517 15.546 43.25 14.374 40.147 13.62H40.142L40.147 13.623ZM51.223 11.11C50.6053 11.1019 49.9941 11.237 49.4373 11.5047C48.8806 11.7724 48.3934 12.1655 48.014 12.653V11.485C48.0141 11.4631 48.0099 11.4414 48.0016 11.4212C47.9934 11.4009 47.9811 11.3825 47.9657 11.367C47.9503 11.3515 47.9319 11.3391 47.9117 11.3307C47.8915 11.3223 47.8699 11.318 47.848 11.318H45.567C45.5451 11.318 45.5234 11.3223 45.5032 11.3307C45.483 11.3391 45.4647 11.3515 45.4492 11.367C45.4338 11.3825 45.4216 11.4009 45.4133 11.4212C45.405 11.4414 45.4008 11.4631 45.401 11.485V24.454C45.401 24.4981 45.4184 24.5404 45.4495 24.5717C45.4806 24.603 45.5229 24.6207 45.567 24.621H47.847C47.8911 24.6207 47.9333 24.603 47.9644 24.5717C47.9955 24.5404 48.013 24.4981 48.013 24.454V20.361C48.4064 20.8263 48.8985 21.198 49.4536 21.4492C50.0087 21.7003 50.6128 21.8246 51.222 21.813C53.61 21.813 56.027 19.975 56.027 16.462C56.027 12.949 53.613 11.109 51.227 11.109L51.223 11.11ZM53.375 16.462C53.4149 16.8408 53.3758 17.2237 53.26 17.5865C53.1442 17.9493 52.9544 18.2842 52.7024 18.5698C52.4505 18.8554 52.1419 19.0855 51.7964 19.2457C51.4508 19.4058 51.0758 19.4924 50.695 19.5C50.3133 19.4878 49.938 19.3986 49.5916 19.2378C49.2453 19.0769 48.9349 18.8478 48.6793 18.564C48.4237 18.2803 48.2281 17.9479 48.1041 17.5866C47.9801 17.2254 47.9304 16.8429 47.958 16.462C47.9303 16.081 47.9799 15.6984 48.1038 15.337C48.2277 14.9757 48.4233 14.6431 48.6789 14.3593C48.9346 14.0755 49.2449 13.8462 49.5914 13.6853C49.9378 13.5244 50.3132 13.4352 50.695 13.423C51.0742 13.435 51.447 13.5245 51.7904 13.686C52.1337 13.8476 52.4404 14.0777 52.6915 14.3622C52.9425 14.6467 53.1327 14.9796 53.2503 15.3404C53.3678 15.7012 53.4102 16.0822 53.375 16.46V16.462ZM62.222 11.11C61.1653 11.1299 60.1381 11.4616 59.2694 12.0633C58.4006 12.665 57.7289 13.5101 57.3388 14.4922C56.9487 15.4744 56.8574 16.55 57.0765 17.5839C57.2956 18.6177 57.8153 19.5638 58.5702 20.3033C59.3252 21.0428 60.2819 21.5428 61.3201 21.7404C62.3583 21.9381 63.4317 21.8246 64.4056 21.4142C65.3795 21.0038 66.2104 20.3148 66.794 19.4337C67.3777 18.5527 67.688 17.5188 67.686 16.462C67.6824 15.7507 67.5378 15.0472 67.2605 14.3922C66.9832 13.7372 66.5788 13.1436 66.0707 12.6459C65.5626 12.1482 64.9608 11.7562 64.3001 11.4925C63.6395 11.2289 62.9332 11.0989 62.222 11.11ZM62.222 19.518C61.8303 19.5144 61.4434 19.4314 61.0846 19.2742C60.7258 19.1169 60.4026 18.8886 60.1345 18.603C59.8664 18.3174 59.6589 17.9805 59.5246 17.6125C59.3903 17.2445 59.3319 16.8532 59.353 16.462C59.3276 16.0747 59.3821 15.6864 59.513 15.3211C59.6439 14.9557 59.8485 14.6211 60.114 14.3381C60.3795 14.055 60.7003 13.8295 61.0566 13.6756C61.4128 13.5216 61.7969 13.4424 62.185 13.443C62.5778 13.4457 62.966 13.528 63.3262 13.6848C63.6863 13.8416 64.0111 14.0696 64.2807 14.3553C64.5504 14.6409 64.7594 14.9782 64.8952 15.3468C65.0311 15.7154 65.0908 16.1077 65.071 16.5C65.0954 16.8884 65.0397 17.2777 64.9074 17.6437C64.775 18.0097 64.5689 18.3446 64.3017 18.6276C64.0346 18.9106 63.7121 19.1356 63.3544 19.2888C62.9966 19.442 62.6112 19.52 62.222 19.518ZM74.252 11.318H71.741V8.751C71.7411 8.72912 71.7369 8.70742 71.7286 8.68717C71.7204 8.66691 71.7081 8.64849 71.6927 8.63297C71.6773 8.61745 71.6589 8.60513 71.6387 8.59673C71.6185 8.58833 71.5969 8.584 71.575 8.584H69.294C69.2498 8.58426 69.2075 8.60194 69.1762 8.6332C69.1449 8.66446 69.1272 8.70679 69.127 8.751V11.318H68.027C68.0051 11.318 67.9834 11.3223 67.9632 11.3307C67.943 11.3391 67.9247 11.3515 67.9092 11.367C67.8938 11.3825 67.8816 11.4009 67.8733 11.4212C67.8651 11.4414 67.8609 11.4631 67.861 11.485V13.446C67.861 13.4901 67.8784 13.5324 67.9095 13.5637C67.9407 13.595 67.9829 13.6127 68.027 13.613H69.127V18.687C69.127 20.736 70.147 21.776 72.161 21.776C72.9079 21.7939 73.6457 21.6101 74.297 21.244C74.3228 21.2299 74.3444 21.2091 74.3594 21.1837C74.3743 21.1584 74.3821 21.1294 74.382 21.1V19.231C74.3819 19.2027 74.3746 19.1749 74.3608 19.1502C74.347 19.1256 74.3271 19.1048 74.303 19.09C74.279 19.0747 74.2514 19.066 74.2229 19.0648C74.1945 19.0635 74.1662 19.0698 74.141 19.083C73.7273 19.297 73.2678 19.4075 72.802 19.405C72.071 19.405 71.743 19.072 71.743 18.328V13.614H74.254C74.2759 13.614 74.2975 13.6097 74.3177 13.6013C74.3379 13.5929 74.3563 13.5805 74.3717 13.565C74.3871 13.5495 74.3994 13.5311 74.4076 13.5108C74.4159 13.4906 74.4201 13.4689 74.42 13.447V11.487C74.4207 11.4651 74.4169 11.4434 74.4089 11.423C74.401 11.4026 74.389 11.3841 74.3736 11.3685C74.3583 11.3529 74.34 11.3405 74.3198 11.3322C74.2996 11.3239 74.2779 11.3197 74.256 11.32L74.252 11.318ZM82.999 11.328V11.013C82.999 10.086 83.355 9.672 84.151 9.672C84.59 9.67719 85.0249 9.75734 85.437 9.909C85.4621 9.91746 85.4889 9.91979 85.515 9.91579C85.5412 9.91179 85.5661 9.90158 85.5875 9.88602C85.609 9.87046 85.6264 9.84999 85.6383 9.82632C85.6502 9.80266 85.6562 9.77649 85.656 9.75V7.823C85.6564 7.78713 85.6451 7.7521 85.6238 7.72323C85.6025 7.69436 85.5724 7.67322 85.538 7.663C84.9224 7.47505 84.2815 7.3833 83.638 7.391C81.532 7.391 80.417 8.578 80.417 10.821V11.304H79.317C79.2728 11.3043 79.2305 11.3219 79.1992 11.3532C79.1679 11.3845 79.1502 11.4268 79.15 11.471V13.442C79.1502 13.4862 79.1679 13.5285 79.1992 13.5598C79.2305 13.5911 79.2728 13.6087 79.317 13.609H80.417V21.434C80.417 21.4783 80.4346 21.5208 80.4659 21.5521C80.4972 21.5834 80.5397 21.601 80.584 21.601H82.864C82.8859 21.6011 82.9077 21.5969 82.9281 21.5886C82.9484 21.5802 82.9668 21.5679 82.9824 21.5524C82.9979 21.5368 83.0102 21.5184 83.0185 21.4981C83.0269 21.4777 83.0311 21.456 83.031 21.434V13.614H85.161L88.424 21.438C88.054 22.259 87.689 22.423 87.192 22.423C86.7491 22.412 86.3163 22.2888 85.934 22.065C85.8931 22.0445 85.8459 22.0403 85.802 22.053C85.78 22.0602 85.7597 22.0719 85.7425 22.0874C85.7252 22.1029 85.7114 22.1218 85.702 22.143L84.928 23.843C84.9101 23.8815 84.9077 23.9254 84.921 23.9658C84.9344 24.0061 84.9626 24.0398 85 24.06C85.7418 24.4806 86.5823 24.696 87.435 24.684C89.12 24.684 90.052 23.898 90.871 21.784L94.837 11.556C94.8468 11.5309 94.8505 11.5037 94.8475 11.4769C94.8446 11.4501 94.8352 11.4243 94.8202 11.4019C94.8052 11.3795 94.7849 11.3611 94.7612 11.3482C94.7375 11.3353 94.711 11.3284 94.684 11.328H92.308C92.2731 11.3277 92.239 11.3384 92.2105 11.3585C92.182 11.3786 92.1605 11.4071 92.149 11.44L89.716 18.389L87.047 11.436C87.035 11.4046 87.0138 11.3775 86.9861 11.3584C86.9585 11.3393 86.9256 11.329 86.892 11.329H82.992L82.999 11.328ZM77.928 11.318H75.647C75.6028 11.3183 75.5605 11.3359 75.5292 11.3672C75.4979 11.3985 75.4802 11.4408 75.48 11.485V21.437C75.48 21.4589 75.4843 21.4806 75.4927 21.5009C75.5011 21.5212 75.5134 21.5396 75.5289 21.5551C75.5444 21.5706 75.5628 21.5829 75.5831 21.5913C75.6033 21.5997 75.6251 21.604 75.647 21.604H77.929C77.9509 21.604 77.9726 21.5997 77.9929 21.5913C78.0132 21.5829 78.0316 21.5706 78.0471 21.5551C78.0626 21.5396 78.0749 21.5212 78.0833 21.5009C78.0917 21.4806 78.096 21.4589 78.096 21.437V11.486C78.096 11.4417 78.0784 11.3992 78.0471 11.3679C78.0158 11.3366 77.9733 11.319 77.929 11.319L77.928 11.318ZM76.8 6.786C76.4764 6.7858 76.1601 6.88156 75.8909 7.06116C75.6218 7.24076 75.4119 7.49614 75.2879 7.79501C75.1639 8.09387 75.1313 8.4228 75.1942 8.74019C75.2572 9.05758 75.4128 9.34918 75.6415 9.57812C75.8701 9.80706 76.1615 9.96305 76.4788 10.0264C76.7962 10.0897 77.1251 10.0575 77.4241 9.93385C77.7232 9.81021 77.9788 9.60067 78.1587 9.33174C78.3386 9.06281 78.4348 8.74657 78.435 8.423C78.4351 8.20816 78.3929 7.99539 78.3108 7.79685C78.2287 7.59831 78.1083 7.41789 77.9565 7.26588C77.8047 7.11387 77.6244 6.99325 77.426 6.91092C77.2275 6.82858 77.0148 6.78613 76.8 6.786ZM96.786 14.523C96.4679 14.5222 96.1573 14.4272 95.8931 14.2501C95.629 14.0729 95.4233 13.8215 95.3019 13.5275C95.1805 13.2335 95.1489 12.9102 95.2111 12.5983C95.2732 12.2864 95.4264 11.9999 95.6512 11.7749C95.876 11.55 96.1624 11.3966 96.4743 11.3343C96.7862 11.2719 97.1095 11.3033 97.4036 11.4245C97.6976 11.5457 97.9492 11.7513 98.1265 12.0153C98.3038 12.2793 98.399 12.59 98.4 12.908C98.402 13.1206 98.3616 13.3314 98.2812 13.5282C98.2008 13.7249 98.082 13.9037 97.9318 14.0541C97.7815 14.2044 97.6028 14.3233 97.4061 14.4039C97.2093 14.4844 96.9985 14.5249 96.786 14.523ZM96.795 11.463C96.5074 11.4602 96.2255 11.543 95.9851 11.7009C95.7447 11.8587 95.5567 12.0845 95.4449 12.3495C95.3332 12.6145 95.3028 12.9067 95.3575 13.189C95.4123 13.4714 95.5498 13.731 95.7525 13.935C95.9552 14.139 96.214 14.2781 96.496 14.3346C96.778 14.3912 97.0704 14.3626 97.3361 14.2525C97.6018 14.1424 97.8287 13.9558 97.9881 13.7164C98.1474 13.477 98.232 13.1956 98.231 12.908C98.2322 12.7187 98.1959 12.531 98.1243 12.3557C98.0526 12.1804 97.947 12.0211 97.8136 11.8868C97.6801 11.7525 97.5214 11.6459 97.3466 11.5732C97.1718 11.5004 96.9843 11.463 96.795 11.463ZM97.151 13.073L97.606 13.709H97.222L96.813 13.126H96.462V13.709H96.141V12.023H96.892C97.285 12.023 97.542 12.223 97.542 12.561C97.5477 12.6785 97.5118 12.7942 97.4407 12.8878C97.3696 12.9815 97.2677 13.047 97.153 13.073H97.151ZM96.88 12.313H96.462V12.846H96.88C97.088 12.846 97.213 12.746 97.213 12.579C97.213 12.412 97.087 12.308 96.879 12.308L96.88 12.313Z" fill="#6A7A99"/>
</g>
<defs>
<clipPath id="clip0_28_400">
<rect width="98.4" height="29.512" fill="white"/>
</clipPath>
</defs>
</svg>
