<svg width="50" height="50" viewBox="0 0 50 50" fill="none" xmlns="http://www.w3.org/2000/svg">
<g clip-path="url(#clip0_197_19370)">
<path d="M33.116 20.0413V10.4153L41.455 15.2197L33.116 20.0413ZM35.2093 14.0358V16.438L37.2855 15.2369L35.2093 14.0358Z" fill="white"/>
<path d="M44.801 28.1229H46.8772V38.5381H44.801V28.1229Z" fill="white"/>
<path d="M5.21614 38.5382H3.1228V15.6315C3.1228 13.9156 4.52984 12.5087 6.24565 12.5087H22.9066V14.5848H6.26281C5.6966 14.5848 5.21614 15.0481 5.21614 15.6315V38.5382Z" fill="white"/>
<path d="M46.8772 45.8305H3.12284C1.40703 45.8305 0 44.4235 0 42.7077V39.5848H50V42.7077C50 44.4235 48.593 45.8305 46.8772 45.8305ZM2.09334 41.661V42.7077C2.09334 43.2739 2.55663 43.7544 3.14001 43.7544H46.8943C47.4605 43.7544 47.941 43.2911 47.941 42.7077V41.661H2.09334Z" fill="white"/>
<path d="M23.9706 38.5381H21.8944V36.462C21.8944 34.7461 20.4874 33.3391 18.7716 33.3391H11.462C9.74615 33.3391 8.33919 34.7462 8.33919 36.462V38.5381H6.26294V36.462C6.26294 33.5965 8.59647 31.2458 11.4791 31.2458H18.7715C21.637 31.2458 23.9877 33.5793 23.9877 36.462V38.5381H23.9706Z" fill="white"/>
<path d="M15.1167 30.2162C12.5257 30.2162 10.4324 28.1057 10.4324 25.5319C10.4324 22.9581 12.5257 20.8304 15.1167 20.8304C17.7076 20.8304 19.801 22.9409 19.801 25.5147C19.801 28.0885 17.6905 30.2162 15.1167 30.2162ZM15.1167 22.9239C13.6754 22.9239 12.5085 24.0906 12.5085 25.532C12.5085 26.9733 13.6753 28.1401 15.1167 28.1401C16.558 28.1401 17.7248 26.9734 17.7248 25.532C17.7248 24.0906 16.5409 22.9239 15.1167 22.9239Z" fill="white"/>
<path d="M27.0933 33.7681V26.0468H22.9238V4.16956H50V26.0467H34.8147L27.0933 33.7681ZM25 23.9534H29.1695V28.7234L33.9396 23.9534H47.9067V6.24573H25V23.9534Z" fill="white"/>
</g>
<defs>
<clipPath id="clip0_197_19370">
<rect width="50" height="50" fill="white"/>
</clipPath>
</defs>
</svg>
