<svg width="50" height="50" viewBox="0 0 50 50" fill="none" xmlns="http://www.w3.org/2000/svg">
<path d="M23.4375 7.12891C23.4375 7.66826 23.8747 8.10547 24.4141 8.10547H43.1641C43.7034 8.10547 44.1406 7.66826 44.1406 7.12891C44.1406 6.58955 43.7034 6.15234 43.1641 6.15234H24.4141C23.8747 6.15234 23.4375 6.58955 23.4375 7.12891Z" fill="white"/>
<path d="M43.1641 12.0117H30.2734C29.7341 12.0117 29.2969 12.4489 29.2969 12.9883C29.2969 13.5276 29.7341 13.9648 30.2734 13.9648H43.1641C43.7034 13.9648 44.1406 13.5276 44.1406 12.9883C44.1406 12.4489 43.7034 12.0117 43.1641 12.0117Z" fill="white"/>
<path d="M30.8594 1.95312C31.3987 1.95312 31.8359 1.5159 31.8359 0.976562C31.8359 0.437222 31.3987 0 30.8594 0C30.32 0 29.8828 0.437222 29.8828 0.976562C29.8828 1.5159 30.32 1.95312 30.8594 1.95312Z" fill="white"/>
<path d="M49.0234 0H35.2539C34.7146 0 34.2773 0.437207 34.2773 0.976562C34.2773 1.51592 34.7146 1.95312 35.2539 1.95312H48.0469V21.0938H36.7188V19.1406C36.7188 18.6013 36.2815 18.1641 35.7422 18.1641C35.2028 18.1641 34.7656 18.6013 34.7656 19.1406V21.0938H24.4141V19.1406C24.4141 14.0854 20.5529 9.91523 15.625 9.42373V1.95312H26.4648C27.0042 1.95312 27.4414 1.51592 27.4414 0.976562C27.4414 0.437207 27.0042 0 26.4648 0H14.6484C14.1091 0 13.6719 0.437207 13.6719 0.976562V9.42373C8.74395 9.91523 4.88281 14.0854 4.88281 19.1406V21.2174C3.1999 21.6521 1.95312 23.1832 1.95312 25C1.95312 27.1034 3.62432 28.8239 5.70859 28.9034C6.69629 31.1753 8.48477 32.9693 10.7422 33.9532V35.7422H6.83594C3.0666 35.7422 0 38.8088 0 42.5781V49.0234C0 49.5628 0.437207 50 0.976562 50H23.4375C23.9769 50 24.4141 49.5628 24.4141 49.0234V43.5547H32.8125C36.5818 43.5547 39.6484 40.4881 39.6484 36.7188V31.8359C39.6484 30.0191 38.4017 28.4881 36.7188 28.0533V23.0469H49.0234C49.5628 23.0469 50 22.6097 50 22.0703V0.976562C50 0.437207 49.5628 0 49.0234 0V0ZM14.6484 11.3281C18.9562 11.3281 22.4609 14.8328 22.4609 19.1406H17.5781C16.5012 19.1406 15.625 18.2645 15.625 17.1875C15.625 16.6481 15.1878 16.2109 14.6484 16.2109C14.1091 16.2109 13.6719 16.6481 13.6719 17.1875C13.6719 18.2645 12.7957 19.1406 11.7188 19.1406H6.83594C6.83594 14.8328 10.3406 11.3281 14.6484 11.3281ZM7.29453 27.6035C7.15635 27.2137 6.78769 26.9531 6.37402 26.9531H5.85938C4.78242 26.9531 3.90625 26.077 3.90625 25C3.90625 23.923 4.78242 23.0469 5.85938 23.0469C6.39873 23.0469 6.83594 22.6097 6.83594 22.0703V21.0938H11.7188C12.8842 21.0938 13.9321 20.5807 14.6484 19.7686C15.3647 20.5807 16.4127 21.0938 17.5781 21.0938H22.4609V22.0703C22.4609 22.6097 22.8981 23.0469 23.4375 23.0469C24.5145 23.0469 25.3906 23.923 25.3906 25C25.3906 26.077 24.5145 26.9531 23.4375 26.9531H22.9229C22.5093 26.9531 22.1405 27.2137 22.0023 27.6035C21.2079 29.8455 19.4768 31.5823 17.2527 32.3683C16.8625 32.5062 16.6016 32.8751 16.6016 33.2891V36.7188C16.6016 37.7957 15.7254 38.6719 14.6484 38.6719C13.5715 38.6719 12.6953 37.7957 12.6953 36.7188V33.2891C12.6953 32.8752 12.4344 32.5062 12.0441 32.3683C9.82012 31.5823 8.08896 29.8456 7.29453 27.6035ZM23.4375 41.6016C22.8981 41.6016 22.4609 42.0388 22.4609 42.5781V48.0469H7.8125V45.5078C7.8125 44.9685 7.37529 44.5312 6.83594 44.5312C6.29658 44.5312 5.85938 44.9685 5.85938 45.5078V48.0469H1.95312V42.5781C1.95312 39.8857 4.14355 37.6953 6.83594 37.6953H10.8658C11.3006 39.3782 12.8316 40.625 14.6484 40.625C16.4652 40.625 17.9963 39.3782 18.4311 37.6953H28.9062V41.6016H23.4375ZM37.6953 31.8359V36.7188C37.6953 39.4111 35.5049 41.6016 32.8125 41.6016H30.8594V37.6953H32.8125C33.3519 37.6953 33.7891 37.2581 33.7891 36.7188V31.8359C33.7891 30.759 34.6652 29.8828 35.7422 29.8828C36.8191 29.8828 37.6953 30.759 37.6953 31.8359ZM34.7656 28.0533C33.0827 28.4881 31.8359 30.0191 31.8359 31.8359V35.7422H18.5547V33.9532C20.8121 32.9693 22.6006 31.1752 23.5883 28.9034C25.6726 28.8239 27.3438 27.1034 27.3438 25C27.3438 24.2889 27.1521 23.6219 26.8186 23.0469H34.7656V28.0533Z" fill="white"/>
</svg>
