<svg width="50" height="50" viewBox="0 0 50 50" fill="none" xmlns="http://www.w3.org/2000/svg">
<path d="M46.0938 1.5625H3.90625C2.87063 1.56374 1.87778 1.97569 1.14548 2.70798C0.413189 3.44028 0.00124051 4.43313 0 5.46875L0 36.7188C0.00124051 37.7544 0.413189 38.7472 1.14548 39.4795C1.87778 40.2118 2.87063 40.6238 3.90625 40.625H12.5C12.7072 40.625 12.9059 40.5427 13.0524 40.3962C13.1989 40.2497 13.2812 40.0509 13.2812 39.8438C13.2812 39.6366 13.1989 39.4378 13.0524 39.2913C12.9059 39.1448 12.7072 39.0625 12.5 39.0625H3.90625C3.28465 39.0625 2.68851 38.8156 2.24897 38.376C1.80943 37.9365 1.5625 37.3404 1.5625 36.7188V12.5H14.8438C15.7439 12.499 16.6163 12.1876 17.3136 11.6184C18.011 11.0491 18.4907 10.2568 18.6719 9.375H48.4375V36.7188C48.4375 37.3404 48.1906 37.9365 47.751 38.376C47.3115 38.8156 46.7154 39.0625 46.0938 39.0625H37.5C37.2928 39.0625 37.0941 39.1448 36.9476 39.2913C36.8011 39.4378 36.7188 39.6366 36.7188 39.8438C36.7188 40.0509 36.8011 40.2497 36.9476 40.3962C37.0941 40.5427 37.2928 40.625 37.5 40.625H46.0938C47.1294 40.6238 48.1222 40.2118 48.8545 39.4795C49.5868 38.7472 49.9988 37.7544 50 36.7188V5.46875C49.9988 4.43313 49.5868 3.44028 48.8545 2.70798C48.1222 1.97569 47.1294 1.56374 46.0938 1.5625ZM17.9688 7.8125C17.7615 7.8125 17.5628 7.89481 17.4163 8.04132C17.2698 8.18784 17.1875 8.38655 17.1875 8.59375C17.1875 9.21535 16.9406 9.81149 16.501 10.251C16.0615 10.6906 15.4654 10.9375 14.8438 10.9375H1.5625V5.46875C1.5625 4.84715 1.80943 4.25101 2.24897 3.81147C2.68851 3.37193 3.28465 3.125 3.90625 3.125H46.0938C46.7154 3.125 47.3115 3.37193 47.751 3.81147C48.1906 4.25101 48.4375 4.84715 48.4375 5.46875V7.8125H17.9688Z" fill="white"/>
<path d="M5.46875 7.8125H3.90625C3.69905 7.8125 3.50034 7.89481 3.35382 8.04132C3.20731 8.18784 3.125 8.38655 3.125 8.59375C3.125 8.80095 3.20731 8.99966 3.35382 9.14618C3.50034 9.29269 3.69905 9.375 3.90625 9.375H5.46875C5.67595 9.375 5.87466 9.29269 6.02118 9.14618C6.16769 8.99966 6.25 8.80095 6.25 8.59375C6.25 8.38655 6.16769 8.18784 6.02118 8.04132C5.87466 7.89481 5.67595 7.8125 5.46875 7.8125Z" fill="white"/>
<path d="M10.1562 7.8125H8.59375C8.38655 7.8125 8.18784 7.89481 8.04132 8.04132C7.89481 8.18784 7.8125 8.38655 7.8125 8.59375C7.8125 8.80095 7.89481 8.99966 8.04132 9.14618C8.18784 9.29269 8.38655 9.375 8.59375 9.375H10.1562C10.3635 9.375 10.5622 9.29269 10.7087 9.14618C10.8552 8.99966 10.9375 8.80095 10.9375 8.59375C10.9375 8.38655 10.8552 8.18784 10.7087 8.04132C10.5622 7.89481 10.3635 7.8125 10.1562 7.8125Z" fill="white"/>
<path d="M14.8438 7.8125H13.2812C13.074 7.8125 12.8753 7.89481 12.7288 8.04132C12.5823 8.18784 12.5 8.38655 12.5 8.59375C12.5 8.80095 12.5823 8.99966 12.7288 9.14618C12.8753 9.29269 13.074 9.375 13.2812 9.375H14.8438C15.051 9.375 15.2497 9.29269 15.3962 9.14618C15.5427 8.99966 15.625 8.80095 15.625 8.59375C15.625 8.38655 15.5427 8.18784 15.3962 8.04132C15.2497 7.89481 15.051 7.8125 14.8438 7.8125Z" fill="white"/>
<path d="M46.0938 4.6875H43.75C43.5428 4.6875 43.3441 4.76981 43.1976 4.91632C43.0511 5.06284 42.9688 5.26155 42.9688 5.46875C42.9688 5.67595 43.0511 5.87466 43.1976 6.02118C43.3441 6.16769 43.5428 6.25 43.75 6.25H46.0938C46.301 6.25 46.4997 6.16769 46.6462 6.02118C46.7927 5.87466 46.875 5.67595 46.875 5.46875C46.875 5.26155 46.7927 5.06284 46.6462 4.91632C46.4997 4.76981 46.301 4.6875 46.0938 4.6875Z" fill="white"/>
<path d="M40.625 4.6875H25.7812C25.574 4.6875 25.3753 4.76981 25.2288 4.91632C25.0823 5.06284 25 5.26155 25 5.46875C25 5.67595 25.0823 5.87466 25.2288 6.02118C25.3753 6.16769 25.574 6.25 25.7812 6.25H40.625C40.8322 6.25 41.0309 6.16769 41.1774 6.02118C41.3239 5.87466 41.4062 5.67595 41.4062 5.46875C41.4062 5.26155 41.3239 5.06284 41.1774 4.91632C41.0309 4.76981 40.8322 4.6875 40.625 4.6875Z" fill="white"/>
<path d="M32.8125 28.2031V22.6562C32.8125 20.5842 31.9894 18.5971 30.5243 17.132C29.0591 15.6669 27.072 14.8438 25 14.8438C22.928 14.8438 20.9409 15.6669 19.4757 17.132C18.0106 18.5971 17.1875 20.5842 17.1875 22.6562V28.2031C16.3058 28.3844 15.5136 28.8642 14.9443 29.5615C14.3751 30.2588 14.0636 31.1311 14.0625 32.0312V44.5312C14.0637 45.5669 14.4757 46.5597 15.208 47.292C15.9403 48.0243 16.9331 48.4363 17.9688 48.4375H32.0312C33.0669 48.4363 34.0597 48.0243 34.792 47.292C35.5243 46.5597 35.9363 45.5669 35.9375 44.5312V32.0312C35.9364 31.1311 35.6249 30.2588 35.0557 29.5615C34.4864 28.8642 33.6942 28.3844 32.8125 28.2031ZM18.75 22.6562C18.75 20.9986 19.4085 19.4089 20.5806 18.2368C21.7527 17.0647 23.3424 16.4062 25 16.4062C26.6576 16.4062 28.2473 17.0647 29.4194 18.2368C30.5915 19.4089 31.25 20.9986 31.25 22.6562V28.125H28.9062V22.6562C28.9062 21.6202 28.4947 20.6267 27.7621 19.8941C27.0296 19.1616 26.036 18.75 25 18.75C23.964 18.75 22.9704 19.1616 22.2379 19.8941C21.5053 20.6267 21.0938 21.6202 21.0938 22.6562V28.125H18.75V22.6562ZM22.6562 28.125V22.6562C22.6562 22.0346 22.9032 21.4385 23.3427 20.999C23.7823 20.5594 24.3784 20.3125 25 20.3125C25.6216 20.3125 26.2177 20.5594 26.6573 20.999C27.0968 21.4385 27.3438 22.0346 27.3438 22.6562V28.125H22.6562ZM34.375 44.5312C34.375 45.1529 34.1281 45.749 33.6885 46.1885C33.249 46.6281 32.6529 46.875 32.0312 46.875H17.9688C17.3471 46.875 16.751 46.6281 16.3115 46.1885C15.8719 45.749 15.625 45.1529 15.625 44.5312V32.0312C15.625 31.4096 15.8719 30.8135 16.3115 30.374C16.751 29.9344 17.3471 29.6875 17.9688 29.6875H32.0312C32.6529 29.6875 33.249 29.9344 33.6885 30.374C34.1281 30.8135 34.375 31.4096 34.375 32.0312V44.5312Z" fill="white"/>
<path d="M27.6853 38.5844C28.073 38.1262 28.3367 37.5762 28.451 36.987C28.5654 36.3977 28.5266 35.7891 28.3385 35.2191C28.1504 34.6491 27.8191 34.137 27.3765 33.7316C26.9339 33.3263 26.3946 33.0413 25.8103 32.9039C25.2909 32.7831 24.751 32.7811 24.2307 32.8981C23.7104 33.0151 23.2233 33.2481 22.8057 33.5797C22.4389 33.8714 22.1345 34.2337 21.9105 34.6453C21.6864 35.0568 21.5473 35.5092 21.5014 35.9755C21.4555 36.4419 21.5037 36.9127 21.6432 37.36C21.7827 37.8073 22.0106 38.2221 22.3135 38.5797L21.4064 41.7578C21.3399 41.9906 21.3283 42.2356 21.3726 42.4736C21.4169 42.7116 21.516 42.936 21.6619 43.1292C21.8078 43.3224 21.9966 43.479 22.2134 43.5868C22.4302 43.6945 22.669 43.7504 22.9111 43.75H27.0892C27.3313 43.7504 27.5702 43.6945 27.787 43.5868C28.0038 43.479 28.1926 43.3224 28.3385 43.1292C28.4844 42.936 28.5834 42.7116 28.6278 42.4736C28.6721 42.2356 28.6605 41.9906 28.5939 41.7578L27.6853 38.5844ZM22.9111 42.1875L23.9424 38.5781C23.9825 38.4365 23.9818 38.2864 23.9403 38.1451C23.8989 38.0038 23.8183 37.8772 23.708 37.7797C23.5004 37.5991 23.334 37.376 23.22 37.1256C23.106 36.8752 23.047 36.6033 23.0471 36.3281C23.0464 36.0346 23.1121 35.7446 23.2395 35.4801C23.3668 35.2156 23.5523 34.9834 23.7822 34.8008C24.0162 34.6146 24.2897 34.4842 24.5817 34.4196C24.8737 34.355 25.1766 34.3579 25.4674 34.4281C25.8135 34.5119 26.13 34.6891 26.3823 34.9405C26.6346 35.1919 26.8129 35.5077 26.8979 35.8536C26.9829 36.1995 26.9712 36.562 26.8641 36.9017C26.7571 37.2413 26.5587 37.5451 26.2908 37.7797C26.1805 37.8772 26.0999 38.0038 26.0585 38.1451C26.017 38.2864 26.0163 38.4365 26.0564 38.5781L27.0892 42.1875H22.9111Z" fill="white"/>
</svg>
