<svg width="210" height="60" viewBox="0 0 210 60" fill="none" xmlns="http://www.w3.org/2000/svg">
<rect width="210" height="60" rx="8" fill="#1A064F"/>
<path d="M74.054 24C75.398 24 76.462 23.552 77.232 22.656C78.002 21.746 78.394 20.598 78.394 19.198C78.394 17.784 78.002 16.636 77.218 15.726C76.448 14.816 75.384 14.354 74.054 14.354H70.316V24H74.054ZM71.618 15.572H74.054C75.02 15.572 75.776 15.908 76.294 16.594C76.826 17.266 77.092 18.134 77.092 19.198C77.092 20.248 76.826 21.116 76.294 21.788C75.776 22.446 75.02 22.782 74.054 22.782H71.618V15.572ZM79.7609 20.71C79.7609 21.732 80.0969 22.558 80.7549 23.188C81.4129 23.818 82.2249 24.14 83.1769 24.14C84.1289 24.14 84.9409 23.818 85.5989 23.188C86.2709 22.544 86.6069 21.718 86.6069 20.71C86.6069 19.702 86.2709 18.89 85.6129 18.26C84.9549 17.63 84.1429 17.322 83.1769 17.322C82.2109 17.322 81.3989 17.63 80.7409 18.26C80.0829 18.89 79.7609 19.702 79.7609 20.71ZM85.3329 20.71C85.3329 21.368 85.1229 21.9 84.7029 22.306C84.2969 22.712 83.7789 22.908 83.1769 22.908C82.5749 22.908 82.0569 22.712 81.6369 22.306C81.2309 21.9 81.0209 21.368 81.0209 20.71C81.0209 20.066 81.2309 19.548 81.6369 19.156C82.0569 18.764 82.5749 18.568 83.1769 18.568C83.7789 18.568 84.2969 18.764 84.7029 19.156C85.1229 19.548 85.3329 20.066 85.3329 20.71ZM97.8812 17.462H96.5232L94.8852 22.04L93.2472 17.462H92.0152L90.3772 22.04L88.7392 17.462H87.3812L89.8732 24H90.9092L92.6312 19.198L94.4092 24H95.4592L97.8812 17.462ZM100.514 20.472C100.514 19.184 101.34 18.568 102.362 18.568C103.258 18.568 103.804 19.226 103.804 20.304V24H105.078V20.22C105.078 18.372 104.182 17.322 102.558 17.322C101.76 17.322 100.892 17.714 100.514 18.442V17.462H99.2398V24H100.514V20.472ZM107.128 24H108.402V13.906H107.128V24ZM110.099 20.71C110.099 21.732 110.435 22.558 111.093 23.188C111.751 23.818 112.563 24.14 113.515 24.14C114.467 24.14 115.279 23.818 115.937 23.188C116.609 22.544 116.945 21.718 116.945 20.71C116.945 19.702 116.609 18.89 115.951 18.26C115.293 17.63 114.481 17.322 113.515 17.322C112.549 17.322 111.737 17.63 111.079 18.26C110.421 18.89 110.099 19.702 110.099 20.71ZM115.671 20.71C115.671 21.368 115.461 21.9 115.041 22.306C114.635 22.712 114.117 22.908 113.515 22.908C112.913 22.908 112.395 22.712 111.975 22.306C111.569 21.9 111.359 21.368 111.359 20.71C111.359 20.066 111.569 19.548 111.975 19.156C112.395 18.764 112.913 18.568 113.515 18.568C114.117 18.568 114.635 18.764 115.041 19.156C115.461 19.548 115.671 20.066 115.671 20.71ZM125.08 24V17.462H123.82V18.442C123.414 17.728 122.476 17.322 121.524 17.322C120.6 17.322 119.816 17.63 119.172 18.26C118.528 18.89 118.206 19.702 118.206 20.724C118.206 21.732 118.528 22.558 119.172 23.188C119.816 23.818 120.6 24.14 121.524 24.14C122.476 24.14 123.386 23.72 123.82 22.992V24H125.08ZM123.806 20.71C123.806 21.382 123.596 21.914 123.176 22.306C122.756 22.698 122.238 22.894 121.636 22.894C121.034 22.894 120.53 22.684 120.124 22.278C119.718 21.872 119.508 21.34 119.508 20.71C119.508 20.08 119.704 19.562 120.11 19.17C120.516 18.764 121.034 18.568 121.636 18.568C122.21 18.568 122.714 18.764 123.148 19.142C123.582 19.52 123.806 20.052 123.806 20.71ZM133.652 24V13.906H132.378V18.442C131.944 17.714 131.062 17.322 130.068 17.322C129.144 17.322 128.36 17.63 127.73 18.26C127.1 18.89 126.778 19.702 126.778 20.724C126.778 21.732 127.1 22.558 127.73 23.188C128.374 23.818 129.158 24.14 130.082 24.14C131.034 24.14 131.944 23.72 132.378 22.992V24H133.652ZM130.194 18.568C130.768 18.568 131.272 18.764 131.706 19.142C132.14 19.52 132.364 20.052 132.364 20.71C132.364 21.368 132.154 21.9 131.72 22.306C131.3 22.698 130.796 22.894 130.194 22.894C129.592 22.894 129.088 22.684 128.682 22.278C128.276 21.872 128.08 21.34 128.08 20.71C128.08 20.08 128.276 19.562 128.682 19.17C129.088 18.764 129.592 18.568 130.194 18.568ZM138.987 20.71C138.987 21.732 139.323 22.558 139.981 23.188C140.639 23.818 141.451 24.14 142.403 24.14C143.355 24.14 144.167 23.818 144.825 23.188C145.497 22.544 145.833 21.718 145.833 20.71C145.833 19.702 145.497 18.89 144.839 18.26C144.181 17.63 143.369 17.322 142.403 17.322C141.437 17.322 140.625 17.63 139.967 18.26C139.309 18.89 138.987 19.702 138.987 20.71ZM144.559 20.71C144.559 21.368 144.349 21.9 143.929 22.306C143.523 22.712 143.005 22.908 142.403 22.908C141.801 22.908 141.283 22.712 140.863 22.306C140.457 21.9 140.247 21.368 140.247 20.71C140.247 20.066 140.457 19.548 140.863 19.156C141.283 18.764 141.801 18.568 142.403 18.568C143.005 18.568 143.523 18.764 143.929 19.156C144.349 19.548 144.559 20.066 144.559 20.71ZM148.803 20.472C148.803 19.184 149.629 18.568 150.651 18.568C151.547 18.568 152.093 19.226 152.093 20.304V24H153.367V20.22C153.367 18.372 152.471 17.322 150.847 17.322C150.049 17.322 149.181 17.714 148.803 18.442V17.462H147.529V24H148.803V20.472ZM160.654 14.998H159.38V17.462H158.204V18.54H159.38V24H160.654V18.54H162.04V17.462H160.654V14.998ZM164.758 20.472C164.758 19.828 164.954 19.352 165.36 19.044C165.766 18.722 166.228 18.568 166.746 18.568C167.656 18.568 168.286 19.24 168.286 20.304V24H169.56V20.22C169.574 18.386 168.552 17.322 166.914 17.322C166.508 17.322 166.088 17.42 165.654 17.616C165.234 17.798 164.94 18.078 164.758 18.442V13.906H163.484V24H164.758V20.472ZM172.445 20.22C172.599 19.142 173.411 18.47 174.517 18.47C175.581 18.47 176.351 19.142 176.505 20.22H172.445ZM177.765 20.71C177.765 19.688 177.457 18.876 176.841 18.26C176.239 17.63 175.455 17.322 174.517 17.322C173.565 17.322 172.767 17.63 172.123 18.26C171.493 18.876 171.171 19.688 171.171 20.71C171.171 21.732 171.493 22.558 172.123 23.188C172.767 23.818 173.565 24.14 174.517 24.14C175.819 24.14 176.981 23.524 177.527 22.404L176.995 22.208C176.743 22.11 176.561 22.026 176.435 21.984C176.085 22.614 175.357 22.992 174.559 22.992C173.439 22.992 172.599 22.292 172.445 21.214H177.751C177.765 21.116 177.765 20.948 177.765 20.71Z" fill="white"/>
<path d="M46.3203 37.6261C45.3326 37.3248 44.4453 36.6217 43.6752 35.5167C42.9051 34.4118 42.5201 33.1562 42.5201 31.7835C42.5201 30.5112 42.8884 29.356 43.6083 28.3181C44.01 27.7321 44.6462 27.0792 45.5167 26.3426C44.9475 25.6395 44.3616 25.0703 43.7757 24.6685C42.7377 23.9487 41.5491 23.5804 40.2098 23.5804C39.3895 23.5804 38.4185 23.7812 37.3136 24.1496C36.2087 24.5346 35.4051 24.7188 34.9196 24.7188C34.5346 24.7188 33.7645 24.5513 32.6094 24.2165C31.4375 23.8817 30.4665 23.7143 29.6462 23.7143C27.721 23.7143 26.1473 24.5179 24.8917 26.125C23.6362 27.7489 23 29.8248 23 32.3862C23 35.1317 23.8371 37.9275 25.4609 40.8069C27.1183 43.6864 28.7757 45.1429 30.5 45.1429C31.0525 45.1429 31.7891 44.9587 32.7098 44.5737C33.6138 44.2054 34.4174 44.0212 35.0871 44.0212C35.7734 44.0212 36.6272 44.1886 37.615 44.5569C38.6194 44.9085 39.3895 45.0926 39.9587 45.0926C41.3817 45.0926 42.8214 44.0045 44.2612 41.8114C45.2321 40.3549 45.9018 38.9487 46.3203 37.6261ZM40.0257 17.9888C40.0257 17.8717 40.0089 17.7712 40.0089 17.654C39.9922 17.5536 39.9587 17.4364 39.9252 17.2857C37.9833 17.7377 36.577 18.558 35.74 19.7634C34.9029 20.9687 34.4676 22.4085 34.4342 24.0658C35.221 23.9989 35.7902 23.8984 36.1752 23.7812C36.7779 23.5804 37.3806 23.1786 37.9833 22.5759C38.6864 21.8728 39.2054 21.1027 39.5402 20.2656C39.8583 19.4453 40.0257 18.6752 40.0257 17.9888Z" fill="white"/>
<path d="M79.256 44L75.096 32.976H73.256L69.096 44H70.904L71.96 41.248H76.408L77.464 44H79.256ZM75.832 39.728H72.536L74.184 35.104L75.832 39.728ZM80.5114 36.528V47.632H82.1594V42.928C82.6074 43.712 83.5834 44.16 84.6554 44.16C85.6954 44.16 86.5594 43.808 87.2794 43.088C87.9994 42.368 88.3674 41.44 88.3674 40.272C88.3674 39.12 87.9994 38.176 87.2794 37.456C86.5594 36.736 85.6954 36.368 84.6554 36.368C83.6314 36.368 82.6074 36.848 82.1594 37.632V36.528H80.5114ZM82.1754 40.304C82.1754 39.6 82.3994 39.04 82.8314 38.608C83.2794 38.176 83.8234 37.968 84.4474 37.968C85.0714 37.968 85.5994 38.192 86.0314 38.624C86.4634 39.056 86.6874 39.616 86.6874 40.304C86.6874 41.648 85.7274 42.576 84.4474 42.576C83.8394 42.576 83.3114 42.368 82.8474 41.968C82.3994 41.552 82.1754 40.992 82.1754 40.304ZM90.2145 36.528V47.632H91.8625V42.928C92.3105 43.712 93.2865 44.16 94.3585 44.16C95.3985 44.16 96.2625 43.808 96.9825 43.088C97.7025 42.368 98.0705 41.44 98.0705 40.272C98.0705 39.12 97.7025 38.176 96.9825 37.456C96.2625 36.736 95.3985 36.368 94.3585 36.368C93.3345 36.368 92.3105 36.848 91.8625 37.632V36.528H90.2145ZM91.8785 40.304C91.8785 39.6 92.1025 39.04 92.5345 38.608C92.9825 38.176 93.5265 37.968 94.1505 37.968C94.7745 37.968 95.3025 38.192 95.7345 38.624C96.1665 39.056 96.3905 39.616 96.3905 40.304C96.3905 41.648 95.4305 42.576 94.1505 42.576C93.5425 42.576 93.0145 42.368 92.5505 41.968C92.1025 41.552 91.8785 40.992 91.8785 40.304ZM101.566 44V32.464H99.9176V44H101.566ZM110.975 40.24C110.975 39.072 110.623 38.144 109.919 37.44C109.215 36.72 108.319 36.368 107.231 36.368C106.143 36.368 105.231 36.72 104.495 37.44C103.759 38.144 103.391 39.072 103.391 40.24C103.391 41.408 103.759 42.352 104.495 43.072C105.231 43.792 106.143 44.16 107.231 44.16C108.719 44.16 110.047 43.504 110.687 42.24L109.343 41.648C108.959 42.336 108.159 42.72 107.311 42.72C106.095 42.72 105.167 42 105.023 40.848H110.959C110.975 40.736 110.975 40.544 110.975 40.24ZM105.023 39.648C105.167 38.512 106.063 37.808 107.231 37.808C108.367 37.808 109.215 38.496 109.359 39.648H105.023ZM116.425 40.8C116.425 41.712 116.793 42.512 117.529 43.168C118.265 43.824 119.193 44.16 120.313 44.16C121.353 44.16 122.217 43.888 122.905 43.344C123.593 42.784 123.993 42.08 124.073 41.2C124.249 39.584 123.273 38.352 121.097 37.776L119.689 37.408C118.713 37.152 118.217 36.672 118.217 35.968C118.217 35.072 119.081 34.448 120.121 34.448C121.273 34.448 122.041 35.104 122.041 36.112H123.737C123.737 35.12 123.401 34.336 122.713 33.744C122.041 33.152 121.193 32.848 120.153 32.848C119.161 32.848 118.313 33.152 117.593 33.744C116.873 34.336 116.521 35.088 116.521 36C116.521 37.488 117.433 38.464 119.257 38.96L120.649 39.312C121.865 39.6 122.441 40.192 122.393 41.104C122.265 41.952 121.545 42.608 120.313 42.608C119.689 42.608 119.161 42.432 118.761 42.064C118.361 41.696 118.137 41.264 118.121 40.8H116.425ZM126.463 33.696V36.528H125.119V37.888H126.463V44H128.111V37.888H129.695V36.528H128.111V33.696H126.463ZM134.544 42.56C133.92 42.56 133.376 42.352 132.944 41.92C132.512 41.488 132.288 40.928 132.288 40.24C132.288 39.568 132.512 39.024 132.944 38.608C133.376 38.192 133.92 37.984 134.544 37.984C135.824 37.984 136.816 38.896 136.816 40.24C136.816 40.928 136.592 41.488 136.16 41.92C135.728 42.352 135.184 42.56 134.544 42.56ZM134.544 36.368C133.456 36.368 132.528 36.72 131.776 37.44C131.024 38.16 130.656 39.088 130.656 40.24C130.656 41.392 131.024 42.336 131.776 43.072C132.528 43.792 133.456 44.16 134.544 44.16C135.632 44.16 136.56 43.792 137.312 43.072C138.08 42.336 138.464 41.392 138.464 40.24C138.464 39.088 138.08 38.16 137.328 37.44C136.576 36.72 135.648 36.368 134.544 36.368ZM141.941 41.312C141.941 39.216 142.597 37.92 143.941 37.92C144.341 37.92 144.709 38 145.045 38.176L145.317 36.656C145.029 36.464 144.581 36.368 143.989 36.368C142.981 36.368 142.309 36.992 141.941 38.24V36.528H140.293V44H141.941V41.312ZM153.631 40.24C153.631 39.072 153.279 38.144 152.575 37.44C151.871 36.72 150.975 36.368 149.887 36.368C148.799 36.368 147.887 36.72 147.151 37.44C146.415 38.144 146.047 39.072 146.047 40.24C146.047 41.408 146.415 42.352 147.151 43.072C147.887 43.792 148.799 44.16 149.887 44.16C151.375 44.16 152.703 43.504 153.343 42.24L151.999 41.648C151.615 42.336 150.815 42.72 149.967 42.72C148.751 42.72 147.823 42 147.679 40.848H153.615C153.631 40.736 153.631 40.544 153.631 40.24ZM147.679 39.648C147.823 38.512 148.719 37.808 149.887 37.808C151.023 37.808 151.871 38.496 152.015 39.648H147.679Z" fill="white"/>
</svg>
