<svg width="190" height="60" viewBox="0 0 190 60" fill="none" xmlns="http://www.w3.org/2000/svg">
<rect width="190" height="60" rx="8" fill="#1A064F"/>
<path d="M74.82 16.516C73.91 15.662 72.818 15.242 71.558 15.242C70.2 15.242 69.038 15.718 68.1 16.684C67.162 17.65 66.686 18.812 66.686 20.198C66.686 21.57 67.162 22.732 68.1 23.698C69.038 24.664 70.2 25.14 71.558 25.14C74.4 25.14 76.122 23.46 76.122 20.156H71.894V21.29H74.638C74.596 22.088 74.302 22.718 73.728 23.194C73.154 23.656 72.44 23.894 71.558 23.894C70.564 23.894 69.71 23.53 69.024 22.816C68.338 22.102 67.988 21.22 67.988 20.198C67.988 19.176 68.338 18.294 69.024 17.58C69.71 16.852 70.564 16.488 71.558 16.488C72.44 16.488 73.21 16.782 73.882 17.384L74.82 16.516ZM78.486 21.22C78.64 20.142 79.452 19.47 80.558 19.47C81.622 19.47 82.392 20.142 82.546 21.22H78.486ZM83.806 21.71C83.806 20.688 83.498 19.876 82.882 19.26C82.28 18.63 81.496 18.322 80.558 18.322C79.606 18.322 78.808 18.63 78.164 19.26C77.534 19.876 77.212 20.688 77.212 21.71C77.212 22.732 77.534 23.558 78.164 24.188C78.808 24.818 79.606 25.14 80.558 25.14C81.86 25.14 83.022 24.524 83.568 23.404L83.036 23.208C82.784 23.11 82.602 23.026 82.476 22.984C82.126 23.614 81.398 23.992 80.6 23.992C79.48 23.992 78.64 23.292 78.486 22.214H83.792C83.806 22.116 83.806 21.948 83.806 21.71ZM87.1893 15.998H85.9153V18.462H84.7393V19.54H85.9153V25H87.1893V19.54H88.5753V18.462H87.1893V15.998ZM94.656 25V18.462H93.396V25H94.656ZM93.396 16.642C93.746 16.964 94.306 16.964 94.642 16.642C94.992 16.32 94.992 15.788 94.642 15.466C94.306 15.144 93.746 15.144 93.396 15.466C93.06 15.788 93.06 16.32 93.396 16.642ZM98.0607 21.472C98.0607 20.184 98.8867 19.568 99.9087 19.568C100.805 19.568 101.351 20.226 101.351 21.304V25H102.625V21.22C102.625 19.372 101.729 18.322 100.105 18.322C99.3067 18.322 98.4387 18.714 98.0607 19.442V18.462H96.7867V25H98.0607V21.472ZM107.878 21.71C107.878 22.732 108.214 23.558 108.872 24.188C109.53 24.818 110.342 25.14 111.294 25.14C112.246 25.14 113.058 24.818 113.716 24.188C114.388 23.544 114.724 22.718 114.724 21.71C114.724 20.702 114.388 19.89 113.73 19.26C113.072 18.63 112.26 18.322 111.294 18.322C110.328 18.322 109.516 18.63 108.858 19.26C108.2 19.89 107.878 20.702 107.878 21.71ZM113.45 21.71C113.45 22.368 113.24 22.9 112.82 23.306C112.414 23.712 111.896 23.908 111.294 23.908C110.692 23.908 110.174 23.712 109.754 23.306C109.348 22.9 109.138 22.368 109.138 21.71C109.138 21.066 109.348 20.548 109.754 20.156C110.174 19.764 110.692 19.568 111.294 19.568C111.896 19.568 112.414 19.764 112.82 20.156C113.24 20.548 113.45 21.066 113.45 21.71ZM117.693 21.472C117.693 20.184 118.519 19.568 119.541 19.568C120.437 19.568 120.983 20.226 120.983 21.304V25H122.257V21.22C122.257 19.372 121.361 18.322 119.737 18.322C118.939 18.322 118.071 18.714 117.693 19.442V18.462H116.419V25H117.693V21.472Z" fill="white"/>
<path d="M35.8691 31.5508L25.127 20.7598L38.7988 28.6211L35.8691 31.5508ZM22.2949 20.125C21.5788 20.4831 21.2207 21.0527 21.2207 21.834V43.416C21.2207 44.1973 21.5788 44.7669 22.2949 45.125L34.8438 32.625L22.2949 20.125ZM43.0469 31.1602L40.166 29.4512L36.9922 32.625L40.166 35.75L43.0957 34.0898C43.5514 33.7643 43.763 33.276 43.7305 32.625C43.7305 31.974 43.5026 31.4857 43.0469 31.1602ZM25.127 44.4902L38.7988 36.6289L35.8691 33.6992L25.127 44.4902Z" fill="white"/>
<path d="M76.176 35.4C75.136 34.36 73.856 33.848 72.336 33.848C70.768 33.848 69.44 34.408 68.368 35.512C67.296 36.616 66.752 37.944 66.752 39.512C66.752 41.08 67.296 42.408 68.368 43.512C69.456 44.616 70.784 45.16 72.336 45.16C75.6 45.16 77.6 43.224 77.6 39.4H72.56V40.856H75.648C75.6 41.672 75.264 42.328 74.64 42.824C74.016 43.32 73.248 43.56 72.336 43.56C71.248 43.56 70.32 43.16 69.568 42.376C68.816 41.592 68.448 40.632 68.448 39.512C68.448 38.392 68.816 37.432 69.568 36.648C70.32 35.864 71.248 35.464 72.336 35.464C73.344 35.464 74.208 35.816 74.928 36.504L76.176 35.4ZM82.6381 43.56C82.0141 43.56 81.4701 43.352 81.0381 42.92C80.6061 42.488 80.3821 41.928 80.3821 41.24C80.3821 40.568 80.6061 40.024 81.0381 39.608C81.4701 39.192 82.0141 38.984 82.6381 38.984C83.9181 38.984 84.9101 39.896 84.9101 41.24C84.9101 41.928 84.6861 42.488 84.2541 42.92C83.8221 43.352 83.2781 43.56 82.6381 43.56ZM82.6381 37.368C81.5501 37.368 80.6221 37.72 79.8701 38.44C79.1181 39.16 78.7501 40.088 78.7501 41.24C78.7501 42.392 79.1181 43.336 79.8701 44.072C80.6221 44.792 81.5501 45.16 82.6381 45.16C83.7261 45.16 84.6541 44.792 85.4061 44.072C86.1741 43.336 86.5581 42.392 86.5581 41.24C86.5581 40.088 86.1741 39.16 85.4221 38.44C84.6701 37.72 83.7421 37.368 82.6381 37.368ZM91.7944 43.56C91.1704 43.56 90.6264 43.352 90.1944 42.92C89.7624 42.488 89.5384 41.928 89.5384 41.24C89.5384 40.568 89.7624 40.024 90.1944 39.608C90.6264 39.192 91.1704 38.984 91.7944 38.984C93.0744 38.984 94.0664 39.896 94.0664 41.24C94.0664 41.928 93.8424 42.488 93.4104 42.92C92.9784 43.352 92.4344 43.56 91.7944 43.56ZM91.7944 37.368C90.7064 37.368 89.7784 37.72 89.0264 38.44C88.2744 39.16 87.9064 40.088 87.9064 41.24C87.9064 42.392 88.2744 43.336 89.0264 44.072C89.7784 44.792 90.7064 45.16 91.7944 45.16C92.8824 45.16 93.8104 44.792 94.5624 44.072C95.3304 43.336 95.7144 42.392 95.7144 41.24C95.7144 40.088 95.3304 39.16 94.5784 38.44C93.8264 37.72 92.8984 37.368 91.7944 37.368ZM103.351 41.272C103.351 41.96 103.111 42.52 102.647 42.952C102.183 43.368 101.639 43.576 101.047 43.576C100.407 43.576 99.8626 43.368 99.4306 42.936C98.9986 42.504 98.7746 41.96 98.7746 41.272C98.7746 40.6 98.9986 40.056 99.4306 39.624C99.8626 39.192 100.407 38.968 101.047 38.968C102.343 38.968 103.351 39.848 103.351 41.272ZM98.1026 46.28L97.4306 46.632C98.1346 47.96 99.4306 48.728 100.887 48.728C103.623 48.728 104.999 47.112 104.999 43.896V37.528H103.383V38.632C102.935 37.848 101.895 37.368 100.855 37.368C99.8146 37.368 98.9186 37.736 98.1826 38.456C97.4466 39.176 97.0786 40.12 97.0786 41.288C97.0786 42.44 97.4466 43.368 98.1826 44.088C98.9186 44.808 99.8146 45.16 100.855 45.16C101.895 45.16 102.951 44.68 103.383 43.864V44.248C103.383 46.216 102.551 47.192 100.887 47.192C100.055 47.192 99.1746 46.712 98.7906 45.944L98.1026 46.28ZM108.956 45V33.464H107.308V45H108.956ZM118.365 41.24C118.365 40.072 118.013 39.144 117.309 38.44C116.605 37.72 115.709 37.368 114.621 37.368C113.533 37.368 112.621 37.72 111.885 38.44C111.149 39.144 110.781 40.072 110.781 41.24C110.781 42.408 111.149 43.352 111.885 44.072C112.621 44.792 113.533 45.16 114.621 45.16C116.109 45.16 117.437 44.504 118.077 43.24L116.733 42.648C116.349 43.336 115.549 43.72 114.701 43.72C113.485 43.72 112.557 43 112.413 41.848H118.349C118.365 41.736 118.365 41.544 118.365 41.24ZM112.413 40.648C112.557 39.512 113.453 38.808 114.621 38.808C115.757 38.808 116.605 39.496 116.749 40.648H112.413ZM128.856 35.544C131.096 35.448 131.144 39.512 128.792 39.4H126.168V35.544H128.856ZM126.168 45V40.952H128.888C130.008 40.952 130.84 40.616 131.4 39.944C131.96 39.272 132.248 38.456 132.248 37.48C132.248 36.504 131.96 35.688 131.4 35C130.84 34.312 129.992 33.976 128.888 33.976H124.456V45H126.168ZM135.534 45V33.464H133.886V45H135.534ZM145.296 45V37.528H143.664V38.584C143.168 37.8 142.128 37.368 141.152 37.368C140.112 37.368 139.216 37.736 138.464 38.456C137.728 39.176 137.36 40.104 137.36 41.256C137.36 42.408 137.728 43.352 138.464 44.072C139.216 44.792 140.112 45.16 141.152 45.16C142.128 45.16 143.2 44.696 143.664 43.928V45H145.296ZM143.648 41.24C143.648 42.648 142.624 43.56 141.344 43.56C140.704 43.56 140.16 43.336 139.712 42.904C139.28 42.472 139.056 41.912 139.056 41.24C139.056 40.568 139.28 40.024 139.712 39.608C140.16 39.176 140.704 38.968 141.344 38.968C141.952 38.968 142.48 39.176 142.944 39.592C143.408 39.992 143.648 40.552 143.648 41.24ZM152.597 37.528L150.501 42.648L148.421 37.528H146.661L149.621 44.648L148.005 48.648H149.733L154.357 37.528H152.597Z" fill="white"/>
</svg>
