<svg width="16" height="16" viewBox="0 0 16 16" fill="none" xmlns="http://www.w3.org/2000/svg">
<path d="M15.5312 15.0625H13.4688V10.4688C13.4688 9.95181 13.0482 9.53125 12.5312 9.53125H11.8343C11.6507 8.73003 11.2851 8.04209 10.7637 7.52528C10.4356 7.2 10.0541 6.95144 9.631 6.78422C10.5378 6.00178 11.1297 4.64916 11.1297 3.42706C11.1297 2.31806 10.8212 1.44766 10.2128 0.840125C9.66244 0.2905 8.89728 0 8 0C7.10275 0 6.33756 0.2905 5.78719 0.840125C5.17878 1.44766 4.87028 2.31806 4.87028 3.42706C4.87028 4.64913 5.46213 6.00178 6.36897 6.78422C5.94591 6.95144 5.56441 7.2 5.23628 7.52528C4.71494 8.04209 4.34934 8.73006 4.16572 9.53125H3.46875C2.95181 9.53125 2.53125 9.95181 2.53125 10.4688V15.0625H0.46875C0.209875 15.0625 0 15.2724 0 15.5312C0 15.7901 0.209875 16 0.46875 16H15.5312C15.7901 16 16 15.7901 16 15.5312C16 15.2724 15.7901 15.0625 15.5312 15.0625ZM8 0.9375C8.68844 0.9375 9.76894 1.16634 10.0955 2.52691C9.61775 2.46616 9.34494 2.33119 9.13141 2.22553C8.92209 2.12197 8.68484 2.00456 8.39531 2.07094C8.16028 2.12481 7.99225 2.25741 7.82978 2.38566C7.53369 2.61938 7.10141 2.95981 5.82469 3.02875C5.98366 1.22053 7.23434 0.9375 8 0.9375ZM5.855 3.96587C7.44709 3.88203 8.04175 3.41275 8.41066 3.12153C8.46406 3.07934 8.53281 3.02513 8.57537 2.99916C8.613 3.01503 8.66853 3.0425 8.71566 3.06581C8.99109 3.20209 9.42356 3.41597 10.191 3.47872C10.1788 4.16894 9.92216 4.93447 9.49809 5.53762C9.06534 6.15319 8.51928 6.50625 8 6.50625C7.48072 6.50625 6.93466 6.15319 6.50187 5.53762C6.17578 5.07378 5.94828 4.51375 5.855 3.96587ZM7.75 7.46875H8.25C9.55087 7.46875 10.4998 8.22937 10.868 9.53125H5.132C5.50019 8.22937 6.44913 7.46875 7.75 7.46875ZM3.46875 15.0625V10.4688H12.5312V15.0625H3.46875Z" fill="#6A7A99"/>
</svg>
