<svg width="12" height="12" viewBox="0 0 12 12" fill="none" xmlns="http://www.w3.org/2000/svg">
<path d="M10.4031 4.6153L3.31559 0.246428C2.80282 -0.0692515 2.18288 -0.0823765 1.6572 0.211319C1.13152 0.504967 0.817688 1.03983 0.817688 1.64197V10.3399C0.817688 11.2504 1.55128 11.995 2.45293 12C2.45539 12 2.45785 12 2.46026 12C2.74203 12 3.03565 11.9116 3.3099 11.7443C3.53051 11.6097 3.60024 11.3217 3.46564 11.1012C3.33104 10.8805 3.04304 10.8108 2.82249 10.9454C2.69422 11.0236 2.56894 11.0641 2.45796 11.0641C2.11777 11.0622 1.75353 10.7708 1.75353 10.3399V1.64199C1.75353 1.38369 1.88815 1.1543 2.11362 1.02833C2.33911 0.90235 2.60501 0.907975 2.82469 1.04323L9.91223 5.4121C10.1253 5.54326 10.2472 5.76195 10.2466 6.01212C10.2461 6.26227 10.1233 6.48048 9.90914 6.61119L4.78482 9.74872C4.56441 9.88367 4.49513 10.1717 4.63009 10.3921C4.76502 10.6125 5.05309 10.6818 5.27349 10.5469L10.3972 7.4097C10.8878 7.11043 11.1813 6.58871 11.1825 6.014C11.1837 5.43936 10.8922 4.91642 10.4031 4.6153Z" fill="#6A7A99"/>
</svg>
