<svg width="80" height="80" viewBox="0 0 80 80" fill="none" xmlns="http://www.w3.org/2000/svg">
<path d="M78.4375 61.405H76.875V22.03C76.875 17.7222 73.3704 14.2175 69.0625 14.2175H64.375V10.2734C64.375 6.93481 61.6589 4.21875 58.3203 4.21875H38.5541C35.2155 4.21875 32.4994 6.93481 32.4994 10.2734V14.2175H10.9375C6.62964 14.2175 3.125 17.7222 3.125 22.03V61.405H1.5625C0.699463 61.405 0 62.1045 0 62.9675C0 70.0323 5.74768 75.78 12.8125 75.78H32.9688C33.8318 75.78 34.5312 75.0806 34.5312 74.2175C34.5312 73.3545 33.8318 72.655 32.9688 72.655H12.8125C8.00293 72.655 4.00024 69.1315 3.25073 64.53H76.7493C75.9998 69.1315 71.9971 72.655 67.1875 72.655H47.0312C46.1682 72.655 45.4688 73.3545 45.4688 74.2175C45.4688 75.0806 46.1682 75.78 47.0312 75.78H67.1875C74.2523 75.78 80 70.0323 80 62.9675C80 62.1045 79.3005 61.405 78.4375 61.405ZM35.6244 10.2734C35.6244 8.65784 36.9385 7.34375 38.5541 7.34375H58.3203C59.9359 7.34375 61.25 8.65784 61.25 10.2734V24.6863C61.25 26.3013 59.9359 27.616 58.3203 27.616H43.6456C43.2312 27.616 42.8339 27.7808 42.5409 28.0737L40.1166 30.4974V29.1785C40.1166 28.316 39.4171 27.616 38.5541 27.616C36.9385 27.616 35.6244 26.3019 35.6244 24.6863V10.2734ZM6.25 22.03C6.25 19.4452 8.35266 17.3425 10.9375 17.3425H32.4994V20.4675H10.9375C10.0745 20.4675 9.375 21.167 9.375 22.03V61.405H6.25V22.03ZM18.8373 61.405V60.4749C18.8373 55.8221 22.6227 52.0374 27.2748 52.0374H27.8998V55.0061C27.8998 55.8685 28.5992 56.5686 29.4623 56.5686C30.3253 56.5686 31.0248 55.8685 31.0248 55.0061V52.0374H31.6498C36.3025 52.0374 40.0873 55.8221 40.0873 60.4749V61.405H18.8373ZM33.5248 44.8499C33.5248 47.0898 31.7023 48.9124 29.4623 48.9124C27.2223 48.9124 25.3998 47.0898 25.3998 44.8499V43.8147C25.3998 41.5741 27.2223 39.7522 29.4623 39.7522C31.7023 39.7522 33.5248 41.5741 33.5248 43.8147V44.8499ZM43.2123 61.405V60.4749C43.2123 55.2679 39.7522 50.8557 35.0116 49.4122C36.0345 48.1702 36.6498 46.5802 36.6498 44.8499V43.8147C36.6498 39.8517 33.4253 36.6272 29.4623 36.6272C25.4993 36.6272 22.2748 39.8517 22.2748 43.8147V44.8499C22.2748 46.5802 22.89 48.1702 23.913 49.4122C19.1718 50.8557 15.7123 55.2679 15.7123 60.4749V61.405H12.5V23.5925H32.4994V24.6863C32.4994 27.4847 34.408 29.8462 36.9916 30.5365V34.2694C36.9916 34.9017 37.3724 35.4712 37.9565 35.7129C38.1494 35.7928 38.3527 35.8319 38.5541 35.8319C38.9606 35.8319 39.3604 35.6732 39.6588 35.3741L44.2926 30.741H58.3203C61.6589 30.741 64.375 28.0249 64.375 24.6863V23.5925H67.5V61.405H43.2123ZM70.625 61.405V22.03C70.625 21.167 69.9255 20.4675 69.0625 20.4675H64.375V17.3425H69.0625C71.6473 17.3425 73.75 19.4452 73.75 22.03V61.405H70.625Z" fill="#00FF84"/>
<path d="M43.4895 67.03H36.5889C35.7258 67.03 35.0264 67.7295 35.0264 68.5925C35.0264 69.4556 35.7258 70.155 36.5889 70.155H43.4895C44.3525 70.155 45.052 69.4556 45.052 68.5925C45.052 67.7295 44.3525 67.03 43.4895 67.03Z" fill="#00FF84"/>
<path d="M44.7795 23.4698C45.2489 23.7408 45.764 23.8763 46.2792 23.8763C46.7943 23.8763 47.3101 23.7408 47.7794 23.4698L53.6547 20.0781C54.594 19.5355 55.1549 18.5645 55.1549 17.4799C55.1549 16.3953 54.594 15.4242 53.6547 14.8816L47.7794 11.4899C46.8401 10.9479 45.7189 10.9479 44.7795 11.4899C43.8402 12.0325 43.2793 13.0035 43.2793 14.0881V20.8716C43.2793 21.9562 43.8402 22.9272 44.7795 23.4698ZM46.4043 14.3042L51.9042 17.4799L46.4043 20.6555V14.3042Z" fill="#00FF84"/>
<path d="M40 72.6556C39.5892 72.6556 39.1858 72.821 38.8953 73.1116C38.6047 73.4039 38.4375 73.8055 38.4375 74.2181C38.4375 74.6289 38.6047 75.0323 38.8953 75.3229C39.1858 75.6134 39.5892 75.7788 40 75.7788C40.4108 75.7788 40.8142 75.6134 41.1047 75.3229C41.3953 75.0305 41.5625 74.6289 41.5625 74.2181C41.5625 73.8074 41.3953 73.4039 41.1047 73.1116C40.8142 72.821 40.4108 72.6556 40 72.6556Z" fill="#00FF84"/>
</svg>
