<svg width="80" height="80" viewBox="0 0 80 80" fill="none" xmlns="http://www.w3.org/2000/svg">
<path d="M23.4476 14.4452C22.9937 13.7114 22.0309 13.4839 21.2968 13.9381L21.2189 13.9864C20.485 14.4402 20.2579 15.4031 20.7118 16.1372C21.0073 16.6152 21.5187 16.878 22.0422 16.878C22.3226 16.878 22.6065 16.8027 22.8625 16.6442L22.9404 16.596C23.6745 16.1422 23.9014 15.1792 23.4476 14.4452Z" fill="#00FF84"/>
<path d="M79.2588 26.6396L40.8213 2.88958C40.3178 2.57864 39.682 2.57864 39.1786 2.88958L26.273 10.8638C25.5389 11.3172 25.3114 12.2802 25.765 13.0144C26.2187 13.7486 27.1814 13.9757 27.9156 13.5222L40 6.05551L75.465 27.9688L40 49.8821L20.8348 38.0402L37 28.4422C37.8136 29.1216 38.8597 29.5313 40 29.5313C42.5847 29.5313 44.6875 27.4285 44.6875 24.8438C44.6875 22.2591 42.5847 20.1563 40 20.1563C37.4153 20.1563 35.3125 22.2591 35.3125 24.8438C35.3125 25.1561 35.3439 25.4611 35.4023 25.7565L17.8353 36.1868L4.535 27.9688L16.8477 20.361C17.5817 19.9075 17.8092 18.9447 17.3555 18.2104C16.902 17.4763 15.9392 17.2491 15.205 17.7025L0.74125 26.6396C0.280469 26.9241 0 27.4272 0 27.9688C0 28.5104 0.280469 29.0135 0.74125 29.298L14.8036 37.9869L12.9911 39.0632C10.1823 40.7308 8.4375 43.7961 8.4375 47.0625V49.5305C6.66359 50.1719 5.39234 51.8725 5.39234 53.865V56.5825C4.18656 57.7732 3.4375 59.4255 3.4375 61.25V75.7813C3.4375 76.6441 4.13703 77.3438 5 77.3438H15C15.863 77.3438 16.5625 76.6441 16.5625 75.7813V61.25C16.5625 59.4255 15.8134 57.7732 14.6077 56.5827V53.8652C14.6077 51.8729 13.3364 50.1722 11.5625 49.5307V47.0625C11.5625 44.8932 12.7212 42.8577 14.5866 41.7502L16.5625 40.5769V55.7275C16.5625 56.5904 17.262 57.29 18.125 57.29C25.9959 57.29 33.3686 60.3854 38.8848 66.0057C39.1786 66.305 39.5805 66.4736 40 66.4736C40.4195 66.4736 40.8212 66.305 41.1152 66.0057C46.6316 60.3852 54.0042 57.29 61.875 57.29C62.738 57.29 63.4375 56.5904 63.4375 55.7275V52.9688C63.4375 52.106 62.738 51.4063 61.875 51.4063C61.012 51.4063 60.3125 52.106 60.3125 52.9688V54.2021C53.3944 54.5293 46.8875 57.0283 41.5625 61.3736V58.1143C41.5625 57.2515 40.863 56.5518 40 56.5518C39.137 56.5518 38.4375 57.2515 38.4375 58.1143V61.3736C33.1125 57.0283 26.6056 54.5293 19.6875 54.2021V41.0047L39.1788 53.048C39.4305 53.2035 39.7153 53.2813 40 53.2813C40.2847 53.2813 40.5697 53.2035 40.8213 53.048L60.3125 41.0046V42.7605C60.3125 43.6233 61.012 44.323 61.875 44.323C62.738 44.323 63.4375 43.6233 63.4375 42.7605V39.1186C63.4375 39.1039 63.4356 39.0897 63.4353 39.075L79.2588 29.2979C79.7195 29.0133 80 28.5102 80 27.9686C80 27.4271 79.7195 26.9241 79.2588 26.6396ZM40 23.2813C40.8616 23.2813 41.5625 23.9822 41.5625 24.8438C41.5625 25.7054 40.8616 26.4063 40 26.4063C39.1384 26.4063 38.4375 25.7054 38.4375 24.8438C38.4375 23.9822 39.1384 23.2813 40 23.2813ZM8.51734 53.865C8.51734 53.0475 9.1825 52.3824 10 52.3824C10.8175 52.3824 11.4827 53.0475 11.4827 53.865V54.6875H8.51734V53.865ZM13.4375 61.25V74.2188H6.5625V61.25C6.5625 59.3546 8.10453 57.8125 10 57.8125C11.8955 57.8125 13.4375 59.3546 13.4375 61.25Z" fill="#00FF84"/>
<path d="M62.9797 46.4468C62.6891 46.1562 62.2859 45.989 61.875 45.989C61.4641 45.989 61.0609 46.156 60.7703 46.4468C60.4797 46.7375 60.3125 47.1406 60.3125 47.5515C60.3125 47.9625 60.4797 48.3656 60.7703 48.656C61.0609 48.9482 61.4641 49.114 61.875 49.114C62.2859 49.114 62.6891 48.9482 62.9797 48.656C63.2703 48.3656 63.4375 47.9625 63.4375 47.5515C63.4375 47.1406 63.2703 46.7375 62.9797 46.4468Z" fill="#00FF84"/>
</svg>
