<svg width="80" height="80" viewBox="0 0 80 80" fill="none" xmlns="http://www.w3.org/2000/svg">
<path d="M39.0249 28.8313C39.4358 28.8313 39.839 28.6643 40.1296 28.3735C40.4218 28.0829 40.5874 27.6797 40.5874 27.2688C40.5874 26.8579 40.4218 26.4547 40.1296 26.1643C39.839 25.8736 39.4374 25.7063 39.0249 25.7063C38.614 25.7063 38.2108 25.8735 37.9202 26.1643C37.6296 26.4547 37.4624 26.8579 37.4624 27.2688C37.4624 27.6797 37.6296 28.0829 37.9202 28.3735C38.2108 28.6641 38.614 28.8313 39.0249 28.8313Z" fill="#00FF84"/>
<path d="M29.3374 28.8313C29.7483 28.8313 30.1515 28.6643 30.4421 28.3735C30.7343 28.0829 30.8999 27.6797 30.8999 27.2688C30.8999 26.8579 30.7343 26.4547 30.4421 26.1643C30.1515 25.8736 29.7499 25.7063 29.3374 25.7063C28.9265 25.7063 28.5233 25.8735 28.2327 26.1643C27.9421 26.4547 27.7749 26.8579 27.7749 27.2688C27.7749 27.6797 27.9421 28.0829 28.2327 28.3735C28.5233 28.6641 28.9265 28.8313 29.3374 28.8313Z" fill="#00FF84"/>
<path d="M71.588 32.2177C70.725 32.2177 70.0255 32.9172 70.0255 33.7802C70.0255 34.643 70.725 35.3427 71.588 35.3427C74.5033 35.3427 76.875 37.7144 76.875 40.6297V64.088C76.875 67.0033 74.5033 69.375 71.588 69.375H34.9005C31.9852 69.375 29.6134 67.0033 29.6134 64.088V40.6297C29.6134 37.7144 31.9852 35.3427 34.9005 35.3427H57.5022C58.3652 35.3427 59.0647 34.643 59.0647 33.7802C59.0647 32.9172 58.3652 32.2177 57.5022 32.2177H47.752C47.9977 31.17 48.1248 30.0948 48.1248 29.0008V22.5053H50.1041C50.967 22.5053 51.6666 21.8056 51.6666 20.9428V15.5461C51.6667 6.97406 44.6927 0 36.1205 0C31.6981 0 27.8653 2.56531 26.027 6.285C20.9847 6.69187 17.005 10.9223 17.005 16.0677V20.4688C17.005 21.1506 17.4473 21.7541 18.0978 21.9589C18.7247 22.1566 19.3609 22.2955 19.9998 22.382V29.0009C19.9998 33.8234 22.4622 38.2761 26.4883 40.8509V41.9075H24.6397C11.0534 41.9073 0 52.9608 0 66.5472V70.625C0 75.7944 4.20563 80 9.375 80H67.2917C68.1547 80 68.8542 79.3003 68.8542 78.4375C68.8542 77.5747 68.1547 76.875 67.2917 76.875H65.75C66.8317 75.6633 67.6022 74.1655 67.9369 72.5H71.588C76.2264 72.5 80 68.7264 80 64.088V40.6297C80 35.9914 76.2264 32.2177 71.588 32.2177V32.2177ZM47.1505 72.5V76.875H38.0509V75.9786C38.0509 74.7028 37.6862 73.5109 37.057 72.5H47.1505ZM36.1205 3.125C42.9695 3.125 48.5416 8.69703 48.5416 15.5461V19.3803H36.1205C31.6389 19.3803 27.9928 15.7342 27.9928 11.2525C27.9928 6.77109 31.6389 3.125 36.1205 3.125V3.125ZM20.1302 16.0677C20.1302 13.0144 22.1863 10.4339 24.9859 9.63344C24.9094 10.1625 24.8678 10.7027 24.8678 11.2527C24.8678 13.5752 25.5753 15.7355 26.7858 17.5297C24.9206 19.0169 22.4877 19.6486 20.1302 19.2433V16.0677ZM23.1248 29.0008V22.3745C25.2194 22.0841 27.2197 21.2223 28.8786 19.8561C30.8373 21.5073 33.3641 22.5053 36.1205 22.5053H44.9998V29.0008C44.9998 30.1034 44.8377 31.1812 44.5189 32.2177H34.9005C31.3875 32.2177 28.3722 34.383 27.115 37.4484C24.6153 35.3919 23.1248 32.3084 23.1248 29.0008V29.0008ZM9.375 76.875C5.92875 76.875 3.125 74.0712 3.125 70.625V66.5472C3.125 54.6838 12.7766 45.0323 24.6398 45.0323H26.4884V64.088C26.4884 65.0647 26.6575 66.0022 26.965 66.875H15.7812C14.9183 66.875 14.2188 67.5747 14.2188 68.4375C14.2188 69.3003 14.9183 70 15.7812 70H26.4884V76.875H9.375ZM29.6134 76.875V72.5H31.4473C33.3655 72.5 34.9259 74.0605 34.9259 75.9786V76.875H29.6134ZM50.2755 72.5H56.213V76.875H50.2755V72.5ZM59.338 76.8472V72.5H64.7152C63.978 74.8698 61.8808 76.6125 59.338 76.8472Z" fill="#00FF84"/>
<path d="M53.2443 46.5383C50.0349 46.5383 47.4238 49.1494 47.4238 52.3588C47.4238 55.5683 50.0349 58.1794 53.2443 58.1794C56.4537 58.1794 59.0648 55.5683 59.0648 52.3588C59.0648 49.1494 56.4537 46.5383 53.2443 46.5383ZM53.2443 55.0544C51.7579 55.0544 50.5488 53.8452 50.5488 52.3588C50.5488 50.8724 51.758 49.6633 53.2443 49.6633C54.7305 49.6633 55.9398 50.8724 55.9398 52.3588C55.9398 53.8452 54.7305 55.0544 53.2443 55.0544Z" fill="#00FF84"/>
<path d="M64.5327 35.3419C64.9452 35.3419 65.3483 35.1763 65.639 34.8857C65.9296 34.5935 66.0968 34.1921 66.0968 33.7794C66.0968 33.3685 65.9296 32.9671 65.639 32.6749C65.3468 32.3843 64.9452 32.2186 64.5327 32.2186C64.1218 32.2186 63.7187 32.3843 63.428 32.6749C63.1374 32.9671 62.9702 33.3685 62.9702 33.7794C62.9702 34.1921 63.1374 34.5935 63.428 34.8857C63.7187 35.1764 64.1218 35.3419 64.5327 35.3419Z" fill="#00FF84"/>
</svg>
