<svg width="40" height="40" viewBox="0 0 40 40" fill="none" xmlns="http://www.w3.org/2000/svg">
<path d="M34.6195 26.5638C35.1296 25.8967 35.4335 25.0639 35.4335 24.1612V22.7773C35.4335 20.5916 33.6553 18.8135 31.4697 18.8135C29.2841 18.8135 27.5059 20.5917 27.5059 22.7773V24.1612C27.5059 25.0634 27.8094 25.8956 28.3189 26.5625H23.8845C24.9558 25.5377 25.625 24.096 25.625 22.5V18.9023C25.625 15.8007 23.1016 13.2773 20 13.2773C16.8984 13.2773 14.375 15.8007 14.375 18.9023V22.5C14.375 24.096 15.0442 25.5377 16.1155 26.5625H11.681C12.1905 25.8955 12.4941 25.0633 12.4941 24.1612V22.7773C12.4941 20.5916 10.7159 18.8135 8.53023 18.8135C6.34461 18.8135 4.56641 20.5916 4.56641 22.7773V24.1612C4.56641 25.064 4.87039 25.8967 5.38047 26.5638C2.40891 26.5924 0 29.0176 0 31.9958V34.9544C0 35.3858 0.349844 35.7356 0.78125 35.7356H7.03125V39.2188C7.03125 39.6502 7.38109 40 7.8125 40H10.0001C10.4315 40 10.7813 39.6502 10.7813 39.2188C10.7813 38.7873 10.4315 38.4375 10.0001 38.4375H8.59375V34.6313C8.59375 31.2167 11.2383 28.4102 14.5864 28.1471L18.8325 38.4375H17.0309C16.5995 38.4375 16.2496 38.7873 16.2496 39.2188C16.2496 39.6502 16.5995 40 17.0309 40H32.1875C32.6189 40 32.9688 39.6502 32.9688 39.2188V35.7356H39.2188C39.6502 35.7356 40 35.3858 40 34.9544V31.9958C40 29.0176 37.5911 26.5924 34.6195 26.5638ZM29.0684 24.1612V22.7773C29.0684 21.4533 30.1456 20.376 31.4697 20.376C32.7938 20.376 33.871 21.4533 33.871 22.7773V24.1612C33.871 25.4852 32.7938 26.5625 31.4697 26.5625C30.1456 26.5625 29.0684 25.4852 29.0684 24.1612ZM20 14.8398C22.2401 14.8398 24.0625 16.6623 24.0625 18.9023V18.9102H24.0591C22.7662 18.9102 21.5105 18.5356 20.4278 17.8272C20.168 17.657 19.8321 17.657 19.5723 17.8272C18.4895 18.5356 17.2338 18.9102 15.9409 18.9102H15.9375V18.9023C15.9375 16.6623 17.7599 14.8398 20 14.8398ZM15.9375 22.5V20.4727H15.9409C17.371 20.4727 18.7641 20.102 20 19.3964C21.2359 20.102 22.629 20.4727 24.0591 20.4727H24.0625V22.5C24.0625 24.7401 22.2401 26.5625 20 26.5625C17.7599 26.5625 15.9375 24.7401 15.9375 22.5ZM6.12891 22.7773C6.12891 21.4533 7.20617 20.376 8.53023 20.376C9.8543 20.376 10.9316 21.4533 10.9316 22.7773V24.1612C10.9316 25.4852 9.8543 26.5625 8.53023 26.5625C7.20617 26.5625 6.12891 25.4852 6.12891 24.1612V22.7773ZM7.04453 34.1731H1.5625V31.9958C1.5625 29.8615 3.29898 28.125 5.43328 28.125H10.3337C8.44812 29.5101 7.18406 31.6937 7.04453 34.1731ZM16.2793 28.125H19.2188V30C19.2188 30.4314 19.5686 30.7812 20 30.7812C20.4314 30.7812 20.7812 30.4314 20.7812 30V28.125H23.7207H23.7324L20 37.1705L16.2676 28.125H16.2793ZM31.4062 38.4375H21.1675L25.4136 28.1472C28.7617 28.4102 31.4062 31.2167 31.4062 34.6313V38.4375ZM38.4375 34.1731H32.9555C32.8159 31.6937 31.5519 29.5101 29.6663 28.125H34.5667C36.701 28.125 38.4375 29.8615 38.4375 31.9958V34.1731Z" fill="#6A7A99"/>
<path d="M14.6332 6.01914L16.498 7.36789L15.7847 9.54695C15.5736 10.1922 15.792 10.867 16.3413 11.266C16.8905 11.6651 17.5998 11.6644 18.1482 11.2641L20.0001 9.91227L21.8521 11.264C22.1268 11.4645 22.4417 11.5648 22.7568 11.5648C23.0707 11.5648 23.3848 11.4652 23.6589 11.266C24.2082 10.867 24.4267 10.1922 24.2155 9.54688L23.5022 7.36789L25.3671 6.01914C25.9166 5.62172 26.1368 4.94797 25.9279 4.30273C25.7189 3.65758 25.1458 3.2407 24.4678 3.2407H22.1646L21.4606 1.06266C21.2518 0.417109 20.6786 0 20.0001 0C19.3216 0 18.7485 0.417109 18.5397 1.06273L17.8357 3.24078H15.5325C14.8544 3.24078 14.2813 3.65766 14.0725 4.30281C13.8635 4.94797 14.0836 5.62172 14.6332 6.01914ZM18.4042 4.8032C18.7431 4.8032 19.0433 4.58469 19.1476 4.26227L20.0003 1.62516L20.8526 4.26227C20.9569 4.58469 21.2571 4.8032 21.5961 4.8032L24.3818 4.80344L22.1245 6.43586C21.8493 6.635 21.7342 6.98914 21.8398 7.31203L22.7034 9.95094L20.4607 8.31398C20.3235 8.21383 20.1618 8.16375 20 8.16375C19.8383 8.16375 19.6766 8.21383 19.5394 8.31398L17.2964 9.95086L18.1603 7.31203C18.266 6.98914 18.1509 6.635 17.8756 6.43586L15.6184 4.80328H18.4042V4.8032Z" fill="#6A7A99"/>
<path d="M13.5156 38.4375C13.3102 38.4375 13.1086 38.521 12.9633 38.6664C12.818 38.8118 12.7344 39.0133 12.7344 39.2188C12.7344 39.4242 12.8179 39.6258 12.9633 39.771C13.1086 39.9163 13.3102 40 13.5156 40C13.7211 40 13.9227 39.9164 14.0679 39.771C14.2133 39.6258 14.2969 39.4242 14.2969 39.2188C14.2969 39.0133 14.2133 38.8117 14.0679 38.6664C13.9227 38.521 13.7211 38.4375 13.5156 38.4375Z" fill="#6A7A99"/>
</svg>
