<svg width="40" height="40" viewBox="0 0 40 40" fill="none" xmlns="http://www.w3.org/2000/svg">
<g clip-path="url(#clip0_197_19460)">
<path d="M10.7003 25.1745C11.0738 24.9591 11.2017 24.4809 10.9862 24.1073C10.7705 23.7341 10.2926 23.6059 9.91905 23.8214C9.54552 24.0371 9.41734 24.5153 9.6331 24.8886C9.84856 25.2621 10.3268 25.3903 10.7003 25.1745Z" fill="#6440FB"/>
<path d="M7.49877 30.5668L11.4331 37.3816C12.2821 38.8538 14.1919 39.3989 15.7022 38.5258C17.1966 37.6621 17.7103 35.7526 16.8457 34.257L14.5019 30.1969L16.5317 29.025C16.9052 28.809 17.0334 28.3314 16.8176 27.9578L15.8017 26.1982C15.9228 26.1747 16.7194 26.0184 30.7657 23.263C32.5021 23.1687 33.5425 21.2696 32.6654 19.7513L30.069 15.2543L31.7282 12.7411C31.8912 12.494 31.9009 12.1763 31.7529 11.9199L30.1904 9.21362C30.0424 8.95727 29.7613 8.80713 29.4668 8.82452L26.4612 9.00488L23.5788 4.01221C23.1613 3.28894 22.4133 2.85101 21.5784 2.84064C21.5683 2.84033 21.5585 2.84033 21.5485 2.84033C20.7416 2.84033 20.0091 3.24194 19.5752 3.92096L9.3695 16.9221L2.73467 20.7526C0.12511 22.2587 -0.778821 25.6064 0.73302 28.223C2.11425 30.6156 5.02623 31.5568 7.49877 30.5668ZM15.4928 35.0385C15.9244 35.785 15.6689 36.7402 14.9203 37.1726C14.1693 37.6069 13.2129 37.3401 12.7862 36.6007L8.87999 29.834L11.5863 28.2715C16.1072 36.103 15.4202 34.9131 15.4928 35.0385ZM13.7207 28.8434L12.9394 27.4903L14.2926 26.709L15.0738 28.0622L13.7207 28.8434ZM29.0787 10.413L30.1584 12.2831L29.1955 13.7412L27.3346 10.5176L29.0787 10.413ZM20.8819 4.77759C21.0916 4.43457 21.4242 4.39917 21.5591 4.40283C21.6925 4.40436 22.0248 4.44586 22.2253 4.79315L31.3122 20.5326C31.6083 21.045 31.2485 21.6892 30.6549 21.7039C30.5484 21.7063 30.4993 21.7255 30.2264 21.7765L20.6143 5.12762C20.816 4.86822 20.842 4.8432 20.8819 4.77759ZM19.5746 6.45209L28.6056 22.0945L14.9759 24.7678L10.8316 17.5898L19.5746 6.45209ZM2.08617 27.4418C1.74315 26.8482 1.56188 26.1744 1.56188 25.4926C1.56188 24.0992 2.31078 22.8016 3.51592 22.1058L9.60509 18.5901L13.5113 25.3559L7.42217 28.8718C5.55663 29.9485 3.16313 29.307 2.08617 27.4418Z" fill="#6440FB"/>
<path d="M8.2802 25.67C8.06444 25.2965 7.58653 25.1683 7.213 25.3841L5.85985 26.1653C5.48692 26.3808 5.0081 26.2523 4.79265 25.8794C4.57689 25.5058 4.09898 25.3777 3.72545 25.5934C3.35191 25.8092 3.22374 26.2871 3.4395 26.6606C4.0825 27.7745 5.51683 28.1673 6.6411 27.5185L7.99425 26.7372C8.36778 26.5215 8.49596 26.0439 8.2802 25.67Z" fill="#6440FB"/>
<path d="M38.8388 4.51144L34.4855 6.93392C34.1086 7.14388 33.9728 7.61965 34.1828 7.99654C34.3921 8.37313 34.8676 8.50954 35.2454 8.29928L39.5984 5.87679C39.9756 5.66683 40.1111 5.19106 39.9011 4.81417C39.6915 4.43697 39.2157 4.30147 38.8388 4.51144Z" fill="#6440FB"/>
<path d="M38.3822 12.6029L35.3637 11.7942C34.9469 11.6825 34.5184 11.9297 34.4067 12.3465C34.295 12.7634 34.5425 13.1916 34.9594 13.3033L37.9782 14.112C38.3975 14.2246 38.8238 13.9734 38.9349 13.5596C39.0466 13.1427 38.7991 12.7143 38.3822 12.6029Z" fill="#6440FB"/>
<path d="M30.7969 1.67295L29.9873 4.69175C29.8756 5.10862 30.1228 5.53678 30.5396 5.64878C30.9562 5.76017 31.3847 5.51359 31.4967 5.09641L32.306 2.07761C32.4177 1.66074 32.1705 1.23228 31.7536 1.12058C31.3371 1.00889 30.9086 1.25608 30.7969 1.67295Z" fill="#6440FB"/>
</g>
<defs>
<clipPath id="clip0_197_19460">
<rect width="40" height="40" fill="white"/>
</clipPath>
</defs>
</svg>
