<svg width="35" height="35" viewBox="0 0 35 35" fill="none" xmlns="http://www.w3.org/2000/svg">
<g clip-path="url(#clip0_197_19467)">
<path d="M34.3204 0.000840866C24.346 -0.0770884 15.7119 5.26824 9.69063 13.3047C7.11083 12.0999 4.00774 12.6241 1.96456 14.6673C1.69775 14.9341 1.69762 15.367 1.96456 15.6341L7.48236 21.1519L6.4554 24.801C6.38841 25.039 6.4552 25.2947 6.63006 25.4695L9.53053 28.3701C9.70628 28.5458 9.96256 28.6114 10.1991 28.5447L13.8482 27.5177C14.4416 28.1111 18.7766 32.4463 19.366 33.0356C19.6328 33.3024 20.0658 33.3025 20.3328 33.0356C22.3764 30.9919 22.9005 27.8886 21.6946 25.309C23.9114 23.6486 26.919 21.0138 29.5102 17.4102C29.7306 17.1036 29.6608 16.6765 29.3543 16.4561C29.0478 16.2358 28.6207 16.3055 28.4002 16.612C25.724 20.3339 22.5799 22.9857 20.4134 24.555C18.1698 26.1813 16.4787 27.0285 15.6573 27.3933C14.9991 26.7351 12.8755 24.6116 12.1154 23.8514L15.9824 19.9844C16.2493 19.7175 16.2493 19.2846 15.9824 19.0176C15.7155 18.7507 15.2826 18.7507 15.0157 19.0176L11.1487 22.8846C8.59107 20.327 11.3744 23.1097 7.60684 19.3427C9.78223 14.4447 16.6822 5.3327 26.9739 2.37098C27.2008 3.78212 27.8627 5.08791 28.8873 6.11309C29.9119 7.13711 31.2173 7.79896 32.6279 8.02605C32.2989 9.16764 31.8886 10.2997 31.4014 11.4009C31.2487 11.7462 31.4048 12.1499 31.7501 12.3027C32.096 12.4555 32.4992 12.2989 32.6517 11.954C34.2897 8.25129 35.026 4.45579 34.9991 0.679577C34.9964 0.305859 34.6942 0.00350687 34.3204 0.000840866ZM20.5596 26.126C21.3002 27.9306 21.0181 30.0106 19.8192 31.5551L16.6879 28.4237C17.8506 27.8648 19.2137 27.0566 20.5596 26.126ZM8.59073 22.2601C9.02536 22.6947 12.2999 25.9693 12.7398 26.4092L10.2141 27.12L7.87994 24.7858L8.59073 22.2601ZM6.57626 18.3122L3.44494 15.1809C4.98903 13.9822 7.06879 13.7 8.87353 14.4398C7.94358 15.7852 7.13557 17.1486 6.57626 18.3122ZM32.9741 6.69633C31.7968 6.53527 30.7045 5.99633 29.8539 5.14622C29.0037 4.29549 28.4647 3.20325 28.3036 2.02584C30.039 1.62546 31.8244 1.40575 33.628 1.37192C33.5941 3.17557 33.3744 4.96117 32.9741 6.69633Z" fill="#E8543E"/>
<path d="M18.3264 9.9066C16.4584 11.7745 16.4582 14.8055 18.3264 16.6736C20.1942 18.5415 23.2253 18.5418 25.0934 16.6736C26.9614 14.8057 26.9616 11.7747 25.0934 9.9066C23.2255 8.03876 20.1945 8.03848 18.3264 9.9066ZM24.1266 15.7069C22.793 17.0406 20.6269 17.0406 19.2932 15.7069C17.9595 14.3734 17.9593 12.207 19.2932 10.8734C20.6268 9.53972 22.7929 9.53965 24.1267 10.8734C25.4603 12.2069 25.4605 14.3733 24.1266 15.7069Z" fill="#E8543E"/>
<path d="M30.5071 15.0374C30.8846 15.0374 31.1907 14.7313 31.1907 14.3538C31.1907 13.9762 30.8846 13.6702 30.5071 13.6702C30.1295 13.6702 29.8235 13.9762 29.8235 14.3538C29.8235 14.7313 30.1295 15.0374 30.5071 15.0374Z" fill="#E8543E"/>
<path d="M3.72942 27.4035C2.8901 28.2435 0.532592 33.061 0.0685002 34.0183C-0.0585116 34.2802 -0.00566977 34.594 0.200229 34.7999C0.407221 35.0068 0.721332 35.058 0.98185 34.9316C1.93909 34.4675 6.75664 32.11 7.59671 31.2707C7.59678 31.2706 7.59685 31.2706 7.59692 31.2705C8.66312 30.2043 8.66312 28.4694 7.59692 27.4033C6.52832 26.3346 4.79883 26.3339 3.72942 27.4035ZM6.63032 30.3035C6.2542 30.6793 4.1795 31.798 2.19824 32.8018C3.20216 30.8206 4.3208 28.7459 4.69636 28.37C5.23086 27.8355 6.0954 27.8353 6.63011 28.37C7.16318 28.9031 7.16325 29.7704 6.63032 30.3035Z" fill="#E8543E"/>
</g>
<defs>
<clipPath id="clip0_197_19467">
<rect width="35" height="35" fill="white"/>
</clipPath>
</defs>
</svg>
