<svg width="45" height="45" viewBox="0 0 45 45" fill="none" xmlns="http://www.w3.org/2000/svg">
<g clip-path="url(#clip0_196_5905)">
<path d="M38.8477 15.9082V37.002H6.15234V15.9082H14.6698L13.7109 18.5449L22.5 30.8496L31.2891 18.5449L30.3302 15.9082H38.8477Z" fill="#E2C4FF"/>
<path d="M44.1211 36.123H43.2422V15.0293C43.2422 13.0908 41.6651 11.5137 39.7266 11.5137H29.6675L29.0283 9.75586H29.9707C30.456 9.75586 30.8496 9.36229 30.8496 8.87695V4.48242C30.8496 3.99709 30.456 3.60352 29.9707 3.60352H28.2129V0.966797C28.2129 0.481465 27.8193 0.0878906 27.334 0.0878906H17.666C17.1806 0.0878906 16.7871 0.481465 16.7871 0.966797V3.60352H15.0293C14.5439 3.60352 14.1504 3.99709 14.1504 4.48242V8.87695C14.1504 9.36229 14.5439 9.75586 15.0293 9.75586H15.9717L15.3325 11.5137H5.27344C3.33492 11.5137 1.75781 13.0908 1.75781 15.0293V36.123H0.878906C0.393486 36.123 0 36.5166 0 37.002V41.3965C0 43.335 1.57711 44.9121 3.51562 44.9121H41.4844C43.4229 44.9121 45 43.335 45 41.3965V37.002C45 36.5166 44.6064 36.123 44.1211 36.123ZM18.5449 1.8457H26.4551V3.60352H18.5449V1.8457ZM15.9082 5.36133H29.0918V7.99805C27.1311 7.99805 17.653 7.99805 15.9082 7.99805V5.36133ZM27.1579 9.75586L30.305 18.4105L23.3789 28.107V20.1515C24.4019 19.7887 25.1367 18.8118 25.1367 17.666C25.1367 16.2121 23.9539 15.0293 22.5 15.0293C21.0461 15.0293 19.8633 16.2121 19.8633 17.666C19.8633 18.8118 20.5981 19.7887 21.6211 20.1515V28.107L14.695 18.4105L17.8421 9.75586H27.1579ZM22.5 18.5449C22.0154 18.5449 21.6211 18.1506 21.6211 17.666C21.6211 17.1814 22.0154 16.7871 22.5 16.7871C22.9846 16.7871 23.3789 17.1814 23.3789 17.666C23.3789 18.1506 22.9846 18.5449 22.5 18.5449ZM3.51562 15.0293C3.51562 14.06 4.30418 13.2715 5.27344 13.2715H14.6934L12.8849 18.2445C12.786 18.5167 12.8275 18.8201 12.9958 19.0557L20.7921 29.9707H14.8781C14.5153 28.9477 13.5383 28.2129 12.3926 28.2129C10.9387 28.2129 9.75586 29.3957 9.75586 30.8496C9.75586 32.3035 10.9387 33.4863 12.3926 33.4863C13.5383 33.4863 14.5153 32.7515 14.8781 31.7285H30.1219C30.4848 32.7515 31.4617 33.4863 32.6074 33.4863C34.0613 33.4863 35.2441 32.3035 35.2441 30.8496C35.2441 29.3957 34.0613 28.2129 32.6074 28.2129C31.4617 28.2129 30.4848 28.9477 30.1219 29.9707H24.208L32.0043 19.0557C32.1726 18.82 32.2141 18.5166 32.1151 18.2445L30.3066 13.2715H39.7266C40.6958 13.2715 41.4844 14.06 41.4844 15.0293V36.123C39.4307 36.123 4.3969 36.123 3.51562 36.123V15.0293ZM13.2715 30.8496C13.2715 31.3342 12.8772 31.7285 12.3926 31.7285C11.9079 31.7285 11.5137 31.3342 11.5137 30.8496C11.5137 30.365 11.9079 29.9707 12.3926 29.9707C12.8772 29.9707 13.2715 30.365 13.2715 30.8496ZM31.7285 30.8496C31.7285 30.365 32.1228 29.9707 32.6074 29.9707C33.0921 29.9707 33.4863 30.365 33.4863 30.8496C33.4863 31.3342 33.0921 31.7285 32.6074 31.7285C32.1228 31.7285 31.7285 31.3342 31.7285 30.8496ZM18.5449 37.8809H26.4551V39.6387H18.5449V37.8809ZM43.2422 41.3965C43.2422 42.3657 42.4536 43.1543 41.4844 43.1543H3.51562C2.54637 43.1543 1.75781 42.3657 1.75781 41.3965V37.8809H16.7871V40.5176C16.7871 41.0029 17.1806 41.3965 17.666 41.3965H27.334C27.8193 41.3965 28.2129 41.0029 28.2129 40.5176V37.8809H43.2422V41.3965Z" fill="#020288"/>
</g>
<defs>
<clipPath id="clip0_196_5905">
<rect width="45" height="45" fill="white"/>
</clipPath>
</defs>
</svg>
