<svg width="45" height="45" viewBox="0 0 45 45" fill="none" xmlns="http://www.w3.org/2000/svg">
<g clip-path="url(#clip0_196_5921)">
<path d="M35.9345 15.7983C35.4491 15.7983 35.0556 16.1918 35.0556 16.6772V34.6668L14.1495 28.801V19.5355L26.989 15.933C27.4563 15.8019 27.7289 15.3167 27.5978 14.8493C27.4667 14.382 26.9813 14.1095 26.5141 14.2405L13.1497 17.9904H2.99856C1.34517 17.9904 0 19.3354 0 20.9888V27.3477C0 29.0011 1.34517 30.3462 2.99856 30.3462H4.41668L5.55645 39.128C5.70111 40.2427 6.34887 41.1172 7.33368 41.5273C9.48779 42.419 11.9849 40.7893 11.6179 38.3413L10.5803 30.3462H13.1496L35.697 36.6725C35.9599 36.7465 36.2459 36.6934 36.4655 36.5267C36.6847 36.3605 36.8134 36.1013 36.8134 35.8263V16.6772C36.8134 16.1918 36.4199 15.7983 35.9345 15.7983ZM1.75781 27.3477V20.9888C1.75781 20.3047 2.31442 19.7482 2.99856 19.7482H12.3917V28.5885H2.99856C2.31442 28.5884 1.75781 28.0319 1.75781 27.3477ZM9.87469 38.5676C9.94034 39.0732 9.80016 39.4623 9.458 39.7238C9.06715 40.0226 8.47143 40.0969 8.00938 39.9045C7.6028 39.7352 7.364 39.3979 7.29967 38.9017L6.18926 30.3462H8.80769L9.87469 38.5676Z" fill="#020288"/>
<path fill-rule="evenodd" clip-rule="evenodd" d="M26.6163 3.22571H43.2065C44.193 3.22571 45 4.03307 45 5.0192V15.7804C45 16.7661 44.1922 17.5739 43.2065 17.5739H32.8937L31.1001 19.3675L29.3065 17.5739H26.6162C25.6302 17.5739 24.8227 16.7669 24.8227 15.7804V5.0192C24.8228 4.03281 25.6298 3.22571 26.6163 3.22571Z" fill="#E2C4FF"/>
<path d="M40.292 7.69165H29.5308C28.3659 7.64841 28.3668 5.97664 29.5308 5.93384H40.292C41.4569 5.97708 41.456 7.64885 40.292 7.69165Z" fill="#020288"/>
<path d="M40.292 11.2787H29.5308C28.3659 11.2354 28.3668 9.56368 29.5308 9.52087H40.292C41.4569 9.56412 41.456 11.2359 40.292 11.2787Z" fill="#020288"/>
<path d="M34.9114 14.8658H29.5308C28.3659 14.8226 28.3668 13.1508 29.5308 13.108H34.9114C36.0763 13.1513 36.0754 14.823 34.9114 14.8658Z" fill="#020288"/>
</g>
<defs>
<clipPath id="clip0_196_5921">
<rect width="45" height="45" fill="white"/>
</clipPath>
</defs>
</svg>
