<svg width="45" height="45" viewBox="0 0 45 45" fill="none" xmlns="http://www.w3.org/2000/svg">
<g clip-path="url(#clip0_196_5947)">
<path d="M35.2962 12.7926V27.795C35.2962 29.2572 34.1109 30.4424 32.6487 30.4424H12.3514C10.8892 30.4424 9.70384 29.2572 9.70384 27.795V12.7926H6.17389V33.9725H38.8261V12.7926H35.2962Z" fill="#91EFFB"/>
<path d="M44.1211 33.0935H43.235V11.9101C43.235 9.96566 41.653 8.38372 39.7085 8.38372H36.175V6.60437C36.175 4.66585 34.5979 3.08875 32.6594 3.08875H12.3405C10.402 3.08875 8.82492 4.66585 8.82492 6.60437V8.38372H5.29137C3.34687 8.38372 1.76493 9.96566 1.76493 11.9101V33.0935H0.878906C0.393486 33.0935 0 33.487 0 33.9724V38.3956C0 40.3342 1.57711 41.9113 3.51562 41.9113H41.4844C43.4229 41.9113 45 40.3342 45 38.3956V33.9724C45 33.487 44.6065 33.0935 44.1211 33.0935ZM10.5827 11.9065H34.4173V27.8057C34.4173 28.775 33.6287 29.5635 32.6595 29.5635H12.3405C11.3713 29.5635 10.5827 28.775 10.5827 27.8057V11.9065ZM10.5827 6.60437C10.5827 5.63511 11.3713 4.84656 12.3405 4.84656H32.6595C33.6287 4.84656 34.4173 5.63511 34.4173 6.60437V10.1487H10.5827V6.60437ZM3.52283 11.9101C3.52283 10.9348 4.31622 10.1415 5.29146 10.1415H8.82501V27.8057C8.82501 29.7442 10.4021 31.3213 12.3406 31.3213H32.6595C34.5981 31.3213 36.1752 29.7442 36.1752 27.8057V10.1415H39.7087C40.684 10.1415 41.4773 10.9348 41.4773 11.9101V33.0935H3.52283V11.9101ZM43.2422 38.3956C43.2422 39.3649 42.4536 40.1535 41.4844 40.1535H3.51562C2.54637 40.1535 1.75781 39.3649 1.75781 38.3956V34.8513H43.2422V38.3956Z" fill="#01018B"/>
<path d="M13.2338 8.37659H14.1163C14.6017 8.37659 14.9952 7.98301 14.9952 7.49768C14.9952 7.01235 14.6017 6.61877 14.1163 6.61877H13.2338C12.7483 6.61877 12.3549 7.01235 12.3549 7.49768C12.3549 7.98301 12.7483 8.37659 13.2338 8.37659Z" fill="#01018B"/>
<path d="M17.6462 8.37659H18.5287C19.0142 8.37659 19.4077 7.98301 19.4077 7.49768C19.4077 7.01235 19.0142 6.61877 18.5287 6.61877H17.6462C17.1608 6.61877 16.7673 7.01235 16.7673 7.49768C16.7673 7.98301 17.1608 8.37659 17.6462 8.37659Z" fill="#01018B"/>
<path d="M14.9525 17.0538L17.6 18.8188C18.002 19.0869 18.5484 18.9807 18.8188 18.5751C19.0881 18.1712 18.9789 17.6255 18.575 17.3563L17.0245 16.3225L18.575 15.2888C18.9789 15.0196 19.0881 14.474 18.8188 14.0701C18.5495 13.6661 18.0038 13.557 17.6 13.8263L14.9525 15.5913C14.708 15.7542 14.5612 16.0287 14.5612 16.3225C14.5612 16.6164 14.708 16.8908 14.9525 17.0538Z" fill="#01018B"/>
<path d="M26.425 15.2888L27.9756 16.3225L26.425 17.3562C26.0211 17.6254 25.912 18.1712 26.1813 18.575C26.4513 18.98 26.9973 19.0873 27.4 18.8187L30.0475 17.0537C30.5681 16.7067 30.5697 15.9393 30.0475 15.5911L27.4 13.8262C26.9962 13.5569 26.4506 13.6661 26.1812 14.0699C25.912 14.474 26.0211 15.0196 26.425 15.2888Z" fill="#01018B"/>
<path d="M21.6168 18.9666C21.9392 18.9666 22.2496 18.7886 22.4036 18.4807L24.1686 14.9507C24.3857 14.5165 24.2097 13.9886 23.7755 13.7715C23.3414 13.5543 22.8134 13.7304 22.5963 14.1645L20.8313 17.6945C20.537 18.2833 20.9711 18.9666 21.6168 18.9666Z" fill="#01018B"/>
<path d="M13.2338 24.2615H20.2938C20.7792 24.2615 21.1727 23.868 21.1727 23.3826C21.1727 22.8972 20.7792 22.5037 20.2938 22.5037H13.2338C12.7483 22.5037 12.3549 22.8972 12.3549 23.3826C12.3549 23.868 12.7483 24.2615 13.2338 24.2615Z" fill="#01018B"/>
<path d="M13.2338 27.7914H23.8237C24.3091 27.7914 24.7026 27.3978 24.7026 26.9125C24.7026 26.4271 24.3091 26.0336 23.8237 26.0336H13.2338C12.7483 26.0336 12.3549 26.4271 12.3549 26.9125C12.3549 27.3978 12.7483 27.7914 13.2338 27.7914Z" fill="#01018B"/>
<path d="M26.4749 26.9125C26.4749 27.3978 26.8683 27.7914 27.3538 27.7914H31.7662C32.2516 27.7914 32.6451 27.3978 32.6451 26.9125C32.6451 26.4271 32.2516 26.0336 31.7662 26.0336H27.3538C26.8683 26.0336 26.4749 26.4271 26.4749 26.9125Z" fill="#01018B"/>
<path d="M29.115 23.3826C29.115 22.8972 28.7216 22.5037 28.2361 22.5037H23.8237C23.3382 22.5037 22.9448 22.8972 22.9448 23.3826C22.9448 23.868 23.3382 24.2615 23.8237 24.2615H28.2361C28.7216 24.2615 29.115 23.868 29.115 23.3826Z" fill="#01018B"/>
</g>
<defs>
<clipPath id="clip0_196_5947">
<rect width="45" height="45" fill="white"/>
</clipPath>
</defs>
</svg>
