<svg width="45" height="45" viewBox="0 0 45 45" fill="none" xmlns="http://www.w3.org/2000/svg">
<g clip-path="url(#clip0_196_5978)">
<path d="M11.4258 13.2715H40.6055V37.002H11.4258V13.2715Z" fill="#91EFFB"/>
<path d="M44.1211 8.87695H8.86368L8.87695 4.48506C8.87845 3.99876 8.48426 3.60352 7.99805 3.60352H4.48242C2.05304 3.60352 0 5.56822 0 7.99805V37.002C0 39.4251 1.97139 41.3965 4.39453 41.3965H44.1211C44.6064 41.3965 45 41.0029 45 40.5176V9.75586C45 9.27053 44.6064 8.87695 44.1211 8.87695ZM1.75781 7.99805C1.75781 6.56877 3.00551 5.36133 4.48242 5.36133H7.1165C7.10385 9.53297 7.04452 29.1271 7.03397 32.6074H4.39453C3.40611 32.6074 2.49275 32.9355 1.75781 33.4883V7.99805ZM43.2422 39.6387H4.39453C2.94064 39.6387 1.75781 38.4558 1.75781 37.002C1.75781 35.5481 2.94064 34.3652 4.39453 34.3652H7.91016C8.39452 34.3652 8.78757 33.9733 8.78906 33.489L8.85832 10.6348H43.2422V39.6387Z" fill="#00008B"/>
<path d="M14.9414 34.3652C15.4268 34.3652 15.8203 33.9717 15.8203 33.4863V32.6074H36.2109V33.4863C36.2109 33.9717 36.6045 34.3652 37.0898 34.3652C37.5752 34.3652 37.9688 33.9717 37.9688 33.4863V29.9707C37.9688 29.4854 37.5752 29.0918 37.0898 29.0918C36.6045 29.0918 36.2109 29.4854 36.2109 29.9707V30.8496H15.8203V29.9707C15.8203 29.4854 15.4268 29.0918 14.9414 29.0918C14.456 29.0918 14.0625 29.4854 14.0625 29.9707V33.4863C14.0625 33.9717 14.456 34.3652 14.9414 34.3652Z" fill="#00008B"/>
<path d="M14.9414 27.334H24.2578C24.7431 27.334 25.1367 26.9404 25.1367 26.4551V16.7871C25.1367 16.3017 24.7431 15.9082 24.2578 15.9082H14.9414C14.456 15.9082 14.0625 16.3017 14.0625 16.7871V26.4551C14.0625 26.9404 14.456 27.334 14.9414 27.334ZM15.8203 17.666H23.3789V25.5762H15.8203V17.666Z" fill="#00008B"/>
<path d="M27.7734 27.334H37.0898C37.5752 27.334 37.9688 26.9404 37.9688 26.4551V16.7871C37.9688 16.3017 37.5752 15.9082 37.0898 15.9082H27.7734C27.2881 15.9082 26.8945 16.3017 26.8945 16.7871V26.4551C26.8945 26.9404 27.2881 27.334 27.7734 27.334ZM28.6523 17.666H36.2109V25.5762H28.6523V17.666Z" fill="#00008B"/>
</g>
<defs>
<clipPath id="clip0_196_5978">
<rect width="45" height="45" fill="white"/>
</clipPath>
</defs>
</svg>
