<svg width="45" height="45" viewBox="0 0 45 45" fill="none" xmlns="http://www.w3.org/2000/svg">
<g clip-path="url(#clip0_196_5990)">
<path fill-rule="evenodd" clip-rule="evenodd" d="M9.36462 33.7444C9.75064 40.2795 35.2895 40.2715 35.6659 33.7442C35.6659 31.3859 31.3016 29.4118 25.4529 28.9084L25.152 32.5194C25.0718 33.4827 24.3609 34.2772 23.3942 34.2772H21.6363C20.6697 34.2772 19.9588 33.4829 19.8785 32.5194C19.7783 31.3157 19.6779 30.112 19.5776 28.9083C13.729 29.4117 9.36462 31.3858 9.36462 33.7444Z" fill="#FFBEBC"/>
<path d="M39.4535 27.4429C36.1764 25.7057 31.6767 24.5208 26.7364 24.0889L26.8504 22.721C27.9043 22.3755 28.6676 21.3825 28.6676 20.2146V13.1834C28.6676 10.8202 27.3282 8.76394 25.3688 7.73379C28.4419 5.13225 26.5919 8.78899e-05 22.5153 0C18.4387 0.00017578 16.5886 5.13295 19.6618 7.73387C17.7024 8.76403 16.363 10.8202 16.363 13.1835V20.2147C16.363 21.3826 17.1262 22.3755 18.1801 22.721L18.2941 24.089C11.227 24.7468 0.480988 27.4028 0.0152588 34.4529C0.616426 42.5785 14.5312 45.0177 22.5152 44.9999C28.4114 44.9998 33.9684 43.9669 38.1624 42.0915C46.5365 38.5244 47.4751 31.6021 39.4535 27.4429ZM19.8786 4.3945C19.8786 2.94062 21.0615 1.7578 22.5153 1.7578C26.0084 1.89034 26.0076 6.89918 22.5153 7.03119C21.0615 7.03119 19.8786 5.84837 19.8786 4.3945ZM18.1208 20.2147V13.1835C18.3409 7.36377 26.6889 7.36122 26.9098 13.1836C26.9098 13.1835 26.9098 20.2148 26.9098 20.2148C26.9098 20.6994 26.5156 21.0937 26.0309 21.0937C25.5738 21.0937 25.193 21.4441 25.1551 21.8995L24.2762 32.4463C24.2368 32.9193 23.9212 33.3982 23.3942 33.3982H21.6364C21.1095 33.3982 20.7939 32.9193 20.7545 32.4462L19.8756 21.8994C19.8376 21.4439 19.4568 21.0936 18.9998 21.0936C18.515 21.0936 18.1208 20.6993 18.1208 20.2147ZM37.4449 40.4869C29.6617 44.1331 15.3688 44.1332 7.58575 40.4868C3.89182 38.8351 1.77323 36.6359 1.77323 34.453C2.25724 28.7493 12.4699 26.3567 18.4401 25.8407L19.0027 32.5923C19.1245 34.0538 20.2568 35.156 21.6364 35.156H23.3942C24.7739 35.156 25.9061 34.0537 26.0278 32.5923L26.5905 25.8407C31.2977 26.2526 35.5574 27.3673 38.6301 28.9961C45.396 32.5306 44.424 37.4205 37.4449 40.4869Z" fill="#020288"/>
</g>
<defs>
<clipPath id="clip0_196_5990">
<rect width="45" height="45" fill="white"/>
</clipPath>
</defs>
</svg>
