<svg width="45" height="45" viewBox="0 0 45 45" fill="none" xmlns="http://www.w3.org/2000/svg">
<g clip-path="url(#clip0_196_6012)">
<path d="M44.1211 34.6485H41.8537V9.85896C41.8537 8.37695 40.648 7.17126 39.166 7.17126H27.1731C26.6877 7.17126 26.2942 7.56484 26.2942 8.05017C26.2942 8.5355 26.6877 8.92908 27.1731 8.92908H39.166C39.6787 8.92908 40.0959 9.34621 40.0959 9.85896V34.6485H29.8535C28.3322 34.6485 27.0474 35.6799 26.6614 37.0802H18.3386C17.9526 35.6799 16.6678 34.6485 15.1465 34.6485H4.90412V9.85896C4.90412 9.34621 5.32125 8.92908 5.834 8.92908H16.5814C17.0669 8.92908 17.4604 8.5355 17.4604 8.05017C17.4604 7.56484 17.0669 7.17126 16.5814 7.17126H5.834C4.35199 7.17126 3.14631 8.37695 3.14631 9.85896V34.6485H0.878906C0.393486 34.6485 0 35.0421 0 35.5274V39.786C0 41.3256 1.25262 42.5783 2.79229 42.5783H42.2077C43.7474 42.5783 45 41.3256 45 39.786V35.5274C45 35.042 44.6065 34.6485 44.1211 34.6485ZM43.2422 39.786C43.2422 40.3564 42.7781 40.8205 42.2077 40.8205H2.79229C2.22187 40.8205 1.75781 40.3565 1.75781 39.786V36.4063H15.1465C16.0027 36.4063 16.6992 37.1029 16.6992 37.9591C16.6992 38.4444 17.0927 38.838 17.5781 38.838H27.4219C27.9073 38.838 28.3008 38.4444 28.3008 37.9591C28.3008 37.1029 28.9973 36.4063 29.8535 36.4063H43.2422V39.786Z" fill="#020288"/>
<path d="M16.9187 25.9867L9.51349 31.2826C9.1186 31.565 9.02746 32.114 9.30985 32.5088C9.48142 32.7487 9.75142 32.8765 10.0255 32.8765C10.2025 32.8765 10.3811 32.8233 10.536 32.7124L17.5658 27.6851L25.0486 30.3864C25.3413 30.492 25.6682 30.435 25.9079 30.2364L33.5123 23.9337C33.5814 24.2387 33.8114 24.497 34.1338 24.587C34.2127 24.609 34.2922 24.6196 34.3703 24.6196C34.7549 24.6195 35.108 24.365 35.2164 23.9766L35.822 21.805C35.9018 21.5189 35.8316 21.2119 35.6356 20.9887C35.4395 20.7656 35.1444 20.6564 34.85 20.699L32.617 21.021C32.1366 21.0902 31.8033 21.5358 31.8726 22.0162C31.9126 22.2938 32.0784 22.5223 32.3038 22.6524L25.1731 28.5624L17.7285 25.8749C17.4563 25.7767 17.1537 25.8186 16.9187 25.9867Z" fill="#020288"/>
<path d="M22.4337 23.4257C28.2338 23.4257 32.9357 18.7238 32.9357 12.9237C32.9357 7.12364 28.2338 2.42175 22.4337 2.42175C16.6337 2.42175 11.9318 7.12364 11.9318 12.9237C11.9318 18.7238 16.6337 23.4257 22.4337 23.4257Z" fill="#B2F0FB"/>
<path d="M23.8009 12.2125C23.6533 12.1603 23.5132 12.1103 23.3804 12.0624V9.23832C23.7283 9.34432 23.9693 9.5215 24.0875 9.69008C24.3663 10.0874 24.9144 10.1835 25.3118 9.90462C25.7092 9.62583 25.8052 9.07774 25.5264 8.6803C25.1119 8.08968 24.3607 7.59679 23.3803 7.43709V7.25146C23.3803 6.76613 22.9868 6.37256 22.5014 6.37256C22.016 6.37256 21.6225 6.76613 21.6225 7.25146V7.50397C21.489 7.53359 21.3533 7.56901 21.2157 7.61041C20.1129 7.94264 19.2804 9.01402 19.1914 10.2157C19.1034 11.4023 19.7352 12.4333 20.8814 12.9738C21.044 13.0506 21.2986 13.1564 21.6225 13.2827V16.6646C21.1703 16.5296 20.755 16.3031 20.4853 15.968C20.1808 15.5901 19.6276 15.5304 19.2495 15.8349C18.8714 16.1394 18.8119 16.6927 19.1163 17.0708C19.7568 17.8658 20.7021 18.2911 21.6225 18.4718V18.5958C21.6225 19.0811 22.016 19.4747 22.5014 19.4747C22.9868 19.4747 23.3803 19.0811 23.3803 18.5958V18.5388C25.3224 18.293 26.1702 17.0297 26.3135 15.9019C26.5141 14.3235 25.4808 12.8063 23.8009 12.2125ZM20.9444 10.3457C20.9769 9.90857 21.2608 9.49206 21.6226 9.33104V11.3799C21.0204 11.0922 20.9212 10.6591 20.9444 10.3457ZM24.5698 15.6804C24.4999 16.231 24.0726 16.6125 23.3804 16.7578V13.9344C24.2985 14.3282 24.6435 15.1002 24.5698 15.6804Z" fill="#020288"/>
</g>
<defs>
<clipPath id="clip0_196_6012">
<rect width="45" height="45" fill="white"/>
</clipPath>
</defs>
</svg>
