<svg width="24" height="24" viewBox="0 0 24 24" fill="none" xmlns="http://www.w3.org/2000/svg">
<path d="M23.567 8.32052L12.317 3.07052C12.2177 3.02415 12.1094 3.00012 11.9998 3.00012C11.8902 3.00012 11.7819 3.02415 11.6825 3.07052L0.432542 8.32052C0.30328 8.38092 0.193924 8.47692 0.11731 8.59728C0.0406952 8.71764 0 8.85735 0 9.00002C0 9.1427 0.0406952 9.28241 0.11731 9.40277C0.193924 9.52313 0.30328 9.61913 0.432542 9.67952L4.49979 11.5778V17.25C4.49979 19.3883 7.72479 21 11.9998 21C16.2748 21 19.4998 19.3883 19.4998 17.25V11.5778L20.9998 10.8773V15C20.9998 15.1989 21.0788 15.3897 21.2195 15.5304C21.3601 15.671 21.5509 15.75 21.7498 15.75C21.9487 15.75 22.1395 15.671 22.2801 15.5304C22.4208 15.3897 22.4998 15.1989 22.4998 15V10.1775L23.567 9.67952C23.6963 9.61913 23.8057 9.52313 23.8823 9.40277C23.9589 9.28241 23.9996 9.1427 23.9996 9.00002C23.9996 8.85735 23.9589 8.71764 23.8823 8.59728C23.8057 8.47692 23.6963 8.38092 23.567 8.32052ZM17.9998 17.25C17.9998 18.168 15.6628 19.5 11.9998 19.5C8.33679 19.5 5.99979 18.168 5.99979 17.25V12.2775L11.6825 14.9295C11.7819 14.9759 11.8902 14.9999 11.9998 14.9999C12.1094 14.9999 12.2177 14.9759 12.317 14.9295L16.067 13.179C16.2442 13.093 16.3804 12.9407 16.4462 12.7552C16.512 12.5696 16.5023 12.3655 16.419 12.1871C16.3356 12.0087 16.1855 11.8702 16.0009 11.8015C15.8164 11.7328 15.6122 11.7395 15.4325 11.82L11.9998 13.425L2.52279 9.00002L11.9998 4.57502L21.476 9.00002L18.4325 10.4205C18.2914 10.4873 18.1749 10.5969 18.0997 10.7337C18.0244 10.8705 17.9942 11.0276 18.0133 11.1825C18.0076 11.2048 18.0031 11.2273 17.9998 11.25V17.25Z" fill="#1A064F"/>
</svg>
