<svg width="22" height="22" viewBox="0 0 22 22" fill="none" xmlns="http://www.w3.org/2000/svg">
<path d="M14.4805 0H7.51953C3.37326 0 0 3.37326 0 7.51953V14.4805C0 18.6267 3.37326 22 7.51953 22H14.4805C18.6267 22 22 18.6267 22 14.4805V7.51953C22 3.37326 18.6267 0 14.4805 0ZM20.7109 14.4805C20.7109 17.9159 17.9159 20.7109 14.4805 20.7109H7.51953C4.08405 20.7109 1.28906 17.9159 1.28906 14.4805V7.51953C1.28906 4.08405 4.08405 1.28906 7.51953 1.28906H14.4805C17.9159 1.28906 20.7109 4.08405 20.7109 7.51953V14.4805Z" fill="#1A064F"/>
<path d="M14.8002 9.74949L9.47216 6.1897C8.47374 5.52265 7.13281 6.23997 7.13281 7.44018V14.5597C7.13281 15.7667 8.48186 16.4718 9.4722 15.8102L14.8003 12.2504C15.6897 11.6562 15.6923 10.3455 14.8002 9.74949ZM14.0841 11.1786L8.75609 14.7384C8.61352 14.8336 8.42188 14.7331 8.42188 14.5598V7.44018C8.42188 7.26903 8.61171 7.16505 8.75609 7.26151L14.0842 10.8213C14.2117 10.9066 14.2119 11.0932 14.0841 11.1786Z" fill="#1A064F"/>
</svg>
