<svg width="24" height="24" viewBox="0 0 24 24" fill="none" xmlns="http://www.w3.org/2000/svg">
<path d="M20.2225 12.6562H19.6841C19.3695 10.467 17.609 8.73858 15.4044 8.47317C16.3391 7.57678 16.922 6.31612 16.922 4.92188C16.922 2.20795 14.7141 0 12.0001 0C9.28622 0 7.07827 2.20795 7.07827 4.92188C7.07827 6.31617 7.66116 7.57678 8.59589 8.47317C6.39131 8.73858 4.63078 10.467 4.3162 12.6562H3.7778C2.49309 12.6562 1.50848 13.7959 1.68947 15.0629L2.86641 23.3952C2.91539 23.7421 3.2123 24 3.56264 24H20.4376C20.788 24 21.0849 23.7421 21.1339 23.3952L22.3107 15.0639C22.4922 13.7932 21.5048 12.6562 20.2225 12.6562ZM8.48452 4.92188C8.48452 2.98336 10.0616 1.40625 12.0001 1.40625C13.9387 1.40625 15.5158 2.98336 15.5158 4.92188C15.5158 6.86039 13.9387 8.4375 12.0001 8.4375C10.0616 8.4375 8.48452 6.86039 8.48452 4.92188ZM9.18764 9.84375H14.8126C16.5104 9.84375 17.9309 11.0535 18.2576 12.6562H5.74266C6.06933 11.0535 7.48988 9.84375 9.18764 9.84375ZM20.9184 14.8662L19.8269 22.5938H4.17342L3.08175 14.865C3.02109 14.441 3.34866 14.0625 3.7778 14.0625C3.97214 14.0625 20.1412 14.0625 20.2225 14.0625C20.6512 14.0625 20.9793 14.44 20.9184 14.8662Z" fill="#1A064F"/>
<path d="M12 16.9219C10.8369 16.9219 9.89062 17.8681 9.89062 19.0312C9.89062 20.1944 10.8369 21.1406 12 21.1406C13.1631 21.1406 14.1094 20.1944 14.1094 19.0312C14.1094 17.8681 13.1631 16.9219 12 16.9219ZM12 19.7344C11.6123 19.7344 11.2969 19.419 11.2969 19.0312C11.2969 18.6435 11.6123 18.3281 12 18.3281C12.3877 18.3281 12.7031 18.6435 12.7031 19.0312C12.7031 19.419 12.3877 19.7344 12 19.7344Z" fill="#1A064F"/>
</svg>
