<svg width="34" height="34" viewBox="0 0 34 34" fill="none" xmlns="http://www.w3.org/2000/svg">
<path d="M4.24855 4.2004C4.10963 3.86697 3.71544 3.70275 3.38128 3.84181C3.04719 3.98086 2.88343 4.37432 3.02202 4.70907C3.16022 5.04296 3.55593 5.20606 3.88929 5.06767C4.22458 4.92848 4.38608 4.53575 4.24855 4.2004Z" fill="#E8543E"/>
<path d="M6.52088 4.20104C6.38375 3.86622 5.98697 3.70359 5.65361 3.84178C5.31926 3.98037 5.15616 4.37376 5.29435 4.70838C5.43235 5.0426 5.82753 5.20676 6.16169 5.06764C6.49485 4.92892 6.6602 4.53519 6.52088 4.20104Z" fill="#E8543E"/>
<path d="M8.92515 4.20108C8.78796 3.86612 8.39118 3.70416 8.05789 3.84182C7.72327 3.98001 7.56057 4.37413 7.69863 4.70842C7.83669 5.04264 8.23181 5.20673 8.56596 5.06768C8.89912 4.92902 9.06447 4.53517 8.92515 4.20108Z" fill="#E8543E"/>
<path d="M33.8071 29.3129L30.8681 26.374L33.5074 25.5564C33.7814 25.4715 33.9739 25.2114 33.975 24.9246C33.976 24.6378 33.7856 24.3762 33.5123 24.2892L30.0502 23.1871V18.3506C30.0502 17.9838 29.7529 17.6865 29.3861 17.6865C29.0194 17.6865 28.722 17.9838 28.722 18.3506V22.7643L23.1632 20.9947C22.6586 20.8343 22.1686 21.3264 22.3288 21.829L24.1814 27.6479H3.17789C2.15791 27.6479 1.32819 26.8182 1.32819 25.7983V7.55012H28.722V12.503C28.722 12.8698 29.0194 13.1671 29.3861 13.1671C29.7529 13.1671 30.0502 12.8698 30.0502 12.503L30.0508 4.53693C30.0508 2.78485 28.6254 1.35938 26.8733 1.35938H3.17789C1.42574 1.35938 0.000332047 2.78485 0.000332047 4.53693L0 25.7983C0 27.5506 1.42561 28.9762 3.17789 28.9762H24.6042L25.6235 32.1781C25.7103 32.4506 25.9706 32.6408 26.2565 32.6408C26.5425 32.6407 26.8029 32.4501 26.8893 32.1774L27.7419 29.4886L30.6866 32.4333C30.946 32.6927 31.3664 32.6927 31.6259 32.4333L33.8071 30.2521C34.0643 30.0048 34.0643 29.5602 33.8071 29.3129ZM1.32852 4.53693C1.32852 3.51721 2.15811 2.68756 3.17789 2.68756H26.8733C27.8931 2.68756 28.7227 3.51721 28.7227 4.53693V6.2218H1.32852V4.53693ZM31.1562 31.0246L27.9087 27.777C27.5625 27.4309 26.9536 27.5806 26.806 28.0458L26.255 29.7835L23.9841 22.6501L31.0945 24.9134L29.4237 25.431C28.9553 25.5761 28.8032 26.1874 29.1507 26.535L32.3983 29.7826L31.1562 31.0246Z" fill="#E8543E"/>
<path d="M7.78386 8.9299C7.60249 8.9056 7.42206 8.89331 7.24773 8.89331C5.03371 8.89331 3.23242 10.6946 3.23242 12.9086C3.23242 15.1225 5.03371 16.9238 7.24773 16.9238C9.14957 16.9238 10.8042 15.5726 11.1821 13.7108C11.2551 13.3514 11.0229 13.0009 10.6634 12.9279C10.304 12.855 9.95345 13.0871 9.88047 13.4466C9.62765 14.6918 8.52047 15.5956 7.24767 15.5956C5.76594 15.5956 4.56054 14.3902 4.56054 12.9086C4.56054 11.4269 5.76594 10.2215 7.24767 10.2215C7.36329 10.2215 7.48448 10.2299 7.60781 10.2463C7.97093 10.2951 8.30544 10.0397 8.35405 9.67614C8.40266 9.31262 8.14745 8.97851 7.78386 8.9299Z" fill="#E8543E"/>
<path d="M7.24773 26.229C9.46176 26.229 11.263 24.4277 11.263 22.2138C11.263 19.9998 9.46176 18.1985 7.24773 18.1985C5.03371 18.1985 3.23242 19.9998 3.23242 22.2138C3.23242 24.4277 5.03371 26.229 7.24773 26.229ZM7.24773 19.5266C8.7294 19.5266 9.93479 20.732 9.93479 22.2137C9.93479 23.6954 8.7294 24.9008 7.24773 24.9008C5.76601 24.9008 4.56061 23.6954 4.56061 22.2137C4.56061 20.7321 5.76601 19.5266 7.24773 19.5266Z" fill="#E8543E"/>
<path d="M24.3507 10.5623H13.5166C13.1499 10.5623 12.8525 10.8596 12.8525 11.2264C12.8525 11.5931 13.1499 11.8904 13.5166 11.8904H24.3507C24.7174 11.8904 25.0147 11.5931 25.0147 11.2264C25.0147 10.8596 24.7174 10.5623 24.3507 10.5623Z" fill="#E8543E"/>
<path d="M25.0147 14.4168C25.0147 14.05 24.7174 13.7527 24.3507 13.7527H13.5166C13.1499 13.7527 12.8525 14.05 12.8525 14.4168C12.8525 14.7836 13.1499 15.0809 13.5166 15.0809H24.3507C24.7174 15.0809 25.0147 14.7836 25.0147 14.4168Z" fill="#E8543E"/>
<path d="M13.5166 21.3252H19.6315C19.9982 21.3252 20.2956 21.0279 20.2956 20.6612C20.2956 20.2944 19.9982 19.9971 19.6315 19.9971H13.5166C13.1499 19.9971 12.8525 20.2944 12.8525 20.6612C12.8525 21.0279 13.1499 21.3252 13.5166 21.3252Z" fill="#E8543E"/>
<path d="M13.5166 24.5159H20.2962C20.6629 24.5159 20.9603 24.2186 20.9603 23.8518C20.9603 23.4851 20.6629 23.1877 20.2962 23.1877H13.5166C13.1499 23.1877 12.8525 23.4851 12.8525 23.8518C12.8525 24.2186 13.1499 24.5159 13.5166 24.5159Z" fill="#E8543E"/>
<path d="M6.74407 12.0486C6.48468 11.7893 6.06431 11.7893 5.80485 12.0486C5.54552 12.308 5.54552 12.7285 5.80485 12.9879L6.82277 14.0058C7.08216 14.2651 7.50253 14.2651 7.762 14.0058L10.9884 10.7794C11.2477 10.5201 11.2477 10.0996 10.9884 9.84025C10.7291 9.58092 10.3087 9.58092 10.0491 9.84025L7.29235 12.597L6.74407 12.0486Z" fill="#E8543E"/>
<path d="M29.9384 15.053C29.7839 14.8166 29.4804 14.7069 29.2098 14.7824C28.9417 14.8571 28.7462 15.0954 28.7247 15.3728C28.6771 15.9888 29.4612 16.3219 29.8762 15.87C30.0806 15.6474 30.106 15.3041 29.9384 15.053Z" fill="#E8543E"/>
</svg>
