<svg width="34" height="34" viewBox="0 0 34 34" fill="none" xmlns="http://www.w3.org/2000/svg">
<path d="M9.9652 6.13912C9.77229 5.82728 9.3631 5.73059 9.05112 5.92364L9.01799 5.94416C8.70608 6.137 8.60959 6.54626 8.8025 6.85824C8.92807 7.06137 9.14542 7.17307 9.36788 7.17307C9.48708 7.17307 9.60774 7.14106 9.71651 7.07372L9.74965 7.0532C10.0616 6.86036 10.158 6.4511 9.9652 6.13912Z" fill="#E8543E"/>
<path d="M33.685 11.3218L17.349 1.22802C17.1351 1.09587 16.8649 1.09587 16.6509 1.22802L11.166 4.61706C10.854 4.80977 10.7573 5.21903 10.9501 5.53108C11.143 5.84312 11.5521 5.93961 11.8641 5.7469L17 2.57354L32.0726 11.8867L17 21.1998L8.85481 16.167L15.725 12.0879C16.0708 12.3766 16.5154 12.5507 17 12.5507C18.0985 12.5507 18.9922 11.6571 18.9922 10.5586C18.9922 9.46007 18.0985 8.56637 17 8.56637C15.9015 8.56637 15.0078 9.46007 15.0078 10.5586C15.0078 10.6913 15.0212 10.8209 15.046 10.9464L7.58001 15.3793L1.92737 11.8867L7.16025 8.65336C7.47223 8.46065 7.56892 8.05146 7.37607 7.73935C7.18336 7.42737 6.77417 7.33082 6.46212 7.52353L0.315031 11.3218C0.119199 11.4427 0 11.6565 0 11.8867C0 12.1168 0.119199 12.3307 0.315031 12.4516L6.29153 16.1444L5.52121 16.6018C4.3275 17.3105 3.58594 18.6133 3.58594 20.0015V21.0504C2.83203 21.323 2.29175 22.0458 2.29175 22.8926V24.0475C1.77929 24.5535 1.46094 25.2558 1.46094 26.0312V32.207C1.46094 32.5737 1.75824 32.8711 2.125 32.8711H6.375C6.74176 32.8711 7.03906 32.5737 7.03906 32.207V26.0312C7.03906 25.2558 6.72071 24.5535 6.20825 24.0476V22.8927C6.20825 22.0459 5.66797 21.3231 4.91406 21.0505V20.0015C4.91406 19.0795 5.40653 18.2145 6.19929 17.7438L7.03906 17.2451V23.6842C7.03906 24.0508 7.33636 24.3482 7.70312 24.3482C11.0483 24.3482 14.1817 25.6637 16.5261 28.0524C16.6509 28.1796 16.8217 28.2512 17 28.2512C17.1783 28.2512 17.349 28.1796 17.4739 28.0524C19.8184 25.6637 22.9518 24.3482 26.2969 24.3482C26.6636 24.3482 26.9609 24.0508 26.9609 23.6842V22.5117C26.9609 22.145 26.6636 21.8476 26.2969 21.8476C25.9301 21.8476 25.6328 22.145 25.6328 22.5117V23.0358C22.6926 23.1749 19.9272 24.237 17.6641 26.0837V24.6985C17.6641 24.3318 17.3668 24.0344 17 24.0344C16.6332 24.0344 16.3359 24.3318 16.3359 24.6985V26.0837C14.0728 24.237 11.3074 23.1749 8.36719 23.0358V17.427L16.651 22.5454C16.7579 22.6114 16.879 22.6445 17 22.6445C17.121 22.6445 17.2421 22.6114 17.349 22.5454L25.6328 17.4269V18.1732C25.6328 18.5399 25.9301 18.8372 26.2969 18.8372C26.6636 18.8372 26.9609 18.5399 26.9609 18.1732V16.6254C26.9609 16.6191 26.9601 16.6131 26.96 16.6068L33.685 12.4515C33.8808 12.3306 34 12.1168 34 11.8866C34 11.6565 33.8808 11.4427 33.685 11.3218ZM17 9.8945C17.3662 9.8945 17.6641 10.1924 17.6641 10.5586C17.6641 10.9247 17.3662 11.2226 17 11.2226C16.6338 11.2226 16.3359 10.9247 16.3359 10.5586C16.3359 10.1924 16.6338 9.8945 17 9.8945ZM3.61987 22.8926C3.61987 22.5452 3.90256 22.2625 4.25 22.2625C4.59744 22.2625 4.88013 22.5452 4.88013 22.8926V23.2422H3.61987V22.8926ZM5.71094 26.0312V31.5429H2.78906V26.0312C2.78906 25.2256 3.44443 24.5703 4.25 24.5703C5.05557 24.5703 5.71094 25.2256 5.71094 26.0312Z" fill="#E8543E"/>
<path d="M26.7664 19.74C26.6429 19.6165 26.4715 19.5454 26.2969 19.5454C26.1222 19.5454 25.9509 19.6164 25.8274 19.74C25.7039 19.8635 25.6328 20.0348 25.6328 20.2095C25.6328 20.3841 25.7039 20.5554 25.8274 20.6789C25.9509 20.8031 26.1222 20.8735 26.2969 20.8735C26.4715 20.8735 26.6429 20.8031 26.7664 20.6789C26.8899 20.5554 26.9609 20.3841 26.9609 20.2095C26.9609 20.0348 26.8899 19.8635 26.7664 19.74Z" fill="#E8543E"/>
</svg>
