<svg width="34" height="34" viewBox="0 0 34 34" fill="none" xmlns="http://www.w3.org/2000/svg">
<path d="M23.9062 24.7026C22.5148 24.7026 21.3828 25.8346 21.3828 27.226C21.3828 28.6174 22.5148 29.7494 23.9062 29.7494C25.2975 29.7494 26.4296 28.6174 26.4296 27.226C26.4296 25.8347 25.2975 24.7026 23.9062 24.7026ZM23.9062 28.4213C23.2471 28.4213 22.7109 27.885 22.7109 27.226C22.7109 26.5669 23.2472 26.0308 23.9062 26.0308C24.5653 26.0308 25.1014 26.567 25.1014 27.226C25.1014 27.8851 24.5652 28.4213 23.9062 28.4213Z" fill="#E8543E"/>
<path d="M31.0783 20.8514H16.7351C15.124 20.8514 13.8133 22.162 13.8133 23.7732V32.6714H9.16386V29.0856C9.16386 28.7189 8.8665 28.4215 8.4998 28.4215C8.13311 28.4215 7.83574 28.7189 7.83574 29.0856V32.6714H4.91406V26.0309C4.91406 23.1383 7.26737 20.785 10.16 20.785C10.5267 20.785 10.824 20.4877 10.824 20.121C10.824 20.1135 10.8232 20.1063 10.8229 20.0989C11.5332 20.5338 12.3676 20.785 13.2598 20.785C15.8405 20.785 17.9401 18.6855 17.9401 16.1047V14.515C17.9401 11.9342 15.8405 9.83472 13.2598 9.83472C10.6791 9.83472 8.57955 11.9343 8.57955 14.515V16.1047C8.57955 17.4192 9.12502 18.608 10.0004 19.4589C6.44891 19.544 3.58594 22.4593 3.58594 26.0309V33.3354C3.58594 33.7021 3.8833 33.9994 4.25 33.9994H33.3361C33.7028 33.9994 34.0001 33.7021 34.0001 33.3354V23.7732C34.0001 22.1621 32.6894 20.8514 31.0783 20.8514ZM9.90755 16.1047V14.5149C9.90755 12.6665 11.4113 11.1628 13.2597 11.1628C15.108 11.1628 16.6119 12.6665 16.6119 14.5149V16.1047C16.6119 17.953 15.1081 19.4568 13.2597 19.4568C11.4113 19.4569 9.90755 17.9531 9.90755 16.1047ZM32.6721 30.011H29.5676C29.201 30.011 28.9036 30.3084 28.9036 30.6751C28.9036 31.0418 29.201 31.3391 29.5676 31.3391H32.6721V32.6714H22.2903V32.6713H15.1414V23.7732C15.1414 22.8944 15.8564 22.1795 16.735 22.1795H31.0783C31.9571 22.1795 32.672 22.8945 32.672 23.7732V30.011H32.6721Z" fill="#E8543E"/>
<path d="M27.3981 30.2065C27.2747 30.083 27.104 30.012 26.9287 30.012C26.754 30.012 26.5827 30.083 26.4592 30.2065C26.3357 30.33 26.2646 30.5013 26.2646 30.676C26.2646 30.8507 26.3356 31.022 26.4592 31.1455C26.5827 31.269 26.754 31.3401 26.9287 31.3401C27.104 31.3401 27.2747 31.269 27.3981 31.1455C27.5223 31.022 27.5928 30.8507 27.5928 30.676C27.5928 30.5013 27.5223 30.33 27.3981 30.2065Z" fill="#E8543E"/>
<path d="M32.0741 3.58618H24.9015C23.84 3.58618 22.9763 4.44979 22.9763 5.51136V11.8014L21.4347 13.3428C21.1754 13.6022 21.1754 14.0226 21.4347 14.282L22.9763 15.8235V16.27C22.9763 17.3315 23.84 18.1951 24.9015 18.1951H32.0742C33.1356 18.1951 33.9993 17.3315 33.9993 16.27V5.51136C33.9993 4.44979 33.1356 3.58618 32.0741 3.58618ZM32.6712 16.2699C32.6712 16.5991 32.4034 16.867 32.0742 16.867H24.9015C24.5722 16.867 24.3043 16.5991 24.3043 16.2699V15.5484C24.3043 15.3723 24.2343 15.2033 24.1098 15.0788L22.8434 13.8124L24.1098 12.546C24.2343 12.4215 24.3043 12.2525 24.3043 12.0764V5.51136C24.3043 5.18212 24.5722 4.91424 24.9015 4.91424H32.0742C32.4034 4.91424 32.6712 5.18212 32.6712 5.51136V16.2699Z" fill="#E8543E"/>
<path d="M18.1325 9.02685C18.0091 8.90333 17.8377 8.83228 17.6631 8.83228C17.4884 8.83228 17.3171 8.90333 17.1936 9.02685C17.0701 9.15036 16.999 9.32169 16.999 9.49634C16.999 9.67099 17.07 9.84231 17.1936 9.96583C17.3172 10.0893 17.4884 10.1604 17.6631 10.1604C17.8377 10.1604 18.0091 10.0893 18.1325 9.96583C18.256 9.84231 18.3271 9.67099 18.3271 9.49634C18.3271 9.32169 18.2561 9.15036 18.1325 9.02685Z" fill="#E8543E"/>
<path d="M17.6635 0.000488281H10.4935C9.98298 0.000488281 9.51681 0.193598 9.1638 0.510289C8.81071 0.193531 8.34454 0.000488281 7.83408 0.000488281H0.664062C0.297367 0.000488281 0 0.297789 0 0.664551V12.4845C0 12.8512 0.297367 13.1485 0.664062 13.1485H6.30839C6.67509 13.1485 6.97246 12.8512 6.97246 12.4845C6.97246 12.1177 6.67509 11.8204 6.30839 11.8204H1.32806V1.32855H7.83401C8.20111 1.32855 8.49973 1.62718 8.49973 1.99427V10.4987C8.49973 10.8655 8.7971 11.1628 9.1638 11.1628C9.53049 11.1628 9.82786 10.8655 9.82786 10.4987V1.99427C9.82786 1.62718 10.1265 1.32855 10.4936 1.32855H16.9995V7.23937C16.9995 7.60613 17.2969 7.90343 17.6636 7.90343C18.0303 7.90343 18.3277 7.60613 18.3277 7.23937V0.664484C18.3275 0.297723 18.0302 0.000488281 17.6635 0.000488281Z" fill="#E8543E"/>
<path d="M30.2295 7.30518H26.8877C26.521 7.30518 26.2236 7.60248 26.2236 7.96924C26.2236 8.33601 26.521 8.63331 26.8877 8.63331H30.2295C30.5962 8.63331 30.8935 8.33601 30.8935 7.96924C30.8935 7.60248 30.5962 7.30518 30.2295 7.30518Z" fill="#E8543E"/>
<path d="M30.2295 10.2268H26.8877C26.521 10.2268 26.2236 10.5241 26.2236 10.8909C26.2236 11.2576 26.521 11.5549 26.8877 11.5549H30.2295C30.5962 11.5549 30.8935 11.2576 30.8935 10.8909C30.8935 10.5241 30.5962 10.2268 30.2295 10.2268Z" fill="#E8543E"/>
<path d="M30.2295 13.1487H26.8877C26.521 13.1487 26.2236 13.446 26.2236 13.8127C26.2236 14.1795 26.521 14.4768 26.8877 14.4768H30.2295C30.5962 14.4768 30.8935 14.1795 30.8935 13.8127C30.8935 13.446 30.5962 13.1487 30.2295 13.1487Z" fill="#E8543E"/>
<path d="M6.45023 2.98853H3.1084C2.7417 2.98853 2.44434 3.28583 2.44434 3.65259C2.44434 4.01935 2.7417 4.31666 3.1084 4.31666H6.45016C6.81686 4.31666 7.11422 4.01935 7.11422 3.65259C7.11422 3.28583 6.81699 2.98853 6.45023 2.98853Z" fill="#E8543E"/>
<path d="M6.45023 5.9104H3.1084C2.7417 5.9104 2.44434 6.2077 2.44434 6.57446C2.44434 6.94122 2.7417 7.23853 3.1084 7.23853H6.45016C6.81686 7.23853 7.11422 6.94122 7.11422 6.57446C7.11422 6.2077 6.81699 5.9104 6.45023 5.9104Z" fill="#E8543E"/>
<path d="M6.45023 8.83228H3.1084C2.7417 8.83228 2.44434 9.12958 2.44434 9.49634C2.44434 9.8631 2.7417 10.1604 3.1084 10.1604H6.45016C6.81686 10.1604 7.11422 9.8631 7.11422 9.49634C7.11422 9.12958 6.81699 8.83228 6.45023 8.83228Z" fill="#E8543E"/>
<path d="M14.9502 2.98853H11.6084C11.2417 2.98853 10.9443 3.28583 10.9443 3.65259C10.9443 4.01935 11.2417 4.31666 11.6084 4.31666H14.9502C15.3169 4.31666 15.6142 4.01935 15.6142 3.65259C15.6142 3.28583 15.3169 2.98853 14.9502 2.98853Z" fill="#E8543E"/>
<path d="M14.9502 5.9104H11.6084C11.2417 5.9104 10.9443 6.2077 10.9443 6.57446C10.9443 6.94122 11.2417 7.23853 11.6084 7.23853H14.9502C15.3169 7.23853 15.6142 6.94122 15.6142 6.57446C15.6142 6.2077 15.3169 5.9104 14.9502 5.9104Z" fill="#E8543E"/>
</svg>
