<svg width="30" height="30" viewBox="0 0 30 30" fill="none" xmlns="http://www.w3.org/2000/svg">
<path d="M15 14.7058C17.9243 14.7058 20.295 12.3352 20.295 9.41085C20.295 6.48653 17.9243 4.11591 15 4.11591C12.0757 4.11591 9.70508 6.48653 9.70508 9.41085C9.70508 12.3352 12.0757 14.7058 15 14.7058Z" fill="#E2C4FF"/>
<path d="M22.9543 22.2904C22.2742 21.7221 21.3728 21.2338 20.3163 20.8567C22.9212 17.6149 25.5872 13.5687 25.5872 10.5875C25.5872 4.74961 20.8376 0 14.9996 0C9.16166 0 4.41211 4.74961 4.41211 10.5875C4.41211 13.5687 7.07807 17.6149 9.68291 20.8567C8.62652 21.2337 7.72506 21.7221 7.04502 22.2904C6.09229 23.0867 5.58873 24.0242 5.58873 25.0016C5.58879 27.8044 9.72246 30 14.9996 30C20.2768 30 24.4105 27.8044 24.4105 25.0016C24.4105 24.0242 23.907 23.0867 22.9543 22.2904ZM14.9996 1.17188C20.1915 1.17188 24.4153 5.39572 24.4153 10.5875C24.4153 14.8086 17.9504 22.0536 14.9996 25.0542C12.0472 22.0523 5.58398 14.8077 5.58398 10.5875C5.58398 5.39572 9.80783 1.17188 14.9996 1.17188ZM20.9777 27.5976C17.693 29.2399 12.3058 29.2397 9.0215 27.5976C7.58473 26.8791 6.76061 25.933 6.76061 25.0016C6.76061 23.7666 8.20752 22.5415 10.4786 21.8257C12.5582 24.3059 14.4139 26.131 14.5901 26.3031C14.8177 26.5256 15.1813 26.5257 15.409 26.3031C15.5852 26.131 17.4409 24.3059 19.5206 21.8257C21.7917 22.5415 23.2386 23.7666 23.2386 25.0016C23.2386 25.933 22.4146 26.8791 20.9777 27.5976Z" fill="#020288"/>
</svg>
