<svg width="30" height="30" viewBox="0 0 30 30" fill="none" xmlns="http://www.w3.org/2000/svg">
<g clip-path="url(#clip0_322_17876)">
<path d="M9.38201 14.4281C9.999 13.6329 9.83822 12.4943 9.26863 11.6481C8.67255 10.7626 7.00398 8.24609 6.20781 7.71799C5.54365 7.2773 4.55957 7.29242 3.84871 7.72309C3.72648 7.7975 3.44998 8.04266 3.12402 8.34975L8.06828 15.5846C8.71925 15.021 9.3465 14.4738 9.38201 14.4281Z" fill="#69FBC2"/>
<path d="M22.2861 26.1602C22.7177 25.4503 22.7329 24.4663 22.2922 23.8021C21.7641 23.0059 19.3281 21.4118 18.362 20.7413C17.524 20.1596 16.3764 20.0101 15.581 20.627C15.5363 20.6617 15.0122 21.2623 14.4619 21.8976L21.6448 26.9018C21.9588 26.5687 22.2108 26.2847 22.2861 26.1602Z" fill="#69FBC2"/>
<path d="M24.3897 4.72656C24.1608 4.49781 23.7899 4.49781 23.5611 4.72656C23.3323 4.95536 23.3323 5.32638 23.5611 5.55525L24.3258 6.32001H16.3271C16.0036 6.32001 15.7412 6.5824 15.7412 6.90595C15.7412 7.2295 16.0036 7.49189 16.3271 7.49189H24.3258L23.5611 8.25659C23.3323 8.4854 23.3323 8.85642 23.5611 9.08529C23.79 9.31409 24.1608 9.31404 24.3897 9.08529L26.1547 7.32032C26.3834 7.09163 26.3835 6.72056 26.1547 6.49163L24.3897 4.72656Z" fill="#00008B"/>
<path d="M25.7403 10.4382H17.7416L18.5064 9.67353C18.7352 9.44473 18.7352 9.07371 18.5064 8.84484C18.2775 8.61609 17.9066 8.61609 17.6778 8.84484L15.9128 10.6098C15.684 10.8386 15.684 11.2096 15.9128 11.4385L17.6778 13.2035C17.9067 13.4323 18.2775 13.4323 18.5064 13.2035C18.7352 12.9747 18.7352 12.6037 18.5064 12.3748L17.7416 11.6101H25.7404C26.0639 11.6101 26.3263 11.3477 26.3263 11.0241C26.3263 10.7006 26.0639 10.4382 25.7403 10.4382Z" fill="#00008B"/>
<path d="M21.004 0C18.6014 0 16.3426 0.935625 14.6436 2.63455C11.5106 5.76773 11.1601 10.6615 13.6595 14.1888L13.2942 16.0151C13.2124 16.4243 13.5739 16.787 13.9837 16.7046L15.8099 16.3395C19.3052 18.8204 24.2043 18.5153 27.3643 15.3552C29.0633 13.6563 29.9989 11.3975 29.9989 8.9949C29.9989 4.02369 25.9759 0 21.004 0V0ZM21.0049 16.8175C19.2895 16.8175 17.6629 16.2742 16.3007 15.2466C16.1687 15.147 15.9991 15.1066 15.8329 15.1398L14.6158 15.3832L14.8592 14.1661C14.8921 14.0021 14.8531 13.8319 14.7524 13.6983C12.4198 10.6065 12.7293 6.20637 15.4724 3.4633C16.9499 1.98562 18.9144 1.17188 21.004 1.17188C25.3274 1.17188 28.827 4.67068 28.827 8.9949C28.827 13.3175 25.329 16.8177 21.0049 16.8175Z" fill="#00008B"/>
<path d="M18.6959 20.26C17.6406 19.5275 16.2206 19.3892 15.2217 20.164C15.1666 20.2067 15.0845 20.2702 12.9492 22.753C10.8473 22.042 7.96793 19.1625 7.25619 17.0597C9.73887 14.9244 9.8025 14.8422 9.84504 14.7873C10.5635 13.8615 10.5272 12.4685 9.75486 11.321C9.11724 10.3941 7.47234 7.8537 6.53191 7.22985C5.65963 6.65106 4.43021 6.68593 3.54428 7.22259C3.06398 7.51485 1.11644 9.49034 0.910839 9.75149C0.818261 9.87032 0.70412 9.97403 0.59121 10.1956C-0.685255 12.7197 0.344062 17.3609 1.45787 19.9613C2.85305 23.2222 6.78668 27.156 10.0475 28.5512C11.7302 29.2723 14.4797 30 16.8288 30C18.0459 30 19.0501 29.8041 19.811 29.4191C20.0321 29.3086 20.1374 29.1937 20.2607 29.0975C20.5203 28.8932 22.4973 26.9432 22.7865 26.4645C23.3426 25.5499 23.3401 24.3219 22.7802 23.4782C22.179 22.5716 19.7484 20.9902 18.6959 20.26ZM21.7851 25.8559C21.5866 26.169 19.7825 27.978 19.5381 28.1748C19.3959 28.2856 19.3573 28.3357 19.2844 28.3721C17.1662 29.444 12.7096 28.4171 10.5087 27.4738C7.53381 26.2009 3.80789 22.4751 2.53512 19.5C1.51898 17.1279 0.568534 12.8369 1.636 10.7261C1.67133 10.6569 1.72928 10.6075 1.83269 10.4748C2.03162 10.2278 3.84082 8.42259 4.15236 8.22425C4.68275 7.90298 5.42203 7.89975 5.88392 8.20626C6.57668 8.66581 8.32008 11.2869 8.78262 11.9753C9.18404 12.5717 9.38426 13.4373 8.93853 14.0432C8.71125 14.2572 7.16203 15.5956 6.20789 16.4155C6.0423 16.5578 5.96959 16.7804 6.01916 16.993C6.63808 19.6447 10.3654 23.372 13.016 23.9899C13.2288 24.0394 13.4512 23.9667 13.5935 23.8011C14.4134 22.8468 15.7517 21.2976 15.9656 21.0704C16.5565 20.6356 17.4226 20.8027 18.0277 21.2227C18.7545 21.7271 21.3466 23.437 21.8037 24.1261C22.1111 24.5892 22.1031 25.3329 21.7851 25.8559Z" fill="#00008B"/>
</g>
<defs>
<clipPath id="clip0_322_17876">
<rect width="30" height="30" fill="white"/>
</clipPath>
</defs>
</svg>
