<svg width="30" height="30" viewBox="0 0 30 30" fill="none" xmlns="http://www.w3.org/2000/svg">
<path d="M26.8665 12.0546C26.8662 12.0544 26.8661 12.0542 26.8658 12.054C26.8657 12.0538 26.8655 12.0536 26.8652 12.0534C26.8651 12.0533 26.865 12.0532 26.8649 12.0531C26.8648 12.053 26.8646 12.0528 26.8645 12.0527C26.4506 11.6507 25.904 11.4293 25.3252 11.4293H15.6772V12.6012H25.3252C25.3776 12.6012 25.4292 12.605 25.4802 12.6125L15.9332 21.9933L15.6827 22.2258H14.318L14.0674 21.9933L4.52047 12.6125C4.57133 12.605 4.62307 12.6011 4.67539 12.6011H14.1813V11.4292H4.67533C4.0966 11.4292 3.54998 11.6507 3.13607 12.0527C3.13596 12.0528 3.13578 12.0529 3.13566 12.053C3.13555 12.0531 3.13543 12.0533 3.13531 12.0534C3.13514 12.0535 3.13496 12.0537 3.13473 12.0539C3.13449 12.0541 3.13432 12.0543 3.13408 12.0545C2.70125 12.4746 2.46289 13.0378 2.46289 13.6407V27.7884C2.46289 28.43 2.74098 29.0385 3.22584 29.4582C3.22654 29.4587 3.22725 29.4593 3.22789 29.4599C3.62885 29.8083 4.14254 30 4.67533 30H25.3253C25.8581 30 26.3718 29.8083 26.7726 29.46C26.7733 29.4594 26.774 29.4588 26.7747 29.4582C27.2595 29.0386 27.5376 28.43 27.5376 27.7885V13.6407C27.5377 13.0379 27.2992 12.4747 26.8665 12.0546ZM3.71738 28.1941C3.66353 28.0673 3.63488 27.9296 3.63488 27.7885V13.6407C3.63488 13.5622 3.64355 13.485 3.66037 13.4103L12.1375 21.7399L3.71738 28.1941ZM4.81648 28.8281L12.9816 22.5694L13.6895 23.2413C13.7978 23.3417 13.9402 23.3976 14.088 23.3976H15.9127C16.0604 23.3976 16.2028 23.3417 16.3112 23.2413L17.019 22.5694L25.1841 28.8281H4.81648ZM17.8631 21.7399L26.3403 13.4103C26.3571 13.485 26.3658 13.5622 26.3658 13.6407V27.7885C26.3658 27.9296 26.3371 28.0673 26.2833 28.1941L17.8631 21.7399Z" fill="#020288"/>
<path d="M12.8983 7.66471V15.5365H17.1021V7.66471H20.2865L15.0002 0L9.71387 7.66471H12.8983Z" fill="#B2F0FB"/>
<path d="M19.1993 15.8988H10.8018C10.4782 15.8988 10.2158 15.6365 10.2158 15.3129C10.2158 14.9893 10.4782 14.727 10.8018 14.727H19.1993C19.5229 14.727 19.7852 14.9893 19.7852 15.3129C19.7852 15.6365 19.5229 15.8988 19.1993 15.8988Z" fill="#020288"/>
</svg>
