<svg width="16" height="17" viewBox="0 0 16 17" fill="none" xmlns="http://www.w3.org/2000/svg">
<g clip-path="url(#clip0_418_5609)">
<path d="M13.5562 4.22078L10.543 1.37009C10.2225 1.06687 9.80297 0.899902 9.36178 0.899902H3.625C2.67728 0.899902 1.90625 1.67093 1.90625 2.61865V15.1812C1.90625 16.1289 2.67728 16.8999 3.625 16.8999H12.375C13.3227 16.8999 14.0938 16.1289 14.0938 15.1812V5.46934C14.0938 4.99906 13.8978 4.54396 13.5562 4.22078ZM12.6457 4.6499H10.3125C10.2263 4.6499 10.1562 4.57981 10.1562 4.49365V2.29478L12.6457 4.6499ZM12.375 15.9624H3.625C3.19422 15.9624 2.84375 15.6119 2.84375 15.1812V2.61865C2.84375 2.18787 3.19422 1.8374 3.625 1.8374H9.21875V4.49365C9.21875 5.09675 9.70941 5.5874 10.3125 5.5874H13.1562V15.1812C13.1562 15.6119 12.8058 15.9624 12.375 15.9624Z" fill="#6A7A99"/>
<path d="M11.3438 7.1499H4.46875C4.20987 7.1499 4 7.35978 4 7.61865C4 7.87753 4.20987 8.0874 4.46875 8.0874H11.3438C11.6026 8.0874 11.8125 7.87753 11.8125 7.61865C11.8125 7.35978 11.6026 7.1499 11.3438 7.1499Z" fill="#6A7A99"/>
<path d="M11.3438 9.6499H4.46875C4.20987 9.6499 4 9.85978 4 10.1187C4 10.3775 4.20987 10.5874 4.46875 10.5874H11.3438C11.6026 10.5874 11.8125 10.3775 11.8125 10.1187C11.8125 9.85978 11.6026 9.6499 11.3438 9.6499Z" fill="#6A7A99"/>
<path d="M6.74125 12.1499H4.46875C4.20987 12.1499 4 12.3598 4 12.6187C4 12.8775 4.20987 13.0874 4.46875 13.0874H6.74125C7.00012 13.0874 7.21 12.8775 7.21 12.6187C7.21 12.3598 7.00012 12.1499 6.74125 12.1499Z" fill="#6A7A99"/>
</g>
<defs>
<clipPath id="clip0_418_5609">
<rect width="16" height="16" fill="white" transform="translate(0 0.899902)"/>
</clipPath>
</defs>
</svg>
