<svg width="16" height="17" viewBox="0 0 16 17" fill="none" xmlns="http://www.w3.org/2000/svg">
<g clip-path="url(#clip0_418_5616)">
<path d="M8 0.899902C3.58891 0.899902 0 4.48862 0 8.8999C0 13.3112 3.58891 16.8999 8 16.8999C12.4113 16.8999 16 13.3112 16 8.8999C16 4.48862 12.4111 0.899902 8 0.899902ZM8 15.732C4.23281 15.732 1.16788 12.6671 1.16788 8.8999C1.16788 5.13271 4.23281 2.06778 8 2.06778C11.7672 2.06778 14.8321 5.13268 14.8321 8.89971C14.8321 12.6671 11.7672 15.732 8 15.732Z" fill="#6A7A99"/>
<path d="M10.7251 8.89985H8.19473V5.39619C8.19473 5.07366 7.93332 4.81226 7.61079 4.81226C7.28826 4.81226 7.02686 5.07366 7.02686 5.39619V9.48379C7.02686 9.80632 7.28826 10.0677 7.61079 10.0677H10.7251C11.0477 10.0677 11.3091 9.80632 11.3091 9.48379C11.3091 9.16126 11.0477 8.89985 10.7251 8.89985Z" fill="#6A7A99"/>
</g>
<defs>
<clipPath id="clip0_418_5616">
<rect width="16" height="16" fill="white" transform="translate(0 0.899902)"/>
</clipPath>
</defs>
</svg>
