<svg width="16" height="17" viewBox="0 0 16 17" fill="none" xmlns="http://www.w3.org/2000/svg">
<g clip-path="url(#clip0_418_5625)">
<path d="M2.15506 10.0803C0.966781 10.0803 0 11.0471 0 12.2354V14.7447C0 15.933 0.966781 16.8998 2.15509 16.8998C3.34341 16.8998 4.31016 15.933 4.31016 14.7447V12.2354C4.31016 11.0471 3.34337 10.0803 2.15506 10.0803ZM3.06013 14.7447C3.06013 15.2438 2.65412 15.6498 2.15506 15.6498C1.65603 15.6498 1.25 15.2438 1.25 14.7447V12.2354C1.25 11.7363 1.65603 11.3303 2.15509 11.3303C2.65416 11.3303 3.06016 11.7364 3.06013 12.2354V14.7447Z" fill="#6A7A99"/>
<path d="M7.99987 0.899902C6.81157 0.899902 5.84479 1.86668 5.84479 3.055V14.7448C5.84479 15.9331 6.81157 16.8999 7.99987 16.8999C9.18818 16.8999 10.155 15.9331 10.155 14.7448V3.055C10.155 1.86668 9.18818 0.899902 7.99987 0.899902ZM8.90496 14.7448C8.90496 15.2439 8.49893 15.6499 7.99987 15.6499C7.50081 15.6499 7.09478 15.2439 7.09478 14.7448V3.055C7.09478 2.5559 7.50081 2.1499 7.99987 2.1499C8.49893 2.1499 8.90496 2.5559 8.90496 3.055V14.7448Z" fill="#6A7A99"/>
<path d="M13.8448 5.49023C12.6565 5.49023 11.6897 6.45702 11.6897 7.64533V14.7449C11.6897 15.9332 12.6565 16.9 13.8448 16.9C15.0331 16.9 15.9999 15.9332 15.9999 14.7449V7.64533C15.9999 6.45702 15.0331 5.49023 13.8448 5.49023ZM14.7499 14.7449C14.7499 15.244 14.3438 15.65 13.8448 15.65C13.3457 15.65 12.9397 15.244 12.9397 14.7449V7.64533C12.9397 7.14623 13.3457 6.74023 13.8448 6.74023C14.3438 6.74023 14.7499 7.14623 14.7499 7.64533V14.7449Z" fill="#6A7A99"/>
</g>
<defs>
<clipPath id="clip0_418_5625">
<rect width="16" height="16" fill="white" transform="translate(0 0.899902)"/>
</clipPath>
</defs>
</svg>
