<svg width="150" height="17" viewBox="0 0 150 17" fill="none" xmlns="http://www.w3.org/2000/svg">
<path d="M120.601 16.4089C119.717 15.6462 119.019 14.7752 118.508 13.7959C118.005 12.8079 117.754 11.6639 117.754 10.3639C117.754 9.05524 118.005 7.91124 118.508 6.9319C119.019 5.95257 119.717 5.07724 120.601 4.3059L121.29 4.9559C120.484 5.7359 119.877 6.55924 119.47 7.4259C119.071 8.29257 118.872 9.2719 118.872 10.3639C118.872 11.4559 119.071 12.4352 119.47 13.3019C119.877 14.1686 120.484 14.9919 121.29 15.7719L120.601 16.4089ZM123.453 7.5689H121.607V6.5679C122.135 6.5679 122.538 6.52024 122.816 6.4249C123.093 6.32957 123.284 6.1779 123.388 5.9699C123.492 5.75324 123.544 5.4499 123.544 5.0599H124.623V13.8999H123.453V7.5689ZM132.733 8.0629C132.733 8.78224 132.542 9.41924 132.161 9.9739L129.379 13.8999H127.962L129.951 11.1959C129.882 11.2046 129.769 11.2089 129.613 11.2089C128.98 11.2089 128.426 11.0702 127.949 10.7929C127.481 10.5156 127.117 10.1386 126.857 9.6619C126.606 9.17657 126.48 8.64357 126.48 8.0629C126.48 7.47357 126.606 6.94057 126.857 6.4639C127.117 5.97857 127.481 5.59724 127.949 5.3199C128.426 5.04257 128.98 4.9039 129.613 4.9039C130.246 4.9039 130.796 5.04257 131.264 5.3199C131.741 5.59724 132.105 5.97857 132.356 6.4639C132.607 6.94057 132.733 7.47357 132.733 8.0629ZM127.611 8.0629C127.611 8.67824 127.789 9.18957 128.144 9.5969C128.508 9.99557 128.998 10.1949 129.613 10.1949C130.228 10.1949 130.714 9.99557 131.069 9.5969C131.424 9.18957 131.602 8.67824 131.602 8.0629C131.602 7.4389 131.424 6.92757 131.069 6.5289C130.714 6.12157 130.228 5.9179 129.613 5.9179C128.998 5.9179 128.508 6.12157 128.144 6.5289C127.789 6.92757 127.611 7.4389 127.611 8.0629ZM139.944 8.0629C139.944 8.78224 139.753 9.41924 139.372 9.9739L136.59 13.8999H135.173L137.162 11.1959C137.093 11.2046 136.98 11.2089 136.824 11.2089C136.191 11.2089 135.637 11.0702 135.16 10.7929C134.692 10.5156 134.328 10.1386 134.068 9.6619C133.817 9.17657 133.691 8.64357 133.691 8.0629C133.691 7.47357 133.817 6.94057 134.068 6.4639C134.328 5.97857 134.692 5.59724 135.16 5.3199C135.637 5.04257 136.191 4.9039 136.824 4.9039C137.457 4.9039 138.007 5.04257 138.475 5.3199C138.952 5.59724 139.316 5.97857 139.567 6.4639C139.818 6.94057 139.944 7.47357 139.944 8.0629ZM134.822 8.0629C134.822 8.67824 135 9.18957 135.355 9.5969C135.719 9.99557 136.209 10.1949 136.824 10.1949C137.439 10.1949 137.925 9.99557 138.28 9.5969C138.635 9.18957 138.813 8.67824 138.813 8.0629C138.813 7.4389 138.635 6.92757 138.28 6.5289C137.925 6.12157 137.439 5.9179 136.824 5.9179C136.209 5.9179 135.719 6.12157 135.355 6.5289C135 6.92757 134.822 7.4389 134.822 8.0629ZM142.813 7.5689H140.967V6.5679C141.496 6.5679 141.899 6.52024 142.176 6.4249C142.453 6.32957 142.644 6.1779 142.748 5.9699C142.852 5.75324 142.904 5.4499 142.904 5.0599H143.983V13.8999H142.813V7.5689ZM145.281 15.7719C146.088 14.9919 146.69 14.1686 147.089 13.3019C147.496 12.4352 147.7 11.4559 147.7 10.3639C147.7 9.2719 147.496 8.29257 147.089 7.4259C146.69 6.55924 146.088 5.7359 145.281 4.9559L145.971 4.3059C146.855 5.07724 147.548 5.95257 148.051 6.9319C148.562 7.91124 148.818 9.05524 148.818 10.3639C148.818 11.6639 148.562 12.8079 148.051 13.7959C147.548 14.7752 146.855 15.6462 145.971 16.4089L145.281 15.7719Z" fill="#4F547B"/>
<path d="M34.4636 4.24776L33.243 6.83338L30.5122 7.24935C30.0224 7.32355 29.8262 7.95434 30.1813 8.31562L32.157 10.3271L31.6897 13.1685C31.6056 13.6821 32.1234 14.0669 32.557 13.8267L35 12.485L37.443 13.8267C37.8766 14.0649 38.3944 13.6821 38.3103 13.1685L37.843 10.3271L39.8187 8.31562C40.1738 7.95434 39.9776 7.32355 39.4878 7.24935L36.757 6.83338L35.5364 4.24776C35.3178 3.78688 34.6841 3.78102 34.4636 4.24776Z" fill="#E59819"/>
<path d="M51.4636 4.24776L50.243 6.83338L47.5122 7.24935C47.0224 7.32355 46.8262 7.95434 47.1813 8.31562L49.157 10.3271L48.6897 13.1685C48.6056 13.6821 49.1234 14.0669 49.557 13.8267L52 12.485L54.443 13.8267C54.8766 14.0649 55.3944 13.6821 55.3103 13.1685L54.843 10.3271L56.8187 8.31562C57.1738 7.95434 56.9776 7.32355 56.4878 7.24935L53.757 6.83338L52.5364 4.24776C52.3178 3.78688 51.6841 3.78102 51.4636 4.24776Z" fill="#E59819"/>
<path d="M68.4636 4.24776L67.243 6.83338L64.5122 7.24935C64.0224 7.32355 63.8262 7.95434 64.1813 8.31562L66.157 10.3271L65.6897 13.1685C65.6056 13.6821 66.1234 14.0669 66.557 13.8267L69 12.485L71.443 13.8267C71.8766 14.0649 72.3944 13.6821 72.3103 13.1685L71.843 10.3271L73.8187 8.31562C74.1738 7.95434 73.9776 7.32355 73.4878 7.24935L70.757 6.83338L69.5364 4.24776C69.3178 3.78688 68.6841 3.78102 68.4636 4.24776Z" fill="#E59819"/>
<path d="M85.4636 4.24776L84.243 6.83338L81.5122 7.24935C81.0224 7.32355 80.8262 7.95434 81.1813 8.31562L83.157 10.3271L82.6897 13.1685C82.6056 13.6821 83.1234 14.0669 83.557 13.8267L86 12.485L88.443 13.8267C88.8766 14.0649 89.3944 13.6821 89.3103 13.1685L88.843 10.3271L90.8187 8.31562C91.1738 7.95434 90.9776 7.32355 90.4878 7.24935L87.757 6.83338L86.5364 4.24776C86.3178 3.78688 85.6841 3.78102 85.4636 4.24776Z" fill="#E59819"/>
<path d="M102.464 4.24776L101.243 6.83338L98.5122 7.24935C98.0224 7.32355 97.8262 7.95434 98.1813 8.31562L100.157 10.3271L99.6897 13.1685C99.6056 13.6821 100.123 14.0669 100.557 13.8267L103 12.485L105.443 13.8267C105.877 14.0649 106.394 13.6821 106.31 13.1685L105.843 10.3271L107.819 8.31562C108.174 7.95434 107.978 7.32355 107.488 7.24935L104.757 6.83338L103.536 4.24776C103.318 3.78688 102.684 3.78102 102.464 4.24776Z" fill="#E59819"/>
<path d="M7.56 10.9599H6.202V13.8999H4.606V10.9599H0.84V4.3799H2.436V9.5179H4.606V6.8579H6.202V9.5179H7.56V10.9599ZM9.57655 14.0119C9.24988 14.0119 8.96988 13.8952 8.73655 13.6619C8.51255 13.4286 8.40055 13.1486 8.40055 12.8219C8.40055 12.4952 8.51255 12.2199 8.73655 11.9959C8.96988 11.7626 9.24988 11.6459 9.57655 11.6459C9.90321 11.6459 10.1832 11.7626 10.4165 11.9959C10.6499 12.2199 10.7665 12.4952 10.7665 12.8219C10.7665 13.1486 10.6499 13.4286 10.4165 13.6619C10.1832 13.8952 9.90321 14.0119 9.57655 14.0119ZM15.2996 14.0679C14.7116 14.0679 14.1749 13.9559 13.6896 13.7319C13.2043 13.4986 12.8123 13.1766 12.5136 12.7659C12.2243 12.3459 12.0609 11.8746 12.0236 11.3519H13.6476C13.6756 11.7532 13.8483 12.0706 14.1656 12.3039C14.4829 12.5279 14.8703 12.6399 15.3276 12.6399C15.9063 12.6399 16.3589 12.4626 16.6856 12.1079C17.0216 11.7532 17.1896 11.2772 17.1896 10.6799C17.1896 10.0919 17.0356 9.62057 16.7276 9.2659C16.4289 8.91124 16.0229 8.7339 15.5096 8.7339C15.0429 8.7339 14.6603 8.82257 14.3616 8.9999C14.0629 9.1679 13.8296 9.4479 13.6616 9.8399H12.1916V4.3799H18.1696V5.8079H13.6476V8.2719C14.1329 7.7119 14.8283 7.4319 15.7336 7.4319C16.3403 7.4319 16.8676 7.56724 17.3156 7.8379C17.7729 8.09924 18.1229 8.47257 18.3656 8.9579C18.6083 9.4339 18.7296 9.98924 18.7296 10.6239C18.7296 11.2586 18.5896 11.8419 18.3096 12.3739C18.0296 12.8966 17.6283 13.3119 17.1056 13.6199C16.5923 13.9186 15.9903 14.0679 15.2996 14.0679Z" fill="#E59819"/>
</svg>
